M48
; DRILL file {KiCad 8.0.2} date 2024-05-05T23:04:00-0700
; FORMAT={-:-/ absolute / inch / decimal}
; #@! TF.CreationDate,2024-05-05T23:04:00-07:00
; #@! TF.GenerationSoftware,Kicad,Pcbnew,8.0.2
; #@! TF.FileFunction,NonPlated,1,2,NPTH
FMAT,2
INCH
; #@! TA.AperFunction,NonPlated,NPTH,ComponentDrill
T1C0.0256
; #@! TA.AperFunction,NonPlated,NPTH,ComponentDrill
T2C0.0310
; #@! TA.AperFunction,NonPlated,NPTH,ComponentDrill
T3C0.0610
; #@! TA.AperFunction,NonPlated,NPTH,ComponentDrill
T4C0.0787
; #@! TA.AperFunction,NonPlated,NPTH,ComponentDrill
T5C0.1024
; #@! TA.AperFunction,NonPlated,NPTH,ComponentDrill
T6C0.1575
%
G90
G05
T1
X9.4807Y-2.8024
X9.4807Y-3.0307
T2
X6.7379Y-3.563
X6.7394Y-3.4547
X6.8079Y-3.563
X6.8094Y-3.4547
X6.8579Y-3.563
X6.8594Y-3.4547
X6.9079Y-3.563
X6.9094Y-3.4547
X7.2744Y-3.563
X7.276Y-3.4547
X7.3244Y-3.563
X7.326Y-3.4547
X7.3744Y-3.563
X7.376Y-3.4547
X7.4244Y-3.563
X7.426Y-3.4547
X7.4744Y-3.563
X7.476Y-3.4547
X7.8846Y-3.563
X7.8862Y-3.4547
X7.9346Y-3.563
X7.9362Y-3.4547
X7.9846Y-3.563
X7.9862Y-3.4547
X8.0546Y-3.563
X8.0562Y-3.4547
T3
X2.2736Y-4.1657
X2.2736Y-5.5831
X2.2736Y-7.7091
X2.3622Y-6.2917
X2.5394Y-7.0004
X2.628Y-4.8744
X2.6736Y-4.1657
X2.6736Y-5.5831
X2.6736Y-7.7091
X2.7622Y-6.2917
X2.9394Y-7.0004
X2.9823Y-4.1657
X2.9823Y-5.5831
X2.9823Y-7.7091
X3.028Y-4.8744
X3.1594Y-6.2917
X3.3366Y-4.8744
X3.3823Y-4.1657
X3.3823Y-5.5831
X3.3823Y-7.7091
X3.5138Y-7.0004
X3.5594Y-6.2917
X3.6909Y-4.1657
X3.6909Y-5.5831
X3.6909Y-7.7091
X3.7366Y-4.8744
X3.8681Y-6.2917
X3.9138Y-7.0004
X4.0453Y-4.8744
X4.0909Y-4.1657
X4.0909Y-5.5831
X4.0909Y-7.7091
X4.2224Y-7.0004
X4.2681Y-6.2917
X4.3996Y-4.1657
X4.3996Y-5.5831
X4.3996Y-7.7091
X4.4453Y-4.8744
X4.5768Y-6.2917
X4.6224Y-7.0004
X4.7539Y-4.8744
X4.7996Y-4.1657
X4.7996Y-5.5831
X4.7996Y-7.7091
X4.9311Y-7.0004
X4.9768Y-6.2917
X5.1083Y-4.1657
X5.1083Y-5.5831
X5.1539Y-4.8744
X5.2854Y-6.2917
X5.3311Y-7.0004
X5.4626Y-4.8744
X5.5083Y-4.1657
X5.5083Y-5.5831
X5.6398Y-7.0004
X5.6854Y-6.2917
X5.8169Y-4.1657
X5.8169Y-5.5831
X5.8626Y-4.8744
X5.9941Y-6.2917
X6.0398Y-7.0004
X6.1713Y-4.8744
X6.2169Y-4.1657
X6.2169Y-5.5831
X6.3484Y-7.0004
X6.3941Y-6.2917
X6.5256Y-4.1657
X6.5256Y-5.5831
X6.5256Y-7.7091
X6.5713Y-4.8744
X6.7028Y-6.2917
X6.7484Y-7.0004
X6.8799Y-4.8744
X6.9256Y-4.1657
X6.9256Y-5.5831
X6.9256Y-7.7091
X7.0571Y-7.0004
X7.1028Y-6.2917
X7.2343Y-4.1657
X7.2343Y-5.5831
X7.2799Y-4.8744
X7.4114Y-6.2917
X7.4571Y-7.0004
X7.5886Y-4.8744
X7.6343Y-4.1657
X7.6343Y-5.5831
X7.7657Y-7.0004
X7.8114Y-6.2917
X7.9429Y-4.1657
X7.9429Y-5.5831
X7.9886Y-4.8744
X8.1201Y-6.2917
X8.1657Y-7.0004
X8.2972Y-4.8744
X8.3429Y-4.1657
X8.3429Y-5.5831
X8.4744Y-7.0004
X8.5201Y-6.2917
X8.6516Y-4.1657
X8.6516Y-5.5831
X8.6516Y-7.7091
X8.6972Y-4.8744
X8.8287Y-6.2917
X8.8744Y-7.0004
X9.0059Y-4.8744
X9.0516Y-4.1657
X9.0516Y-5.5831
X9.0516Y-7.7091
X9.1831Y-7.0004
X9.2287Y-6.2917
X9.3602Y-4.1657
X9.3602Y-5.5831
X9.3602Y-7.7091
X9.4059Y-4.8744
X9.5374Y-6.2917
X9.5831Y-7.0004
X9.7146Y-4.8744
X9.7602Y-4.1657
X9.7602Y-5.5831
X9.7602Y-7.7091
X9.8524Y-7.0004
X9.9374Y-6.2917
X10.0689Y-4.1657
X10.0689Y-5.5831
X10.0689Y-7.7091
X10.1146Y-4.8744
X10.2461Y-6.2917
X10.2524Y-7.0004
X10.4232Y-4.8744
X10.4689Y-4.1657
X10.4689Y-5.5831
X10.4689Y-7.7091
X10.6102Y-7.0004
X10.6461Y-6.2917
X10.7382Y-4.1657
X10.7382Y-5.5831
X10.7382Y-7.7091
X10.8232Y-4.8744
X11.0102Y-7.0004
X11.1382Y-4.1657
X11.1382Y-5.5831
X11.1382Y-7.7091
X11.1417Y-6.2917
X11.2303Y-4.8744
X11.3681Y-4.1657
X11.3681Y-5.5831
X11.3681Y-7.0004
X11.3681Y-7.7091
X11.5417Y-6.2917
X11.6303Y-4.8744
X11.7681Y-4.1657
X11.7681Y-5.5831
X11.7681Y-7.0004
X11.7681Y-7.7091
X11.998Y-4.1657
X11.998Y-4.8744
X11.998Y-5.5831
X11.998Y-6.2917
X11.998Y-7.0004
X11.998Y-7.7091
X12.398Y-4.1657
X12.398Y-4.8744
X12.398Y-5.5831
X12.398Y-6.2917
X12.398Y-7.0004
X12.398Y-7.7091
T4
X2.326Y-6.8937
X3.1528Y-6.8937
X5.1508Y-7.6024
X8.3004Y-7.6024
X11.0071Y-6.185
X11.6764Y-6.185
T5
X2.4736Y-4.1657
X2.4736Y-5.5831
X2.4736Y-7.7091
X2.5622Y-6.2917
X2.7394Y-7.0004
X2.828Y-4.8744
X3.1823Y-4.1657
X3.1823Y-5.5831
X3.1823Y-7.7091
X3.3594Y-6.2917
X3.5366Y-4.8744
X3.7138Y-7.0004
X3.8909Y-4.1657
X3.8909Y-5.5831
X3.8909Y-7.7091
X4.0681Y-6.2917
X4.2453Y-4.8744
X4.4224Y-7.0004
X4.5996Y-4.1657
X4.5996Y-5.5831
X4.5996Y-7.7091
X4.7768Y-6.2917
X4.9539Y-4.8744
X5.1311Y-7.0004
X5.3083Y-4.1657
X5.3083Y-5.5831
X5.4854Y-6.2917
X5.6626Y-4.8744
X5.8398Y-7.0004
X6.0169Y-4.1657
X6.0169Y-5.5831
X6.1941Y-6.2917
X6.3713Y-4.8744
X6.5484Y-7.0004
X6.7256Y-4.1657
X6.7256Y-5.5831
X6.7256Y-7.7091
X6.9028Y-6.2917
X7.0799Y-4.8744
X7.2571Y-7.0004
X7.4343Y-4.1657
X7.4343Y-5.5831
X7.6114Y-6.2917
X7.7886Y-4.8744
X7.9657Y-7.0004
X8.1429Y-4.1657
X8.1429Y-5.5831
X8.3201Y-6.2917
X8.4972Y-4.8744
X8.6744Y-7.0004
X8.8516Y-4.1657
X8.8516Y-5.5831
X8.8516Y-7.7091
X9.0287Y-6.2917
X9.2059Y-4.8744
X9.3831Y-7.0004
X9.5602Y-4.1657
X9.5602Y-5.5831
X9.5602Y-7.7091
X9.7374Y-6.2917
X9.9146Y-4.8744
X10.0524Y-7.0004
X10.2689Y-4.1657
X10.2689Y-5.5831
X10.2689Y-7.7091
X10.4461Y-6.2917
X10.6232Y-4.8744
X10.8102Y-7.0004
X10.9382Y-4.1657
X10.9382Y-5.5831
X10.9382Y-7.7091
X11.3417Y-6.2917
X11.4303Y-4.8744
X11.5681Y-4.1657
X11.5681Y-5.5831
X11.5681Y-7.0004
X11.5681Y-7.7091
X12.198Y-4.1657
X12.198Y-4.8744
X12.198Y-5.5831
X12.198Y-6.2917
X12.198Y-7.0004
X12.198Y-7.7091
T6
X2.326Y-7.2283
X3.1528Y-7.2283
X5.1508Y-7.937
X8.3004Y-7.937
X11.0071Y-6.5197
X11.6764Y-6.5197
M30
