%TF.GenerationSoftware,KiCad,Pcbnew,8.0.2*%
%TF.CreationDate,2024-05-05T23:04:00-07:00*%
%TF.ProjectId,g84_dropin,6738345f-6472-46f7-9069-6e2e6b696361,rev?*%
%TF.SameCoordinates,Original*%
%TF.FileFunction,Soldermask,Top*%
%TF.FilePolarity,Negative*%
%FSLAX46Y46*%
G04 Gerber Fmt 4.6, Leading zero omitted, Abs format (unit mm)*
G04 Created by KiCad (PCBNEW 8.0.2) date 2024-05-05 23:04:00*
%MOMM*%
%LPD*%
G01*
G04 APERTURE LIST*
G04 Aperture macros list*
%AMRoundRect*
0 Rectangle with rounded corners*
0 $1 Rounding radius*
0 $2 $3 $4 $5 $6 $7 $8 $9 X,Y pos of 4 corners*
0 Add a 4 corners polygon primitive as box body*
4,1,4,$2,$3,$4,$5,$6,$7,$8,$9,$2,$3,0*
0 Add four circle primitives for the rounded corners*
1,1,$1+$1,$2,$3*
1,1,$1+$1,$4,$5*
1,1,$1+$1,$6,$7*
1,1,$1+$1,$8,$9*
0 Add four rect primitives between the rounded corners*
20,1,$1+$1,$2,$3,$4,$5,0*
20,1,$1+$1,$4,$5,$6,$7,0*
20,1,$1+$1,$6,$7,$8,$9,0*
20,1,$1+$1,$8,$9,$2,$3,0*%
G04 Aperture macros list end*
%ADD10R,1.700000X1.700000*%
%ADD11O,1.700000X1.700000*%
%ADD12C,0.670000*%
%ADD13R,1.450000X0.250000*%
%ADD14R,1.450000X0.300000*%
%ADD15RoundRect,0.500000X0.600000X-0.000010X0.600000X0.000010X-0.600000X0.000010X-0.600000X-0.000010X0*%
%ADD16RoundRect,0.500000X0.300000X-0.000010X0.300000X0.000010X-0.300000X0.000010X-0.300000X-0.000010X0*%
%ADD17R,0.700000X1.300000*%
%ADD18C,0.787400*%
%ADD19C,1.550000*%
%ADD20C,2.600000*%
%ADD21C,2.000000*%
%ADD22C,4.000000*%
%ADD23R,1.000000X1.000000*%
%ADD24O,1.000000X1.000000*%
%ADD25R,1.300000X0.700000*%
%ADD26R,1.000000X0.750000*%
G04 APERTURE END LIST*
D10*
%TO.C,J7*%
X158500000Y-59750000D03*
D11*
X161040000Y-59750000D03*
%TD*%
D12*
%TO.C,J6*%
X240810000Y-71180000D03*
X240810000Y-76980000D03*
D13*
X239360000Y-77455000D03*
X239360000Y-76655000D03*
X239360000Y-75330000D03*
X239360000Y-74330000D03*
X239360000Y-73830000D03*
X239360000Y-72830000D03*
X239360000Y-71505000D03*
X239360000Y-70705000D03*
D14*
X239360000Y-70980000D03*
X239360000Y-71780000D03*
D13*
X239360000Y-72330000D03*
X239360000Y-73330000D03*
X239360000Y-74830000D03*
X239360000Y-75830000D03*
D14*
X239360000Y-76380000D03*
X239360000Y-77180000D03*
D15*
X240280000Y-69760000D03*
D16*
X244460000Y-78400000D03*
D15*
X240280000Y-78400000D03*
D16*
X244460000Y-69760000D03*
%TD*%
D17*
%TO.C,R4*%
X233300000Y-72000000D03*
X235200000Y-72000000D03*
%TD*%
%TO.C,R3*%
X233300000Y-76250000D03*
X235200000Y-76250000D03*
%TD*%
D18*
%TO.C,REF1*%
X175500000Y-87750000D03*
X174230000Y-87750000D03*
X172960000Y-87750000D03*
X171182000Y-87750000D03*
%TD*%
%TO.C,REF4*%
X175460000Y-90500000D03*
X174190000Y-90500000D03*
X172920000Y-90500000D03*
X171142000Y-90500000D03*
%TD*%
%TO.C,REF6*%
X200270000Y-90500000D03*
X201540000Y-90500000D03*
X202810000Y-90500000D03*
X204588000Y-90500000D03*
%TD*%
%TO.C,REF3*%
X204628000Y-87750000D03*
X202850000Y-87750000D03*
X201580000Y-87750000D03*
X200310000Y-87750000D03*
%TD*%
%TO.C,REF2*%
X189890000Y-87750000D03*
X188620000Y-87750000D03*
X187350000Y-87750000D03*
X186080000Y-87750000D03*
X184810000Y-87750000D03*
%TD*%
%TO.C,REF5*%
X184770000Y-90500000D03*
X186040000Y-90500000D03*
X187310000Y-90500000D03*
X188580000Y-90500000D03*
X189850000Y-90500000D03*
%TD*%
D19*
%TO.C,SW38*%
X188250000Y-159810000D03*
D20*
X193330000Y-159810000D03*
D19*
X198410000Y-159810000D03*
%TD*%
%TO.C,SW71*%
X255750000Y-141810000D03*
D20*
X260830000Y-141810000D03*
D19*
X265910000Y-141810000D03*
%TD*%
%TO.C,SW34*%
X116250000Y-159810000D03*
D20*
X121330000Y-159810000D03*
D19*
X126410000Y-159810000D03*
%TD*%
%TO.C,SW66*%
X304750000Y-123810000D03*
D20*
X309830000Y-123810000D03*
D19*
X314910000Y-123810000D03*
%TD*%
%TO.C,SW2*%
X75750000Y-105810000D03*
D20*
X80830000Y-105810000D03*
D19*
X85910000Y-105810000D03*
%TD*%
%TO.C,SW20*%
X228750000Y-123810000D03*
D20*
X233830000Y-123810000D03*
D19*
X238910000Y-123810000D03*
%TD*%
%TO.C,SW74*%
X304750000Y-141810000D03*
D20*
X309830000Y-141810000D03*
D19*
X314910000Y-141810000D03*
%TD*%
%TO.C,SW48*%
X197250000Y-177810000D03*
D20*
X202330000Y-177810000D03*
D19*
X207410000Y-177810000D03*
%TD*%
%TO.C,SW10*%
X219750000Y-105810000D03*
D20*
X224830000Y-105810000D03*
D19*
X229910000Y-105810000D03*
%TD*%
%TO.C,SW25*%
X129750000Y-141810000D03*
D20*
X134830000Y-141810000D03*
D19*
X139910000Y-141810000D03*
%TD*%
%TO.C,SW50*%
X233250000Y-177810000D03*
D20*
X238330000Y-177810000D03*
D19*
X243410000Y-177810000D03*
%TD*%
%TO.C,SW82*%
X304750000Y-177810000D03*
D20*
X309830000Y-177810000D03*
D19*
X314910000Y-177810000D03*
%TD*%
%TO.C,SW26*%
X147750000Y-141810000D03*
D20*
X152830000Y-141810000D03*
D19*
X157910000Y-141810000D03*
%TD*%
%TO.C,SW15*%
X138750000Y-123810000D03*
D20*
X143830000Y-123810000D03*
D19*
X148910000Y-123810000D03*
%TD*%
%TO.C,SW9*%
X201750000Y-105810000D03*
D20*
X206830000Y-105810000D03*
D19*
X211910000Y-105810000D03*
%TD*%
%TO.C,SW81*%
X288750000Y-177810000D03*
D20*
X293830000Y-177810000D03*
D19*
X298910000Y-177810000D03*
%TD*%
%TO.C,SW52*%
X75750000Y-195810000D03*
D20*
X80830000Y-195810000D03*
D19*
X85910000Y-195810000D03*
%TD*%
%TO.C,SW3*%
X93750000Y-105810000D03*
D20*
X98830000Y-105810000D03*
D19*
X103910000Y-105810000D03*
%TD*%
%TO.C,SW32*%
X80250000Y-159810000D03*
D20*
X85330000Y-159810000D03*
D19*
X90410000Y-159810000D03*
%TD*%
%TO.C,SW36*%
X152250000Y-159810000D03*
D20*
X157330000Y-159810000D03*
D19*
X162410000Y-159810000D03*
%TD*%
%TO.C,SW80*%
X269500000Y-177810000D03*
D20*
X274580000Y-177810000D03*
D19*
X279660000Y-177810000D03*
%TD*%
%TO.C,SW68*%
X264750000Y-123810000D03*
D20*
X269830000Y-123810000D03*
D19*
X274910000Y-123810000D03*
%TD*%
%TO.C,SW69*%
X246750000Y-123810000D03*
D20*
X251830000Y-123810000D03*
D19*
X256910000Y-123810000D03*
%TD*%
%TO.C,SW40*%
X224250000Y-159810000D03*
D20*
X229330000Y-159810000D03*
D19*
X234410000Y-159810000D03*
%TD*%
%TO.C,SW79*%
X250250000Y-177810000D03*
D20*
X255330000Y-177810000D03*
D19*
X260410000Y-177810000D03*
%TD*%
%TO.C,SW23*%
X93750000Y-141810000D03*
D20*
X98830000Y-141810000D03*
D19*
X103910000Y-141810000D03*
%TD*%
D17*
%TO.C,LED1*%
X263700000Y-91750000D03*
X261800000Y-91750000D03*
%TD*%
D19*
%TO.C,SW60*%
X288750000Y-195810000D03*
D20*
X293830000Y-195810000D03*
D19*
X298910000Y-195810000D03*
%TD*%
%TO.C,SW22*%
X75750000Y-141810000D03*
D20*
X80830000Y-141810000D03*
D19*
X85910000Y-141810000D03*
%TD*%
%TO.C,SW1*%
X57750000Y-105810000D03*
D20*
X62830000Y-105810000D03*
D19*
X67910000Y-105810000D03*
%TD*%
D21*
%TO.C,SW55*%
X130830000Y-193100000D03*
D22*
X130830000Y-201600000D03*
D19*
X165750000Y-195810000D03*
D20*
X170830000Y-195810000D03*
D19*
X175910000Y-195810000D03*
D21*
X210830000Y-193100000D03*
D22*
X210830000Y-201600000D03*
%TD*%
D19*
%TO.C,SW21*%
X57750000Y-141810000D03*
D20*
X62830000Y-141810000D03*
D19*
X67910000Y-141810000D03*
%TD*%
%TO.C,SW6*%
X147750000Y-105810000D03*
D20*
X152830000Y-105810000D03*
D19*
X157910000Y-105810000D03*
%TD*%
%TO.C,SW54*%
X111750000Y-195810000D03*
D20*
X116830000Y-195810000D03*
D19*
X121910000Y-195810000D03*
%TD*%
%TO.C,SW63*%
X272750000Y-105810000D03*
D20*
X277830000Y-105810000D03*
D19*
X282910000Y-105810000D03*
%TD*%
%TO.C,SW39*%
X206250000Y-159810000D03*
D20*
X211330000Y-159810000D03*
D19*
X216410000Y-159810000D03*
%TD*%
%TO.C,SW4*%
X111750000Y-105810000D03*
D20*
X116830000Y-105810000D03*
D19*
X121910000Y-105810000D03*
%TD*%
%TO.C,SW8*%
X183750000Y-105810000D03*
D20*
X188830000Y-105810000D03*
D19*
X193910000Y-105810000D03*
%TD*%
%TO.C,SW7*%
X165750000Y-105810000D03*
D20*
X170830000Y-105810000D03*
D19*
X175910000Y-105810000D03*
%TD*%
%TO.C,SW37*%
X170250000Y-159810000D03*
D20*
X175330000Y-159810000D03*
D19*
X180410000Y-159810000D03*
%TD*%
%TO.C,SW45*%
X143250000Y-177810000D03*
D20*
X148330000Y-177810000D03*
D19*
X153410000Y-177810000D03*
%TD*%
%TO.C,SW12*%
X84750000Y-123810000D03*
D20*
X89830000Y-123810000D03*
D19*
X94910000Y-123810000D03*
%TD*%
%TO.C,SW51*%
X57750000Y-195810000D03*
D20*
X62830000Y-195810000D03*
D19*
X67910000Y-195810000D03*
%TD*%
%TO.C,SW77*%
X260250000Y-159810000D03*
D20*
X265330000Y-159810000D03*
D19*
X270410000Y-159810000D03*
%TD*%
%TO.C,SW78*%
X242250000Y-159810000D03*
D20*
X247330000Y-159810000D03*
D19*
X252410000Y-159810000D03*
%TD*%
D21*
%TO.C,SW76*%
X279580000Y-157100000D03*
D22*
X279580000Y-165600000D03*
D19*
X283000000Y-159810000D03*
D20*
X288080000Y-159810000D03*
D19*
X293160000Y-159810000D03*
D21*
X296580000Y-157100000D03*
D22*
X296580000Y-165600000D03*
%TD*%
D19*
%TO.C,SW70*%
X237750000Y-141810000D03*
D20*
X242830000Y-141810000D03*
D19*
X247910000Y-141810000D03*
%TD*%
%TO.C,SW14*%
X120750000Y-123810000D03*
D20*
X125830000Y-123810000D03*
D19*
X130910000Y-123810000D03*
%TD*%
%TO.C,SW35*%
X134250000Y-159810000D03*
D20*
X139330000Y-159810000D03*
D19*
X144410000Y-159810000D03*
%TD*%
%TO.C,SW18*%
X192750000Y-123810000D03*
D20*
X197830000Y-123810000D03*
D19*
X202910000Y-123810000D03*
%TD*%
D17*
%TO.C,LED2*%
X273800000Y-91750000D03*
X275700000Y-91750000D03*
%TD*%
D19*
%TO.C,SW29*%
X201750000Y-141810000D03*
D20*
X206830000Y-141810000D03*
D19*
X211910000Y-141810000D03*
%TD*%
%TO.C,SW65*%
X304750000Y-105810000D03*
D20*
X309830000Y-105810000D03*
D19*
X314910000Y-105810000D03*
%TD*%
%TO.C,SW16*%
X156750000Y-123810000D03*
D20*
X161830000Y-123810000D03*
D19*
X166910000Y-123810000D03*
%TD*%
D10*
%TO.C,J3*%
X221500000Y-66130000D03*
D11*
X221500000Y-68670000D03*
X221500000Y-71210000D03*
X221500000Y-73750000D03*
X221500000Y-76290000D03*
%TD*%
D21*
%TO.C,SW41*%
X59080000Y-175100000D03*
D22*
X59080000Y-183600000D03*
D19*
X64500000Y-177810000D03*
D20*
X69580000Y-177810000D03*
D19*
X74660000Y-177810000D03*
D21*
X80080000Y-175100000D03*
D22*
X80080000Y-183600000D03*
%TD*%
D19*
%TO.C,SW53*%
X93750000Y-195810000D03*
D20*
X98830000Y-195810000D03*
D19*
X103910000Y-195810000D03*
%TD*%
%TO.C,SW72*%
X272750000Y-141810000D03*
D20*
X277830000Y-141810000D03*
D19*
X282910000Y-141810000D03*
%TD*%
%TO.C,SW47*%
X179250000Y-177810000D03*
D20*
X184330000Y-177810000D03*
D19*
X189410000Y-177810000D03*
%TD*%
%TO.C,SW75*%
X304750000Y-159810000D03*
D20*
X309830000Y-159810000D03*
D19*
X314910000Y-159810000D03*
%TD*%
%TO.C,SW83*%
X304750000Y-195810000D03*
D20*
X309830000Y-195810000D03*
D19*
X314910000Y-195810000D03*
%TD*%
%TO.C,SW31*%
X60000000Y-159810000D03*
D20*
X65080000Y-159810000D03*
D19*
X70160000Y-159810000D03*
%TD*%
%TO.C,SW43*%
X107250000Y-177810000D03*
D20*
X112330000Y-177810000D03*
D19*
X117410000Y-177810000D03*
%TD*%
D23*
%TO.C,J2*%
X227250000Y-71670000D03*
D24*
X227250000Y-72940000D03*
X227250000Y-74210000D03*
X227250000Y-75480000D03*
X227250000Y-76750000D03*
%TD*%
D19*
%TO.C,SW33*%
X98250000Y-159810000D03*
D20*
X103330000Y-159810000D03*
D19*
X108410000Y-159810000D03*
%TD*%
%TO.C,SW19*%
X210750000Y-123810000D03*
D20*
X215830000Y-123810000D03*
D19*
X220910000Y-123810000D03*
%TD*%
%TO.C,SW13*%
X102750000Y-123810000D03*
D20*
X107830000Y-123810000D03*
D19*
X112910000Y-123810000D03*
%TD*%
%TO.C,SW49*%
X215250000Y-177810000D03*
D20*
X220330000Y-177810000D03*
D19*
X225410000Y-177810000D03*
%TD*%
%TO.C,SW27*%
X165750000Y-141810000D03*
D20*
X170830000Y-141810000D03*
D19*
X175910000Y-141810000D03*
%TD*%
%TO.C,SW64*%
X288750000Y-105810000D03*
D20*
X293830000Y-105810000D03*
D19*
X298910000Y-105810000D03*
%TD*%
%TO.C,SW24*%
X111750000Y-141810000D03*
D20*
X116830000Y-141810000D03*
D19*
X121910000Y-141810000D03*
%TD*%
%TO.C,SW30*%
X219750000Y-141810000D03*
D20*
X224830000Y-141810000D03*
D19*
X229910000Y-141810000D03*
%TD*%
%TO.C,SW62*%
X255750000Y-105810000D03*
D20*
X260830000Y-105810000D03*
D19*
X265910000Y-105810000D03*
%TD*%
%TO.C,SW59*%
X272750000Y-195810000D03*
D20*
X277830000Y-195810000D03*
D19*
X282910000Y-195810000D03*
%TD*%
%TO.C,SW11*%
X66750000Y-123810000D03*
D20*
X71830000Y-123810000D03*
D19*
X76910000Y-123810000D03*
%TD*%
%TO.C,SW57*%
X237750000Y-195810000D03*
D20*
X242830000Y-195810000D03*
D19*
X247910000Y-195810000D03*
%TD*%
%TO.C,SW17*%
X174750000Y-123810000D03*
D20*
X179830000Y-123810000D03*
D19*
X184910000Y-123810000D03*
%TD*%
%TO.C,SW5*%
X129750000Y-105810000D03*
D20*
X134830000Y-105810000D03*
D19*
X139910000Y-105810000D03*
%TD*%
%TO.C,SW56*%
X219750000Y-195810000D03*
D20*
X224830000Y-195810000D03*
D19*
X229910000Y-195810000D03*
%TD*%
%TO.C,SW73*%
X288750000Y-141810000D03*
D20*
X293830000Y-141810000D03*
D19*
X298910000Y-141810000D03*
%TD*%
%TO.C,SW61*%
X237750000Y-105810000D03*
D20*
X242830000Y-105810000D03*
D19*
X247910000Y-105810000D03*
%TD*%
%TO.C,SW67*%
X285250000Y-123810000D03*
D20*
X290330000Y-123810000D03*
D19*
X295410000Y-123810000D03*
%TD*%
%TO.C,SW42*%
X89250000Y-177810000D03*
D20*
X94330000Y-177810000D03*
D19*
X99410000Y-177810000D03*
%TD*%
%TO.C,SW28*%
X183750000Y-141810000D03*
D20*
X188830000Y-141810000D03*
D19*
X193910000Y-141810000D03*
%TD*%
%TO.C,SW58*%
X255750000Y-195810000D03*
D20*
X260830000Y-195810000D03*
D19*
X265910000Y-195810000D03*
%TD*%
%TO.C,SW46*%
X161250000Y-177810000D03*
D20*
X166330000Y-177810000D03*
D19*
X171410000Y-177810000D03*
%TD*%
%TO.C,SW44*%
X125250000Y-177810000D03*
D20*
X130330000Y-177810000D03*
D19*
X135410000Y-177810000D03*
%TD*%
D25*
%TO.C,R2*%
X194330000Y-79550000D03*
X194330000Y-81450000D03*
%TD*%
D26*
%TO.C,RST1*%
X156750000Y-67375000D03*
X162750000Y-67375000D03*
X156750000Y-71125000D03*
X162750000Y-71125000D03*
%TD*%
D10*
%TO.C,J1*%
X149250000Y-70040000D03*
D11*
X149250000Y-67500000D03*
%TD*%
D25*
%TO.C,R1*%
X196330000Y-79550000D03*
X196330000Y-81450000D03*
%TD*%
M02*
