%TF.GenerationSoftware,KiCad,Pcbnew,8.0.2*%
%TF.CreationDate,2024-05-05T23:04:00-07:00*%
%TF.ProjectId,g84_dropin,6738345f-6472-46f7-9069-6e2e6b696361,rev?*%
%TF.SameCoordinates,Original*%
%TF.FileFunction,Copper,L1,Top*%
%TF.FilePolarity,Positive*%
%FSLAX46Y46*%
G04 Gerber Fmt 4.6, Leading zero omitted, Abs format (unit mm)*
G04 Created by KiCad (PCBNEW 8.0.2) date 2024-05-05 23:04:00*
%MOMM*%
%LPD*%
G01*
G04 APERTURE LIST*
G04 Aperture macros list*
%AMRoundRect*
0 Rectangle with rounded corners*
0 $1 Rounding radius*
0 $2 $3 $4 $5 $6 $7 $8 $9 X,Y pos of 4 corners*
0 Add a 4 corners polygon primitive as box body*
4,1,4,$2,$3,$4,$5,$6,$7,$8,$9,$2,$3,0*
0 Add four circle primitives for the rounded corners*
1,1,$1+$1,$2,$3*
1,1,$1+$1,$4,$5*
1,1,$1+$1,$6,$7*
1,1,$1+$1,$8,$9*
0 Add four rect primitives between the rounded corners*
20,1,$1+$1,$2,$3,$4,$5,0*
20,1,$1+$1,$4,$5,$6,$7,0*
20,1,$1+$1,$6,$7,$8,$9,0*
20,1,$1+$1,$8,$9,$2,$3,0*%
G04 Aperture macros list end*
%TA.AperFunction,ComponentPad*%
%ADD10C,1.752600*%
%TD*%
%TA.AperFunction,ComponentPad*%
%ADD11O,1.000000X2.000000*%
%TD*%
%TA.AperFunction,ComponentPad*%
%ADD12R,1.700000X1.700000*%
%TD*%
%TA.AperFunction,ComponentPad*%
%ADD13O,1.700000X1.700000*%
%TD*%
%TA.AperFunction,SMDPad,CuDef*%
%ADD14R,1.450000X0.250000*%
%TD*%
%TA.AperFunction,SMDPad,CuDef*%
%ADD15R,1.450000X0.300000*%
%TD*%
%TA.AperFunction,ComponentPad*%
%ADD16RoundRect,0.500000X0.600000X-0.000010X0.600000X0.000010X-0.600000X0.000010X-0.600000X-0.000010X0*%
%TD*%
%TA.AperFunction,ComponentPad*%
%ADD17RoundRect,0.500000X0.300000X-0.000010X0.300000X0.000010X-0.300000X0.000010X-0.300000X-0.000010X0*%
%TD*%
%TA.AperFunction,SMDPad,CuDef*%
%ADD18R,0.700000X1.300000*%
%TD*%
%TA.AperFunction,ComponentPad*%
%ADD19C,2.000000*%
%TD*%
%TA.AperFunction,ComponentPad*%
%ADD20R,1.000000X1.000000*%
%TD*%
%TA.AperFunction,ComponentPad*%
%ADD21O,1.000000X1.000000*%
%TD*%
%TA.AperFunction,SMDPad,CuDef*%
%ADD22R,1.300000X0.700000*%
%TD*%
%TA.AperFunction,SMDPad,CuDef*%
%ADD23R,1.000000X0.750000*%
%TD*%
%TA.AperFunction,Conductor*%
%ADD24C,0.200000*%
%TD*%
G04 APERTURE END LIST*
D10*
%TO.P,U1,1,TX0/P0.06*%
%TO.N,R9*%
X200720000Y-61130000D03*
%TO.P,U1,2,RX1/P0.08*%
%TO.N,R8*%
X198180000Y-61130000D03*
%TO.P,U1,3,GND*%
%TO.N,GND*%
X195640000Y-61130000D03*
%TO.P,U1,4,GND*%
X193100000Y-61130000D03*
%TO.P,U1,5,P0.17*%
%TO.N,R7*%
X190560000Y-61130000D03*
%TO.P,U1,6,P0.20*%
%TO.N,R6*%
X188020000Y-61130000D03*
%TO.P,U1,7,P0.22*%
%TO.N,R5*%
X185480000Y-61130000D03*
%TO.P,U1,8,P0.24*%
%TO.N,R4*%
X182940000Y-61130000D03*
%TO.P,U1,9,P1.00*%
%TO.N,R3*%
X180400000Y-61130000D03*
%TO.P,U1,10,P0.11*%
%TO.N,R2*%
X177860000Y-61130000D03*
%TO.P,U1,11,P1.04*%
%TO.N,R1*%
X175320000Y-61130000D03*
%TO.P,U1,12,P1.06*%
%TO.N,NUM*%
X172780000Y-61130000D03*
%TO.P,U1,13,NFC1/P0.09*%
%TO.N,C3*%
X172780000Y-76370000D03*
%TO.P,U1,14,NFC2/P0.10*%
%TO.N,C4*%
X175320000Y-76370000D03*
%TO.P,U1,15,P1.11*%
%TO.N,C5*%
X177860000Y-76370000D03*
%TO.P,U1,16,P1.13*%
%TO.N,C6*%
X180400000Y-76370000D03*
%TO.P,U1,17,P1.15*%
%TO.N,C7*%
X182940000Y-76370000D03*
%TO.P,U1,18,AIN0/P0.02*%
%TO.N,C8*%
X185480000Y-76370000D03*
%TO.P,U1,19,AIN5/P0.29*%
%TO.N,C9*%
X188020000Y-76370000D03*
%TO.P,U1,20,AIN7/P0.31*%
%TO.N,C10*%
X190560000Y-76370000D03*
%TO.P,U1,21,VCC*%
%TO.N,unconnected-(U1-VCC-Pad21)*%
X193100000Y-76370000D03*
%TO.P,U1,22,RST*%
%TO.N,RST*%
X195640000Y-76370000D03*
%TO.P,U1,23,GND*%
%TO.N,GND*%
X198180000Y-76370000D03*
%TO.P,U1,24,BATIN/P0.04*%
%TO.N,+3.7V*%
X200720000Y-76370000D03*
%TO.P,U1,31,P1.01*%
%TO.N,CAPS*%
X177860000Y-63670000D03*
X175955000Y-64305000D03*
%TO.P,U1,32,P1.02*%
%TO.N,C1*%
X177860000Y-66210000D03*
X175955000Y-66845000D03*
%TO.P,U1,33,P1.07*%
%TO.N,C2*%
X177860000Y-68750000D03*
X175955000Y-69385000D03*
%TD*%
D11*
%TO.P,J4,1,Pin_1*%
%TO.N,C1*%
X170710000Y-83250000D03*
%TO.P,J4,2,Pin_2*%
%TO.N,C2*%
X171980000Y-83250000D03*
%TO.P,J4,3,Pin_3*%
%TO.N,C3*%
X173250000Y-83250000D03*
%TO.P,J4,4,Pin_4*%
%TO.N,C4*%
X174520000Y-83250000D03*
%TO.P,J4,5,Pin_5*%
%TO.N,C5*%
X175790000Y-83250000D03*
%TO.P,J4,6,Pin_6*%
%TO.N,C6*%
X177060000Y-83250000D03*
%TO.P,J4,7,Pin_7*%
%TO.N,C7*%
X178330000Y-83250000D03*
%TO.P,J4,8,Pin_8*%
%TO.N,C8*%
X179600000Y-83250000D03*
%TO.P,J4,9,Pin_9*%
%TO.N,C9*%
X180870000Y-83250000D03*
%TO.P,J4,10,Pin_10*%
%TO.N,C10*%
X182140000Y-83250000D03*
%TO.P,J4,11,Pin_11*%
%TO.N,R1*%
X183410000Y-83250000D03*
%TO.P,J4,12,Pin_12*%
%TO.N,R2*%
X184680000Y-83250000D03*
%TO.P,J4,13,Pin_13*%
%TO.N,R3*%
X185950000Y-83250000D03*
%TO.P,J4,14,Pin_14*%
%TO.N,R4*%
X187220000Y-83250000D03*
%TO.P,J4,15,Pin_15*%
%TO.N,R5*%
X188490000Y-83250000D03*
%TO.P,J4,16,Pin_16*%
%TO.N,R6*%
X189760000Y-83250000D03*
%TO.P,J4,17,Pin_17*%
%TO.N,R7*%
X191030000Y-83250000D03*
%TO.P,J4,18,Pin_18*%
%TO.N,R8*%
X192300000Y-83250000D03*
%TO.P,J4,19,Pin_19*%
%TO.N,R9*%
X193570000Y-83250000D03*
%TO.P,J4,20,Pin_20*%
%TO.N,Net-(J4-Pin_20)*%
X194840000Y-83250000D03*
%TO.P,J4,21,Pin_21*%
%TO.N,Net-(J4-Pin_21)*%
X196110000Y-83250000D03*
%TO.P,J4,22,Pin_22*%
%TO.N,GND*%
X197380000Y-83250000D03*
%TO.P,J4,23,Pin_23*%
X198650000Y-83250000D03*
%TO.P,J4,24,Pin_24*%
X199920000Y-83250000D03*
%TO.P,J4,25,Pin_25*%
X201190000Y-83250000D03*
%TO.P,J4,26,Pin_26*%
X202460000Y-83250000D03*
%TO.P,J4,27,Pin_27*%
X203730000Y-83250000D03*
%TO.P,J4,28,Pin_28*%
X205000000Y-83250000D03*
%TD*%
%TO.P,J5,28,Pin_28*%
%TO.N,GND*%
X205040000Y-95250000D03*
%TO.P,J5,27,Pin_27*%
X203770000Y-95250000D03*
%TO.P,J5,26,Pin_26*%
X202500000Y-95250000D03*
%TO.P,J5,25,Pin_25*%
X201230000Y-95250000D03*
%TO.P,J5,24,Pin_24*%
X199960000Y-95250000D03*
%TO.P,J5,23,Pin_23*%
X198690000Y-95250000D03*
%TO.P,J5,22,Pin_22*%
X197420000Y-95250000D03*
%TO.P,J5,21,Pin_21*%
%TO.N,Net-(J5-Pin_21)*%
X196150000Y-95250000D03*
%TO.P,J5,20,Pin_20*%
%TO.N,Net-(J5-Pin_20)*%
X194880000Y-95250000D03*
%TO.P,J5,19,Pin_19*%
%TO.N,R9*%
X193610000Y-95250000D03*
%TO.P,J5,18,Pin_18*%
%TO.N,R8*%
X192340000Y-95250000D03*
%TO.P,J5,17,Pin_17*%
%TO.N,R7*%
X191070000Y-95250000D03*
%TO.P,J5,16,Pin_16*%
%TO.N,R6*%
X189800000Y-95250000D03*
%TO.P,J5,15,Pin_15*%
%TO.N,R5*%
X188530000Y-95250000D03*
%TO.P,J5,14,Pin_14*%
%TO.N,R4*%
X187260000Y-95250000D03*
%TO.P,J5,13,Pin_13*%
%TO.N,R3*%
X185990000Y-95250000D03*
%TO.P,J5,12,Pin_12*%
%TO.N,R2*%
X184720000Y-95250000D03*
%TO.P,J5,11,Pin_11*%
%TO.N,R1*%
X183450000Y-95250000D03*
%TO.P,J5,10,Pin_10*%
%TO.N,C10*%
X182180000Y-95250000D03*
%TO.P,J5,9,Pin_9*%
%TO.N,C9*%
X180910000Y-95250000D03*
%TO.P,J5,8,Pin_8*%
%TO.N,C8*%
X179640000Y-95250000D03*
%TO.P,J5,7,Pin_7*%
%TO.N,C7*%
X178370000Y-95250000D03*
%TO.P,J5,6,Pin_6*%
%TO.N,C6*%
X177100000Y-95250000D03*
%TO.P,J5,5,Pin_5*%
%TO.N,C5*%
X175830000Y-95250000D03*
%TO.P,J5,4,Pin_4*%
%TO.N,C4*%
X174560000Y-95250000D03*
%TO.P,J5,3,Pin_3*%
%TO.N,C3*%
X173290000Y-95250000D03*
%TO.P,J5,2,Pin_2*%
%TO.N,C2*%
X172020000Y-95250000D03*
%TO.P,J5,1,Pin_1*%
%TO.N,C1*%
X170750000Y-95250000D03*
%TD*%
D12*
%TO.P,J7,1,Pin_1*%
%TO.N,Net-(J1-Pin_2)*%
X158500000Y-59750000D03*
D13*
%TO.P,J7,2,Pin_2*%
%TO.N,+3.7V*%
X161040000Y-59750000D03*
%TD*%
D14*
%TO.P,J6,A1,GND*%
%TO.N,GND*%
X239360000Y-77455000D03*
%TO.P,J6,A4,VBUS*%
%TO.N,VBUS*%
X239360000Y-76655000D03*
%TO.P,J6,A5,CC1*%
%TO.N,Net-(J6-CC1)*%
X239360000Y-75330000D03*
%TO.P,J6,A6,D+*%
%TO.N,D+*%
X239360000Y-74330000D03*
%TO.P,J6,A7,D-*%
%TO.N,D-*%
X239360000Y-73830000D03*
%TO.P,J6,A8*%
%TO.N,N/C*%
X239360000Y-72830000D03*
%TO.P,J6,A9,VBUS*%
%TO.N,VBUS*%
X239360000Y-71505000D03*
%TO.P,J6,A12,GND*%
%TO.N,GND*%
X239360000Y-70705000D03*
D15*
%TO.P,J6,B1,GND*%
X239360000Y-70980000D03*
%TO.P,J6,B4,VBUS*%
%TO.N,VBUS*%
X239360000Y-71780000D03*
D14*
%TO.P,J6,B5,CC2*%
%TO.N,Net-(J6-CC2)*%
X239360000Y-72330000D03*
%TO.P,J6,B6,D+*%
%TO.N,D+*%
X239360000Y-73330000D03*
%TO.P,J6,B7,D-*%
%TO.N,D-*%
X239360000Y-74830000D03*
%TO.P,J6,B8*%
%TO.N,N/C*%
X239360000Y-75830000D03*
D15*
%TO.P,J6,B9,VBUS*%
%TO.N,VBUS*%
X239360000Y-76380000D03*
%TO.P,J6,B12,GND*%
%TO.N,GND*%
X239360000Y-77180000D03*
D16*
%TO.P,J6,S1,SHIELD*%
%TO.N,unconnected-(J6-SHIELD-PadS1)_0*%
X240280000Y-69760000D03*
D17*
%TO.N,unconnected-(J6-SHIELD-PadS1)_2*%
X244460000Y-78400000D03*
D16*
%TO.N,unconnected-(J6-SHIELD-PadS1)_1*%
X240280000Y-78400000D03*
D17*
%TO.N,unconnected-(J6-SHIELD-PadS1)*%
X244460000Y-69760000D03*
%TD*%
D18*
%TO.P,R4,2*%
%TO.N,GND*%
X233300000Y-72000000D03*
%TO.P,R4,1*%
%TO.N,Net-(J6-CC2)*%
X235200000Y-72000000D03*
%TD*%
%TO.P,R3,2*%
%TO.N,GND*%
X233300000Y-76250000D03*
%TO.P,R3,1*%
%TO.N,Net-(J6-CC1)*%
X235200000Y-76250000D03*
%TD*%
D19*
%TO.P,SW38,1*%
%TO.N,C8*%
X193330000Y-156000000D03*
%TO.P,SW38,2*%
%TO.N,Net-(D38-A)*%
X193330000Y-164890000D03*
%TO.P,SW38,3*%
%TO.N,unconnected-(SW38-Pad3)*%
X188250000Y-156000000D03*
%TO.P,SW38,4*%
%TO.N,unconnected-(SW38-Pad4)*%
X198410000Y-156000000D03*
%TD*%
%TO.P,SW71,1*%
%TO.N,C1*%
X260830000Y-138000000D03*
%TO.P,SW71,2*%
%TO.N,Net-(D71-A)*%
X260830000Y-146890000D03*
%TO.P,SW71,3*%
%TO.N,unconnected-(SW71-Pad3)*%
X255750000Y-138000000D03*
%TO.P,SW71,4*%
%TO.N,unconnected-(SW71-Pad4)*%
X265910000Y-138000000D03*
%TD*%
%TO.P,SW34,1*%
%TO.N,C4*%
X121330000Y-156000000D03*
%TO.P,SW34,2*%
%TO.N,Net-(D34-A)*%
X121330000Y-164890000D03*
%TO.P,SW34,3*%
%TO.N,unconnected-(SW34-Pad3)*%
X116250000Y-156000000D03*
%TO.P,SW34,4*%
%TO.N,unconnected-(SW34-Pad4)*%
X126410000Y-156000000D03*
%TD*%
%TO.P,SW66,1*%
%TO.N,C6*%
X309830000Y-120000000D03*
%TO.P,SW66,2*%
%TO.N,Net-(D66-A)*%
X309830000Y-128890000D03*
%TO.P,SW66,3*%
%TO.N,unconnected-(SW66-Pad3)*%
X304750000Y-120000000D03*
%TO.P,SW66,4*%
%TO.N,unconnected-(SW66-Pad4)*%
X314910000Y-120000000D03*
%TD*%
%TO.P,SW2,1*%
%TO.N,C2*%
X80830000Y-102000000D03*
%TO.P,SW2,2*%
%TO.N,Net-(D2-A)*%
X80830000Y-110890000D03*
%TO.P,SW2,3*%
%TO.N,unconnected-(SW2-Pad3)*%
X75750000Y-102000000D03*
%TO.P,SW2,4*%
%TO.N,unconnected-(SW2-Pad4)*%
X85910000Y-102000000D03*
%TD*%
%TO.P,SW20,1*%
%TO.N,C10*%
X233830000Y-120000000D03*
%TO.P,SW20,2*%
%TO.N,Net-(D20-A)*%
X233830000Y-128890000D03*
%TO.P,SW20,3*%
%TO.N,unconnected-(SW20-Pad3)*%
X228750000Y-120000000D03*
%TO.P,SW20,4*%
%TO.N,unconnected-(SW20-Pad4)*%
X238910000Y-120000000D03*
%TD*%
%TO.P,SW74,1*%
%TO.N,C4*%
X309830000Y-138000000D03*
%TO.P,SW74,2*%
%TO.N,Net-(D74-A)*%
X309830000Y-146890000D03*
%TO.P,SW74,3*%
%TO.N,unconnected-(SW74-Pad3)*%
X304750000Y-138000000D03*
%TO.P,SW74,4*%
%TO.N,unconnected-(SW74-Pad4)*%
X314910000Y-138000000D03*
%TD*%
%TO.P,SW48,1*%
%TO.N,C8*%
X202330000Y-174000000D03*
%TO.P,SW48,2*%
%TO.N,Net-(D48-A)*%
X202330000Y-182890000D03*
%TO.P,SW48,3*%
%TO.N,unconnected-(SW48-Pad3)*%
X197250000Y-174000000D03*
%TO.P,SW48,4*%
%TO.N,unconnected-(SW48-Pad4)*%
X207410000Y-174000000D03*
%TD*%
%TO.P,SW10,1*%
%TO.N,C10*%
X224830000Y-102000000D03*
%TO.P,SW10,2*%
%TO.N,Net-(D10-A)*%
X224830000Y-110890000D03*
%TO.P,SW10,3*%
%TO.N,unconnected-(SW10-Pad3)*%
X219750000Y-102000000D03*
%TO.P,SW10,4*%
%TO.N,unconnected-(SW10-Pad4)*%
X229910000Y-102000000D03*
%TD*%
%TO.P,SW25,1*%
%TO.N,C5*%
X134830000Y-138000000D03*
%TO.P,SW25,2*%
%TO.N,Net-(D25-A)*%
X134830000Y-146890000D03*
%TO.P,SW25,3*%
%TO.N,unconnected-(SW25-Pad3)*%
X129750000Y-138000000D03*
%TO.P,SW25,4*%
%TO.N,unconnected-(SW25-Pad4)*%
X139910000Y-138000000D03*
%TD*%
%TO.P,SW50,1*%
%TO.N,C10*%
X238330000Y-174000000D03*
%TO.P,SW50,2*%
%TO.N,Net-(D50-A)*%
X238330000Y-182890000D03*
%TO.P,SW50,3*%
%TO.N,unconnected-(SW50-Pad3)*%
X233250000Y-174000000D03*
%TO.P,SW50,4*%
%TO.N,unconnected-(SW50-Pad4)*%
X243410000Y-174000000D03*
%TD*%
%TO.P,SW82,1*%
%TO.N,C2*%
X309830000Y-174000000D03*
%TO.P,SW82,2*%
%TO.N,Net-(D82-A)*%
X309830000Y-182890000D03*
%TO.P,SW82,3*%
%TO.N,unconnected-(SW82-Pad3)*%
X304750000Y-174000000D03*
%TO.P,SW82,4*%
%TO.N,unconnected-(SW82-Pad4)*%
X314910000Y-174000000D03*
%TD*%
%TO.P,SW26,1*%
%TO.N,C6*%
X152830000Y-138000000D03*
%TO.P,SW26,2*%
%TO.N,Net-(D26-A)*%
X152830000Y-146890000D03*
%TO.P,SW26,3*%
%TO.N,unconnected-(SW26-Pad3)*%
X147750000Y-138000000D03*
%TO.P,SW26,4*%
%TO.N,unconnected-(SW26-Pad4)*%
X157910000Y-138000000D03*
%TD*%
%TO.P,SW15,1*%
%TO.N,C5*%
X143830000Y-120000000D03*
%TO.P,SW15,2*%
%TO.N,Net-(D15-A)*%
X143830000Y-128890000D03*
%TO.P,SW15,3*%
%TO.N,unconnected-(SW15-Pad3)*%
X138750000Y-120000000D03*
%TO.P,SW15,4*%
%TO.N,unconnected-(SW15-Pad4)*%
X148910000Y-120000000D03*
%TD*%
%TO.P,SW9,1*%
%TO.N,C9*%
X206830000Y-102000000D03*
%TO.P,SW9,2*%
%TO.N,Net-(D9-A)*%
X206830000Y-110890000D03*
%TO.P,SW9,3*%
%TO.N,unconnected-(SW9-Pad3)*%
X201750000Y-102000000D03*
%TO.P,SW9,4*%
%TO.N,unconnected-(SW9-Pad4)*%
X211910000Y-102000000D03*
%TD*%
%TO.P,SW81,1*%
%TO.N,C1*%
X293830000Y-174000000D03*
%TO.P,SW81,2*%
%TO.N,Net-(D81-A)*%
X293830000Y-182890000D03*
%TO.P,SW81,3*%
%TO.N,unconnected-(SW81-Pad3)*%
X288750000Y-174000000D03*
%TO.P,SW81,4*%
%TO.N,unconnected-(SW81-Pad4)*%
X298910000Y-174000000D03*
%TD*%
%TO.P,SW52,1*%
%TO.N,C2*%
X80830000Y-192000000D03*
%TO.P,SW52,2*%
%TO.N,Net-(D52-A)*%
X80830000Y-200890000D03*
%TO.P,SW52,3*%
%TO.N,unconnected-(SW52-Pad3)*%
X75750000Y-192000000D03*
%TO.P,SW52,4*%
%TO.N,unconnected-(SW52-Pad4)*%
X85910000Y-192000000D03*
%TD*%
%TO.P,SW3,1*%
%TO.N,C3*%
X98830000Y-102000000D03*
%TO.P,SW3,2*%
%TO.N,Net-(D3-A)*%
X98830000Y-110890000D03*
%TO.P,SW3,3*%
%TO.N,unconnected-(SW3-Pad3)*%
X93750000Y-102000000D03*
%TO.P,SW3,4*%
%TO.N,unconnected-(SW3-Pad4)*%
X103910000Y-102000000D03*
%TD*%
%TO.P,SW32,1*%
%TO.N,C2*%
X85330000Y-156000000D03*
%TO.P,SW32,2*%
%TO.N,Net-(D32-A)*%
X85330000Y-164890000D03*
%TO.P,SW32,3*%
%TO.N,unconnected-(SW32-Pad3)*%
X80250000Y-156000000D03*
%TO.P,SW32,4*%
%TO.N,unconnected-(SW32-Pad4)*%
X90410000Y-156000000D03*
%TD*%
%TO.P,SW36,1*%
%TO.N,C6*%
X157330000Y-156000000D03*
%TO.P,SW36,2*%
%TO.N,Net-(D36-A)*%
X157330000Y-164890000D03*
%TO.P,SW36,3*%
%TO.N,unconnected-(SW36-Pad3)*%
X152250000Y-156000000D03*
%TO.P,SW36,4*%
%TO.N,unconnected-(SW36-Pad4)*%
X162410000Y-156000000D03*
%TD*%
%TO.P,SW80,1*%
%TO.N,C10*%
X274580000Y-174000000D03*
%TO.P,SW80,2*%
%TO.N,Net-(D80-A)*%
X274580000Y-182890000D03*
%TO.P,SW80,3*%
%TO.N,unconnected-(SW80-Pad3)*%
X269500000Y-174000000D03*
%TO.P,SW80,4*%
%TO.N,unconnected-(SW80-Pad4)*%
X279660000Y-174000000D03*
%TD*%
%TO.P,SW68,1*%
%TO.N,C8*%
X269830000Y-120000000D03*
%TO.P,SW68,2*%
%TO.N,Net-(D68-A)*%
X269830000Y-128890000D03*
%TO.P,SW68,3*%
%TO.N,unconnected-(SW68-Pad3)*%
X264750000Y-120000000D03*
%TO.P,SW68,4*%
%TO.N,unconnected-(SW68-Pad4)*%
X274910000Y-120000000D03*
%TD*%
%TO.P,SW69,1*%
%TO.N,C9*%
X251830000Y-120000000D03*
%TO.P,SW69,2*%
%TO.N,Net-(D69-A)*%
X251830000Y-128890000D03*
%TO.P,SW69,3*%
%TO.N,unconnected-(SW69-Pad3)*%
X246750000Y-120000000D03*
%TO.P,SW69,4*%
%TO.N,unconnected-(SW69-Pad4)*%
X256910000Y-120000000D03*
%TD*%
%TO.P,SW40,1*%
%TO.N,C10*%
X229330000Y-156000000D03*
%TO.P,SW40,2*%
%TO.N,Net-(D40-A)*%
X229330000Y-164890000D03*
%TO.P,SW40,3*%
%TO.N,unconnected-(SW40-Pad3)*%
X224250000Y-156000000D03*
%TO.P,SW40,4*%
%TO.N,unconnected-(SW40-Pad4)*%
X234410000Y-156000000D03*
%TD*%
%TO.P,SW79,1*%
%TO.N,C9*%
X255330000Y-174000000D03*
%TO.P,SW79,2*%
%TO.N,Net-(D79-A)*%
X255330000Y-182890000D03*
%TO.P,SW79,3*%
%TO.N,unconnected-(SW79-Pad3)*%
X250250000Y-174000000D03*
%TO.P,SW79,4*%
%TO.N,unconnected-(SW79-Pad4)*%
X260410000Y-174000000D03*
%TD*%
%TO.P,SW23,1*%
%TO.N,C3*%
X98830000Y-138000000D03*
%TO.P,SW23,2*%
%TO.N,Net-(D23-A)*%
X98830000Y-146890000D03*
%TO.P,SW23,3*%
%TO.N,unconnected-(SW23-Pad3)*%
X93750000Y-138000000D03*
%TO.P,SW23,4*%
%TO.N,unconnected-(SW23-Pad4)*%
X103910000Y-138000000D03*
%TD*%
D18*
%TO.P,LED1,2,A*%
%TO.N,Net-(J5-Pin_21)*%
X263700000Y-91750000D03*
%TO.P,LED1,1,K*%
%TO.N,GND*%
X261800000Y-91750000D03*
%TD*%
D19*
%TO.P,SW60,1*%
%TO.N,C10*%
X293830000Y-192000000D03*
%TO.P,SW60,2*%
%TO.N,Net-(D60-A)*%
X293830000Y-200890000D03*
%TO.P,SW60,3*%
%TO.N,unconnected-(SW60-Pad3)*%
X288750000Y-192000000D03*
%TO.P,SW60,4*%
%TO.N,unconnected-(SW60-Pad4)*%
X298910000Y-192000000D03*
%TD*%
%TO.P,SW22,1*%
%TO.N,C2*%
X80830000Y-138000000D03*
%TO.P,SW22,2*%
%TO.N,Net-(D22-A)*%
X80830000Y-146890000D03*
%TO.P,SW22,3*%
%TO.N,unconnected-(SW22-Pad3)*%
X75750000Y-138000000D03*
%TO.P,SW22,4*%
%TO.N,unconnected-(SW22-Pad4)*%
X85910000Y-138000000D03*
%TD*%
%TO.P,SW1,1*%
%TO.N,C1*%
X62830000Y-102000000D03*
%TO.P,SW1,2*%
%TO.N,Net-(D1-A)*%
X62830000Y-110890000D03*
%TO.P,SW1,3*%
%TO.N,unconnected-(SW1-Pad3)*%
X57750000Y-102000000D03*
%TO.P,SW1,4*%
%TO.N,unconnected-(SW1-Pad4)*%
X67910000Y-102000000D03*
%TD*%
%TO.P,SW55,1*%
%TO.N,C5*%
X170830000Y-192000000D03*
%TO.P,SW55,2*%
%TO.N,Net-(D55-A)*%
X170830000Y-200890000D03*
%TO.P,SW55,3*%
%TO.N,unconnected-(SW55-Pad3)*%
X165750000Y-192000000D03*
%TO.P,SW55,4*%
%TO.N,unconnected-(SW55-Pad4)*%
X175910000Y-192000000D03*
%TD*%
%TO.P,SW21,1*%
%TO.N,C1*%
X62830000Y-138000000D03*
%TO.P,SW21,2*%
%TO.N,Net-(D21-A)*%
X62830000Y-146890000D03*
%TO.P,SW21,3*%
%TO.N,unconnected-(SW21-Pad3)*%
X57750000Y-138000000D03*
%TO.P,SW21,4*%
%TO.N,unconnected-(SW21-Pad4)*%
X67910000Y-138000000D03*
%TD*%
%TO.P,SW6,1*%
%TO.N,C6*%
X152830000Y-102000000D03*
%TO.P,SW6,2*%
%TO.N,Net-(D6-A)*%
X152830000Y-110890000D03*
%TO.P,SW6,3*%
%TO.N,unconnected-(SW6-Pad3)*%
X147750000Y-102000000D03*
%TO.P,SW6,4*%
%TO.N,unconnected-(SW6-Pad4)*%
X157910000Y-102000000D03*
%TD*%
%TO.P,SW54,1*%
%TO.N,C4*%
X116830000Y-192000000D03*
%TO.P,SW54,2*%
%TO.N,Net-(D54-A)*%
X116830000Y-200890000D03*
%TO.P,SW54,3*%
%TO.N,unconnected-(SW54-Pad3)*%
X111750000Y-192000000D03*
%TO.P,SW54,4*%
%TO.N,unconnected-(SW54-Pad4)*%
X121910000Y-192000000D03*
%TD*%
%TO.P,SW63,1*%
%TO.N,C3*%
X277830000Y-102000000D03*
%TO.P,SW63,2*%
%TO.N,Net-(D63-A)*%
X277830000Y-110890000D03*
%TO.P,SW63,3*%
%TO.N,unconnected-(SW63-Pad3)*%
X272750000Y-102000000D03*
%TO.P,SW63,4*%
%TO.N,unconnected-(SW63-Pad4)*%
X282910000Y-102000000D03*
%TD*%
%TO.P,SW39,1*%
%TO.N,C9*%
X211330000Y-156000000D03*
%TO.P,SW39,2*%
%TO.N,Net-(D39-A)*%
X211330000Y-164890000D03*
%TO.P,SW39,3*%
%TO.N,unconnected-(SW39-Pad3)*%
X206250000Y-156000000D03*
%TO.P,SW39,4*%
%TO.N,unconnected-(SW39-Pad4)*%
X216410000Y-156000000D03*
%TD*%
%TO.P,SW4,1*%
%TO.N,C4*%
X116830000Y-102000000D03*
%TO.P,SW4,2*%
%TO.N,Net-(D4-A)*%
X116830000Y-110890000D03*
%TO.P,SW4,3*%
%TO.N,unconnected-(SW4-Pad3)*%
X111750000Y-102000000D03*
%TO.P,SW4,4*%
%TO.N,unconnected-(SW4-Pad4)*%
X121910000Y-102000000D03*
%TD*%
%TO.P,SW8,1*%
%TO.N,C8*%
X188830000Y-102000000D03*
%TO.P,SW8,2*%
%TO.N,Net-(D8-A)*%
X188830000Y-110890000D03*
%TO.P,SW8,3*%
%TO.N,unconnected-(SW8-Pad3)*%
X183750000Y-102000000D03*
%TO.P,SW8,4*%
%TO.N,unconnected-(SW8-Pad4)*%
X193910000Y-102000000D03*
%TD*%
%TO.P,SW7,1*%
%TO.N,C7*%
X170830000Y-102000000D03*
%TO.P,SW7,2*%
%TO.N,Net-(D7-A)*%
X170830000Y-110890000D03*
%TO.P,SW7,3*%
%TO.N,unconnected-(SW7-Pad3)*%
X165750000Y-102000000D03*
%TO.P,SW7,4*%
%TO.N,unconnected-(SW7-Pad4)*%
X175910000Y-102000000D03*
%TD*%
%TO.P,SW37,1*%
%TO.N,C7*%
X175330000Y-156000000D03*
%TO.P,SW37,2*%
%TO.N,Net-(D37-A)*%
X175330000Y-164890000D03*
%TO.P,SW37,3*%
%TO.N,unconnected-(SW37-Pad3)*%
X170250000Y-156000000D03*
%TO.P,SW37,4*%
%TO.N,unconnected-(SW37-Pad4)*%
X180410000Y-156000000D03*
%TD*%
%TO.P,SW45,1*%
%TO.N,C5*%
X148330000Y-174000000D03*
%TO.P,SW45,2*%
%TO.N,Net-(D45-A)*%
X148330000Y-182890000D03*
%TO.P,SW45,3*%
%TO.N,unconnected-(SW45-Pad3)*%
X143250000Y-174000000D03*
%TO.P,SW45,4*%
%TO.N,unconnected-(SW45-Pad4)*%
X153410000Y-174000000D03*
%TD*%
%TO.P,SW12,1*%
%TO.N,C2*%
X89830000Y-120000000D03*
%TO.P,SW12,2*%
%TO.N,Net-(D12-A)*%
X89830000Y-128890000D03*
%TO.P,SW12,3*%
%TO.N,unconnected-(SW12-Pad3)*%
X84750000Y-120000000D03*
%TO.P,SW12,4*%
%TO.N,unconnected-(SW12-Pad4)*%
X94910000Y-120000000D03*
%TD*%
%TO.P,SW51,1*%
%TO.N,C1*%
X62830000Y-192000000D03*
%TO.P,SW51,2*%
%TO.N,Net-(D51-A)*%
X62830000Y-200890000D03*
%TO.P,SW51,3*%
%TO.N,unconnected-(SW51-Pad3)*%
X57750000Y-192000000D03*
%TO.P,SW51,4*%
%TO.N,unconnected-(SW51-Pad4)*%
X67910000Y-192000000D03*
%TD*%
%TO.P,SW77,1*%
%TO.N,C7*%
X265330000Y-156000000D03*
%TO.P,SW77,2*%
%TO.N,Net-(D77-A)*%
X265330000Y-164890000D03*
%TO.P,SW77,3*%
%TO.N,unconnected-(SW77-Pad3)*%
X260250000Y-156000000D03*
%TO.P,SW77,4*%
%TO.N,unconnected-(SW77-Pad4)*%
X270410000Y-156000000D03*
%TD*%
%TO.P,SW78,1*%
%TO.N,C8*%
X247330000Y-156000000D03*
%TO.P,SW78,2*%
%TO.N,Net-(D78-A)*%
X247330000Y-164890000D03*
%TO.P,SW78,3*%
%TO.N,unconnected-(SW78-Pad3)*%
X242250000Y-156000000D03*
%TO.P,SW78,4*%
%TO.N,unconnected-(SW78-Pad4)*%
X252410000Y-156000000D03*
%TD*%
%TO.P,SW76,1*%
%TO.N,C6*%
X288080000Y-156000000D03*
%TO.P,SW76,2*%
%TO.N,Net-(D76-A)*%
X288080000Y-164890000D03*
%TO.P,SW76,3*%
%TO.N,unconnected-(SW76-Pad3)*%
X283000000Y-156000000D03*
%TO.P,SW76,4*%
%TO.N,unconnected-(SW76-Pad4)*%
X293160000Y-156000000D03*
%TD*%
%TO.P,SW70,1*%
%TO.N,C10*%
X242830000Y-138000000D03*
%TO.P,SW70,2*%
%TO.N,Net-(D70-A)*%
X242830000Y-146890000D03*
%TO.P,SW70,3*%
%TO.N,unconnected-(SW70-Pad3)*%
X237750000Y-138000000D03*
%TO.P,SW70,4*%
%TO.N,unconnected-(SW70-Pad4)*%
X247910000Y-138000000D03*
%TD*%
%TO.P,SW14,1*%
%TO.N,C4*%
X125830000Y-120000000D03*
%TO.P,SW14,2*%
%TO.N,Net-(D14-A)*%
X125830000Y-128890000D03*
%TO.P,SW14,3*%
%TO.N,unconnected-(SW14-Pad3)*%
X120750000Y-120000000D03*
%TO.P,SW14,4*%
%TO.N,unconnected-(SW14-Pad4)*%
X130910000Y-120000000D03*
%TD*%
%TO.P,SW35,1*%
%TO.N,C5*%
X139330000Y-156000000D03*
%TO.P,SW35,2*%
%TO.N,Net-(D35-A)*%
X139330000Y-164890000D03*
%TO.P,SW35,3*%
%TO.N,unconnected-(SW35-Pad3)*%
X134250000Y-156000000D03*
%TO.P,SW35,4*%
%TO.N,unconnected-(SW35-Pad4)*%
X144410000Y-156000000D03*
%TD*%
%TO.P,SW18,1*%
%TO.N,C8*%
X197830000Y-120000000D03*
%TO.P,SW18,2*%
%TO.N,Net-(D18-A)*%
X197830000Y-128890000D03*
%TO.P,SW18,3*%
%TO.N,unconnected-(SW18-Pad3)*%
X192750000Y-120000000D03*
%TO.P,SW18,4*%
%TO.N,unconnected-(SW18-Pad4)*%
X202910000Y-120000000D03*
%TD*%
D18*
%TO.P,LED2,1,K*%
%TO.N,GND*%
X273800000Y-91750000D03*
%TO.P,LED2,2,A*%
%TO.N,Net-(J5-Pin_20)*%
X275700000Y-91750000D03*
%TD*%
D19*
%TO.P,SW29,1*%
%TO.N,C9*%
X206830000Y-138000000D03*
%TO.P,SW29,2*%
%TO.N,Net-(D29-A)*%
X206830000Y-146890000D03*
%TO.P,SW29,3*%
%TO.N,unconnected-(SW29-Pad3)*%
X201750000Y-138000000D03*
%TO.P,SW29,4*%
%TO.N,unconnected-(SW29-Pad4)*%
X211910000Y-138000000D03*
%TD*%
%TO.P,SW65,1*%
%TO.N,C5*%
X309830000Y-102000000D03*
%TO.P,SW65,2*%
%TO.N,Net-(D65-A)*%
X309830000Y-110890000D03*
%TO.P,SW65,3*%
%TO.N,unconnected-(SW65-Pad3)*%
X304750000Y-102000000D03*
%TO.P,SW65,4*%
%TO.N,unconnected-(SW65-Pad4)*%
X314910000Y-102000000D03*
%TD*%
%TO.P,SW16,1*%
%TO.N,C6*%
X161830000Y-120000000D03*
%TO.P,SW16,2*%
%TO.N,Net-(D16-A)*%
X161830000Y-128890000D03*
%TO.P,SW16,3*%
%TO.N,unconnected-(SW16-Pad3)*%
X156750000Y-120000000D03*
%TO.P,SW16,4*%
%TO.N,unconnected-(SW16-Pad4)*%
X166910000Y-120000000D03*
%TD*%
D12*
%TO.P,J3,1,Pin_1*%
%TO.N,GND*%
X221500000Y-66130000D03*
D13*
%TO.P,J3,2,Pin_2*%
%TO.N,D+*%
X221500000Y-68670000D03*
%TO.P,J3,3,Pin_3*%
%TO.N,D-*%
X221500000Y-71210000D03*
%TO.P,J3,4,Pin_4*%
%TO.N,VBUS*%
X221500000Y-73750000D03*
%TO.P,J3,5,Pin_5*%
%TO.N,GND*%
X221500000Y-76290000D03*
%TD*%
D19*
%TO.P,SW41,1*%
%TO.N,C1*%
X69580000Y-174000000D03*
%TO.P,SW41,2*%
%TO.N,Net-(D41-A)*%
X69580000Y-182890000D03*
%TO.P,SW41,3*%
%TO.N,unconnected-(SW41-Pad3)*%
X64500000Y-174000000D03*
%TO.P,SW41,4*%
%TO.N,unconnected-(SW41-Pad4)*%
X74660000Y-174000000D03*
%TD*%
%TO.P,SW53,1*%
%TO.N,C3*%
X98830000Y-192000000D03*
%TO.P,SW53,2*%
%TO.N,Net-(D53-A)*%
X98830000Y-200890000D03*
%TO.P,SW53,3*%
%TO.N,unconnected-(SW53-Pad3)*%
X93750000Y-192000000D03*
%TO.P,SW53,4*%
%TO.N,unconnected-(SW53-Pad4)*%
X103910000Y-192000000D03*
%TD*%
%TO.P,SW72,1*%
%TO.N,C2*%
X277830000Y-138000000D03*
%TO.P,SW72,2*%
%TO.N,Net-(D72-A)*%
X277830000Y-146890000D03*
%TO.P,SW72,3*%
%TO.N,unconnected-(SW72-Pad3)*%
X272750000Y-138000000D03*
%TO.P,SW72,4*%
%TO.N,unconnected-(SW72-Pad4)*%
X282910000Y-138000000D03*
%TD*%
%TO.P,SW47,1*%
%TO.N,C7*%
X184330000Y-174000000D03*
%TO.P,SW47,2*%
%TO.N,Net-(D47-A)*%
X184330000Y-182890000D03*
%TO.P,SW47,3*%
%TO.N,unconnected-(SW47-Pad3)*%
X179250000Y-174000000D03*
%TO.P,SW47,4*%
%TO.N,unconnected-(SW47-Pad4)*%
X189410000Y-174000000D03*
%TD*%
%TO.P,SW75,1*%
%TO.N,C5*%
X309830000Y-156000000D03*
%TO.P,SW75,2*%
%TO.N,Net-(D75-A)*%
X309830000Y-164890000D03*
%TO.P,SW75,3*%
%TO.N,unconnected-(SW75-Pad3)*%
X304750000Y-156000000D03*
%TO.P,SW75,4*%
%TO.N,unconnected-(SW75-Pad4)*%
X314910000Y-156000000D03*
%TD*%
%TO.P,SW83,1*%
%TO.N,C3*%
X309830000Y-192000000D03*
%TO.P,SW83,2*%
%TO.N,Net-(D83-A)*%
X309830000Y-200890000D03*
%TO.P,SW83,3*%
%TO.N,unconnected-(SW83-Pad3)*%
X304750000Y-192000000D03*
%TO.P,SW83,4*%
%TO.N,unconnected-(SW83-Pad4)*%
X314910000Y-192000000D03*
%TD*%
%TO.P,SW31,1*%
%TO.N,C1*%
X65080000Y-156000000D03*
%TO.P,SW31,2*%
%TO.N,Net-(D31-A)*%
X65080000Y-164890000D03*
%TO.P,SW31,3*%
%TO.N,unconnected-(SW31-Pad3)*%
X60000000Y-156000000D03*
%TO.P,SW31,4*%
%TO.N,unconnected-(SW31-Pad4)*%
X70160000Y-156000000D03*
%TD*%
%TO.P,SW43,1*%
%TO.N,C3*%
X112330000Y-174000000D03*
%TO.P,SW43,2*%
%TO.N,Net-(D43-A)*%
X112330000Y-182890000D03*
%TO.P,SW43,3*%
%TO.N,unconnected-(SW43-Pad3)*%
X107250000Y-174000000D03*
%TO.P,SW43,4*%
%TO.N,unconnected-(SW43-Pad4)*%
X117410000Y-174000000D03*
%TD*%
D20*
%TO.P,J2,1,Pin_1*%
%TO.N,GND*%
X227250000Y-71670000D03*
D21*
%TO.P,J2,2,Pin_2*%
%TO.N,D+*%
X227250000Y-72940000D03*
%TO.P,J2,3,Pin_3*%
%TO.N,D-*%
X227250000Y-74210000D03*
%TO.P,J2,4,Pin_4*%
%TO.N,VBUS*%
X227250000Y-75480000D03*
%TO.P,J2,5,Pin_5*%
%TO.N,GND*%
X227250000Y-76750000D03*
%TD*%
D19*
%TO.P,SW33,1*%
%TO.N,C3*%
X103330000Y-156000000D03*
%TO.P,SW33,2*%
%TO.N,Net-(D33-A)*%
X103330000Y-164890000D03*
%TO.P,SW33,3*%
%TO.N,unconnected-(SW33-Pad3)*%
X98250000Y-156000000D03*
%TO.P,SW33,4*%
%TO.N,unconnected-(SW33-Pad4)*%
X108410000Y-156000000D03*
%TD*%
%TO.P,SW19,1*%
%TO.N,C9*%
X215830000Y-120000000D03*
%TO.P,SW19,2*%
%TO.N,Net-(D19-A)*%
X215830000Y-128890000D03*
%TO.P,SW19,3*%
%TO.N,unconnected-(SW19-Pad3)*%
X210750000Y-120000000D03*
%TO.P,SW19,4*%
%TO.N,unconnected-(SW19-Pad4)*%
X220910000Y-120000000D03*
%TD*%
%TO.P,SW13,1*%
%TO.N,C3*%
X107830000Y-120000000D03*
%TO.P,SW13,2*%
%TO.N,Net-(D13-A)*%
X107830000Y-128890000D03*
%TO.P,SW13,3*%
%TO.N,unconnected-(SW13-Pad3)*%
X102750000Y-120000000D03*
%TO.P,SW13,4*%
%TO.N,unconnected-(SW13-Pad4)*%
X112910000Y-120000000D03*
%TD*%
%TO.P,SW49,1*%
%TO.N,C9*%
X220330000Y-174000000D03*
%TO.P,SW49,2*%
%TO.N,Net-(D49-A)*%
X220330000Y-182890000D03*
%TO.P,SW49,3*%
%TO.N,unconnected-(SW49-Pad3)*%
X215250000Y-174000000D03*
%TO.P,SW49,4*%
%TO.N,unconnected-(SW49-Pad4)*%
X225410000Y-174000000D03*
%TD*%
%TO.P,SW27,1*%
%TO.N,C7*%
X170830000Y-138000000D03*
%TO.P,SW27,2*%
%TO.N,Net-(D27-A)*%
X170830000Y-146890000D03*
%TO.P,SW27,3*%
%TO.N,unconnected-(SW27-Pad3)*%
X165750000Y-138000000D03*
%TO.P,SW27,4*%
%TO.N,unconnected-(SW27-Pad4)*%
X175910000Y-138000000D03*
%TD*%
%TO.P,SW64,1*%
%TO.N,C4*%
X293830000Y-102000000D03*
%TO.P,SW64,2*%
%TO.N,Net-(D64-A)*%
X293830000Y-110890000D03*
%TO.P,SW64,3*%
%TO.N,unconnected-(SW64-Pad3)*%
X288750000Y-102000000D03*
%TO.P,SW64,4*%
%TO.N,unconnected-(SW64-Pad4)*%
X298910000Y-102000000D03*
%TD*%
%TO.P,SW24,1*%
%TO.N,C4*%
X116830000Y-138000000D03*
%TO.P,SW24,2*%
%TO.N,Net-(D24-A)*%
X116830000Y-146890000D03*
%TO.P,SW24,3*%
%TO.N,unconnected-(SW24-Pad3)*%
X111750000Y-138000000D03*
%TO.P,SW24,4*%
%TO.N,unconnected-(SW24-Pad4)*%
X121910000Y-138000000D03*
%TD*%
%TO.P,SW30,1*%
%TO.N,C10*%
X224830000Y-138000000D03*
%TO.P,SW30,2*%
%TO.N,Net-(D30-A)*%
X224830000Y-146890000D03*
%TO.P,SW30,3*%
%TO.N,unconnected-(SW30-Pad3)*%
X219750000Y-138000000D03*
%TO.P,SW30,4*%
%TO.N,unconnected-(SW30-Pad4)*%
X229910000Y-138000000D03*
%TD*%
%TO.P,SW62,1*%
%TO.N,C2*%
X260830000Y-102000000D03*
%TO.P,SW62,2*%
%TO.N,Net-(D62-A)*%
X260830000Y-110890000D03*
%TO.P,SW62,3*%
%TO.N,unconnected-(SW62-Pad3)*%
X255750000Y-102000000D03*
%TO.P,SW62,4*%
%TO.N,unconnected-(SW62-Pad4)*%
X265910000Y-102000000D03*
%TD*%
%TO.P,SW59,1*%
%TO.N,C9*%
X277830000Y-192000000D03*
%TO.P,SW59,2*%
%TO.N,Net-(D59-A)*%
X277830000Y-200890000D03*
%TO.P,SW59,3*%
%TO.N,unconnected-(SW59-Pad3)*%
X272750000Y-192000000D03*
%TO.P,SW59,4*%
%TO.N,unconnected-(SW59-Pad4)*%
X282910000Y-192000000D03*
%TD*%
%TO.P,SW11,1*%
%TO.N,C1*%
X71830000Y-120000000D03*
%TO.P,SW11,2*%
%TO.N,Net-(D11-A)*%
X71830000Y-128890000D03*
%TO.P,SW11,3*%
%TO.N,unconnected-(SW11-Pad3)*%
X66750000Y-120000000D03*
%TO.P,SW11,4*%
%TO.N,unconnected-(SW11-Pad4)*%
X76910000Y-120000000D03*
%TD*%
%TO.P,SW57,1*%
%TO.N,C7*%
X242830000Y-192000000D03*
%TO.P,SW57,2*%
%TO.N,Net-(D57-A)*%
X242830000Y-200890000D03*
%TO.P,SW57,3*%
%TO.N,unconnected-(SW57-Pad3)*%
X237750000Y-192000000D03*
%TO.P,SW57,4*%
%TO.N,unconnected-(SW57-Pad4)*%
X247910000Y-192000000D03*
%TD*%
%TO.P,SW17,1*%
%TO.N,C7*%
X179830000Y-120000000D03*
%TO.P,SW17,2*%
%TO.N,Net-(D17-A)*%
X179830000Y-128890000D03*
%TO.P,SW17,3*%
%TO.N,unconnected-(SW17-Pad3)*%
X174750000Y-120000000D03*
%TO.P,SW17,4*%
%TO.N,unconnected-(SW17-Pad4)*%
X184910000Y-120000000D03*
%TD*%
%TO.P,SW5,1*%
%TO.N,C5*%
X134830000Y-102000000D03*
%TO.P,SW5,2*%
%TO.N,Net-(D5-A)*%
X134830000Y-110890000D03*
%TO.P,SW5,3*%
%TO.N,unconnected-(SW5-Pad3)*%
X129750000Y-102000000D03*
%TO.P,SW5,4*%
%TO.N,unconnected-(SW5-Pad4)*%
X139910000Y-102000000D03*
%TD*%
%TO.P,SW56,1*%
%TO.N,C6*%
X224830000Y-192000000D03*
%TO.P,SW56,2*%
%TO.N,Net-(D56-A)*%
X224830000Y-200890000D03*
%TO.P,SW56,3*%
%TO.N,unconnected-(SW56-Pad3)*%
X219750000Y-192000000D03*
%TO.P,SW56,4*%
%TO.N,unconnected-(SW56-Pad4)*%
X229910000Y-192000000D03*
%TD*%
%TO.P,SW73,1*%
%TO.N,C3*%
X293830000Y-138000000D03*
%TO.P,SW73,2*%
%TO.N,Net-(D73-A)*%
X293830000Y-146890000D03*
%TO.P,SW73,3*%
%TO.N,unconnected-(SW73-Pad3)*%
X288750000Y-138000000D03*
%TO.P,SW73,4*%
%TO.N,unconnected-(SW73-Pad4)*%
X298910000Y-138000000D03*
%TD*%
%TO.P,SW61,1*%
%TO.N,C1*%
X242830000Y-102000000D03*
%TO.P,SW61,2*%
%TO.N,Net-(D61-A)*%
X242830000Y-110890000D03*
%TO.P,SW61,3*%
%TO.N,unconnected-(SW61-Pad3)*%
X237750000Y-102000000D03*
%TO.P,SW61,4*%
%TO.N,unconnected-(SW61-Pad4)*%
X247910000Y-102000000D03*
%TD*%
%TO.P,SW67,1*%
%TO.N,C7*%
X290330000Y-120000000D03*
%TO.P,SW67,2*%
%TO.N,Net-(D67-A)*%
X290330000Y-128890000D03*
%TO.P,SW67,3*%
%TO.N,unconnected-(SW67-Pad3)*%
X285250000Y-120000000D03*
%TO.P,SW67,4*%
%TO.N,unconnected-(SW67-Pad4)*%
X295410000Y-120000000D03*
%TD*%
%TO.P,SW42,1*%
%TO.N,C2*%
X94330000Y-174000000D03*
%TO.P,SW42,2*%
%TO.N,Net-(D42-A)*%
X94330000Y-182890000D03*
%TO.P,SW42,3*%
%TO.N,unconnected-(SW42-Pad3)*%
X89250000Y-174000000D03*
%TO.P,SW42,4*%
%TO.N,unconnected-(SW42-Pad4)*%
X99410000Y-174000000D03*
%TD*%
%TO.P,SW28,1*%
%TO.N,C8*%
X188830000Y-138000000D03*
%TO.P,SW28,2*%
%TO.N,Net-(D28-A)*%
X188830000Y-146890000D03*
%TO.P,SW28,3*%
%TO.N,unconnected-(SW28-Pad3)*%
X183750000Y-138000000D03*
%TO.P,SW28,4*%
%TO.N,unconnected-(SW28-Pad4)*%
X193910000Y-138000000D03*
%TD*%
%TO.P,SW58,1*%
%TO.N,C8*%
X260830000Y-192000000D03*
%TO.P,SW58,2*%
%TO.N,Net-(D58-A)*%
X260830000Y-200890000D03*
%TO.P,SW58,3*%
%TO.N,unconnected-(SW58-Pad3)*%
X255750000Y-192000000D03*
%TO.P,SW58,4*%
%TO.N,unconnected-(SW58-Pad4)*%
X265910000Y-192000000D03*
%TD*%
%TO.P,SW46,1*%
%TO.N,C6*%
X166330000Y-174000000D03*
%TO.P,SW46,2*%
%TO.N,Net-(D46-A)*%
X166330000Y-182890000D03*
%TO.P,SW46,3*%
%TO.N,unconnected-(SW46-Pad3)*%
X161250000Y-174000000D03*
%TO.P,SW46,4*%
%TO.N,unconnected-(SW46-Pad4)*%
X171410000Y-174000000D03*
%TD*%
%TO.P,SW44,1*%
%TO.N,C4*%
X130330000Y-174000000D03*
%TO.P,SW44,2*%
%TO.N,Net-(D44-A)*%
X130330000Y-182890000D03*
%TO.P,SW44,3*%
%TO.N,unconnected-(SW44-Pad3)*%
X125250000Y-174000000D03*
%TO.P,SW44,4*%
%TO.N,unconnected-(SW44-Pad4)*%
X135410000Y-174000000D03*
%TD*%
D22*
%TO.P,R2,1*%
%TO.N,NUM*%
X194330000Y-79550000D03*
%TO.P,R2,2*%
%TO.N,Net-(J4-Pin_20)*%
X194330000Y-81450000D03*
%TD*%
D23*
%TO.P,RST1,1,1*%
%TO.N,RST*%
X156750000Y-67375000D03*
X162750000Y-67375000D03*
%TO.P,RST1,2,2*%
%TO.N,GND*%
X156750000Y-71125000D03*
X162750000Y-71125000D03*
%TD*%
D12*
%TO.P,J1,1,Pin_1*%
%TO.N,GND*%
X149250000Y-70040000D03*
D13*
%TO.P,J1,2,Pin_2*%
%TO.N,Net-(J1-Pin_2)*%
X149250000Y-67500000D03*
%TD*%
D22*
%TO.P,R1,1*%
%TO.N,CAPS*%
X196330000Y-79550000D03*
%TO.P,R1,2*%
%TO.N,Net-(J4-Pin_21)*%
X196330000Y-81450000D03*
%TD*%
D24*
%TO.N,GND*%
X205000000Y-83250000D02*
X197380000Y-83250000D01*
%TO.N,Net-(J4-Pin_20)*%
X194840000Y-83250000D02*
X194840000Y-81960000D01*
X194840000Y-81960000D02*
X194330000Y-81450000D01*
%TO.N,Net-(J4-Pin_21)*%
X196110000Y-83250000D02*
X196110000Y-81670000D01*
X196110000Y-81670000D02*
X196330000Y-81450000D01*
%TO.N,C1*%
X170710000Y-83250000D02*
X170710000Y-72090000D01*
X170710000Y-72090000D02*
X175955000Y-66845000D01*
%TO.N,C2*%
X171980000Y-83250000D02*
X171980000Y-77400000D01*
X171603700Y-77023700D02*
X171603700Y-73736300D01*
X171980000Y-77400000D02*
X171603700Y-77023700D01*
X171603700Y-73736300D02*
X175955000Y-69385000D01*
%TO.N,C3*%
X173250000Y-83250000D02*
X173250000Y-76840000D01*
X173250000Y-76840000D02*
X172780000Y-76370000D01*
%TO.N,C4*%
X174520000Y-83250000D02*
X174520000Y-77170000D01*
X174520000Y-77170000D02*
X175320000Y-76370000D01*
%TO.N,C5*%
X175790000Y-83250000D02*
X175790000Y-77563540D01*
X175790000Y-77563540D02*
X176983540Y-76370000D01*
X176983540Y-76370000D02*
X177860000Y-76370000D01*
%TO.N,C6*%
X177060000Y-83250000D02*
X177060000Y-78833540D01*
X177060000Y-78833540D02*
X179523540Y-76370000D01*
X179523540Y-76370000D02*
X180400000Y-76370000D01*
%TO.N,C7*%
X178330000Y-83250000D02*
X178330000Y-79005686D01*
X178330000Y-79005686D02*
X179789386Y-77546300D01*
X182063540Y-76370000D02*
X182940000Y-76370000D01*
X179789386Y-77546300D02*
X180887240Y-77546300D01*
X180887240Y-77546300D02*
X182063540Y-76370000D01*
%TO.N,C8*%
X179600000Y-83250000D02*
X179600000Y-78841986D01*
X183027240Y-77946300D02*
X184603540Y-76370000D01*
X179600000Y-78841986D02*
X180495686Y-77946300D01*
X184603540Y-76370000D02*
X185480000Y-76370000D01*
X180495686Y-77946300D02*
X183027240Y-77946300D01*
%TO.N,C9*%
X180870000Y-83250000D02*
X180870000Y-79460000D01*
X180870000Y-79460000D02*
X181983700Y-78346300D01*
X185167240Y-78346300D02*
X187143540Y-76370000D01*
X187143540Y-76370000D02*
X188020000Y-76370000D01*
X181983700Y-78346300D02*
X185167240Y-78346300D01*
%TO.N,C10*%
X182140000Y-83250000D02*
X182140000Y-79440000D01*
X182140000Y-79440000D02*
X182830000Y-78750000D01*
X182830000Y-78750000D02*
X187303540Y-78750000D01*
X187303540Y-78750000D02*
X189683540Y-76370000D01*
X189683540Y-76370000D02*
X190560000Y-76370000D01*
%TO.N,C2*%
X171980000Y-83250000D02*
X171980000Y-95210000D01*
X171980000Y-95210000D02*
X172020000Y-95250000D01*
%TO.N,GND*%
X261800000Y-91750000D02*
X261800000Y-93084314D01*
X261800000Y-93084314D02*
X256184314Y-98700000D01*
X197420000Y-97920000D02*
X197420000Y-95250000D01*
X256184314Y-98700000D02*
X198200000Y-98700000D01*
X198200000Y-98700000D02*
X197420000Y-97920000D01*
%TO.N,Net-(J5-Pin_21)*%
X263700000Y-91750000D02*
X256350000Y-99100000D01*
X256350000Y-99100000D02*
X197350000Y-99100000D01*
X197350000Y-99100000D02*
X196150000Y-97900000D01*
X196150000Y-97900000D02*
X196150000Y-95250000D01*
%TO.N,Net-(J5-Pin_20)*%
X275700000Y-91750000D02*
X274692157Y-92757843D01*
X274692157Y-92757843D02*
X263257843Y-92757843D01*
X263257843Y-92757843D02*
X256515686Y-99500000D01*
X256515686Y-99500000D02*
X196500000Y-99500000D01*
X196500000Y-99500000D02*
X194880000Y-97880000D01*
X194880000Y-97880000D02*
X194880000Y-95250000D01*
%TO.N,C10*%
X182330000Y-98000000D02*
X182180000Y-97850000D01*
X182180000Y-97850000D02*
X182180000Y-95250000D01*
%TO.N,C9*%
X206830000Y-102000000D02*
X205130000Y-100300000D01*
X205130000Y-100300000D02*
X183380000Y-100300000D01*
X180910000Y-97830000D02*
X180910000Y-95250000D01*
X183380000Y-100300000D02*
X180910000Y-97830000D01*
%TO.N,C8*%
X188830000Y-102000000D02*
X187530000Y-100700000D01*
X187530000Y-100700000D02*
X182530000Y-100700000D01*
X182530000Y-100700000D02*
X179640000Y-97810000D01*
X179640000Y-97810000D02*
X179640000Y-95250000D01*
%TO.N,C7*%
X170830000Y-102000000D02*
X174071522Y-102000000D01*
X174071522Y-102000000D02*
X178321522Y-97750000D01*
X178321522Y-97750000D02*
X178330000Y-97750000D01*
X178330000Y-97750000D02*
X178370000Y-97710000D01*
X178370000Y-97710000D02*
X178370000Y-95250000D01*
%TO.N,C6*%
X152830000Y-102000000D02*
X154330000Y-100500000D01*
X154330000Y-100500000D02*
X174330000Y-100500000D01*
X174330000Y-100500000D02*
X177100000Y-97730000D01*
X177100000Y-97730000D02*
X177100000Y-95250000D01*
%TO.N,C5*%
X134830000Y-102000000D02*
X136730000Y-100100000D01*
X175830000Y-97684314D02*
X175830000Y-95250000D01*
X136730000Y-100100000D02*
X173414314Y-100100000D01*
X173414314Y-100100000D02*
X175830000Y-97684314D01*
%TO.N,C4*%
X116830000Y-102000000D02*
X119130000Y-99700000D01*
X119130000Y-99700000D02*
X172580000Y-99700000D01*
X172580000Y-99700000D02*
X174560000Y-97720000D01*
X174560000Y-97720000D02*
X174560000Y-95250000D01*
%TO.N,C3*%
X98830000Y-102000000D02*
X101530000Y-99300000D01*
X101530000Y-99300000D02*
X171780000Y-99300000D01*
X171780000Y-99300000D02*
X173290000Y-97790000D01*
X173290000Y-97790000D02*
X173290000Y-95250000D01*
%TO.N,C1*%
X62830000Y-102000000D02*
X66330000Y-98500000D01*
X170080000Y-98500000D02*
X170750000Y-97830000D01*
X66330000Y-98500000D02*
X170080000Y-98500000D01*
X170750000Y-97830000D02*
X170750000Y-95250000D01*
%TO.N,GND*%
X203770000Y-95250000D02*
X203770000Y-83290000D01*
X203770000Y-83290000D02*
X203730000Y-83250000D01*
X205040000Y-95250000D02*
X197420000Y-95250000D01*
%TO.N,C2*%
X172020000Y-96250000D02*
X172020000Y-97810000D01*
X172020000Y-94000000D02*
X172020000Y-96250000D01*
X172020000Y-96250000D02*
X172020000Y-94500000D01*
%TO.N,GND*%
X156750000Y-71125000D02*
X162750000Y-71125000D01*
X156750000Y-71125000D02*
X150335000Y-71125000D01*
X150335000Y-71125000D02*
X149250000Y-70040000D01*
%TO.N,+3.7V*%
X189693540Y-58600000D02*
X163000000Y-58600000D01*
X161040000Y-59750000D02*
X162190000Y-58600000D01*
X162190000Y-58600000D02*
X163000000Y-58600000D01*
%TO.N,Net-(J1-Pin_2)*%
X149250000Y-67500000D02*
X150750000Y-67500000D01*
X150750000Y-67500000D02*
X158217157Y-60032843D01*
%TO.N,RST*%
X162750000Y-67375000D02*
X170171300Y-59953700D01*
X170171300Y-59953700D02*
X173267240Y-59953700D01*
X156750000Y-67375000D02*
X162750000Y-67375000D01*
%TO.N,GND*%
X261800000Y-91750000D02*
X262750000Y-90800000D01*
X262750000Y-90800000D02*
X272850000Y-90800000D01*
X272850000Y-90800000D02*
X273800000Y-91750000D01*
%TO.N,VBUS*%
X239360000Y-76380000D02*
X240285000Y-76380000D01*
X240285000Y-76380000D02*
X240785000Y-75880000D01*
X240785000Y-75880000D02*
X240785000Y-72305000D01*
X240785000Y-72305000D02*
X240260000Y-71780000D01*
X240260000Y-71780000D02*
X239360000Y-71780000D01*
%TO.N,D-*%
X239360000Y-74830000D02*
X240310000Y-74830000D01*
X240310000Y-74830000D02*
X240385000Y-74755000D01*
X240385000Y-74755000D02*
X240385000Y-73905000D01*
X240385000Y-73905000D02*
X240310000Y-73830000D01*
X240310000Y-73830000D02*
X239360000Y-73830000D01*
%TO.N,GND*%
X239360000Y-77455000D02*
X239315000Y-77500000D01*
X239315000Y-77500000D02*
X234250000Y-77500000D01*
X234250000Y-77500000D02*
X233300000Y-76550000D01*
X233300000Y-76550000D02*
X233300000Y-76250000D01*
%TO.N,VBUS*%
X227250000Y-75480000D02*
X227480000Y-75250000D01*
X227480000Y-75250000D02*
X233700000Y-75250000D01*
X233700000Y-75250000D02*
X234350000Y-75900000D01*
X236195000Y-76655000D02*
X239360000Y-76655000D01*
X234350000Y-75900000D02*
X234350000Y-76800000D01*
X234350000Y-76800000D02*
X234650000Y-77100000D01*
X234650000Y-77100000D02*
X235750000Y-77100000D01*
X235750000Y-77100000D02*
X236195000Y-76655000D01*
%TO.N,GND*%
X239360000Y-70980000D02*
X234320000Y-70980000D01*
X234320000Y-70980000D02*
X233300000Y-72000000D01*
%TO.N,Net-(J6-CC2)*%
X235200000Y-72000000D02*
X235530000Y-72330000D01*
X235530000Y-72330000D02*
X239360000Y-72330000D01*
%TO.N,GND*%
X233300000Y-72000000D02*
X227580000Y-72000000D01*
X227580000Y-72000000D02*
X227250000Y-71670000D01*
X233300000Y-76250000D02*
X227750000Y-76250000D01*
X227750000Y-76250000D02*
X227250000Y-76750000D01*
%TO.N,+3.7V*%
X200720000Y-76370000D02*
X191830000Y-67480000D01*
X191830000Y-60736460D02*
X189693540Y-58600000D01*
X191830000Y-67480000D02*
X191830000Y-60736460D01*
%TO.N,D+*%
X239360000Y-73330000D02*
X238410000Y-73330000D01*
X238410000Y-73330000D02*
X238335000Y-73405000D01*
X238335000Y-73405000D02*
X238335000Y-74165000D01*
X238335000Y-74165000D02*
X238500000Y-74330000D01*
X238500000Y-74330000D02*
X239360000Y-74330000D01*
X239360000Y-74330000D02*
X228640000Y-74330000D01*
X228640000Y-74330000D02*
X227250000Y-72940000D01*
%TO.N,D-*%
X239360000Y-74830000D02*
X227870000Y-74830000D01*
X227870000Y-74830000D02*
X227250000Y-74210000D01*
%TO.N,Net-(J6-CC1)*%
X235200000Y-76250000D02*
X236120000Y-75330000D01*
X236120000Y-75330000D02*
X239360000Y-75330000D01*
%TO.N,C2*%
X61830000Y-190500000D02*
X79330000Y-190500000D01*
X79330000Y-190500000D02*
X80830000Y-192000000D01*
X61080000Y-196500000D02*
X61080000Y-191250000D01*
X61080000Y-191250000D02*
X61830000Y-190500000D01*
X312480000Y-176650000D02*
X312480000Y-195493452D01*
X63240000Y-198660000D02*
X61080000Y-196500000D01*
X309313452Y-198660000D02*
X63240000Y-198660000D01*
X312480000Y-195493452D02*
X309313452Y-198660000D01*
X309830000Y-174000000D02*
X312480000Y-176650000D01*
%TO.N,C1*%
X62830000Y-192000000D02*
X66071522Y-192000000D01*
X66071522Y-192000000D02*
X72331522Y-198260000D01*
X72331522Y-198260000D02*
X305046548Y-198260000D01*
X305046548Y-198260000D02*
X309146548Y-194160000D01*
X309146548Y-194160000D02*
X310911522Y-194160000D01*
X310911522Y-194160000D02*
X312080000Y-192991522D01*
X312080000Y-192991522D02*
X312080000Y-189250000D01*
X312080000Y-189250000D02*
X296830000Y-174000000D01*
X296830000Y-174000000D02*
X293830000Y-174000000D01*
%TO.N,C5*%
X170830000Y-192000000D02*
X174071522Y-192000000D01*
X174071522Y-192000000D02*
X179931522Y-197860000D01*
X179931522Y-197860000D02*
X294679138Y-197860000D01*
X298839138Y-193700000D02*
X310534164Y-193700000D01*
X294679138Y-197860000D02*
X298839138Y-193700000D01*
X310534164Y-193700000D02*
X311530000Y-192704164D01*
X292080000Y-174088478D02*
X292080000Y-166776598D01*
X311530000Y-192704164D02*
X311530000Y-190450000D01*
X311530000Y-190450000D02*
X300015000Y-178935000D01*
X300015000Y-178935000D02*
X297288452Y-178935000D01*
X297288452Y-178935000D02*
X293853452Y-175500000D01*
X293853452Y-175500000D02*
X293491522Y-175500000D01*
X293491522Y-175500000D02*
X292080000Y-174088478D01*
X292080000Y-166776598D02*
X301106598Y-157750000D01*
X301106598Y-157750000D02*
X308080000Y-157750000D01*
X308080000Y-157750000D02*
X309830000Y-156000000D01*
%TO.N,VBUS*%
X221500000Y-73750000D02*
X223230000Y-75480000D01*
X223230000Y-75480000D02*
X227250000Y-75480000D01*
%TO.N,D-*%
X221500000Y-71210000D02*
X224500000Y-74210000D01*
X224500000Y-74210000D02*
X227250000Y-74210000D01*
%TO.N,D+*%
X221500000Y-68670000D02*
X225770000Y-72940000D01*
X225770000Y-72940000D02*
X227250000Y-72940000D01*
%TO.N,RST*%
X174823700Y-62493700D02*
X186073700Y-62493700D01*
X173956300Y-61626300D02*
X174823700Y-62493700D01*
X197180000Y-80100000D02*
X195430000Y-80100000D01*
X186073700Y-62493700D02*
X199356300Y-75776300D01*
X173956300Y-60642760D02*
X173956300Y-61626300D01*
X199356300Y-75776300D02*
X199356300Y-77923700D01*
X173267240Y-59953700D02*
X173956300Y-60642760D01*
X171876300Y-59953700D02*
X173267240Y-59953700D01*
X199356300Y-77923700D02*
X197180000Y-80100000D01*
X195430000Y-80100000D02*
X195180000Y-79850000D01*
X195180000Y-79850000D02*
X195180000Y-76830000D01*
X195180000Y-76830000D02*
X195640000Y-76370000D01*
%TO.N,NUM*%
X172780000Y-61130000D02*
X172780000Y-62793540D01*
X172780000Y-62793540D02*
X175467760Y-65481300D01*
X175467760Y-65481300D02*
X176598700Y-65481300D01*
X177080000Y-65000000D02*
X183580000Y-65000000D01*
X176598700Y-65481300D02*
X177080000Y-65000000D01*
X183580000Y-65000000D02*
X194330000Y-75750000D01*
X194330000Y-75750000D02*
X194330000Y-79550000D01*
%TO.N,C2*%
X175955000Y-69385000D02*
X177225000Y-69385000D01*
X177225000Y-69385000D02*
X177860000Y-68750000D01*
%TO.N,C1*%
X175955000Y-66845000D02*
X177225000Y-66845000D01*
X177225000Y-66845000D02*
X177860000Y-66210000D01*
%TO.N,CAPS*%
X175955000Y-64305000D02*
X177225000Y-64305000D01*
X177225000Y-64305000D02*
X177860000Y-63670000D01*
X196330000Y-79550000D02*
X196816300Y-79063700D01*
X196816300Y-79063700D02*
X196816300Y-75736300D01*
X196816300Y-75736300D02*
X184750000Y-63670000D01*
X184750000Y-63670000D02*
X177860000Y-63670000D01*
%TO.N,C10*%
X184230000Y-99900000D02*
X222730000Y-99900000D01*
X182330000Y-98000000D02*
X183080000Y-98750000D01*
X182330000Y-98000000D02*
X184230000Y-99900000D01*
X222730000Y-99900000D02*
X224830000Y-102000000D01*
X183080000Y-98750000D02*
X184080000Y-99750000D01*
%TO.N,C2*%
X172020000Y-97810000D02*
X170930000Y-98900000D01*
X170930000Y-98900000D02*
X83930000Y-98900000D01*
X83930000Y-98900000D02*
X80830000Y-102000000D01*
X260830000Y-102000000D02*
X262730000Y-100100000D01*
X262730000Y-100100000D02*
X310334164Y-100100000D01*
X310334164Y-100100000D02*
X312680000Y-102445836D01*
X312680000Y-171150000D02*
X309830000Y-174000000D01*
X312680000Y-102445836D02*
X312680000Y-171150000D01*
%TO.N,C1*%
X310168478Y-100500000D02*
X280580000Y-100500000D01*
X271480000Y-133650000D02*
X271480000Y-119650000D01*
X280580000Y-100500000D02*
X277491522Y-100500000D01*
X277491522Y-100500000D02*
X276080000Y-101911522D01*
X276080000Y-101911522D02*
X276080000Y-117750000D01*
X279480000Y-121150000D02*
X279480000Y-138188478D01*
X276080000Y-117750000D02*
X279480000Y-121150000D01*
X278368478Y-139300000D02*
X277130000Y-139300000D01*
X279480000Y-138188478D02*
X278368478Y-139300000D01*
X277130000Y-139300000D02*
X271480000Y-133650000D01*
X271480000Y-119650000D02*
X270080000Y-118250000D01*
X270080000Y-118250000D02*
X264580000Y-118250000D01*
X260830000Y-122000000D02*
X260830000Y-138000000D01*
X264580000Y-118250000D02*
X260830000Y-122000000D01*
X293830000Y-174000000D02*
X293830000Y-172585787D01*
X293830000Y-172585787D02*
X309115787Y-157300000D01*
X309115787Y-157300000D02*
X310368478Y-157300000D01*
X310368478Y-157300000D02*
X312280000Y-155388478D01*
X312280000Y-155388478D02*
X312280000Y-102611522D01*
X312280000Y-102611522D02*
X310168478Y-100500000D01*
%TO.N,C6*%
X286430000Y-157650000D02*
X286430000Y-173651522D01*
X288080000Y-156000000D02*
X286430000Y-157650000D01*
X229040000Y-197460000D02*
X224830000Y-193250000D01*
X309968478Y-190300000D02*
X311130000Y-191461522D01*
X286430000Y-173651522D02*
X303078478Y-190300000D01*
X311130000Y-191461522D02*
X311130000Y-192538478D01*
X303078478Y-190300000D02*
X309968478Y-190300000D01*
X294513452Y-197460000D02*
X229040000Y-197460000D01*
X310368478Y-193300000D02*
X298673452Y-193300000D01*
X298673452Y-193300000D02*
X294513452Y-197460000D01*
X311130000Y-192538478D02*
X310368478Y-193300000D01*
X224830000Y-193250000D02*
X224830000Y-192000000D01*
%TO.N,C5*%
X309830000Y-102000000D02*
X311880000Y-104050000D01*
X311880000Y-104050000D02*
X311880000Y-153950000D01*
X311880000Y-153950000D02*
X309830000Y-156000000D01*
%TO.N,C6*%
X309830000Y-120000000D02*
X311480000Y-121650000D01*
X311480000Y-121650000D02*
X311480000Y-142493452D01*
X311480000Y-142493452D02*
X299473452Y-154500000D01*
X299473452Y-154500000D02*
X289580000Y-154500000D01*
X289580000Y-154500000D02*
X288080000Y-156000000D01*
%TO.N,C3*%
X309830000Y-192000000D02*
X308530000Y-190700000D01*
X299329848Y-190700000D02*
X277230000Y-168600152D01*
X277230000Y-168600152D02*
X277230000Y-154920990D01*
X308530000Y-190700000D02*
X299329848Y-190700000D01*
X277230000Y-154920990D02*
X293830000Y-138320990D01*
X293830000Y-138320990D02*
X293830000Y-138000000D01*
%TO.N,C7*%
X290330000Y-120000000D02*
X290330000Y-121476548D01*
X266830000Y-156000000D02*
X265330000Y-156000000D01*
X290330000Y-121476548D02*
X287450000Y-124356548D01*
X287450000Y-124356548D02*
X287450000Y-135380000D01*
X287450000Y-135380000D02*
X266830000Y-156000000D01*
%TO.N,C8*%
X269830000Y-120000000D02*
X269830000Y-121476548D01*
X269830000Y-121476548D02*
X268180000Y-123126548D01*
X255080000Y-154500000D02*
X248830000Y-154500000D01*
X268180000Y-123126548D02*
X268180000Y-141400000D01*
X268180000Y-141400000D02*
X255080000Y-154500000D01*
X248830000Y-154500000D02*
X247330000Y-156000000D01*
%TO.N,C9*%
X251830000Y-120000000D02*
X251830000Y-121414213D01*
X251830000Y-121414213D02*
X245680000Y-127564213D01*
X245680000Y-127564213D02*
X245680000Y-165078478D01*
X245680000Y-165078478D02*
X254601522Y-174000000D01*
X254601522Y-174000000D02*
X255330000Y-174000000D01*
%TO.N,C7*%
X265330000Y-156000000D02*
X265330000Y-157265837D01*
X265330000Y-157265837D02*
X295930000Y-187865837D01*
X295930000Y-187865837D02*
X295930000Y-192941372D01*
X295930000Y-192941372D02*
X294771372Y-194100000D01*
X294771372Y-194100000D02*
X244930000Y-194100000D01*
X244930000Y-194100000D02*
X242830000Y-192000000D01*
%TO.N,C8*%
X260830000Y-192000000D02*
X262530000Y-193700000D01*
X262530000Y-193700000D02*
X294605686Y-193700000D01*
X294605686Y-193700000D02*
X295530000Y-192775686D01*
X247330000Y-157414213D02*
X247330000Y-156000000D01*
X295530000Y-192775686D02*
X295530000Y-188031522D01*
X279798478Y-172300000D02*
X262215787Y-172300000D01*
X295530000Y-188031522D02*
X279798478Y-172300000D01*
X262215787Y-172300000D02*
X247330000Y-157414213D01*
%TO.N,C9*%
X255330000Y-174000000D02*
X256630000Y-172700000D01*
X276368478Y-172700000D02*
X295130000Y-191461522D01*
X256630000Y-172700000D02*
X276368478Y-172700000D01*
X295130000Y-191461522D02*
X295130000Y-192610000D01*
X295130000Y-192610000D02*
X294440000Y-193300000D01*
X294440000Y-193300000D02*
X279130000Y-193300000D01*
X279130000Y-193300000D02*
X277830000Y-192000000D01*
%TO.N,C10*%
X252015787Y-189100000D02*
X288580000Y-189100000D01*
X274580000Y-174000000D02*
X274580000Y-175414213D01*
X288580000Y-189100000D02*
X290930000Y-189100000D01*
X274580000Y-175414213D02*
X288265787Y-189100000D01*
X288265787Y-189100000D02*
X288580000Y-189100000D01*
%TO.N,C4*%
X293830000Y-102000000D02*
X293830000Y-103476548D01*
X293830000Y-103476548D02*
X308180000Y-117826548D01*
X308180000Y-136350000D02*
X309830000Y-138000000D01*
X308180000Y-117826548D02*
X308180000Y-136350000D01*
%TO.N,C3*%
X277830000Y-102000000D02*
X277830000Y-103414213D01*
X277830000Y-103414213D02*
X293830000Y-119414213D01*
X293830000Y-119414213D02*
X293830000Y-138000000D01*
%TO.N,C2*%
X260830000Y-102000000D02*
X260830000Y-103476548D01*
X260830000Y-103476548D02*
X277830000Y-120476548D01*
X277830000Y-120476548D02*
X277830000Y-138000000D01*
%TO.N,C1*%
X242830000Y-102000000D02*
X242830000Y-103476548D01*
X242830000Y-103476548D02*
X260830000Y-121476548D01*
X260830000Y-121476548D02*
X260830000Y-138000000D01*
%TO.N,C10*%
X242830000Y-138000000D02*
X242830000Y-130414213D01*
X242830000Y-130414213D02*
X233830000Y-121414213D01*
X238330000Y-174000000D02*
X238330000Y-175414213D01*
X238330000Y-175414213D02*
X252015787Y-189100000D01*
X290930000Y-189100000D02*
X293830000Y-192000000D01*
X229330000Y-156000000D02*
X229330000Y-157414213D01*
X229330000Y-157414213D02*
X238330000Y-166414213D01*
X238330000Y-166414213D02*
X238330000Y-174000000D01*
X224830000Y-138000000D02*
X224830000Y-139476548D01*
X224830000Y-139476548D02*
X229330000Y-143976548D01*
X229330000Y-143976548D02*
X229330000Y-156000000D01*
X233830000Y-120000000D02*
X233830000Y-121414213D01*
X233830000Y-121414213D02*
X224830000Y-130414213D01*
X224830000Y-130414213D02*
X224830000Y-138000000D01*
X224830000Y-102000000D02*
X224830000Y-102750000D01*
X224830000Y-102750000D02*
X233830000Y-111750000D01*
X233830000Y-111750000D02*
X233830000Y-120000000D01*
%TO.N,C9*%
X220330000Y-174000000D02*
X220330000Y-175000000D01*
X220330000Y-175000000D02*
X234830000Y-189500000D01*
X234830000Y-189500000D02*
X275330000Y-189500000D01*
X275330000Y-189500000D02*
X277830000Y-192000000D01*
X211330000Y-156000000D02*
X211330000Y-157000000D01*
X211330000Y-157000000D02*
X220330000Y-166000000D01*
X220330000Y-166000000D02*
X220330000Y-174000000D01*
X206830000Y-138000000D02*
X206830000Y-139476548D01*
X206830000Y-139476548D02*
X211330000Y-143976548D01*
X211330000Y-143976548D02*
X211330000Y-156000000D01*
X215830000Y-120000000D02*
X215830000Y-121414213D01*
X215830000Y-121414213D02*
X206830000Y-130414213D01*
X206830000Y-130414213D02*
X206830000Y-138000000D01*
X206830000Y-102000000D02*
X206830000Y-103414213D01*
X206830000Y-103414213D02*
X215830000Y-112414213D01*
X215830000Y-112414213D02*
X215830000Y-120000000D01*
%TO.N,C8*%
X202330000Y-174000000D02*
X202330000Y-175414213D01*
X216815787Y-189900000D02*
X258730000Y-189900000D01*
X258730000Y-189900000D02*
X260830000Y-192000000D01*
X202330000Y-175414213D02*
X216815787Y-189900000D01*
X193330000Y-156000000D02*
X193330000Y-157414213D01*
X193330000Y-157414213D02*
X202330000Y-166414213D01*
X202330000Y-166414213D02*
X202330000Y-174000000D01*
X188830000Y-138000000D02*
X188830000Y-139414213D01*
X188830000Y-139414213D02*
X193330000Y-143914213D01*
X193330000Y-143914213D02*
X193330000Y-156000000D01*
X197830000Y-120000000D02*
X197830000Y-121476548D01*
X197830000Y-121476548D02*
X188830000Y-130476548D01*
X188830000Y-130476548D02*
X188830000Y-138000000D01*
X188830000Y-102000000D02*
X188830000Y-103414213D01*
X188830000Y-103414213D02*
X197830000Y-112414213D01*
X197830000Y-112414213D02*
X197830000Y-120000000D01*
%TO.N,C7*%
X184330000Y-174000000D02*
X184330000Y-175414213D01*
X241130000Y-190300000D02*
X242830000Y-192000000D01*
X184330000Y-175414213D02*
X199215787Y-190300000D01*
X199215787Y-190300000D02*
X241130000Y-190300000D01*
X175330000Y-156000000D02*
X175330000Y-157414213D01*
X175330000Y-157414213D02*
X184330000Y-166414213D01*
X184330000Y-166414213D02*
X184330000Y-174000000D01*
X170830000Y-138000000D02*
X170830000Y-139414213D01*
X170830000Y-139414213D02*
X175330000Y-143914213D01*
X175330000Y-143914213D02*
X175330000Y-156000000D01*
X179830000Y-120000000D02*
X179830000Y-121414213D01*
X179830000Y-121414213D02*
X170830000Y-130414213D01*
X170830000Y-130414213D02*
X170830000Y-138000000D01*
X170830000Y-102000000D02*
X170830000Y-102750000D01*
X170830000Y-102750000D02*
X179830000Y-111750000D01*
X179830000Y-111750000D02*
X179830000Y-120000000D01*
%TO.N,C6*%
X224830000Y-192000000D02*
X223530000Y-190700000D01*
X223530000Y-190700000D02*
X181615787Y-190700000D01*
X166330000Y-175414213D02*
X166330000Y-174000000D01*
X181615787Y-190700000D02*
X166330000Y-175414213D01*
X157330000Y-156000000D02*
X157330000Y-157000000D01*
X157330000Y-157000000D02*
X166330000Y-166000000D01*
X166330000Y-166000000D02*
X166330000Y-174000000D01*
X152830000Y-138000000D02*
X152830000Y-139414213D01*
X152830000Y-139414213D02*
X157330000Y-143914213D01*
X157330000Y-143914213D02*
X157330000Y-156000000D01*
X161830000Y-120000000D02*
X161830000Y-120750000D01*
X161830000Y-120750000D02*
X152830000Y-129750000D01*
X152830000Y-129750000D02*
X152830000Y-138000000D01*
X152830000Y-102000000D02*
X152830000Y-103414213D01*
X152830000Y-103414213D02*
X161830000Y-112414213D01*
X161830000Y-112414213D02*
X161830000Y-120000000D01*
%TO.N,C5*%
X148330000Y-174000000D02*
X148330000Y-175414213D01*
X148330000Y-175414213D02*
X163165787Y-190250000D01*
X163165787Y-190250000D02*
X169080000Y-190250000D01*
X169080000Y-190250000D02*
X170830000Y-192000000D01*
X139330000Y-156000000D02*
X139330000Y-157414213D01*
X139330000Y-157414213D02*
X148330000Y-166414213D01*
X148330000Y-166414213D02*
X148330000Y-174000000D01*
X134830000Y-138000000D02*
X134830000Y-139476548D01*
X134830000Y-139476548D02*
X139330000Y-143976548D01*
X139330000Y-143976548D02*
X139330000Y-156000000D01*
X143830000Y-120000000D02*
X143830000Y-121414213D01*
X143830000Y-121414213D02*
X134830000Y-130414213D01*
X134830000Y-130414213D02*
X134830000Y-138000000D01*
X134830000Y-102000000D02*
X134830000Y-103250000D01*
X143830000Y-112250000D02*
X143830000Y-120000000D01*
X134830000Y-103250000D02*
X143830000Y-112250000D01*
%TO.N,C4*%
X130330000Y-174000000D02*
X130330000Y-175414213D01*
X130330000Y-175414213D02*
X116830000Y-188914213D01*
X116830000Y-188914213D02*
X116830000Y-192000000D01*
X121330000Y-156000000D02*
X121330000Y-157414213D01*
X130330000Y-166414213D02*
X130330000Y-174000000D01*
X121330000Y-157414213D02*
X130330000Y-166414213D01*
X116830000Y-138000000D02*
X116830000Y-139476548D01*
X116830000Y-139476548D02*
X121330000Y-143976548D01*
X121330000Y-143976548D02*
X121330000Y-156000000D01*
X125830000Y-120000000D02*
X125830000Y-121414213D01*
X125830000Y-121414213D02*
X116830000Y-130414213D01*
X116830000Y-130414213D02*
X116830000Y-138000000D01*
X116830000Y-102000000D02*
X116830000Y-103414213D01*
X125830000Y-112414213D02*
X125830000Y-120000000D01*
X116830000Y-103414213D02*
X125830000Y-112414213D01*
%TO.N,C3*%
X112330000Y-174000000D02*
X112330000Y-175414213D01*
X98830000Y-188914213D02*
X98830000Y-192000000D01*
X112330000Y-175414213D02*
X98830000Y-188914213D01*
%TO.N,C2*%
X94330000Y-174000000D02*
X94330000Y-175414213D01*
X94330000Y-175414213D02*
X80830000Y-188914213D01*
X80830000Y-188914213D02*
X80830000Y-192000000D01*
X80830000Y-130414213D02*
X80830000Y-138000000D01*
X89830000Y-121414213D02*
X80830000Y-130414213D01*
X85330000Y-156320990D02*
X94330000Y-165320990D01*
X94330000Y-165320990D02*
X94330000Y-174000000D01*
X80830000Y-138000000D02*
X80830000Y-139414213D01*
X85330000Y-143914213D02*
X85330000Y-156000000D01*
X89830000Y-120000000D02*
X89830000Y-121414213D01*
X89830000Y-112330000D02*
X89830000Y-120000000D01*
X80830000Y-102000000D02*
X80830000Y-103330000D01*
X80830000Y-103330000D02*
X89830000Y-112330000D01*
X85330000Y-156000000D02*
X85330000Y-156320990D01*
X80830000Y-139414213D02*
X85330000Y-143914213D01*
%TO.N,C1*%
X62830000Y-102000000D02*
X62830000Y-103414213D01*
X62830000Y-103414213D02*
X71830000Y-112414213D01*
X62830000Y-129920000D02*
X62830000Y-138000000D01*
X69580000Y-161976548D02*
X69580000Y-174000000D01*
X71830000Y-112414213D02*
X71830000Y-120000000D01*
X65080000Y-156000000D02*
X65080000Y-157476548D01*
X71830000Y-120000000D02*
X71830000Y-120920000D01*
X65080000Y-140250000D02*
X65080000Y-156000000D01*
X62830000Y-138000000D02*
X65080000Y-140250000D01*
X71830000Y-120920000D02*
X62830000Y-129920000D01*
X65080000Y-157476548D02*
X69580000Y-161976548D01*
%TO.N,C3*%
X98830000Y-130414213D02*
X98830000Y-138000000D01*
X107830000Y-121414213D02*
X98830000Y-130414213D01*
X103330000Y-156000000D02*
X103330000Y-156330000D01*
X103330000Y-156330000D02*
X112330000Y-165330000D01*
X98830000Y-139414213D02*
X103330000Y-143914213D01*
X112330000Y-165330000D02*
X112330000Y-174000000D01*
X107830000Y-120000000D02*
X107830000Y-121414213D01*
X98830000Y-103476548D02*
X107830000Y-112476548D01*
X98830000Y-102000000D02*
X98830000Y-103476548D01*
X103330000Y-143914213D02*
X103330000Y-156000000D01*
X98830000Y-138000000D02*
X98830000Y-139414213D01*
X107830000Y-112476548D02*
X107830000Y-120000000D01*
%TD*%
M02*
