%TF.GenerationSoftware,KiCad,Pcbnew,8.0.2*%
%TF.CreationDate,2024-05-05T23:04:00-07:00*%
%TF.ProjectId,g84_dropin,6738345f-6472-46f7-9069-6e2e6b696361,rev?*%
%TF.SameCoordinates,Original*%
%TF.FileFunction,Legend,Top*%
%TF.FilePolarity,Positive*%
%FSLAX46Y46*%
G04 Gerber Fmt 4.6, Leading zero omitted, Abs format (unit mm)*
G04 Created by KiCad (PCBNEW 8.0.2) date 2024-05-05 23:04:00*
%MOMM*%
%LPD*%
G01*
G04 APERTURE LIST*
G04 Aperture macros list*
%AMRoundRect*
0 Rectangle with rounded corners*
0 $1 Rounding radius*
0 $2 $3 $4 $5 $6 $7 $8 $9 X,Y pos of 4 corners*
0 Add a 4 corners polygon primitive as box body*
4,1,4,$2,$3,$4,$5,$6,$7,$8,$9,$2,$3,0*
0 Add four circle primitives for the rounded corners*
1,1,$1+$1,$2,$3*
1,1,$1+$1,$4,$5*
1,1,$1+$1,$6,$7*
1,1,$1+$1,$8,$9*
0 Add four rect primitives between the rounded corners*
20,1,$1+$1,$2,$3,$4,$5,0*
20,1,$1+$1,$4,$5,$6,$7,0*
20,1,$1+$1,$6,$7,$8,$9,0*
20,1,$1+$1,$8,$9,$2,$3,0*%
G04 Aperture macros list end*
%ADD10C,0.100000*%
%ADD11C,0.150000*%
%ADD12C,0.381000*%
%ADD13C,0.120000*%
%ADD14C,0.020000*%
%ADD15C,0.200000*%
%ADD16R,1.700000X1.700000*%
%ADD17O,1.700000X1.700000*%
%ADD18C,0.670000*%
%ADD19R,1.450000X0.250000*%
%ADD20R,1.450000X0.300000*%
%ADD21RoundRect,0.500000X0.600000X-0.000010X0.600000X0.000010X-0.600000X0.000010X-0.600000X-0.000010X0*%
%ADD22RoundRect,0.500000X0.300000X-0.000010X0.300000X0.000010X-0.300000X0.000010X-0.300000X-0.000010X0*%
%ADD23R,0.700000X1.300000*%
%ADD24C,0.787400*%
%ADD25C,1.550000*%
%ADD26C,2.600000*%
%ADD27C,2.000000*%
%ADD28C,4.000000*%
%ADD29R,1.000000X1.000000*%
%ADD30O,1.000000X1.000000*%
%ADD31R,1.300000X0.700000*%
%ADD32R,1.000000X0.750000*%
G04 APERTURE END LIST*
D10*
X146465788Y-69991466D02*
X147227693Y-69991466D01*
X146846740Y-70372419D02*
X146846740Y-69610514D01*
X146465788Y-67491466D02*
X147227693Y-67491466D01*
X217053884Y-69122419D02*
X217053884Y-68122419D01*
X217053884Y-68122419D02*
X217291979Y-68122419D01*
X217291979Y-68122419D02*
X217434836Y-68170038D01*
X217434836Y-68170038D02*
X217530074Y-68265276D01*
X217530074Y-68265276D02*
X217577693Y-68360514D01*
X217577693Y-68360514D02*
X217625312Y-68550990D01*
X217625312Y-68550990D02*
X217625312Y-68693847D01*
X217625312Y-68693847D02*
X217577693Y-68884323D01*
X217577693Y-68884323D02*
X217530074Y-68979561D01*
X217530074Y-68979561D02*
X217434836Y-69074800D01*
X217434836Y-69074800D02*
X217291979Y-69122419D01*
X217291979Y-69122419D02*
X217053884Y-69122419D01*
X218053884Y-68741466D02*
X218815789Y-68741466D01*
X218434836Y-69122419D02*
X218434836Y-68360514D01*
X217053884Y-71622419D02*
X217053884Y-70622419D01*
X217053884Y-70622419D02*
X217291979Y-70622419D01*
X217291979Y-70622419D02*
X217434836Y-70670038D01*
X217434836Y-70670038D02*
X217530074Y-70765276D01*
X217530074Y-70765276D02*
X217577693Y-70860514D01*
X217577693Y-70860514D02*
X217625312Y-71050990D01*
X217625312Y-71050990D02*
X217625312Y-71193847D01*
X217625312Y-71193847D02*
X217577693Y-71384323D01*
X217577693Y-71384323D02*
X217530074Y-71479561D01*
X217530074Y-71479561D02*
X217434836Y-71574800D01*
X217434836Y-71574800D02*
X217291979Y-71622419D01*
X217291979Y-71622419D02*
X217053884Y-71622419D01*
X218053884Y-71241466D02*
X218815789Y-71241466D01*
X217530074Y-73372419D02*
X217053884Y-73372419D01*
X217053884Y-73372419D02*
X217006265Y-73848609D01*
X217006265Y-73848609D02*
X217053884Y-73800990D01*
X217053884Y-73800990D02*
X217149122Y-73753371D01*
X217149122Y-73753371D02*
X217387217Y-73753371D01*
X217387217Y-73753371D02*
X217482455Y-73800990D01*
X217482455Y-73800990D02*
X217530074Y-73848609D01*
X217530074Y-73848609D02*
X217577693Y-73943847D01*
X217577693Y-73943847D02*
X217577693Y-74181942D01*
X217577693Y-74181942D02*
X217530074Y-74277180D01*
X217530074Y-74277180D02*
X217482455Y-74324800D01*
X217482455Y-74324800D02*
X217387217Y-74372419D01*
X217387217Y-74372419D02*
X217149122Y-74372419D01*
X217149122Y-74372419D02*
X217053884Y-74324800D01*
X217053884Y-74324800D02*
X217006265Y-74277180D01*
X217863408Y-73372419D02*
X218196741Y-74372419D01*
X218196741Y-74372419D02*
X218530074Y-73372419D01*
X217577693Y-75920038D02*
X217482455Y-75872419D01*
X217482455Y-75872419D02*
X217339598Y-75872419D01*
X217339598Y-75872419D02*
X217196741Y-75920038D01*
X217196741Y-75920038D02*
X217101503Y-76015276D01*
X217101503Y-76015276D02*
X217053884Y-76110514D01*
X217053884Y-76110514D02*
X217006265Y-76300990D01*
X217006265Y-76300990D02*
X217006265Y-76443847D01*
X217006265Y-76443847D02*
X217053884Y-76634323D01*
X217053884Y-76634323D02*
X217101503Y-76729561D01*
X217101503Y-76729561D02*
X217196741Y-76824800D01*
X217196741Y-76824800D02*
X217339598Y-76872419D01*
X217339598Y-76872419D02*
X217434836Y-76872419D01*
X217434836Y-76872419D02*
X217577693Y-76824800D01*
X217577693Y-76824800D02*
X217625312Y-76777180D01*
X217625312Y-76777180D02*
X217625312Y-76443847D01*
X217625312Y-76443847D02*
X217434836Y-76443847D01*
X218053884Y-76872419D02*
X218053884Y-75872419D01*
X218053884Y-75872419D02*
X218625312Y-76872419D01*
X218625312Y-76872419D02*
X218625312Y-75872419D01*
X219101503Y-76872419D02*
X219101503Y-75872419D01*
X219101503Y-75872419D02*
X219339598Y-75872419D01*
X219339598Y-75872419D02*
X219482455Y-75920038D01*
X219482455Y-75920038D02*
X219577693Y-76015276D01*
X219577693Y-76015276D02*
X219625312Y-76110514D01*
X219625312Y-76110514D02*
X219672931Y-76300990D01*
X219672931Y-76300990D02*
X219672931Y-76443847D01*
X219672931Y-76443847D02*
X219625312Y-76634323D01*
X219625312Y-76634323D02*
X219577693Y-76729561D01*
X219577693Y-76729561D02*
X219482455Y-76824800D01*
X219482455Y-76824800D02*
X219339598Y-76872419D01*
X219339598Y-76872419D02*
X219101503Y-76872419D01*
X217577693Y-65670038D02*
X217482455Y-65622419D01*
X217482455Y-65622419D02*
X217339598Y-65622419D01*
X217339598Y-65622419D02*
X217196741Y-65670038D01*
X217196741Y-65670038D02*
X217101503Y-65765276D01*
X217101503Y-65765276D02*
X217053884Y-65860514D01*
X217053884Y-65860514D02*
X217006265Y-66050990D01*
X217006265Y-66050990D02*
X217006265Y-66193847D01*
X217006265Y-66193847D02*
X217053884Y-66384323D01*
X217053884Y-66384323D02*
X217101503Y-66479561D01*
X217101503Y-66479561D02*
X217196741Y-66574800D01*
X217196741Y-66574800D02*
X217339598Y-66622419D01*
X217339598Y-66622419D02*
X217434836Y-66622419D01*
X217434836Y-66622419D02*
X217577693Y-66574800D01*
X217577693Y-66574800D02*
X217625312Y-66527180D01*
X217625312Y-66527180D02*
X217625312Y-66193847D01*
X217625312Y-66193847D02*
X217434836Y-66193847D01*
X218053884Y-66622419D02*
X218053884Y-65622419D01*
X218053884Y-65622419D02*
X218625312Y-66622419D01*
X218625312Y-66622419D02*
X218625312Y-65622419D01*
X219101503Y-66622419D02*
X219101503Y-65622419D01*
X219101503Y-65622419D02*
X219339598Y-65622419D01*
X219339598Y-65622419D02*
X219482455Y-65670038D01*
X219482455Y-65670038D02*
X219577693Y-65765276D01*
X219577693Y-65765276D02*
X219625312Y-65860514D01*
X219625312Y-65860514D02*
X219672931Y-66050990D01*
X219672931Y-66050990D02*
X219672931Y-66193847D01*
X219672931Y-66193847D02*
X219625312Y-66384323D01*
X219625312Y-66384323D02*
X219577693Y-66479561D01*
X219577693Y-66479561D02*
X219482455Y-66574800D01*
X219482455Y-66574800D02*
X219339598Y-66622419D01*
X219339598Y-66622419D02*
X219101503Y-66622419D01*
D11*
X187512295Y-64012809D02*
X187512295Y-63936619D01*
X187512295Y-63936619D02*
X187550390Y-63860428D01*
X187550390Y-63860428D02*
X187588485Y-63822333D01*
X187588485Y-63822333D02*
X187664676Y-63784238D01*
X187664676Y-63784238D02*
X187817057Y-63746143D01*
X187817057Y-63746143D02*
X188007533Y-63746143D01*
X188007533Y-63746143D02*
X188159914Y-63784238D01*
X188159914Y-63784238D02*
X188236104Y-63822333D01*
X188236104Y-63822333D02*
X188274200Y-63860428D01*
X188274200Y-63860428D02*
X188312295Y-63936619D01*
X188312295Y-63936619D02*
X188312295Y-64012809D01*
X188312295Y-64012809D02*
X188274200Y-64089000D01*
X188274200Y-64089000D02*
X188236104Y-64127095D01*
X188236104Y-64127095D02*
X188159914Y-64165190D01*
X188159914Y-64165190D02*
X188007533Y-64203286D01*
X188007533Y-64203286D02*
X187817057Y-64203286D01*
X187817057Y-64203286D02*
X187664676Y-64165190D01*
X187664676Y-64165190D02*
X187588485Y-64127095D01*
X187588485Y-64127095D02*
X187550390Y-64089000D01*
X187550390Y-64089000D02*
X187512295Y-64012809D01*
X187588485Y-63441381D02*
X187550390Y-63403285D01*
X187550390Y-63403285D02*
X187512295Y-63327095D01*
X187512295Y-63327095D02*
X187512295Y-63136619D01*
X187512295Y-63136619D02*
X187550390Y-63060428D01*
X187550390Y-63060428D02*
X187588485Y-63022333D01*
X187588485Y-63022333D02*
X187664676Y-62984238D01*
X187664676Y-62984238D02*
X187740866Y-62984238D01*
X187740866Y-62984238D02*
X187855152Y-63022333D01*
X187855152Y-63022333D02*
X188312295Y-63479476D01*
X188312295Y-63479476D02*
X188312295Y-62984238D01*
X187512295Y-62488999D02*
X187512295Y-62412809D01*
X187512295Y-62412809D02*
X187550390Y-62336618D01*
X187550390Y-62336618D02*
X187588485Y-62298523D01*
X187588485Y-62298523D02*
X187664676Y-62260428D01*
X187664676Y-62260428D02*
X187817057Y-62222333D01*
X187817057Y-62222333D02*
X188007533Y-62222333D01*
X188007533Y-62222333D02*
X188159914Y-62260428D01*
X188159914Y-62260428D02*
X188236104Y-62298523D01*
X188236104Y-62298523D02*
X188274200Y-62336618D01*
X188274200Y-62336618D02*
X188312295Y-62412809D01*
X188312295Y-62412809D02*
X188312295Y-62488999D01*
X188312295Y-62488999D02*
X188274200Y-62565190D01*
X188274200Y-62565190D02*
X188236104Y-62603285D01*
X188236104Y-62603285D02*
X188159914Y-62641380D01*
X188159914Y-62641380D02*
X188007533Y-62679476D01*
X188007533Y-62679476D02*
X187817057Y-62679476D01*
X187817057Y-62679476D02*
X187664676Y-62641380D01*
X187664676Y-62641380D02*
X187588485Y-62603285D01*
X187588485Y-62603285D02*
X187550390Y-62565190D01*
X187550390Y-62565190D02*
X187512295Y-62488999D01*
X197812295Y-64012809D02*
X197812295Y-63936619D01*
X197812295Y-63936619D02*
X197850390Y-63860428D01*
X197850390Y-63860428D02*
X197888485Y-63822333D01*
X197888485Y-63822333D02*
X197964676Y-63784238D01*
X197964676Y-63784238D02*
X198117057Y-63746143D01*
X198117057Y-63746143D02*
X198307533Y-63746143D01*
X198307533Y-63746143D02*
X198459914Y-63784238D01*
X198459914Y-63784238D02*
X198536104Y-63822333D01*
X198536104Y-63822333D02*
X198574200Y-63860428D01*
X198574200Y-63860428D02*
X198612295Y-63936619D01*
X198612295Y-63936619D02*
X198612295Y-64012809D01*
X198612295Y-64012809D02*
X198574200Y-64089000D01*
X198574200Y-64089000D02*
X198536104Y-64127095D01*
X198536104Y-64127095D02*
X198459914Y-64165190D01*
X198459914Y-64165190D02*
X198307533Y-64203286D01*
X198307533Y-64203286D02*
X198117057Y-64203286D01*
X198117057Y-64203286D02*
X197964676Y-64165190D01*
X197964676Y-64165190D02*
X197888485Y-64127095D01*
X197888485Y-64127095D02*
X197850390Y-64089000D01*
X197850390Y-64089000D02*
X197812295Y-64012809D01*
X197812295Y-63250904D02*
X197812295Y-63174714D01*
X197812295Y-63174714D02*
X197850390Y-63098523D01*
X197850390Y-63098523D02*
X197888485Y-63060428D01*
X197888485Y-63060428D02*
X197964676Y-63022333D01*
X197964676Y-63022333D02*
X198117057Y-62984238D01*
X198117057Y-62984238D02*
X198307533Y-62984238D01*
X198307533Y-62984238D02*
X198459914Y-63022333D01*
X198459914Y-63022333D02*
X198536104Y-63060428D01*
X198536104Y-63060428D02*
X198574200Y-63098523D01*
X198574200Y-63098523D02*
X198612295Y-63174714D01*
X198612295Y-63174714D02*
X198612295Y-63250904D01*
X198612295Y-63250904D02*
X198574200Y-63327095D01*
X198574200Y-63327095D02*
X198536104Y-63365190D01*
X198536104Y-63365190D02*
X198459914Y-63403285D01*
X198459914Y-63403285D02*
X198307533Y-63441381D01*
X198307533Y-63441381D02*
X198117057Y-63441381D01*
X198117057Y-63441381D02*
X197964676Y-63403285D01*
X197964676Y-63403285D02*
X197888485Y-63365190D01*
X197888485Y-63365190D02*
X197850390Y-63327095D01*
X197850390Y-63327095D02*
X197812295Y-63250904D01*
X198155152Y-62527095D02*
X198117057Y-62603285D01*
X198117057Y-62603285D02*
X198078961Y-62641380D01*
X198078961Y-62641380D02*
X198002771Y-62679476D01*
X198002771Y-62679476D02*
X197964676Y-62679476D01*
X197964676Y-62679476D02*
X197888485Y-62641380D01*
X197888485Y-62641380D02*
X197850390Y-62603285D01*
X197850390Y-62603285D02*
X197812295Y-62527095D01*
X197812295Y-62527095D02*
X197812295Y-62374714D01*
X197812295Y-62374714D02*
X197850390Y-62298523D01*
X197850390Y-62298523D02*
X197888485Y-62260428D01*
X197888485Y-62260428D02*
X197964676Y-62222333D01*
X197964676Y-62222333D02*
X198002771Y-62222333D01*
X198002771Y-62222333D02*
X198078961Y-62260428D01*
X198078961Y-62260428D02*
X198117057Y-62298523D01*
X198117057Y-62298523D02*
X198155152Y-62374714D01*
X198155152Y-62374714D02*
X198155152Y-62527095D01*
X198155152Y-62527095D02*
X198193247Y-62603285D01*
X198193247Y-62603285D02*
X198231342Y-62641380D01*
X198231342Y-62641380D02*
X198307533Y-62679476D01*
X198307533Y-62679476D02*
X198459914Y-62679476D01*
X198459914Y-62679476D02*
X198536104Y-62641380D01*
X198536104Y-62641380D02*
X198574200Y-62603285D01*
X198574200Y-62603285D02*
X198612295Y-62527095D01*
X198612295Y-62527095D02*
X198612295Y-62374714D01*
X198612295Y-62374714D02*
X198574200Y-62298523D01*
X198574200Y-62298523D02*
X198536104Y-62260428D01*
X198536104Y-62260428D02*
X198459914Y-62222333D01*
X198459914Y-62222333D02*
X198307533Y-62222333D01*
X198307533Y-62222333D02*
X198231342Y-62260428D01*
X198231342Y-62260428D02*
X198193247Y-62298523D01*
X198193247Y-62298523D02*
X198155152Y-62374714D01*
X197780390Y-74814190D02*
X197742295Y-74890380D01*
X197742295Y-74890380D02*
X197742295Y-75004666D01*
X197742295Y-75004666D02*
X197780390Y-75118952D01*
X197780390Y-75118952D02*
X197856580Y-75195142D01*
X197856580Y-75195142D02*
X197932771Y-75233237D01*
X197932771Y-75233237D02*
X198085152Y-75271333D01*
X198085152Y-75271333D02*
X198199438Y-75271333D01*
X198199438Y-75271333D02*
X198351819Y-75233237D01*
X198351819Y-75233237D02*
X198428009Y-75195142D01*
X198428009Y-75195142D02*
X198504200Y-75118952D01*
X198504200Y-75118952D02*
X198542295Y-75004666D01*
X198542295Y-75004666D02*
X198542295Y-74928475D01*
X198542295Y-74928475D02*
X198504200Y-74814190D01*
X198504200Y-74814190D02*
X198466104Y-74776094D01*
X198466104Y-74776094D02*
X198199438Y-74776094D01*
X198199438Y-74776094D02*
X198199438Y-74928475D01*
X198542295Y-74433237D02*
X197742295Y-74433237D01*
X197742295Y-74433237D02*
X198542295Y-73976094D01*
X198542295Y-73976094D02*
X197742295Y-73976094D01*
X198542295Y-73595142D02*
X197742295Y-73595142D01*
X197742295Y-73595142D02*
X197742295Y-73404666D01*
X197742295Y-73404666D02*
X197780390Y-73290380D01*
X197780390Y-73290380D02*
X197856580Y-73214190D01*
X197856580Y-73214190D02*
X197932771Y-73176095D01*
X197932771Y-73176095D02*
X198085152Y-73137999D01*
X198085152Y-73137999D02*
X198199438Y-73137999D01*
X198199438Y-73137999D02*
X198351819Y-73176095D01*
X198351819Y-73176095D02*
X198428009Y-73214190D01*
X198428009Y-73214190D02*
X198504200Y-73290380D01*
X198504200Y-73290380D02*
X198542295Y-73404666D01*
X198542295Y-73404666D02*
X198542295Y-73595142D01*
X200282295Y-64012809D02*
X200282295Y-63936619D01*
X200282295Y-63936619D02*
X200320390Y-63860428D01*
X200320390Y-63860428D02*
X200358485Y-63822333D01*
X200358485Y-63822333D02*
X200434676Y-63784238D01*
X200434676Y-63784238D02*
X200587057Y-63746143D01*
X200587057Y-63746143D02*
X200777533Y-63746143D01*
X200777533Y-63746143D02*
X200929914Y-63784238D01*
X200929914Y-63784238D02*
X201006104Y-63822333D01*
X201006104Y-63822333D02*
X201044200Y-63860428D01*
X201044200Y-63860428D02*
X201082295Y-63936619D01*
X201082295Y-63936619D02*
X201082295Y-64012809D01*
X201082295Y-64012809D02*
X201044200Y-64089000D01*
X201044200Y-64089000D02*
X201006104Y-64127095D01*
X201006104Y-64127095D02*
X200929914Y-64165190D01*
X200929914Y-64165190D02*
X200777533Y-64203286D01*
X200777533Y-64203286D02*
X200587057Y-64203286D01*
X200587057Y-64203286D02*
X200434676Y-64165190D01*
X200434676Y-64165190D02*
X200358485Y-64127095D01*
X200358485Y-64127095D02*
X200320390Y-64089000D01*
X200320390Y-64089000D02*
X200282295Y-64012809D01*
X200282295Y-63250904D02*
X200282295Y-63174714D01*
X200282295Y-63174714D02*
X200320390Y-63098523D01*
X200320390Y-63098523D02*
X200358485Y-63060428D01*
X200358485Y-63060428D02*
X200434676Y-63022333D01*
X200434676Y-63022333D02*
X200587057Y-62984238D01*
X200587057Y-62984238D02*
X200777533Y-62984238D01*
X200777533Y-62984238D02*
X200929914Y-63022333D01*
X200929914Y-63022333D02*
X201006104Y-63060428D01*
X201006104Y-63060428D02*
X201044200Y-63098523D01*
X201044200Y-63098523D02*
X201082295Y-63174714D01*
X201082295Y-63174714D02*
X201082295Y-63250904D01*
X201082295Y-63250904D02*
X201044200Y-63327095D01*
X201044200Y-63327095D02*
X201006104Y-63365190D01*
X201006104Y-63365190D02*
X200929914Y-63403285D01*
X200929914Y-63403285D02*
X200777533Y-63441381D01*
X200777533Y-63441381D02*
X200587057Y-63441381D01*
X200587057Y-63441381D02*
X200434676Y-63403285D01*
X200434676Y-63403285D02*
X200358485Y-63365190D01*
X200358485Y-63365190D02*
X200320390Y-63327095D01*
X200320390Y-63327095D02*
X200282295Y-63250904D01*
X200282295Y-62298523D02*
X200282295Y-62450904D01*
X200282295Y-62450904D02*
X200320390Y-62527095D01*
X200320390Y-62527095D02*
X200358485Y-62565190D01*
X200358485Y-62565190D02*
X200472771Y-62641380D01*
X200472771Y-62641380D02*
X200625152Y-62679476D01*
X200625152Y-62679476D02*
X200929914Y-62679476D01*
X200929914Y-62679476D02*
X201006104Y-62641380D01*
X201006104Y-62641380D02*
X201044200Y-62603285D01*
X201044200Y-62603285D02*
X201082295Y-62527095D01*
X201082295Y-62527095D02*
X201082295Y-62374714D01*
X201082295Y-62374714D02*
X201044200Y-62298523D01*
X201044200Y-62298523D02*
X201006104Y-62260428D01*
X201006104Y-62260428D02*
X200929914Y-62222333D01*
X200929914Y-62222333D02*
X200739438Y-62222333D01*
X200739438Y-62222333D02*
X200663247Y-62260428D01*
X200663247Y-62260428D02*
X200625152Y-62298523D01*
X200625152Y-62298523D02*
X200587057Y-62374714D01*
X200587057Y-62374714D02*
X200587057Y-62527095D01*
X200587057Y-62527095D02*
X200625152Y-62603285D01*
X200625152Y-62603285D02*
X200663247Y-62641380D01*
X200663247Y-62641380D02*
X200739438Y-62679476D01*
X201082295Y-74776095D02*
X200701342Y-75042762D01*
X201082295Y-75233238D02*
X200282295Y-75233238D01*
X200282295Y-75233238D02*
X200282295Y-74928476D01*
X200282295Y-74928476D02*
X200320390Y-74852286D01*
X200320390Y-74852286D02*
X200358485Y-74814191D01*
X200358485Y-74814191D02*
X200434676Y-74776095D01*
X200434676Y-74776095D02*
X200548961Y-74776095D01*
X200548961Y-74776095D02*
X200625152Y-74814191D01*
X200625152Y-74814191D02*
X200663247Y-74852286D01*
X200663247Y-74852286D02*
X200701342Y-74928476D01*
X200701342Y-74928476D02*
X200701342Y-75233238D01*
X200853723Y-74471334D02*
X200853723Y-74090381D01*
X201082295Y-74547524D02*
X200282295Y-74280857D01*
X200282295Y-74280857D02*
X201082295Y-74014191D01*
X200282295Y-73823715D02*
X201082295Y-73633239D01*
X201082295Y-73633239D02*
X200510866Y-73480858D01*
X200510866Y-73480858D02*
X201082295Y-73328477D01*
X201082295Y-73328477D02*
X200282295Y-73138001D01*
X178222295Y-74820524D02*
X178222295Y-75277667D01*
X178222295Y-75049095D02*
X177422295Y-75049095D01*
X177422295Y-75049095D02*
X177536580Y-75125286D01*
X177536580Y-75125286D02*
X177612771Y-75201476D01*
X177612771Y-75201476D02*
X177650866Y-75277667D01*
X178222295Y-74058619D02*
X178222295Y-74515762D01*
X178222295Y-74287190D02*
X177422295Y-74287190D01*
X177422295Y-74287190D02*
X177536580Y-74363381D01*
X177536580Y-74363381D02*
X177612771Y-74439571D01*
X177612771Y-74439571D02*
X177650866Y-74515762D01*
X178222295Y-73296714D02*
X178222295Y-73753857D01*
X178222295Y-73525285D02*
X177422295Y-73525285D01*
X177422295Y-73525285D02*
X177536580Y-73601476D01*
X177536580Y-73601476D02*
X177612771Y-73677666D01*
X177612771Y-73677666D02*
X177650866Y-73753857D01*
X195240390Y-63898523D02*
X195202295Y-63974713D01*
X195202295Y-63974713D02*
X195202295Y-64088999D01*
X195202295Y-64088999D02*
X195240390Y-64203285D01*
X195240390Y-64203285D02*
X195316580Y-64279475D01*
X195316580Y-64279475D02*
X195392771Y-64317570D01*
X195392771Y-64317570D02*
X195545152Y-64355666D01*
X195545152Y-64355666D02*
X195659438Y-64355666D01*
X195659438Y-64355666D02*
X195811819Y-64317570D01*
X195811819Y-64317570D02*
X195888009Y-64279475D01*
X195888009Y-64279475D02*
X195964200Y-64203285D01*
X195964200Y-64203285D02*
X196002295Y-64088999D01*
X196002295Y-64088999D02*
X196002295Y-64012808D01*
X196002295Y-64012808D02*
X195964200Y-63898523D01*
X195964200Y-63898523D02*
X195926104Y-63860427D01*
X195926104Y-63860427D02*
X195659438Y-63860427D01*
X195659438Y-63860427D02*
X195659438Y-64012808D01*
X196002295Y-63517570D02*
X195202295Y-63517570D01*
X195202295Y-63517570D02*
X196002295Y-63060427D01*
X196002295Y-63060427D02*
X195202295Y-63060427D01*
X196002295Y-62679475D02*
X195202295Y-62679475D01*
X195202295Y-62679475D02*
X195202295Y-62488999D01*
X195202295Y-62488999D02*
X195240390Y-62374713D01*
X195240390Y-62374713D02*
X195316580Y-62298523D01*
X195316580Y-62298523D02*
X195392771Y-62260428D01*
X195392771Y-62260428D02*
X195545152Y-62222332D01*
X195545152Y-62222332D02*
X195659438Y-62222332D01*
X195659438Y-62222332D02*
X195811819Y-62260428D01*
X195811819Y-62260428D02*
X195888009Y-62298523D01*
X195888009Y-62298523D02*
X195964200Y-62374713D01*
X195964200Y-62374713D02*
X196002295Y-62488999D01*
X196002295Y-62488999D02*
X196002295Y-62679475D01*
X185042295Y-75087190D02*
X185042295Y-75011000D01*
X185042295Y-75011000D02*
X185080390Y-74934809D01*
X185080390Y-74934809D02*
X185118485Y-74896714D01*
X185118485Y-74896714D02*
X185194676Y-74858619D01*
X185194676Y-74858619D02*
X185347057Y-74820524D01*
X185347057Y-74820524D02*
X185537533Y-74820524D01*
X185537533Y-74820524D02*
X185689914Y-74858619D01*
X185689914Y-74858619D02*
X185766104Y-74896714D01*
X185766104Y-74896714D02*
X185804200Y-74934809D01*
X185804200Y-74934809D02*
X185842295Y-75011000D01*
X185842295Y-75011000D02*
X185842295Y-75087190D01*
X185842295Y-75087190D02*
X185804200Y-75163381D01*
X185804200Y-75163381D02*
X185766104Y-75201476D01*
X185766104Y-75201476D02*
X185689914Y-75239571D01*
X185689914Y-75239571D02*
X185537533Y-75277667D01*
X185537533Y-75277667D02*
X185347057Y-75277667D01*
X185347057Y-75277667D02*
X185194676Y-75239571D01*
X185194676Y-75239571D02*
X185118485Y-75201476D01*
X185118485Y-75201476D02*
X185080390Y-75163381D01*
X185080390Y-75163381D02*
X185042295Y-75087190D01*
X185042295Y-74325285D02*
X185042295Y-74249095D01*
X185042295Y-74249095D02*
X185080390Y-74172904D01*
X185080390Y-74172904D02*
X185118485Y-74134809D01*
X185118485Y-74134809D02*
X185194676Y-74096714D01*
X185194676Y-74096714D02*
X185347057Y-74058619D01*
X185347057Y-74058619D02*
X185537533Y-74058619D01*
X185537533Y-74058619D02*
X185689914Y-74096714D01*
X185689914Y-74096714D02*
X185766104Y-74134809D01*
X185766104Y-74134809D02*
X185804200Y-74172904D01*
X185804200Y-74172904D02*
X185842295Y-74249095D01*
X185842295Y-74249095D02*
X185842295Y-74325285D01*
X185842295Y-74325285D02*
X185804200Y-74401476D01*
X185804200Y-74401476D02*
X185766104Y-74439571D01*
X185766104Y-74439571D02*
X185689914Y-74477666D01*
X185689914Y-74477666D02*
X185537533Y-74515762D01*
X185537533Y-74515762D02*
X185347057Y-74515762D01*
X185347057Y-74515762D02*
X185194676Y-74477666D01*
X185194676Y-74477666D02*
X185118485Y-74439571D01*
X185118485Y-74439571D02*
X185080390Y-74401476D01*
X185080390Y-74401476D02*
X185042295Y-74325285D01*
X185118485Y-73753857D02*
X185080390Y-73715761D01*
X185080390Y-73715761D02*
X185042295Y-73639571D01*
X185042295Y-73639571D02*
X185042295Y-73449095D01*
X185042295Y-73449095D02*
X185080390Y-73372904D01*
X185080390Y-73372904D02*
X185118485Y-73334809D01*
X185118485Y-73334809D02*
X185194676Y-73296714D01*
X185194676Y-73296714D02*
X185270866Y-73296714D01*
X185270866Y-73296714D02*
X185385152Y-73334809D01*
X185385152Y-73334809D02*
X185842295Y-73791952D01*
X185842295Y-73791952D02*
X185842295Y-73296714D01*
X190112295Y-64012809D02*
X190112295Y-63936619D01*
X190112295Y-63936619D02*
X190150390Y-63860428D01*
X190150390Y-63860428D02*
X190188485Y-63822333D01*
X190188485Y-63822333D02*
X190264676Y-63784238D01*
X190264676Y-63784238D02*
X190417057Y-63746143D01*
X190417057Y-63746143D02*
X190607533Y-63746143D01*
X190607533Y-63746143D02*
X190759914Y-63784238D01*
X190759914Y-63784238D02*
X190836104Y-63822333D01*
X190836104Y-63822333D02*
X190874200Y-63860428D01*
X190874200Y-63860428D02*
X190912295Y-63936619D01*
X190912295Y-63936619D02*
X190912295Y-64012809D01*
X190912295Y-64012809D02*
X190874200Y-64089000D01*
X190874200Y-64089000D02*
X190836104Y-64127095D01*
X190836104Y-64127095D02*
X190759914Y-64165190D01*
X190759914Y-64165190D02*
X190607533Y-64203286D01*
X190607533Y-64203286D02*
X190417057Y-64203286D01*
X190417057Y-64203286D02*
X190264676Y-64165190D01*
X190264676Y-64165190D02*
X190188485Y-64127095D01*
X190188485Y-64127095D02*
X190150390Y-64089000D01*
X190150390Y-64089000D02*
X190112295Y-64012809D01*
X190912295Y-62984238D02*
X190912295Y-63441381D01*
X190912295Y-63212809D02*
X190112295Y-63212809D01*
X190112295Y-63212809D02*
X190226580Y-63289000D01*
X190226580Y-63289000D02*
X190302771Y-63365190D01*
X190302771Y-63365190D02*
X190340866Y-63441381D01*
X190112295Y-62717571D02*
X190112295Y-62184237D01*
X190112295Y-62184237D02*
X190912295Y-62527095D01*
X192662295Y-75353857D02*
X193462295Y-75087190D01*
X193462295Y-75087190D02*
X192662295Y-74820524D01*
X193386104Y-74096714D02*
X193424200Y-74134810D01*
X193424200Y-74134810D02*
X193462295Y-74249095D01*
X193462295Y-74249095D02*
X193462295Y-74325286D01*
X193462295Y-74325286D02*
X193424200Y-74439572D01*
X193424200Y-74439572D02*
X193348009Y-74515762D01*
X193348009Y-74515762D02*
X193271819Y-74553857D01*
X193271819Y-74553857D02*
X193119438Y-74591953D01*
X193119438Y-74591953D02*
X193005152Y-74591953D01*
X193005152Y-74591953D02*
X192852771Y-74553857D01*
X192852771Y-74553857D02*
X192776580Y-74515762D01*
X192776580Y-74515762D02*
X192700390Y-74439572D01*
X192700390Y-74439572D02*
X192662295Y-74325286D01*
X192662295Y-74325286D02*
X192662295Y-74249095D01*
X192662295Y-74249095D02*
X192700390Y-74134810D01*
X192700390Y-74134810D02*
X192738485Y-74096714D01*
X193386104Y-73296714D02*
X193424200Y-73334810D01*
X193424200Y-73334810D02*
X193462295Y-73449095D01*
X193462295Y-73449095D02*
X193462295Y-73525286D01*
X193462295Y-73525286D02*
X193424200Y-73639572D01*
X193424200Y-73639572D02*
X193348009Y-73715762D01*
X193348009Y-73715762D02*
X193271819Y-73753857D01*
X193271819Y-73753857D02*
X193119438Y-73791953D01*
X193119438Y-73791953D02*
X193005152Y-73791953D01*
X193005152Y-73791953D02*
X192852771Y-73753857D01*
X192852771Y-73753857D02*
X192776580Y-73715762D01*
X192776580Y-73715762D02*
X192700390Y-73639572D01*
X192700390Y-73639572D02*
X192662295Y-73525286D01*
X192662295Y-73525286D02*
X192662295Y-73449095D01*
X192662295Y-73449095D02*
X192700390Y-73334810D01*
X192700390Y-73334810D02*
X192738485Y-73296714D01*
X187582295Y-75087190D02*
X187582295Y-75011000D01*
X187582295Y-75011000D02*
X187620390Y-74934809D01*
X187620390Y-74934809D02*
X187658485Y-74896714D01*
X187658485Y-74896714D02*
X187734676Y-74858619D01*
X187734676Y-74858619D02*
X187887057Y-74820524D01*
X187887057Y-74820524D02*
X188077533Y-74820524D01*
X188077533Y-74820524D02*
X188229914Y-74858619D01*
X188229914Y-74858619D02*
X188306104Y-74896714D01*
X188306104Y-74896714D02*
X188344200Y-74934809D01*
X188344200Y-74934809D02*
X188382295Y-75011000D01*
X188382295Y-75011000D02*
X188382295Y-75087190D01*
X188382295Y-75087190D02*
X188344200Y-75163381D01*
X188344200Y-75163381D02*
X188306104Y-75201476D01*
X188306104Y-75201476D02*
X188229914Y-75239571D01*
X188229914Y-75239571D02*
X188077533Y-75277667D01*
X188077533Y-75277667D02*
X187887057Y-75277667D01*
X187887057Y-75277667D02*
X187734676Y-75239571D01*
X187734676Y-75239571D02*
X187658485Y-75201476D01*
X187658485Y-75201476D02*
X187620390Y-75163381D01*
X187620390Y-75163381D02*
X187582295Y-75087190D01*
X187658485Y-74515762D02*
X187620390Y-74477666D01*
X187620390Y-74477666D02*
X187582295Y-74401476D01*
X187582295Y-74401476D02*
X187582295Y-74211000D01*
X187582295Y-74211000D02*
X187620390Y-74134809D01*
X187620390Y-74134809D02*
X187658485Y-74096714D01*
X187658485Y-74096714D02*
X187734676Y-74058619D01*
X187734676Y-74058619D02*
X187810866Y-74058619D01*
X187810866Y-74058619D02*
X187925152Y-74096714D01*
X187925152Y-74096714D02*
X188382295Y-74553857D01*
X188382295Y-74553857D02*
X188382295Y-74058619D01*
X188382295Y-73677666D02*
X188382295Y-73525285D01*
X188382295Y-73525285D02*
X188344200Y-73449095D01*
X188344200Y-73449095D02*
X188306104Y-73410999D01*
X188306104Y-73410999D02*
X188191819Y-73334809D01*
X188191819Y-73334809D02*
X188039438Y-73296714D01*
X188039438Y-73296714D02*
X187734676Y-73296714D01*
X187734676Y-73296714D02*
X187658485Y-73334809D01*
X187658485Y-73334809D02*
X187620390Y-73372904D01*
X187620390Y-73372904D02*
X187582295Y-73449095D01*
X187582295Y-73449095D02*
X187582295Y-73601476D01*
X187582295Y-73601476D02*
X187620390Y-73677666D01*
X187620390Y-73677666D02*
X187658485Y-73715761D01*
X187658485Y-73715761D02*
X187734676Y-73753857D01*
X187734676Y-73753857D02*
X187925152Y-73753857D01*
X187925152Y-73753857D02*
X188001342Y-73715761D01*
X188001342Y-73715761D02*
X188039438Y-73677666D01*
X188039438Y-73677666D02*
X188077533Y-73601476D01*
X188077533Y-73601476D02*
X188077533Y-73449095D01*
X188077533Y-73449095D02*
X188039438Y-73372904D01*
X188039438Y-73372904D02*
X188001342Y-73334809D01*
X188001342Y-73334809D02*
X187925152Y-73296714D01*
X192700390Y-63898523D02*
X192662295Y-63974713D01*
X192662295Y-63974713D02*
X192662295Y-64088999D01*
X192662295Y-64088999D02*
X192700390Y-64203285D01*
X192700390Y-64203285D02*
X192776580Y-64279475D01*
X192776580Y-64279475D02*
X192852771Y-64317570D01*
X192852771Y-64317570D02*
X193005152Y-64355666D01*
X193005152Y-64355666D02*
X193119438Y-64355666D01*
X193119438Y-64355666D02*
X193271819Y-64317570D01*
X193271819Y-64317570D02*
X193348009Y-64279475D01*
X193348009Y-64279475D02*
X193424200Y-64203285D01*
X193424200Y-64203285D02*
X193462295Y-64088999D01*
X193462295Y-64088999D02*
X193462295Y-64012808D01*
X193462295Y-64012808D02*
X193424200Y-63898523D01*
X193424200Y-63898523D02*
X193386104Y-63860427D01*
X193386104Y-63860427D02*
X193119438Y-63860427D01*
X193119438Y-63860427D02*
X193119438Y-64012808D01*
X193462295Y-63517570D02*
X192662295Y-63517570D01*
X192662295Y-63517570D02*
X193462295Y-63060427D01*
X193462295Y-63060427D02*
X192662295Y-63060427D01*
X193462295Y-62679475D02*
X192662295Y-62679475D01*
X192662295Y-62679475D02*
X192662295Y-62488999D01*
X192662295Y-62488999D02*
X192700390Y-62374713D01*
X192700390Y-62374713D02*
X192776580Y-62298523D01*
X192776580Y-62298523D02*
X192852771Y-62260428D01*
X192852771Y-62260428D02*
X193005152Y-62222332D01*
X193005152Y-62222332D02*
X193119438Y-62222332D01*
X193119438Y-62222332D02*
X193271819Y-62260428D01*
X193271819Y-62260428D02*
X193348009Y-62298523D01*
X193348009Y-62298523D02*
X193424200Y-62374713D01*
X193424200Y-62374713D02*
X193462295Y-62488999D01*
X193462295Y-62488999D02*
X193462295Y-62679475D01*
X183302295Y-74820524D02*
X183302295Y-75277667D01*
X183302295Y-75049095D02*
X182502295Y-75049095D01*
X182502295Y-75049095D02*
X182616580Y-75125286D01*
X182616580Y-75125286D02*
X182692771Y-75201476D01*
X182692771Y-75201476D02*
X182730866Y-75277667D01*
X183302295Y-74058619D02*
X183302295Y-74515762D01*
X183302295Y-74287190D02*
X182502295Y-74287190D01*
X182502295Y-74287190D02*
X182616580Y-74363381D01*
X182616580Y-74363381D02*
X182692771Y-74439571D01*
X182692771Y-74439571D02*
X182730866Y-74515762D01*
X182502295Y-73334809D02*
X182502295Y-73715761D01*
X182502295Y-73715761D02*
X182883247Y-73753857D01*
X182883247Y-73753857D02*
X182845152Y-73715761D01*
X182845152Y-73715761D02*
X182807057Y-73639571D01*
X182807057Y-73639571D02*
X182807057Y-73449095D01*
X182807057Y-73449095D02*
X182845152Y-73372904D01*
X182845152Y-73372904D02*
X182883247Y-73334809D01*
X182883247Y-73334809D02*
X182959438Y-73296714D01*
X182959438Y-73296714D02*
X183149914Y-73296714D01*
X183149914Y-73296714D02*
X183226104Y-73334809D01*
X183226104Y-73334809D02*
X183264200Y-73372904D01*
X183264200Y-73372904D02*
X183302295Y-73449095D01*
X183302295Y-73449095D02*
X183302295Y-73639571D01*
X183302295Y-73639571D02*
X183264200Y-73715761D01*
X183264200Y-73715761D02*
X183226104Y-73753857D01*
X196002295Y-74776094D02*
X195621342Y-75042761D01*
X196002295Y-75233237D02*
X195202295Y-75233237D01*
X195202295Y-75233237D02*
X195202295Y-74928475D01*
X195202295Y-74928475D02*
X195240390Y-74852285D01*
X195240390Y-74852285D02*
X195278485Y-74814190D01*
X195278485Y-74814190D02*
X195354676Y-74776094D01*
X195354676Y-74776094D02*
X195468961Y-74776094D01*
X195468961Y-74776094D02*
X195545152Y-74814190D01*
X195545152Y-74814190D02*
X195583247Y-74852285D01*
X195583247Y-74852285D02*
X195621342Y-74928475D01*
X195621342Y-74928475D02*
X195621342Y-75233237D01*
X195964200Y-74471333D02*
X196002295Y-74357047D01*
X196002295Y-74357047D02*
X196002295Y-74166571D01*
X196002295Y-74166571D02*
X195964200Y-74090380D01*
X195964200Y-74090380D02*
X195926104Y-74052285D01*
X195926104Y-74052285D02*
X195849914Y-74014190D01*
X195849914Y-74014190D02*
X195773723Y-74014190D01*
X195773723Y-74014190D02*
X195697533Y-74052285D01*
X195697533Y-74052285D02*
X195659438Y-74090380D01*
X195659438Y-74090380D02*
X195621342Y-74166571D01*
X195621342Y-74166571D02*
X195583247Y-74318952D01*
X195583247Y-74318952D02*
X195545152Y-74395142D01*
X195545152Y-74395142D02*
X195507057Y-74433237D01*
X195507057Y-74433237D02*
X195430866Y-74471333D01*
X195430866Y-74471333D02*
X195354676Y-74471333D01*
X195354676Y-74471333D02*
X195278485Y-74433237D01*
X195278485Y-74433237D02*
X195240390Y-74395142D01*
X195240390Y-74395142D02*
X195202295Y-74318952D01*
X195202295Y-74318952D02*
X195202295Y-74128475D01*
X195202295Y-74128475D02*
X195240390Y-74014190D01*
X195202295Y-73785618D02*
X195202295Y-73328475D01*
X196002295Y-73557047D02*
X195202295Y-73557047D01*
X180762295Y-63746143D02*
X180762295Y-64203286D01*
X180762295Y-63974714D02*
X179962295Y-63974714D01*
X179962295Y-63974714D02*
X180076580Y-64050905D01*
X180076580Y-64050905D02*
X180152771Y-64127095D01*
X180152771Y-64127095D02*
X180190866Y-64203286D01*
X179962295Y-63250904D02*
X179962295Y-63174714D01*
X179962295Y-63174714D02*
X180000390Y-63098523D01*
X180000390Y-63098523D02*
X180038485Y-63060428D01*
X180038485Y-63060428D02*
X180114676Y-63022333D01*
X180114676Y-63022333D02*
X180267057Y-62984238D01*
X180267057Y-62984238D02*
X180457533Y-62984238D01*
X180457533Y-62984238D02*
X180609914Y-63022333D01*
X180609914Y-63022333D02*
X180686104Y-63060428D01*
X180686104Y-63060428D02*
X180724200Y-63098523D01*
X180724200Y-63098523D02*
X180762295Y-63174714D01*
X180762295Y-63174714D02*
X180762295Y-63250904D01*
X180762295Y-63250904D02*
X180724200Y-63327095D01*
X180724200Y-63327095D02*
X180686104Y-63365190D01*
X180686104Y-63365190D02*
X180609914Y-63403285D01*
X180609914Y-63403285D02*
X180457533Y-63441381D01*
X180457533Y-63441381D02*
X180267057Y-63441381D01*
X180267057Y-63441381D02*
X180114676Y-63403285D01*
X180114676Y-63403285D02*
X180038485Y-63365190D01*
X180038485Y-63365190D02*
X180000390Y-63327095D01*
X180000390Y-63327095D02*
X179962295Y-63250904D01*
X179962295Y-62488999D02*
X179962295Y-62412809D01*
X179962295Y-62412809D02*
X180000390Y-62336618D01*
X180000390Y-62336618D02*
X180038485Y-62298523D01*
X180038485Y-62298523D02*
X180114676Y-62260428D01*
X180114676Y-62260428D02*
X180267057Y-62222333D01*
X180267057Y-62222333D02*
X180457533Y-62222333D01*
X180457533Y-62222333D02*
X180609914Y-62260428D01*
X180609914Y-62260428D02*
X180686104Y-62298523D01*
X180686104Y-62298523D02*
X180724200Y-62336618D01*
X180724200Y-62336618D02*
X180762295Y-62412809D01*
X180762295Y-62412809D02*
X180762295Y-62488999D01*
X180762295Y-62488999D02*
X180724200Y-62565190D01*
X180724200Y-62565190D02*
X180686104Y-62603285D01*
X180686104Y-62603285D02*
X180609914Y-62641380D01*
X180609914Y-62641380D02*
X180457533Y-62679476D01*
X180457533Y-62679476D02*
X180267057Y-62679476D01*
X180267057Y-62679476D02*
X180114676Y-62641380D01*
X180114676Y-62641380D02*
X180038485Y-62603285D01*
X180038485Y-62603285D02*
X180000390Y-62565190D01*
X180000390Y-62565190D02*
X179962295Y-62488999D01*
X185012295Y-64012809D02*
X185012295Y-63936619D01*
X185012295Y-63936619D02*
X185050390Y-63860428D01*
X185050390Y-63860428D02*
X185088485Y-63822333D01*
X185088485Y-63822333D02*
X185164676Y-63784238D01*
X185164676Y-63784238D02*
X185317057Y-63746143D01*
X185317057Y-63746143D02*
X185507533Y-63746143D01*
X185507533Y-63746143D02*
X185659914Y-63784238D01*
X185659914Y-63784238D02*
X185736104Y-63822333D01*
X185736104Y-63822333D02*
X185774200Y-63860428D01*
X185774200Y-63860428D02*
X185812295Y-63936619D01*
X185812295Y-63936619D02*
X185812295Y-64012809D01*
X185812295Y-64012809D02*
X185774200Y-64089000D01*
X185774200Y-64089000D02*
X185736104Y-64127095D01*
X185736104Y-64127095D02*
X185659914Y-64165190D01*
X185659914Y-64165190D02*
X185507533Y-64203286D01*
X185507533Y-64203286D02*
X185317057Y-64203286D01*
X185317057Y-64203286D02*
X185164676Y-64165190D01*
X185164676Y-64165190D02*
X185088485Y-64127095D01*
X185088485Y-64127095D02*
X185050390Y-64089000D01*
X185050390Y-64089000D02*
X185012295Y-64012809D01*
X185088485Y-63441381D02*
X185050390Y-63403285D01*
X185050390Y-63403285D02*
X185012295Y-63327095D01*
X185012295Y-63327095D02*
X185012295Y-63136619D01*
X185012295Y-63136619D02*
X185050390Y-63060428D01*
X185050390Y-63060428D02*
X185088485Y-63022333D01*
X185088485Y-63022333D02*
X185164676Y-62984238D01*
X185164676Y-62984238D02*
X185240866Y-62984238D01*
X185240866Y-62984238D02*
X185355152Y-63022333D01*
X185355152Y-63022333D02*
X185812295Y-63479476D01*
X185812295Y-63479476D02*
X185812295Y-62984238D01*
X185088485Y-62679476D02*
X185050390Y-62641380D01*
X185050390Y-62641380D02*
X185012295Y-62565190D01*
X185012295Y-62565190D02*
X185012295Y-62374714D01*
X185012295Y-62374714D02*
X185050390Y-62298523D01*
X185050390Y-62298523D02*
X185088485Y-62260428D01*
X185088485Y-62260428D02*
X185164676Y-62222333D01*
X185164676Y-62222333D02*
X185240866Y-62222333D01*
X185240866Y-62222333D02*
X185355152Y-62260428D01*
X185355152Y-62260428D02*
X185812295Y-62717571D01*
X185812295Y-62717571D02*
X185812295Y-62222333D01*
X182502295Y-64012809D02*
X182502295Y-63936619D01*
X182502295Y-63936619D02*
X182540390Y-63860428D01*
X182540390Y-63860428D02*
X182578485Y-63822333D01*
X182578485Y-63822333D02*
X182654676Y-63784238D01*
X182654676Y-63784238D02*
X182807057Y-63746143D01*
X182807057Y-63746143D02*
X182997533Y-63746143D01*
X182997533Y-63746143D02*
X183149914Y-63784238D01*
X183149914Y-63784238D02*
X183226104Y-63822333D01*
X183226104Y-63822333D02*
X183264200Y-63860428D01*
X183264200Y-63860428D02*
X183302295Y-63936619D01*
X183302295Y-63936619D02*
X183302295Y-64012809D01*
X183302295Y-64012809D02*
X183264200Y-64089000D01*
X183264200Y-64089000D02*
X183226104Y-64127095D01*
X183226104Y-64127095D02*
X183149914Y-64165190D01*
X183149914Y-64165190D02*
X182997533Y-64203286D01*
X182997533Y-64203286D02*
X182807057Y-64203286D01*
X182807057Y-64203286D02*
X182654676Y-64165190D01*
X182654676Y-64165190D02*
X182578485Y-64127095D01*
X182578485Y-64127095D02*
X182540390Y-64089000D01*
X182540390Y-64089000D02*
X182502295Y-64012809D01*
X182578485Y-63441381D02*
X182540390Y-63403285D01*
X182540390Y-63403285D02*
X182502295Y-63327095D01*
X182502295Y-63327095D02*
X182502295Y-63136619D01*
X182502295Y-63136619D02*
X182540390Y-63060428D01*
X182540390Y-63060428D02*
X182578485Y-63022333D01*
X182578485Y-63022333D02*
X182654676Y-62984238D01*
X182654676Y-62984238D02*
X182730866Y-62984238D01*
X182730866Y-62984238D02*
X182845152Y-63022333D01*
X182845152Y-63022333D02*
X183302295Y-63479476D01*
X183302295Y-63479476D02*
X183302295Y-62984238D01*
X182768961Y-62298523D02*
X183302295Y-62298523D01*
X182464200Y-62488999D02*
X183035628Y-62679476D01*
X183035628Y-62679476D02*
X183035628Y-62184237D01*
X174882295Y-75087190D02*
X174882295Y-75011000D01*
X174882295Y-75011000D02*
X174920390Y-74934809D01*
X174920390Y-74934809D02*
X174958485Y-74896714D01*
X174958485Y-74896714D02*
X175034676Y-74858619D01*
X175034676Y-74858619D02*
X175187057Y-74820524D01*
X175187057Y-74820524D02*
X175377533Y-74820524D01*
X175377533Y-74820524D02*
X175529914Y-74858619D01*
X175529914Y-74858619D02*
X175606104Y-74896714D01*
X175606104Y-74896714D02*
X175644200Y-74934809D01*
X175644200Y-74934809D02*
X175682295Y-75011000D01*
X175682295Y-75011000D02*
X175682295Y-75087190D01*
X175682295Y-75087190D02*
X175644200Y-75163381D01*
X175644200Y-75163381D02*
X175606104Y-75201476D01*
X175606104Y-75201476D02*
X175529914Y-75239571D01*
X175529914Y-75239571D02*
X175377533Y-75277667D01*
X175377533Y-75277667D02*
X175187057Y-75277667D01*
X175187057Y-75277667D02*
X175034676Y-75239571D01*
X175034676Y-75239571D02*
X174958485Y-75201476D01*
X174958485Y-75201476D02*
X174920390Y-75163381D01*
X174920390Y-75163381D02*
X174882295Y-75087190D01*
X175682295Y-74058619D02*
X175682295Y-74515762D01*
X175682295Y-74287190D02*
X174882295Y-74287190D01*
X174882295Y-74287190D02*
X174996580Y-74363381D01*
X174996580Y-74363381D02*
X175072771Y-74439571D01*
X175072771Y-74439571D02*
X175110866Y-74515762D01*
X174882295Y-73563380D02*
X174882295Y-73487190D01*
X174882295Y-73487190D02*
X174920390Y-73410999D01*
X174920390Y-73410999D02*
X174958485Y-73372904D01*
X174958485Y-73372904D02*
X175034676Y-73334809D01*
X175034676Y-73334809D02*
X175187057Y-73296714D01*
X175187057Y-73296714D02*
X175377533Y-73296714D01*
X175377533Y-73296714D02*
X175529914Y-73334809D01*
X175529914Y-73334809D02*
X175606104Y-73372904D01*
X175606104Y-73372904D02*
X175644200Y-73410999D01*
X175644200Y-73410999D02*
X175682295Y-73487190D01*
X175682295Y-73487190D02*
X175682295Y-73563380D01*
X175682295Y-73563380D02*
X175644200Y-73639571D01*
X175644200Y-73639571D02*
X175606104Y-73677666D01*
X175606104Y-73677666D02*
X175529914Y-73715761D01*
X175529914Y-73715761D02*
X175377533Y-73753857D01*
X175377533Y-73753857D02*
X175187057Y-73753857D01*
X175187057Y-73753857D02*
X175034676Y-73715761D01*
X175034676Y-73715761D02*
X174958485Y-73677666D01*
X174958485Y-73677666D02*
X174920390Y-73639571D01*
X174920390Y-73639571D02*
X174882295Y-73563380D01*
X180762295Y-74820524D02*
X180762295Y-75277667D01*
X180762295Y-75049095D02*
X179962295Y-75049095D01*
X179962295Y-75049095D02*
X180076580Y-75125286D01*
X180076580Y-75125286D02*
X180152771Y-75201476D01*
X180152771Y-75201476D02*
X180190866Y-75277667D01*
X180762295Y-74058619D02*
X180762295Y-74515762D01*
X180762295Y-74287190D02*
X179962295Y-74287190D01*
X179962295Y-74287190D02*
X180076580Y-74363381D01*
X180076580Y-74363381D02*
X180152771Y-74439571D01*
X180152771Y-74439571D02*
X180190866Y-74515762D01*
X179962295Y-73791952D02*
X179962295Y-73296714D01*
X179962295Y-73296714D02*
X180267057Y-73563380D01*
X180267057Y-73563380D02*
X180267057Y-73449095D01*
X180267057Y-73449095D02*
X180305152Y-73372904D01*
X180305152Y-73372904D02*
X180343247Y-73334809D01*
X180343247Y-73334809D02*
X180419438Y-73296714D01*
X180419438Y-73296714D02*
X180609914Y-73296714D01*
X180609914Y-73296714D02*
X180686104Y-73334809D01*
X180686104Y-73334809D02*
X180724200Y-73372904D01*
X180724200Y-73372904D02*
X180762295Y-73449095D01*
X180762295Y-73449095D02*
X180762295Y-73677666D01*
X180762295Y-73677666D02*
X180724200Y-73753857D01*
X180724200Y-73753857D02*
X180686104Y-73791952D01*
X190122295Y-75087190D02*
X190122295Y-75011000D01*
X190122295Y-75011000D02*
X190160390Y-74934809D01*
X190160390Y-74934809D02*
X190198485Y-74896714D01*
X190198485Y-74896714D02*
X190274676Y-74858619D01*
X190274676Y-74858619D02*
X190427057Y-74820524D01*
X190427057Y-74820524D02*
X190617533Y-74820524D01*
X190617533Y-74820524D02*
X190769914Y-74858619D01*
X190769914Y-74858619D02*
X190846104Y-74896714D01*
X190846104Y-74896714D02*
X190884200Y-74934809D01*
X190884200Y-74934809D02*
X190922295Y-75011000D01*
X190922295Y-75011000D02*
X190922295Y-75087190D01*
X190922295Y-75087190D02*
X190884200Y-75163381D01*
X190884200Y-75163381D02*
X190846104Y-75201476D01*
X190846104Y-75201476D02*
X190769914Y-75239571D01*
X190769914Y-75239571D02*
X190617533Y-75277667D01*
X190617533Y-75277667D02*
X190427057Y-75277667D01*
X190427057Y-75277667D02*
X190274676Y-75239571D01*
X190274676Y-75239571D02*
X190198485Y-75201476D01*
X190198485Y-75201476D02*
X190160390Y-75163381D01*
X190160390Y-75163381D02*
X190122295Y-75087190D01*
X190122295Y-74553857D02*
X190122295Y-74058619D01*
X190122295Y-74058619D02*
X190427057Y-74325285D01*
X190427057Y-74325285D02*
X190427057Y-74211000D01*
X190427057Y-74211000D02*
X190465152Y-74134809D01*
X190465152Y-74134809D02*
X190503247Y-74096714D01*
X190503247Y-74096714D02*
X190579438Y-74058619D01*
X190579438Y-74058619D02*
X190769914Y-74058619D01*
X190769914Y-74058619D02*
X190846104Y-74096714D01*
X190846104Y-74096714D02*
X190884200Y-74134809D01*
X190884200Y-74134809D02*
X190922295Y-74211000D01*
X190922295Y-74211000D02*
X190922295Y-74439571D01*
X190922295Y-74439571D02*
X190884200Y-74515762D01*
X190884200Y-74515762D02*
X190846104Y-74553857D01*
X190922295Y-73296714D02*
X190922295Y-73753857D01*
X190922295Y-73525285D02*
X190122295Y-73525285D01*
X190122295Y-73525285D02*
X190236580Y-73601476D01*
X190236580Y-73601476D02*
X190312771Y-73677666D01*
X190312771Y-73677666D02*
X190350866Y-73753857D01*
X236766033Y-72116666D02*
X236432700Y-72349999D01*
X236766033Y-72516666D02*
X236066033Y-72516666D01*
X236066033Y-72516666D02*
X236066033Y-72249999D01*
X236066033Y-72249999D02*
X236099366Y-72183333D01*
X236099366Y-72183333D02*
X236132700Y-72149999D01*
X236132700Y-72149999D02*
X236199366Y-72116666D01*
X236199366Y-72116666D02*
X236299366Y-72116666D01*
X236299366Y-72116666D02*
X236366033Y-72149999D01*
X236366033Y-72149999D02*
X236399366Y-72183333D01*
X236399366Y-72183333D02*
X236432700Y-72249999D01*
X236432700Y-72249999D02*
X236432700Y-72516666D01*
X236299366Y-71516666D02*
X236766033Y-71516666D01*
X236032700Y-71683333D02*
X236532700Y-71849999D01*
X236532700Y-71849999D02*
X236532700Y-71416666D01*
X233566667Y-70066033D02*
X233233333Y-70066033D01*
X233233333Y-70066033D02*
X233200000Y-70399366D01*
X233200000Y-70399366D02*
X233233333Y-70366033D01*
X233233333Y-70366033D02*
X233300000Y-70332700D01*
X233300000Y-70332700D02*
X233466667Y-70332700D01*
X233466667Y-70332700D02*
X233533333Y-70366033D01*
X233533333Y-70366033D02*
X233566667Y-70399366D01*
X233566667Y-70399366D02*
X233600000Y-70466033D01*
X233600000Y-70466033D02*
X233600000Y-70632700D01*
X233600000Y-70632700D02*
X233566667Y-70699366D01*
X233566667Y-70699366D02*
X233533333Y-70732700D01*
X233533333Y-70732700D02*
X233466667Y-70766033D01*
X233466667Y-70766033D02*
X233300000Y-70766033D01*
X233300000Y-70766033D02*
X233233333Y-70732700D01*
X233233333Y-70732700D02*
X233200000Y-70699366D01*
X233900000Y-70699366D02*
X233933334Y-70732700D01*
X233933334Y-70732700D02*
X233900000Y-70766033D01*
X233900000Y-70766033D02*
X233866667Y-70732700D01*
X233866667Y-70732700D02*
X233900000Y-70699366D01*
X233900000Y-70699366D02*
X233900000Y-70766033D01*
X234600000Y-70766033D02*
X234200000Y-70766033D01*
X234400000Y-70766033D02*
X234400000Y-70066033D01*
X234400000Y-70066033D02*
X234333333Y-70166033D01*
X234333333Y-70166033D02*
X234266667Y-70232700D01*
X234266667Y-70232700D02*
X234200000Y-70266033D01*
X234900000Y-70766033D02*
X234900000Y-70066033D01*
X235300000Y-70766033D02*
X235000000Y-70366033D01*
X235300000Y-70066033D02*
X234900000Y-70466033D01*
X236766033Y-76366666D02*
X236432700Y-76599999D01*
X236766033Y-76766666D02*
X236066033Y-76766666D01*
X236066033Y-76766666D02*
X236066033Y-76499999D01*
X236066033Y-76499999D02*
X236099366Y-76433333D01*
X236099366Y-76433333D02*
X236132700Y-76399999D01*
X236132700Y-76399999D02*
X236199366Y-76366666D01*
X236199366Y-76366666D02*
X236299366Y-76366666D01*
X236299366Y-76366666D02*
X236366033Y-76399999D01*
X236366033Y-76399999D02*
X236399366Y-76433333D01*
X236399366Y-76433333D02*
X236432700Y-76499999D01*
X236432700Y-76499999D02*
X236432700Y-76766666D01*
X236066033Y-76133333D02*
X236066033Y-75699999D01*
X236066033Y-75699999D02*
X236332700Y-75933333D01*
X236332700Y-75933333D02*
X236332700Y-75833333D01*
X236332700Y-75833333D02*
X236366033Y-75766666D01*
X236366033Y-75766666D02*
X236399366Y-75733333D01*
X236399366Y-75733333D02*
X236466033Y-75699999D01*
X236466033Y-75699999D02*
X236632700Y-75699999D01*
X236632700Y-75699999D02*
X236699366Y-75733333D01*
X236699366Y-75733333D02*
X236732700Y-75766666D01*
X236732700Y-75766666D02*
X236766033Y-75833333D01*
X236766033Y-75833333D02*
X236766033Y-76033333D01*
X236766033Y-76033333D02*
X236732700Y-76099999D01*
X236732700Y-76099999D02*
X236699366Y-76133333D01*
X233566667Y-74316033D02*
X233233333Y-74316033D01*
X233233333Y-74316033D02*
X233200000Y-74649366D01*
X233200000Y-74649366D02*
X233233333Y-74616033D01*
X233233333Y-74616033D02*
X233300000Y-74582700D01*
X233300000Y-74582700D02*
X233466667Y-74582700D01*
X233466667Y-74582700D02*
X233533333Y-74616033D01*
X233533333Y-74616033D02*
X233566667Y-74649366D01*
X233566667Y-74649366D02*
X233600000Y-74716033D01*
X233600000Y-74716033D02*
X233600000Y-74882700D01*
X233600000Y-74882700D02*
X233566667Y-74949366D01*
X233566667Y-74949366D02*
X233533333Y-74982700D01*
X233533333Y-74982700D02*
X233466667Y-75016033D01*
X233466667Y-75016033D02*
X233300000Y-75016033D01*
X233300000Y-75016033D02*
X233233333Y-74982700D01*
X233233333Y-74982700D02*
X233200000Y-74949366D01*
X233900000Y-74949366D02*
X233933334Y-74982700D01*
X233933334Y-74982700D02*
X233900000Y-75016033D01*
X233900000Y-75016033D02*
X233866667Y-74982700D01*
X233866667Y-74982700D02*
X233900000Y-74949366D01*
X233900000Y-74949366D02*
X233900000Y-75016033D01*
X234600000Y-75016033D02*
X234200000Y-75016033D01*
X234400000Y-75016033D02*
X234400000Y-74316033D01*
X234400000Y-74316033D02*
X234333333Y-74416033D01*
X234333333Y-74416033D02*
X234266667Y-74482700D01*
X234266667Y-74482700D02*
X234200000Y-74516033D01*
X234900000Y-75016033D02*
X234900000Y-74316033D01*
X235300000Y-75016033D02*
X235000000Y-74616033D01*
X235300000Y-74316033D02*
X234900000Y-74716033D01*
X261966667Y-93466033D02*
X261633333Y-93466033D01*
X261633333Y-93466033D02*
X261633333Y-92766033D01*
X262200000Y-93099366D02*
X262433334Y-93099366D01*
X262533334Y-93466033D02*
X262200000Y-93466033D01*
X262200000Y-93466033D02*
X262200000Y-92766033D01*
X262200000Y-92766033D02*
X262533334Y-92766033D01*
X262833333Y-93466033D02*
X262833333Y-92766033D01*
X262833333Y-92766033D02*
X263000000Y-92766033D01*
X263000000Y-92766033D02*
X263100000Y-92799366D01*
X263100000Y-92799366D02*
X263166667Y-92866033D01*
X263166667Y-92866033D02*
X263200000Y-92932700D01*
X263200000Y-92932700D02*
X263233333Y-93066033D01*
X263233333Y-93066033D02*
X263233333Y-93166033D01*
X263233333Y-93166033D02*
X263200000Y-93299366D01*
X263200000Y-93299366D02*
X263166667Y-93366033D01*
X263166667Y-93366033D02*
X263100000Y-93432700D01*
X263100000Y-93432700D02*
X263000000Y-93466033D01*
X263000000Y-93466033D02*
X262833333Y-93466033D01*
X263900000Y-93466033D02*
X263500000Y-93466033D01*
X263700000Y-93466033D02*
X263700000Y-92766033D01*
X263700000Y-92766033D02*
X263633333Y-92866033D01*
X263633333Y-92866033D02*
X263566667Y-92932700D01*
X263566667Y-92932700D02*
X263500000Y-92966033D01*
X273966667Y-93466033D02*
X273633333Y-93466033D01*
X273633333Y-93466033D02*
X273633333Y-92766033D01*
X274200000Y-93099366D02*
X274433334Y-93099366D01*
X274533334Y-93466033D02*
X274200000Y-93466033D01*
X274200000Y-93466033D02*
X274200000Y-92766033D01*
X274200000Y-92766033D02*
X274533334Y-92766033D01*
X274833333Y-93466033D02*
X274833333Y-92766033D01*
X274833333Y-92766033D02*
X275000000Y-92766033D01*
X275000000Y-92766033D02*
X275100000Y-92799366D01*
X275100000Y-92799366D02*
X275166667Y-92866033D01*
X275166667Y-92866033D02*
X275200000Y-92932700D01*
X275200000Y-92932700D02*
X275233333Y-93066033D01*
X275233333Y-93066033D02*
X275233333Y-93166033D01*
X275233333Y-93166033D02*
X275200000Y-93299366D01*
X275200000Y-93299366D02*
X275166667Y-93366033D01*
X275166667Y-93366033D02*
X275100000Y-93432700D01*
X275100000Y-93432700D02*
X275000000Y-93466033D01*
X275000000Y-93466033D02*
X274833333Y-93466033D01*
X275500000Y-92832700D02*
X275533333Y-92799366D01*
X275533333Y-92799366D02*
X275600000Y-92766033D01*
X275600000Y-92766033D02*
X275766667Y-92766033D01*
X275766667Y-92766033D02*
X275833333Y-92799366D01*
X275833333Y-92799366D02*
X275866667Y-92832700D01*
X275866667Y-92832700D02*
X275900000Y-92899366D01*
X275900000Y-92899366D02*
X275900000Y-92966033D01*
X275900000Y-92966033D02*
X275866667Y-93066033D01*
X275866667Y-93066033D02*
X275466667Y-93466033D01*
X275466667Y-93466033D02*
X275900000Y-93466033D01*
X194213333Y-78616033D02*
X193980000Y-78282700D01*
X193813333Y-78616033D02*
X193813333Y-77916033D01*
X193813333Y-77916033D02*
X194080000Y-77916033D01*
X194080000Y-77916033D02*
X194146667Y-77949366D01*
X194146667Y-77949366D02*
X194180000Y-77982700D01*
X194180000Y-77982700D02*
X194213333Y-78049366D01*
X194213333Y-78049366D02*
X194213333Y-78149366D01*
X194213333Y-78149366D02*
X194180000Y-78216033D01*
X194180000Y-78216033D02*
X194146667Y-78249366D01*
X194146667Y-78249366D02*
X194080000Y-78282700D01*
X194080000Y-78282700D02*
X193813333Y-78282700D01*
X194480000Y-77982700D02*
X194513333Y-77949366D01*
X194513333Y-77949366D02*
X194580000Y-77916033D01*
X194580000Y-77916033D02*
X194746667Y-77916033D01*
X194746667Y-77916033D02*
X194813333Y-77949366D01*
X194813333Y-77949366D02*
X194846667Y-77982700D01*
X194846667Y-77982700D02*
X194880000Y-78049366D01*
X194880000Y-78049366D02*
X194880000Y-78116033D01*
X194880000Y-78116033D02*
X194846667Y-78216033D01*
X194846667Y-78216033D02*
X194446667Y-78616033D01*
X194446667Y-78616033D02*
X194880000Y-78616033D01*
X192396033Y-80666667D02*
X192396033Y-81000000D01*
X192396033Y-81000000D02*
X192729366Y-81033333D01*
X192729366Y-81033333D02*
X192696033Y-81000000D01*
X192696033Y-81000000D02*
X192662700Y-80933333D01*
X192662700Y-80933333D02*
X192662700Y-80766667D01*
X192662700Y-80766667D02*
X192696033Y-80700000D01*
X192696033Y-80700000D02*
X192729366Y-80666667D01*
X192729366Y-80666667D02*
X192796033Y-80633333D01*
X192796033Y-80633333D02*
X192962700Y-80633333D01*
X192962700Y-80633333D02*
X193029366Y-80666667D01*
X193029366Y-80666667D02*
X193062700Y-80700000D01*
X193062700Y-80700000D02*
X193096033Y-80766667D01*
X193096033Y-80766667D02*
X193096033Y-80933333D01*
X193096033Y-80933333D02*
X193062700Y-81000000D01*
X193062700Y-81000000D02*
X193029366Y-81033333D01*
X192462700Y-80366666D02*
X192429366Y-80333333D01*
X192429366Y-80333333D02*
X192396033Y-80266666D01*
X192396033Y-80266666D02*
X192396033Y-80100000D01*
X192396033Y-80100000D02*
X192429366Y-80033333D01*
X192429366Y-80033333D02*
X192462700Y-80000000D01*
X192462700Y-80000000D02*
X192529366Y-79966666D01*
X192529366Y-79966666D02*
X192596033Y-79966666D01*
X192596033Y-79966666D02*
X192696033Y-80000000D01*
X192696033Y-80000000D02*
X193096033Y-80400000D01*
X193096033Y-80400000D02*
X193096033Y-79966666D01*
X158297618Y-73454819D02*
X157964285Y-72978628D01*
X157726190Y-73454819D02*
X157726190Y-72454819D01*
X157726190Y-72454819D02*
X158107142Y-72454819D01*
X158107142Y-72454819D02*
X158202380Y-72502438D01*
X158202380Y-72502438D02*
X158249999Y-72550057D01*
X158249999Y-72550057D02*
X158297618Y-72645295D01*
X158297618Y-72645295D02*
X158297618Y-72788152D01*
X158297618Y-72788152D02*
X158249999Y-72883390D01*
X158249999Y-72883390D02*
X158202380Y-72931009D01*
X158202380Y-72931009D02*
X158107142Y-72978628D01*
X158107142Y-72978628D02*
X157726190Y-72978628D01*
X158726190Y-72931009D02*
X159059523Y-72931009D01*
X159202380Y-73454819D02*
X158726190Y-73454819D01*
X158726190Y-73454819D02*
X158726190Y-72454819D01*
X158726190Y-72454819D02*
X159202380Y-72454819D01*
X159583333Y-73407200D02*
X159726190Y-73454819D01*
X159726190Y-73454819D02*
X159964285Y-73454819D01*
X159964285Y-73454819D02*
X160059523Y-73407200D01*
X160059523Y-73407200D02*
X160107142Y-73359580D01*
X160107142Y-73359580D02*
X160154761Y-73264342D01*
X160154761Y-73264342D02*
X160154761Y-73169104D01*
X160154761Y-73169104D02*
X160107142Y-73073866D01*
X160107142Y-73073866D02*
X160059523Y-73026247D01*
X160059523Y-73026247D02*
X159964285Y-72978628D01*
X159964285Y-72978628D02*
X159773809Y-72931009D01*
X159773809Y-72931009D02*
X159678571Y-72883390D01*
X159678571Y-72883390D02*
X159630952Y-72835771D01*
X159630952Y-72835771D02*
X159583333Y-72740533D01*
X159583333Y-72740533D02*
X159583333Y-72645295D01*
X159583333Y-72645295D02*
X159630952Y-72550057D01*
X159630952Y-72550057D02*
X159678571Y-72502438D01*
X159678571Y-72502438D02*
X159773809Y-72454819D01*
X159773809Y-72454819D02*
X160011904Y-72454819D01*
X160011904Y-72454819D02*
X160154761Y-72502438D01*
X160583333Y-72931009D02*
X160916666Y-72931009D01*
X161059523Y-73454819D02*
X160583333Y-73454819D01*
X160583333Y-73454819D02*
X160583333Y-72454819D01*
X160583333Y-72454819D02*
X161059523Y-72454819D01*
X161345238Y-72454819D02*
X161916666Y-72454819D01*
X161630952Y-73454819D02*
X161630952Y-72454819D01*
X196213333Y-78616033D02*
X195980000Y-78282700D01*
X195813333Y-78616033D02*
X195813333Y-77916033D01*
X195813333Y-77916033D02*
X196080000Y-77916033D01*
X196080000Y-77916033D02*
X196146667Y-77949366D01*
X196146667Y-77949366D02*
X196180000Y-77982700D01*
X196180000Y-77982700D02*
X196213333Y-78049366D01*
X196213333Y-78049366D02*
X196213333Y-78149366D01*
X196213333Y-78149366D02*
X196180000Y-78216033D01*
X196180000Y-78216033D02*
X196146667Y-78249366D01*
X196146667Y-78249366D02*
X196080000Y-78282700D01*
X196080000Y-78282700D02*
X195813333Y-78282700D01*
X196880000Y-78616033D02*
X196480000Y-78616033D01*
X196680000Y-78616033D02*
X196680000Y-77916033D01*
X196680000Y-77916033D02*
X196613333Y-78016033D01*
X196613333Y-78016033D02*
X196546667Y-78082700D01*
X196546667Y-78082700D02*
X196480000Y-78116033D01*
D12*
%TO.C,U1*%
X171510000Y-59860000D02*
X171510000Y-77640000D01*
X171510000Y-77640000D02*
X201990000Y-77640000D01*
X201990000Y-59860000D02*
X171510000Y-59860000D01*
X201990000Y-77640000D02*
X204530000Y-77640000D01*
X204530000Y-59860000D02*
X201990000Y-59860000D01*
X204530000Y-77640000D02*
X204530000Y-59860000D01*
D13*
%TO.C,J4*%
X168551000Y-83504000D02*
X168551000Y-82996000D01*
X169821000Y-83250000D02*
X168551000Y-83504000D01*
X168551000Y-82996000D02*
X169821000Y-83250000D01*
%TO.C,J5*%
X168591000Y-95504000D02*
X168591000Y-94996000D01*
X168591000Y-94996000D02*
X169861000Y-95250000D01*
X169861000Y-95250000D02*
X168591000Y-95504000D01*
D10*
%TO.C,J6*%
X247060000Y-69680000D02*
X247060000Y-78480000D01*
X239960000Y-78480000D02*
X247060000Y-78480000D01*
X245960000Y-69880000D02*
X245960000Y-78280000D01*
X239960000Y-78480000D02*
X239960000Y-69680000D01*
X239960000Y-69680000D02*
X247060000Y-69680000D01*
D14*
X240440000Y-74080000D02*
X246760000Y-74080000D01*
D15*
%TO.C,R4*%
X235750000Y-72850000D02*
X232750000Y-72850000D01*
X232750000Y-72850000D02*
X232750000Y-71150000D01*
X235750000Y-72850000D02*
X235750000Y-71150000D01*
X235750000Y-71150000D02*
X232750000Y-71150000D01*
%TO.C,R3*%
X235750000Y-77100000D02*
X232750000Y-77100000D01*
X232750000Y-77100000D02*
X232750000Y-75400000D01*
X235750000Y-77100000D02*
X235750000Y-75400000D01*
X235750000Y-75400000D02*
X232750000Y-75400000D01*
%TO.C,LED1*%
X260750000Y-91050000D02*
X260750000Y-92450000D01*
X260750000Y-91050000D02*
X264150000Y-91050000D01*
X260750000Y-92450000D02*
X264150000Y-92450000D01*
X260950000Y-91050000D02*
X260950000Y-92450000D01*
X261150000Y-91050000D02*
X261150000Y-92450000D01*
X261350000Y-91050000D02*
X261350000Y-92450000D01*
X262450000Y-91400000D02*
X262450000Y-92150000D01*
X262450000Y-91750000D02*
X262150000Y-91750000D01*
X262450000Y-91750000D02*
X263050000Y-91400000D01*
X263050000Y-91400000D02*
X263050000Y-92150000D01*
X263050000Y-91750000D02*
X263350000Y-91750000D01*
X263050000Y-92150000D02*
X262450000Y-91750000D01*
X264150000Y-91050000D02*
X264150000Y-92450000D01*
%TO.C,LED2*%
X276150000Y-91050000D02*
X276150000Y-92450000D01*
X275050000Y-92150000D02*
X274450000Y-91750000D01*
X275050000Y-91750000D02*
X275350000Y-91750000D01*
X275050000Y-91400000D02*
X275050000Y-92150000D01*
X274450000Y-91750000D02*
X275050000Y-91400000D01*
X274450000Y-91750000D02*
X274150000Y-91750000D01*
X274450000Y-91400000D02*
X274450000Y-92150000D01*
X273350000Y-91050000D02*
X273350000Y-92450000D01*
X273150000Y-91050000D02*
X273150000Y-92450000D01*
X272950000Y-91050000D02*
X272950000Y-92450000D01*
X272750000Y-92450000D02*
X276150000Y-92450000D01*
X272750000Y-91050000D02*
X276150000Y-91050000D01*
X272750000Y-91050000D02*
X272750000Y-92450000D01*
D13*
%TO.C,J3*%
X220170000Y-64800000D02*
X221500000Y-64800000D01*
X220170000Y-66130000D02*
X220170000Y-64800000D01*
X220170000Y-67400000D02*
X220170000Y-77620000D01*
X220170000Y-67400000D02*
X222830000Y-67400000D01*
X220170000Y-77620000D02*
X222830000Y-77620000D01*
X222830000Y-67400000D02*
X222830000Y-77620000D01*
%TO.C,J2*%
X226140000Y-70910000D02*
X227250000Y-70910000D01*
X226140000Y-71670000D02*
X226140000Y-70910000D01*
X226140000Y-72430000D02*
X226140000Y-77445000D01*
X226140000Y-72430000D02*
X226686529Y-72430000D01*
X226140000Y-77445000D02*
X226942470Y-77445000D01*
X227557530Y-77445000D02*
X228360000Y-77445000D01*
X227813471Y-72430000D02*
X228360000Y-72430000D01*
X228360000Y-72430000D02*
X228360000Y-77445000D01*
D15*
%TO.C,R2*%
X193480000Y-79000000D02*
X193480000Y-82000000D01*
X195180000Y-82000000D02*
X193480000Y-82000000D01*
X195180000Y-79000000D02*
X193480000Y-79000000D01*
X195180000Y-79000000D02*
X195180000Y-82000000D01*
D13*
%TO.C,RST1*%
X157000000Y-68250000D02*
X157000000Y-70250000D01*
X158000000Y-71550000D02*
X158450000Y-72000000D01*
X158000000Y-66950000D02*
X158450000Y-66500000D01*
X158450000Y-72000000D02*
X161050000Y-72000000D01*
X161500000Y-71550000D02*
X161050000Y-72000000D01*
X158450000Y-66500000D02*
X161050000Y-66500000D01*
X161500000Y-66950000D02*
X161050000Y-66500000D01*
X162500000Y-68250000D02*
X162500000Y-70250000D01*
D15*
%TO.C,R1*%
X195480000Y-79000000D02*
X195480000Y-82000000D01*
X197180000Y-82000000D02*
X195480000Y-82000000D01*
X197180000Y-79000000D02*
X195480000Y-79000000D01*
X197180000Y-79000000D02*
X197180000Y-82000000D01*
%TD*%
%LPC*%
D16*
%TO.C,J7*%
X158500000Y-59750000D03*
D17*
X161040000Y-59750000D03*
%TD*%
D18*
%TO.C,J6*%
X240810000Y-71180000D03*
X240810000Y-76980000D03*
D19*
X239360000Y-77455000D03*
X239360000Y-76655000D03*
X239360000Y-75330000D03*
X239360000Y-74330000D03*
X239360000Y-73830000D03*
X239360000Y-72830000D03*
X239360000Y-71505000D03*
X239360000Y-70705000D03*
D20*
X239360000Y-70980000D03*
X239360000Y-71780000D03*
D19*
X239360000Y-72330000D03*
X239360000Y-73330000D03*
X239360000Y-74830000D03*
X239360000Y-75830000D03*
D20*
X239360000Y-76380000D03*
X239360000Y-77180000D03*
D21*
X240280000Y-69760000D03*
D22*
X244460000Y-78400000D03*
D21*
X240280000Y-78400000D03*
D22*
X244460000Y-69760000D03*
%TD*%
D23*
%TO.C,R4*%
X233300000Y-72000000D03*
X235200000Y-72000000D03*
%TD*%
%TO.C,R3*%
X233300000Y-76250000D03*
X235200000Y-76250000D03*
%TD*%
D24*
%TO.C,REF1*%
X175500000Y-87750000D03*
X174230000Y-87750000D03*
X172960000Y-87750000D03*
X171182000Y-87750000D03*
%TD*%
%TO.C,REF4*%
X175460000Y-90500000D03*
X174190000Y-90500000D03*
X172920000Y-90500000D03*
X171142000Y-90500000D03*
%TD*%
%TO.C,REF6*%
X200270000Y-90500000D03*
X201540000Y-90500000D03*
X202810000Y-90500000D03*
X204588000Y-90500000D03*
%TD*%
%TO.C,REF3*%
X204628000Y-87750000D03*
X202850000Y-87750000D03*
X201580000Y-87750000D03*
X200310000Y-87750000D03*
%TD*%
%TO.C,REF2*%
X189890000Y-87750000D03*
X188620000Y-87750000D03*
X187350000Y-87750000D03*
X186080000Y-87750000D03*
X184810000Y-87750000D03*
%TD*%
%TO.C,REF5*%
X184770000Y-90500000D03*
X186040000Y-90500000D03*
X187310000Y-90500000D03*
X188580000Y-90500000D03*
X189850000Y-90500000D03*
%TD*%
D25*
%TO.C,SW38*%
X188250000Y-159810000D03*
D26*
X193330000Y-159810000D03*
D25*
X198410000Y-159810000D03*
%TD*%
%TO.C,SW71*%
X255750000Y-141810000D03*
D26*
X260830000Y-141810000D03*
D25*
X265910000Y-141810000D03*
%TD*%
%TO.C,SW34*%
X116250000Y-159810000D03*
D26*
X121330000Y-159810000D03*
D25*
X126410000Y-159810000D03*
%TD*%
%TO.C,SW66*%
X304750000Y-123810000D03*
D26*
X309830000Y-123810000D03*
D25*
X314910000Y-123810000D03*
%TD*%
%TO.C,SW2*%
X75750000Y-105810000D03*
D26*
X80830000Y-105810000D03*
D25*
X85910000Y-105810000D03*
%TD*%
%TO.C,SW20*%
X228750000Y-123810000D03*
D26*
X233830000Y-123810000D03*
D25*
X238910000Y-123810000D03*
%TD*%
%TO.C,SW74*%
X304750000Y-141810000D03*
D26*
X309830000Y-141810000D03*
D25*
X314910000Y-141810000D03*
%TD*%
%TO.C,SW48*%
X197250000Y-177810000D03*
D26*
X202330000Y-177810000D03*
D25*
X207410000Y-177810000D03*
%TD*%
%TO.C,SW10*%
X219750000Y-105810000D03*
D26*
X224830000Y-105810000D03*
D25*
X229910000Y-105810000D03*
%TD*%
%TO.C,SW25*%
X129750000Y-141810000D03*
D26*
X134830000Y-141810000D03*
D25*
X139910000Y-141810000D03*
%TD*%
%TO.C,SW50*%
X233250000Y-177810000D03*
D26*
X238330000Y-177810000D03*
D25*
X243410000Y-177810000D03*
%TD*%
%TO.C,SW82*%
X304750000Y-177810000D03*
D26*
X309830000Y-177810000D03*
D25*
X314910000Y-177810000D03*
%TD*%
%TO.C,SW26*%
X147750000Y-141810000D03*
D26*
X152830000Y-141810000D03*
D25*
X157910000Y-141810000D03*
%TD*%
%TO.C,SW15*%
X138750000Y-123810000D03*
D26*
X143830000Y-123810000D03*
D25*
X148910000Y-123810000D03*
%TD*%
%TO.C,SW9*%
X201750000Y-105810000D03*
D26*
X206830000Y-105810000D03*
D25*
X211910000Y-105810000D03*
%TD*%
%TO.C,SW81*%
X288750000Y-177810000D03*
D26*
X293830000Y-177810000D03*
D25*
X298910000Y-177810000D03*
%TD*%
%TO.C,SW52*%
X75750000Y-195810000D03*
D26*
X80830000Y-195810000D03*
D25*
X85910000Y-195810000D03*
%TD*%
%TO.C,SW3*%
X93750000Y-105810000D03*
D26*
X98830000Y-105810000D03*
D25*
X103910000Y-105810000D03*
%TD*%
%TO.C,SW32*%
X80250000Y-159810000D03*
D26*
X85330000Y-159810000D03*
D25*
X90410000Y-159810000D03*
%TD*%
%TO.C,SW36*%
X152250000Y-159810000D03*
D26*
X157330000Y-159810000D03*
D25*
X162410000Y-159810000D03*
%TD*%
%TO.C,SW80*%
X269500000Y-177810000D03*
D26*
X274580000Y-177810000D03*
D25*
X279660000Y-177810000D03*
%TD*%
%TO.C,SW68*%
X264750000Y-123810000D03*
D26*
X269830000Y-123810000D03*
D25*
X274910000Y-123810000D03*
%TD*%
%TO.C,SW69*%
X246750000Y-123810000D03*
D26*
X251830000Y-123810000D03*
D25*
X256910000Y-123810000D03*
%TD*%
%TO.C,SW40*%
X224250000Y-159810000D03*
D26*
X229330000Y-159810000D03*
D25*
X234410000Y-159810000D03*
%TD*%
%TO.C,SW79*%
X250250000Y-177810000D03*
D26*
X255330000Y-177810000D03*
D25*
X260410000Y-177810000D03*
%TD*%
%TO.C,SW23*%
X93750000Y-141810000D03*
D26*
X98830000Y-141810000D03*
D25*
X103910000Y-141810000D03*
%TD*%
D23*
%TO.C,LED1*%
X263700000Y-91750000D03*
X261800000Y-91750000D03*
%TD*%
D25*
%TO.C,SW60*%
X288750000Y-195810000D03*
D26*
X293830000Y-195810000D03*
D25*
X298910000Y-195810000D03*
%TD*%
%TO.C,SW22*%
X75750000Y-141810000D03*
D26*
X80830000Y-141810000D03*
D25*
X85910000Y-141810000D03*
%TD*%
%TO.C,SW1*%
X57750000Y-105810000D03*
D26*
X62830000Y-105810000D03*
D25*
X67910000Y-105810000D03*
%TD*%
D27*
%TO.C,SW55*%
X130830000Y-193100000D03*
D28*
X130830000Y-201600000D03*
D25*
X165750000Y-195810000D03*
D26*
X170830000Y-195810000D03*
D25*
X175910000Y-195810000D03*
D27*
X210830000Y-193100000D03*
D28*
X210830000Y-201600000D03*
%TD*%
D25*
%TO.C,SW21*%
X57750000Y-141810000D03*
D26*
X62830000Y-141810000D03*
D25*
X67910000Y-141810000D03*
%TD*%
%TO.C,SW6*%
X147750000Y-105810000D03*
D26*
X152830000Y-105810000D03*
D25*
X157910000Y-105810000D03*
%TD*%
%TO.C,SW54*%
X111750000Y-195810000D03*
D26*
X116830000Y-195810000D03*
D25*
X121910000Y-195810000D03*
%TD*%
%TO.C,SW63*%
X272750000Y-105810000D03*
D26*
X277830000Y-105810000D03*
D25*
X282910000Y-105810000D03*
%TD*%
%TO.C,SW39*%
X206250000Y-159810000D03*
D26*
X211330000Y-159810000D03*
D25*
X216410000Y-159810000D03*
%TD*%
%TO.C,SW4*%
X111750000Y-105810000D03*
D26*
X116830000Y-105810000D03*
D25*
X121910000Y-105810000D03*
%TD*%
%TO.C,SW8*%
X183750000Y-105810000D03*
D26*
X188830000Y-105810000D03*
D25*
X193910000Y-105810000D03*
%TD*%
%TO.C,SW7*%
X165750000Y-105810000D03*
D26*
X170830000Y-105810000D03*
D25*
X175910000Y-105810000D03*
%TD*%
%TO.C,SW37*%
X170250000Y-159810000D03*
D26*
X175330000Y-159810000D03*
D25*
X180410000Y-159810000D03*
%TD*%
%TO.C,SW45*%
X143250000Y-177810000D03*
D26*
X148330000Y-177810000D03*
D25*
X153410000Y-177810000D03*
%TD*%
%TO.C,SW12*%
X84750000Y-123810000D03*
D26*
X89830000Y-123810000D03*
D25*
X94910000Y-123810000D03*
%TD*%
%TO.C,SW51*%
X57750000Y-195810000D03*
D26*
X62830000Y-195810000D03*
D25*
X67910000Y-195810000D03*
%TD*%
%TO.C,SW77*%
X260250000Y-159810000D03*
D26*
X265330000Y-159810000D03*
D25*
X270410000Y-159810000D03*
%TD*%
%TO.C,SW78*%
X242250000Y-159810000D03*
D26*
X247330000Y-159810000D03*
D25*
X252410000Y-159810000D03*
%TD*%
D27*
%TO.C,SW76*%
X279580000Y-157100000D03*
D28*
X279580000Y-165600000D03*
D25*
X283000000Y-159810000D03*
D26*
X288080000Y-159810000D03*
D25*
X293160000Y-159810000D03*
D27*
X296580000Y-157100000D03*
D28*
X296580000Y-165600000D03*
%TD*%
D25*
%TO.C,SW70*%
X237750000Y-141810000D03*
D26*
X242830000Y-141810000D03*
D25*
X247910000Y-141810000D03*
%TD*%
%TO.C,SW14*%
X120750000Y-123810000D03*
D26*
X125830000Y-123810000D03*
D25*
X130910000Y-123810000D03*
%TD*%
%TO.C,SW35*%
X134250000Y-159810000D03*
D26*
X139330000Y-159810000D03*
D25*
X144410000Y-159810000D03*
%TD*%
%TO.C,SW18*%
X192750000Y-123810000D03*
D26*
X197830000Y-123810000D03*
D25*
X202910000Y-123810000D03*
%TD*%
D23*
%TO.C,LED2*%
X273800000Y-91750000D03*
X275700000Y-91750000D03*
%TD*%
D25*
%TO.C,SW29*%
X201750000Y-141810000D03*
D26*
X206830000Y-141810000D03*
D25*
X211910000Y-141810000D03*
%TD*%
%TO.C,SW65*%
X304750000Y-105810000D03*
D26*
X309830000Y-105810000D03*
D25*
X314910000Y-105810000D03*
%TD*%
%TO.C,SW16*%
X156750000Y-123810000D03*
D26*
X161830000Y-123810000D03*
D25*
X166910000Y-123810000D03*
%TD*%
D16*
%TO.C,J3*%
X221500000Y-66130000D03*
D17*
X221500000Y-68670000D03*
X221500000Y-71210000D03*
X221500000Y-73750000D03*
X221500000Y-76290000D03*
%TD*%
D27*
%TO.C,SW41*%
X59080000Y-175100000D03*
D28*
X59080000Y-183600000D03*
D25*
X64500000Y-177810000D03*
D26*
X69580000Y-177810000D03*
D25*
X74660000Y-177810000D03*
D27*
X80080000Y-175100000D03*
D28*
X80080000Y-183600000D03*
%TD*%
D25*
%TO.C,SW53*%
X93750000Y-195810000D03*
D26*
X98830000Y-195810000D03*
D25*
X103910000Y-195810000D03*
%TD*%
%TO.C,SW72*%
X272750000Y-141810000D03*
D26*
X277830000Y-141810000D03*
D25*
X282910000Y-141810000D03*
%TD*%
%TO.C,SW47*%
X179250000Y-177810000D03*
D26*
X184330000Y-177810000D03*
D25*
X189410000Y-177810000D03*
%TD*%
%TO.C,SW75*%
X304750000Y-159810000D03*
D26*
X309830000Y-159810000D03*
D25*
X314910000Y-159810000D03*
%TD*%
%TO.C,SW83*%
X304750000Y-195810000D03*
D26*
X309830000Y-195810000D03*
D25*
X314910000Y-195810000D03*
%TD*%
%TO.C,SW31*%
X60000000Y-159810000D03*
D26*
X65080000Y-159810000D03*
D25*
X70160000Y-159810000D03*
%TD*%
%TO.C,SW43*%
X107250000Y-177810000D03*
D26*
X112330000Y-177810000D03*
D25*
X117410000Y-177810000D03*
%TD*%
D29*
%TO.C,J2*%
X227250000Y-71670000D03*
D30*
X227250000Y-72940000D03*
X227250000Y-74210000D03*
X227250000Y-75480000D03*
X227250000Y-76750000D03*
%TD*%
D25*
%TO.C,SW33*%
X98250000Y-159810000D03*
D26*
X103330000Y-159810000D03*
D25*
X108410000Y-159810000D03*
%TD*%
%TO.C,SW19*%
X210750000Y-123810000D03*
D26*
X215830000Y-123810000D03*
D25*
X220910000Y-123810000D03*
%TD*%
%TO.C,SW13*%
X102750000Y-123810000D03*
D26*
X107830000Y-123810000D03*
D25*
X112910000Y-123810000D03*
%TD*%
%TO.C,SW49*%
X215250000Y-177810000D03*
D26*
X220330000Y-177810000D03*
D25*
X225410000Y-177810000D03*
%TD*%
%TO.C,SW27*%
X165750000Y-141810000D03*
D26*
X170830000Y-141810000D03*
D25*
X175910000Y-141810000D03*
%TD*%
%TO.C,SW64*%
X288750000Y-105810000D03*
D26*
X293830000Y-105810000D03*
D25*
X298910000Y-105810000D03*
%TD*%
%TO.C,SW24*%
X111750000Y-141810000D03*
D26*
X116830000Y-141810000D03*
D25*
X121910000Y-141810000D03*
%TD*%
%TO.C,SW30*%
X219750000Y-141810000D03*
D26*
X224830000Y-141810000D03*
D25*
X229910000Y-141810000D03*
%TD*%
%TO.C,SW62*%
X255750000Y-105810000D03*
D26*
X260830000Y-105810000D03*
D25*
X265910000Y-105810000D03*
%TD*%
%TO.C,SW59*%
X272750000Y-195810000D03*
D26*
X277830000Y-195810000D03*
D25*
X282910000Y-195810000D03*
%TD*%
%TO.C,SW11*%
X66750000Y-123810000D03*
D26*
X71830000Y-123810000D03*
D25*
X76910000Y-123810000D03*
%TD*%
%TO.C,SW57*%
X237750000Y-195810000D03*
D26*
X242830000Y-195810000D03*
D25*
X247910000Y-195810000D03*
%TD*%
%TO.C,SW17*%
X174750000Y-123810000D03*
D26*
X179830000Y-123810000D03*
D25*
X184910000Y-123810000D03*
%TD*%
%TO.C,SW5*%
X129750000Y-105810000D03*
D26*
X134830000Y-105810000D03*
D25*
X139910000Y-105810000D03*
%TD*%
%TO.C,SW56*%
X219750000Y-195810000D03*
D26*
X224830000Y-195810000D03*
D25*
X229910000Y-195810000D03*
%TD*%
%TO.C,SW73*%
X288750000Y-141810000D03*
D26*
X293830000Y-141810000D03*
D25*
X298910000Y-141810000D03*
%TD*%
%TO.C,SW61*%
X237750000Y-105810000D03*
D26*
X242830000Y-105810000D03*
D25*
X247910000Y-105810000D03*
%TD*%
%TO.C,SW67*%
X285250000Y-123810000D03*
D26*
X290330000Y-123810000D03*
D25*
X295410000Y-123810000D03*
%TD*%
%TO.C,SW42*%
X89250000Y-177810000D03*
D26*
X94330000Y-177810000D03*
D25*
X99410000Y-177810000D03*
%TD*%
%TO.C,SW28*%
X183750000Y-141810000D03*
D26*
X188830000Y-141810000D03*
D25*
X193910000Y-141810000D03*
%TD*%
%TO.C,SW58*%
X255750000Y-195810000D03*
D26*
X260830000Y-195810000D03*
D25*
X265910000Y-195810000D03*
%TD*%
%TO.C,SW46*%
X161250000Y-177810000D03*
D26*
X166330000Y-177810000D03*
D25*
X171410000Y-177810000D03*
%TD*%
%TO.C,SW44*%
X125250000Y-177810000D03*
D26*
X130330000Y-177810000D03*
D25*
X135410000Y-177810000D03*
%TD*%
D31*
%TO.C,R2*%
X194330000Y-79550000D03*
X194330000Y-81450000D03*
%TD*%
D32*
%TO.C,RST1*%
X156750000Y-67375000D03*
X162750000Y-67375000D03*
X156750000Y-71125000D03*
X162750000Y-71125000D03*
%TD*%
D16*
%TO.C,J1*%
X149250000Y-70040000D03*
D17*
X149250000Y-67500000D03*
%TD*%
D31*
%TO.C,R1*%
X196330000Y-79550000D03*
X196330000Y-81450000D03*
%TD*%
%LPD*%
M02*
