%TF.GenerationSoftware,KiCad,Pcbnew,8.0.2*%
%TF.CreationDate,2024-05-05T23:04:00-07:00*%
%TF.ProjectId,g84_dropin,6738345f-6472-46f7-9069-6e2e6b696361,rev?*%
%TF.SameCoordinates,Original*%
%TF.FileFunction,Soldermask,Bot*%
%TF.FilePolarity,Negative*%
%FSLAX46Y46*%
G04 Gerber Fmt 4.6, Leading zero omitted, Abs format (unit mm)*
G04 Created by KiCad (PCBNEW 8.0.2) date 2024-05-05 23:04:00*
%MOMM*%
%LPD*%
G01*
G04 APERTURE LIST*
G04 Aperture macros list*
%AMRoundRect*
0 Rectangle with rounded corners*
0 $1 Rounding radius*
0 $2 $3 $4 $5 $6 $7 $8 $9 X,Y pos of 4 corners*
0 Add a 4 corners polygon primitive as box body*
4,1,4,$2,$3,$4,$5,$6,$7,$8,$9,$2,$3,0*
0 Add four circle primitives for the rounded corners*
1,1,$1+$1,$2,$3*
1,1,$1+$1,$4,$5*
1,1,$1+$1,$6,$7*
1,1,$1+$1,$8,$9*
0 Add four rect primitives between the rounded corners*
20,1,$1+$1,$2,$3,$4,$5,0*
20,1,$1+$1,$4,$5,$6,$7,0*
20,1,$1+$1,$6,$7,$8,$9,0*
20,1,$1+$1,$8,$9,$2,$3,0*%
G04 Aperture macros list end*
%ADD10C,1.752600*%
%ADD11O,1.000000X2.000000*%
%ADD12R,1.000000X3.000000*%
%ADD13R,1.700000X1.700000*%
%ADD14O,1.700000X1.700000*%
%ADD15C,0.670000*%
%ADD16RoundRect,0.500000X0.600000X-0.000010X0.600000X0.000010X-0.600000X0.000010X-0.600000X-0.000010X0*%
%ADD17RoundRect,0.500000X0.300000X-0.000010X0.300000X0.000010X-0.300000X0.000010X-0.300000X-0.000010X0*%
%ADD18C,0.787400*%
%ADD19C,1.550000*%
%ADD20C,2.600000*%
%ADD21C,2.000000*%
%ADD22C,4.000000*%
%ADD23R,1.000000X1.000000*%
%ADD24O,1.000000X1.000000*%
%ADD25R,1.300000X0.700000*%
G04 APERTURE END LIST*
D10*
%TO.C,U1*%
X200720000Y-61130000D03*
X198180000Y-61130000D03*
X195640000Y-61130000D03*
X193100000Y-61130000D03*
X190560000Y-61130000D03*
X188020000Y-61130000D03*
X185480000Y-61130000D03*
X182940000Y-61130000D03*
X180400000Y-61130000D03*
X177860000Y-61130000D03*
X175320000Y-61130000D03*
X172780000Y-61130000D03*
X172780000Y-76370000D03*
X175320000Y-76370000D03*
X177860000Y-76370000D03*
X180400000Y-76370000D03*
X182940000Y-76370000D03*
X185480000Y-76370000D03*
X188020000Y-76370000D03*
X190560000Y-76370000D03*
X193100000Y-76370000D03*
X195640000Y-76370000D03*
X198180000Y-76370000D03*
X200720000Y-76370000D03*
X177860000Y-63670000D03*
X175955000Y-64305000D03*
X177860000Y-66210000D03*
X175955000Y-66845000D03*
X177860000Y-68750000D03*
X175955000Y-69385000D03*
%TD*%
D11*
%TO.C,J4*%
X170710000Y-83250000D03*
X171980000Y-83250000D03*
X173250000Y-83250000D03*
X174520000Y-83250000D03*
X175790000Y-83250000D03*
X177060000Y-83250000D03*
X178330000Y-83250000D03*
X179600000Y-83250000D03*
X180870000Y-83250000D03*
X182140000Y-83250000D03*
X183410000Y-83250000D03*
X184680000Y-83250000D03*
X185950000Y-83250000D03*
X187220000Y-83250000D03*
X188490000Y-83250000D03*
X189760000Y-83250000D03*
X191030000Y-83250000D03*
X192300000Y-83250000D03*
X193570000Y-83250000D03*
X194840000Y-83250000D03*
X196110000Y-83250000D03*
X197380000Y-83250000D03*
X198650000Y-83250000D03*
X199920000Y-83250000D03*
X201190000Y-83250000D03*
X202460000Y-83250000D03*
X203730000Y-83250000D03*
X205000000Y-83250000D03*
D12*
X170710000Y-85282000D03*
X171980000Y-85282000D03*
X173250000Y-85282000D03*
X174520000Y-85282000D03*
X175790000Y-85282000D03*
X177060000Y-85282000D03*
X178330000Y-85282000D03*
X179600000Y-85282000D03*
X180870000Y-85282000D03*
X182140000Y-85282000D03*
X183410000Y-85282000D03*
X184680000Y-85282000D03*
X185950000Y-85282000D03*
X187220000Y-85282000D03*
X188490000Y-85282000D03*
X189760000Y-85282000D03*
X191030000Y-85282000D03*
X192300000Y-85282000D03*
X193570000Y-85282000D03*
X194840000Y-85282000D03*
X196110000Y-85282000D03*
X197380000Y-85282000D03*
X198650000Y-85282000D03*
X199920000Y-85282000D03*
X201190000Y-85282000D03*
X202460000Y-85282000D03*
X203730000Y-85282000D03*
X205000000Y-85282000D03*
%TD*%
D11*
%TO.C,J5*%
X205040000Y-95250000D03*
X203770000Y-95250000D03*
X202500000Y-95250000D03*
X201230000Y-95250000D03*
X199960000Y-95250000D03*
X198690000Y-95250000D03*
X197420000Y-95250000D03*
X196150000Y-95250000D03*
X194880000Y-95250000D03*
X193610000Y-95250000D03*
X192340000Y-95250000D03*
X191070000Y-95250000D03*
X189800000Y-95250000D03*
X188530000Y-95250000D03*
X187260000Y-95250000D03*
X185990000Y-95250000D03*
X184720000Y-95250000D03*
X183450000Y-95250000D03*
X182180000Y-95250000D03*
X180910000Y-95250000D03*
X179640000Y-95250000D03*
X178370000Y-95250000D03*
X177100000Y-95250000D03*
X175830000Y-95250000D03*
X174560000Y-95250000D03*
X173290000Y-95250000D03*
X172020000Y-95250000D03*
X170750000Y-95250000D03*
D12*
X170750000Y-93218000D03*
X172020000Y-93218000D03*
X173290000Y-93218000D03*
X174560000Y-93218000D03*
X175830000Y-93218000D03*
X177100000Y-93218000D03*
X178370000Y-93218000D03*
X179640000Y-93218000D03*
X180910000Y-93218000D03*
X182180000Y-93218000D03*
X183450000Y-93218000D03*
X184720000Y-93218000D03*
X185990000Y-93218000D03*
X187260000Y-93218000D03*
X188530000Y-93218000D03*
X189800000Y-93218000D03*
X191070000Y-93218000D03*
X192340000Y-93218000D03*
X193610000Y-93218000D03*
X194880000Y-93218000D03*
X196150000Y-93218000D03*
X197420000Y-93218000D03*
X198690000Y-93218000D03*
X199960000Y-93218000D03*
X201230000Y-93218000D03*
X202500000Y-93218000D03*
X203770000Y-93218000D03*
X205040000Y-93218000D03*
%TD*%
D13*
%TO.C,J7*%
X158500000Y-59750000D03*
D14*
X161040000Y-59750000D03*
%TD*%
D15*
%TO.C,J6*%
X240810000Y-71180000D03*
X240810000Y-76980000D03*
D16*
X240280000Y-69760000D03*
D17*
X244460000Y-78400000D03*
D16*
X240280000Y-78400000D03*
D17*
X244460000Y-69760000D03*
%TD*%
D18*
%TO.C,REF1*%
X175500000Y-87750000D03*
X174230000Y-87750000D03*
X172960000Y-87750000D03*
X171182000Y-87750000D03*
%TD*%
%TO.C,REF4*%
X175460000Y-90500000D03*
X174190000Y-90500000D03*
X172920000Y-90500000D03*
X171142000Y-90500000D03*
%TD*%
%TO.C,REF6*%
X200270000Y-90500000D03*
X201540000Y-90500000D03*
X202810000Y-90500000D03*
X204588000Y-90500000D03*
%TD*%
%TO.C,REF3*%
X204628000Y-87750000D03*
X202850000Y-87750000D03*
X201580000Y-87750000D03*
X200310000Y-87750000D03*
%TD*%
%TO.C,REF2*%
X189890000Y-87750000D03*
X188620000Y-87750000D03*
X187350000Y-87750000D03*
X186080000Y-87750000D03*
X184810000Y-87750000D03*
%TD*%
%TO.C,REF5*%
X184770000Y-90500000D03*
X186040000Y-90500000D03*
X187310000Y-90500000D03*
X188580000Y-90500000D03*
X189850000Y-90500000D03*
%TD*%
D19*
%TO.C,SW38*%
X188250000Y-159810000D03*
D20*
X193330000Y-159810000D03*
D19*
X198410000Y-159810000D03*
D21*
X193330000Y-156000000D03*
X193330000Y-164890000D03*
X188250000Y-156000000D03*
X198410000Y-156000000D03*
%TD*%
D19*
%TO.C,SW71*%
X255750000Y-141810000D03*
D20*
X260830000Y-141810000D03*
D19*
X265910000Y-141810000D03*
D21*
X260830000Y-138000000D03*
X260830000Y-146890000D03*
X255750000Y-138000000D03*
X265910000Y-138000000D03*
%TD*%
D19*
%TO.C,SW34*%
X116250000Y-159810000D03*
D20*
X121330000Y-159810000D03*
D19*
X126410000Y-159810000D03*
D21*
X121330000Y-156000000D03*
X121330000Y-164890000D03*
X116250000Y-156000000D03*
X126410000Y-156000000D03*
%TD*%
D19*
%TO.C,SW66*%
X304750000Y-123810000D03*
D20*
X309830000Y-123810000D03*
D19*
X314910000Y-123810000D03*
D21*
X309830000Y-120000000D03*
X309830000Y-128890000D03*
X304750000Y-120000000D03*
X314910000Y-120000000D03*
%TD*%
D19*
%TO.C,SW2*%
X75750000Y-105810000D03*
D20*
X80830000Y-105810000D03*
D19*
X85910000Y-105810000D03*
D21*
X80830000Y-102000000D03*
X80830000Y-110890000D03*
X75750000Y-102000000D03*
X85910000Y-102000000D03*
%TD*%
D19*
%TO.C,SW20*%
X228750000Y-123810000D03*
D20*
X233830000Y-123810000D03*
D19*
X238910000Y-123810000D03*
D21*
X233830000Y-120000000D03*
X233830000Y-128890000D03*
X228750000Y-120000000D03*
X238910000Y-120000000D03*
%TD*%
D19*
%TO.C,SW74*%
X304750000Y-141810000D03*
D20*
X309830000Y-141810000D03*
D19*
X314910000Y-141810000D03*
D21*
X309830000Y-138000000D03*
X309830000Y-146890000D03*
X304750000Y-138000000D03*
X314910000Y-138000000D03*
%TD*%
D19*
%TO.C,SW48*%
X197250000Y-177810000D03*
D20*
X202330000Y-177810000D03*
D19*
X207410000Y-177810000D03*
D21*
X202330000Y-174000000D03*
X202330000Y-182890000D03*
X197250000Y-174000000D03*
X207410000Y-174000000D03*
%TD*%
D19*
%TO.C,SW10*%
X219750000Y-105810000D03*
D20*
X224830000Y-105810000D03*
D19*
X229910000Y-105810000D03*
D21*
X224830000Y-102000000D03*
X224830000Y-110890000D03*
X219750000Y-102000000D03*
X229910000Y-102000000D03*
%TD*%
D19*
%TO.C,SW25*%
X129750000Y-141810000D03*
D20*
X134830000Y-141810000D03*
D19*
X139910000Y-141810000D03*
D21*
X134830000Y-138000000D03*
X134830000Y-146890000D03*
X129750000Y-138000000D03*
X139910000Y-138000000D03*
%TD*%
D19*
%TO.C,SW50*%
X233250000Y-177810000D03*
D20*
X238330000Y-177810000D03*
D19*
X243410000Y-177810000D03*
D21*
X238330000Y-174000000D03*
X238330000Y-182890000D03*
X233250000Y-174000000D03*
X243410000Y-174000000D03*
%TD*%
D19*
%TO.C,SW82*%
X304750000Y-177810000D03*
D20*
X309830000Y-177810000D03*
D19*
X314910000Y-177810000D03*
D21*
X309830000Y-174000000D03*
X309830000Y-182890000D03*
X304750000Y-174000000D03*
X314910000Y-174000000D03*
%TD*%
D19*
%TO.C,SW26*%
X147750000Y-141810000D03*
D20*
X152830000Y-141810000D03*
D19*
X157910000Y-141810000D03*
D21*
X152830000Y-138000000D03*
X152830000Y-146890000D03*
X147750000Y-138000000D03*
X157910000Y-138000000D03*
%TD*%
D19*
%TO.C,SW15*%
X138750000Y-123810000D03*
D20*
X143830000Y-123810000D03*
D19*
X148910000Y-123810000D03*
D21*
X143830000Y-120000000D03*
X143830000Y-128890000D03*
X138750000Y-120000000D03*
X148910000Y-120000000D03*
%TD*%
D19*
%TO.C,SW9*%
X201750000Y-105810000D03*
D20*
X206830000Y-105810000D03*
D19*
X211910000Y-105810000D03*
D21*
X206830000Y-102000000D03*
X206830000Y-110890000D03*
X201750000Y-102000000D03*
X211910000Y-102000000D03*
%TD*%
D19*
%TO.C,SW81*%
X288750000Y-177810000D03*
D20*
X293830000Y-177810000D03*
D19*
X298910000Y-177810000D03*
D21*
X293830000Y-174000000D03*
X293830000Y-182890000D03*
X288750000Y-174000000D03*
X298910000Y-174000000D03*
%TD*%
D19*
%TO.C,SW52*%
X75750000Y-195810000D03*
D20*
X80830000Y-195810000D03*
D19*
X85910000Y-195810000D03*
D21*
X80830000Y-192000000D03*
X80830000Y-200890000D03*
X75750000Y-192000000D03*
X85910000Y-192000000D03*
%TD*%
D19*
%TO.C,SW3*%
X93750000Y-105810000D03*
D20*
X98830000Y-105810000D03*
D19*
X103910000Y-105810000D03*
D21*
X98830000Y-102000000D03*
X98830000Y-110890000D03*
X93750000Y-102000000D03*
X103910000Y-102000000D03*
%TD*%
D19*
%TO.C,SW32*%
X80250000Y-159810000D03*
D20*
X85330000Y-159810000D03*
D19*
X90410000Y-159810000D03*
D21*
X85330000Y-156000000D03*
X85330000Y-164890000D03*
X80250000Y-156000000D03*
X90410000Y-156000000D03*
%TD*%
D19*
%TO.C,SW36*%
X152250000Y-159810000D03*
D20*
X157330000Y-159810000D03*
D19*
X162410000Y-159810000D03*
D21*
X157330000Y-156000000D03*
X157330000Y-164890000D03*
X152250000Y-156000000D03*
X162410000Y-156000000D03*
%TD*%
D19*
%TO.C,SW80*%
X269500000Y-177810000D03*
D20*
X274580000Y-177810000D03*
D19*
X279660000Y-177810000D03*
D21*
X274580000Y-174000000D03*
X274580000Y-182890000D03*
X269500000Y-174000000D03*
X279660000Y-174000000D03*
%TD*%
D19*
%TO.C,SW68*%
X264750000Y-123810000D03*
D20*
X269830000Y-123810000D03*
D19*
X274910000Y-123810000D03*
D21*
X269830000Y-120000000D03*
X269830000Y-128890000D03*
X264750000Y-120000000D03*
X274910000Y-120000000D03*
%TD*%
D19*
%TO.C,SW69*%
X246750000Y-123810000D03*
D20*
X251830000Y-123810000D03*
D19*
X256910000Y-123810000D03*
D21*
X251830000Y-120000000D03*
X251830000Y-128890000D03*
X246750000Y-120000000D03*
X256910000Y-120000000D03*
%TD*%
D19*
%TO.C,SW40*%
X224250000Y-159810000D03*
D20*
X229330000Y-159810000D03*
D19*
X234410000Y-159810000D03*
D21*
X229330000Y-156000000D03*
X229330000Y-164890000D03*
X224250000Y-156000000D03*
X234410000Y-156000000D03*
%TD*%
D19*
%TO.C,SW79*%
X250250000Y-177810000D03*
D20*
X255330000Y-177810000D03*
D19*
X260410000Y-177810000D03*
D21*
X255330000Y-174000000D03*
X255330000Y-182890000D03*
X250250000Y-174000000D03*
X260410000Y-174000000D03*
%TD*%
D19*
%TO.C,SW23*%
X93750000Y-141810000D03*
D20*
X98830000Y-141810000D03*
D19*
X103910000Y-141810000D03*
D21*
X98830000Y-138000000D03*
X98830000Y-146890000D03*
X93750000Y-138000000D03*
X103910000Y-138000000D03*
%TD*%
D19*
%TO.C,SW60*%
X288750000Y-195810000D03*
D20*
X293830000Y-195810000D03*
D19*
X298910000Y-195810000D03*
D21*
X293830000Y-192000000D03*
X293830000Y-200890000D03*
X288750000Y-192000000D03*
X298910000Y-192000000D03*
%TD*%
D19*
%TO.C,SW22*%
X75750000Y-141810000D03*
D20*
X80830000Y-141810000D03*
D19*
X85910000Y-141810000D03*
D21*
X80830000Y-138000000D03*
X80830000Y-146890000D03*
X75750000Y-138000000D03*
X85910000Y-138000000D03*
%TD*%
D19*
%TO.C,SW1*%
X57750000Y-105810000D03*
D20*
X62830000Y-105810000D03*
D19*
X67910000Y-105810000D03*
D21*
X62830000Y-102000000D03*
X62830000Y-110890000D03*
X57750000Y-102000000D03*
X67910000Y-102000000D03*
%TD*%
%TO.C,SW55*%
X130830000Y-193100000D03*
D22*
X130830000Y-201600000D03*
D19*
X165750000Y-195810000D03*
D20*
X170830000Y-195810000D03*
D19*
X175910000Y-195810000D03*
D21*
X210830000Y-193100000D03*
D22*
X210830000Y-201600000D03*
D21*
X170830000Y-192000000D03*
X170830000Y-200890000D03*
X165750000Y-192000000D03*
X175910000Y-192000000D03*
%TD*%
D19*
%TO.C,SW21*%
X57750000Y-141810000D03*
D20*
X62830000Y-141810000D03*
D19*
X67910000Y-141810000D03*
D21*
X62830000Y-138000000D03*
X62830000Y-146890000D03*
X57750000Y-138000000D03*
X67910000Y-138000000D03*
%TD*%
D19*
%TO.C,SW6*%
X147750000Y-105810000D03*
D20*
X152830000Y-105810000D03*
D19*
X157910000Y-105810000D03*
D21*
X152830000Y-102000000D03*
X152830000Y-110890000D03*
X147750000Y-102000000D03*
X157910000Y-102000000D03*
%TD*%
D19*
%TO.C,SW54*%
X111750000Y-195810000D03*
D20*
X116830000Y-195810000D03*
D19*
X121910000Y-195810000D03*
D21*
X116830000Y-192000000D03*
X116830000Y-200890000D03*
X111750000Y-192000000D03*
X121910000Y-192000000D03*
%TD*%
D19*
%TO.C,SW63*%
X272750000Y-105810000D03*
D20*
X277830000Y-105810000D03*
D19*
X282910000Y-105810000D03*
D21*
X277830000Y-102000000D03*
X277830000Y-110890000D03*
X272750000Y-102000000D03*
X282910000Y-102000000D03*
%TD*%
D19*
%TO.C,SW39*%
X206250000Y-159810000D03*
D20*
X211330000Y-159810000D03*
D19*
X216410000Y-159810000D03*
D21*
X211330000Y-156000000D03*
X211330000Y-164890000D03*
X206250000Y-156000000D03*
X216410000Y-156000000D03*
%TD*%
D19*
%TO.C,SW4*%
X111750000Y-105810000D03*
D20*
X116830000Y-105810000D03*
D19*
X121910000Y-105810000D03*
D21*
X116830000Y-102000000D03*
X116830000Y-110890000D03*
X111750000Y-102000000D03*
X121910000Y-102000000D03*
%TD*%
D19*
%TO.C,SW8*%
X183750000Y-105810000D03*
D20*
X188830000Y-105810000D03*
D19*
X193910000Y-105810000D03*
D21*
X188830000Y-102000000D03*
X188830000Y-110890000D03*
X183750000Y-102000000D03*
X193910000Y-102000000D03*
%TD*%
D19*
%TO.C,SW7*%
X165750000Y-105810000D03*
D20*
X170830000Y-105810000D03*
D19*
X175910000Y-105810000D03*
D21*
X170830000Y-102000000D03*
X170830000Y-110890000D03*
X165750000Y-102000000D03*
X175910000Y-102000000D03*
%TD*%
D19*
%TO.C,SW37*%
X170250000Y-159810000D03*
D20*
X175330000Y-159810000D03*
D19*
X180410000Y-159810000D03*
D21*
X175330000Y-156000000D03*
X175330000Y-164890000D03*
X170250000Y-156000000D03*
X180410000Y-156000000D03*
%TD*%
D19*
%TO.C,SW45*%
X143250000Y-177810000D03*
D20*
X148330000Y-177810000D03*
D19*
X153410000Y-177810000D03*
D21*
X148330000Y-174000000D03*
X148330000Y-182890000D03*
X143250000Y-174000000D03*
X153410000Y-174000000D03*
%TD*%
D19*
%TO.C,SW12*%
X84750000Y-123810000D03*
D20*
X89830000Y-123810000D03*
D19*
X94910000Y-123810000D03*
D21*
X89830000Y-120000000D03*
X89830000Y-128890000D03*
X84750000Y-120000000D03*
X94910000Y-120000000D03*
%TD*%
D19*
%TO.C,SW51*%
X57750000Y-195810000D03*
D20*
X62830000Y-195810000D03*
D19*
X67910000Y-195810000D03*
D21*
X62830000Y-192000000D03*
X62830000Y-200890000D03*
X57750000Y-192000000D03*
X67910000Y-192000000D03*
%TD*%
D19*
%TO.C,SW77*%
X260250000Y-159810000D03*
D20*
X265330000Y-159810000D03*
D19*
X270410000Y-159810000D03*
D21*
X265330000Y-156000000D03*
X265330000Y-164890000D03*
X260250000Y-156000000D03*
X270410000Y-156000000D03*
%TD*%
D19*
%TO.C,SW78*%
X242250000Y-159810000D03*
D20*
X247330000Y-159810000D03*
D19*
X252410000Y-159810000D03*
D21*
X247330000Y-156000000D03*
X247330000Y-164890000D03*
X242250000Y-156000000D03*
X252410000Y-156000000D03*
%TD*%
%TO.C,SW76*%
X279580000Y-157100000D03*
D22*
X279580000Y-165600000D03*
D19*
X283000000Y-159810000D03*
D20*
X288080000Y-159810000D03*
D19*
X293160000Y-159810000D03*
D21*
X296580000Y-157100000D03*
D22*
X296580000Y-165600000D03*
D21*
X288080000Y-156000000D03*
X288080000Y-164890000D03*
X283000000Y-156000000D03*
X293160000Y-156000000D03*
%TD*%
D19*
%TO.C,SW70*%
X237750000Y-141810000D03*
D20*
X242830000Y-141810000D03*
D19*
X247910000Y-141810000D03*
D21*
X242830000Y-138000000D03*
X242830000Y-146890000D03*
X237750000Y-138000000D03*
X247910000Y-138000000D03*
%TD*%
D19*
%TO.C,SW14*%
X120750000Y-123810000D03*
D20*
X125830000Y-123810000D03*
D19*
X130910000Y-123810000D03*
D21*
X125830000Y-120000000D03*
X125830000Y-128890000D03*
X120750000Y-120000000D03*
X130910000Y-120000000D03*
%TD*%
D19*
%TO.C,SW35*%
X134250000Y-159810000D03*
D20*
X139330000Y-159810000D03*
D19*
X144410000Y-159810000D03*
D21*
X139330000Y-156000000D03*
X139330000Y-164890000D03*
X134250000Y-156000000D03*
X144410000Y-156000000D03*
%TD*%
D19*
%TO.C,SW18*%
X192750000Y-123810000D03*
D20*
X197830000Y-123810000D03*
D19*
X202910000Y-123810000D03*
D21*
X197830000Y-120000000D03*
X197830000Y-128890000D03*
X192750000Y-120000000D03*
X202910000Y-120000000D03*
%TD*%
D19*
%TO.C,SW29*%
X201750000Y-141810000D03*
D20*
X206830000Y-141810000D03*
D19*
X211910000Y-141810000D03*
D21*
X206830000Y-138000000D03*
X206830000Y-146890000D03*
X201750000Y-138000000D03*
X211910000Y-138000000D03*
%TD*%
D19*
%TO.C,SW65*%
X304750000Y-105810000D03*
D20*
X309830000Y-105810000D03*
D19*
X314910000Y-105810000D03*
D21*
X309830000Y-102000000D03*
X309830000Y-110890000D03*
X304750000Y-102000000D03*
X314910000Y-102000000D03*
%TD*%
D19*
%TO.C,SW16*%
X156750000Y-123810000D03*
D20*
X161830000Y-123810000D03*
D19*
X166910000Y-123810000D03*
D21*
X161830000Y-120000000D03*
X161830000Y-128890000D03*
X156750000Y-120000000D03*
X166910000Y-120000000D03*
%TD*%
D13*
%TO.C,J3*%
X221500000Y-66130000D03*
D14*
X221500000Y-68670000D03*
X221500000Y-71210000D03*
X221500000Y-73750000D03*
X221500000Y-76290000D03*
%TD*%
D21*
%TO.C,SW41*%
X59080000Y-175100000D03*
D22*
X59080000Y-183600000D03*
D19*
X64500000Y-177810000D03*
D20*
X69580000Y-177810000D03*
D19*
X74660000Y-177810000D03*
D21*
X80080000Y-175100000D03*
D22*
X80080000Y-183600000D03*
D21*
X69580000Y-174000000D03*
X69580000Y-182890000D03*
X64500000Y-174000000D03*
X74660000Y-174000000D03*
%TD*%
D19*
%TO.C,SW53*%
X93750000Y-195810000D03*
D20*
X98830000Y-195810000D03*
D19*
X103910000Y-195810000D03*
D21*
X98830000Y-192000000D03*
X98830000Y-200890000D03*
X93750000Y-192000000D03*
X103910000Y-192000000D03*
%TD*%
D19*
%TO.C,SW72*%
X272750000Y-141810000D03*
D20*
X277830000Y-141810000D03*
D19*
X282910000Y-141810000D03*
D21*
X277830000Y-138000000D03*
X277830000Y-146890000D03*
X272750000Y-138000000D03*
X282910000Y-138000000D03*
%TD*%
D19*
%TO.C,SW47*%
X179250000Y-177810000D03*
D20*
X184330000Y-177810000D03*
D19*
X189410000Y-177810000D03*
D21*
X184330000Y-174000000D03*
X184330000Y-182890000D03*
X179250000Y-174000000D03*
X189410000Y-174000000D03*
%TD*%
D19*
%TO.C,SW75*%
X304750000Y-159810000D03*
D20*
X309830000Y-159810000D03*
D19*
X314910000Y-159810000D03*
D21*
X309830000Y-156000000D03*
X309830000Y-164890000D03*
X304750000Y-156000000D03*
X314910000Y-156000000D03*
%TD*%
D19*
%TO.C,SW83*%
X304750000Y-195810000D03*
D20*
X309830000Y-195810000D03*
D19*
X314910000Y-195810000D03*
D21*
X309830000Y-192000000D03*
X309830000Y-200890000D03*
X304750000Y-192000000D03*
X314910000Y-192000000D03*
%TD*%
D19*
%TO.C,SW31*%
X60000000Y-159810000D03*
D20*
X65080000Y-159810000D03*
D19*
X70160000Y-159810000D03*
D21*
X65080000Y-156000000D03*
X65080000Y-164890000D03*
X60000000Y-156000000D03*
X70160000Y-156000000D03*
%TD*%
D19*
%TO.C,SW43*%
X107250000Y-177810000D03*
D20*
X112330000Y-177810000D03*
D19*
X117410000Y-177810000D03*
D21*
X112330000Y-174000000D03*
X112330000Y-182890000D03*
X107250000Y-174000000D03*
X117410000Y-174000000D03*
%TD*%
D23*
%TO.C,J2*%
X227250000Y-71670000D03*
D24*
X227250000Y-72940000D03*
X227250000Y-74210000D03*
X227250000Y-75480000D03*
X227250000Y-76750000D03*
%TD*%
D19*
%TO.C,SW33*%
X98250000Y-159810000D03*
D20*
X103330000Y-159810000D03*
D19*
X108410000Y-159810000D03*
D21*
X103330000Y-156000000D03*
X103330000Y-164890000D03*
X98250000Y-156000000D03*
X108410000Y-156000000D03*
%TD*%
D19*
%TO.C,SW19*%
X210750000Y-123810000D03*
D20*
X215830000Y-123810000D03*
D19*
X220910000Y-123810000D03*
D21*
X215830000Y-120000000D03*
X215830000Y-128890000D03*
X210750000Y-120000000D03*
X220910000Y-120000000D03*
%TD*%
D19*
%TO.C,SW13*%
X102750000Y-123810000D03*
D20*
X107830000Y-123810000D03*
D19*
X112910000Y-123810000D03*
D21*
X107830000Y-120000000D03*
X107830000Y-128890000D03*
X102750000Y-120000000D03*
X112910000Y-120000000D03*
%TD*%
D19*
%TO.C,SW49*%
X215250000Y-177810000D03*
D20*
X220330000Y-177810000D03*
D19*
X225410000Y-177810000D03*
D21*
X220330000Y-174000000D03*
X220330000Y-182890000D03*
X215250000Y-174000000D03*
X225410000Y-174000000D03*
%TD*%
D19*
%TO.C,SW27*%
X165750000Y-141810000D03*
D20*
X170830000Y-141810000D03*
D19*
X175910000Y-141810000D03*
D21*
X170830000Y-138000000D03*
X170830000Y-146890000D03*
X165750000Y-138000000D03*
X175910000Y-138000000D03*
%TD*%
D19*
%TO.C,SW64*%
X288750000Y-105810000D03*
D20*
X293830000Y-105810000D03*
D19*
X298910000Y-105810000D03*
D21*
X293830000Y-102000000D03*
X293830000Y-110890000D03*
X288750000Y-102000000D03*
X298910000Y-102000000D03*
%TD*%
D19*
%TO.C,SW24*%
X111750000Y-141810000D03*
D20*
X116830000Y-141810000D03*
D19*
X121910000Y-141810000D03*
D21*
X116830000Y-138000000D03*
X116830000Y-146890000D03*
X111750000Y-138000000D03*
X121910000Y-138000000D03*
%TD*%
D19*
%TO.C,SW30*%
X219750000Y-141810000D03*
D20*
X224830000Y-141810000D03*
D19*
X229910000Y-141810000D03*
D21*
X224830000Y-138000000D03*
X224830000Y-146890000D03*
X219750000Y-138000000D03*
X229910000Y-138000000D03*
%TD*%
D19*
%TO.C,SW62*%
X255750000Y-105810000D03*
D20*
X260830000Y-105810000D03*
D19*
X265910000Y-105810000D03*
D21*
X260830000Y-102000000D03*
X260830000Y-110890000D03*
X255750000Y-102000000D03*
X265910000Y-102000000D03*
%TD*%
D19*
%TO.C,SW59*%
X272750000Y-195810000D03*
D20*
X277830000Y-195810000D03*
D19*
X282910000Y-195810000D03*
D21*
X277830000Y-192000000D03*
X277830000Y-200890000D03*
X272750000Y-192000000D03*
X282910000Y-192000000D03*
%TD*%
D19*
%TO.C,SW11*%
X66750000Y-123810000D03*
D20*
X71830000Y-123810000D03*
D19*
X76910000Y-123810000D03*
D21*
X71830000Y-120000000D03*
X71830000Y-128890000D03*
X66750000Y-120000000D03*
X76910000Y-120000000D03*
%TD*%
D19*
%TO.C,SW57*%
X237750000Y-195810000D03*
D20*
X242830000Y-195810000D03*
D19*
X247910000Y-195810000D03*
D21*
X242830000Y-192000000D03*
X242830000Y-200890000D03*
X237750000Y-192000000D03*
X247910000Y-192000000D03*
%TD*%
D19*
%TO.C,SW17*%
X174750000Y-123810000D03*
D20*
X179830000Y-123810000D03*
D19*
X184910000Y-123810000D03*
D21*
X179830000Y-120000000D03*
X179830000Y-128890000D03*
X174750000Y-120000000D03*
X184910000Y-120000000D03*
%TD*%
D19*
%TO.C,SW5*%
X129750000Y-105810000D03*
D20*
X134830000Y-105810000D03*
D19*
X139910000Y-105810000D03*
D21*
X134830000Y-102000000D03*
X134830000Y-110890000D03*
X129750000Y-102000000D03*
X139910000Y-102000000D03*
%TD*%
D19*
%TO.C,SW56*%
X219750000Y-195810000D03*
D20*
X224830000Y-195810000D03*
D19*
X229910000Y-195810000D03*
D21*
X224830000Y-192000000D03*
X224830000Y-200890000D03*
X219750000Y-192000000D03*
X229910000Y-192000000D03*
%TD*%
D19*
%TO.C,SW73*%
X288750000Y-141810000D03*
D20*
X293830000Y-141810000D03*
D19*
X298910000Y-141810000D03*
D21*
X293830000Y-138000000D03*
X293830000Y-146890000D03*
X288750000Y-138000000D03*
X298910000Y-138000000D03*
%TD*%
D19*
%TO.C,SW61*%
X237750000Y-105810000D03*
D20*
X242830000Y-105810000D03*
D19*
X247910000Y-105810000D03*
D21*
X242830000Y-102000000D03*
X242830000Y-110890000D03*
X237750000Y-102000000D03*
X247910000Y-102000000D03*
%TD*%
D19*
%TO.C,SW67*%
X285250000Y-123810000D03*
D20*
X290330000Y-123810000D03*
D19*
X295410000Y-123810000D03*
D21*
X290330000Y-120000000D03*
X290330000Y-128890000D03*
X285250000Y-120000000D03*
X295410000Y-120000000D03*
%TD*%
D19*
%TO.C,SW42*%
X89250000Y-177810000D03*
D20*
X94330000Y-177810000D03*
D19*
X99410000Y-177810000D03*
D21*
X94330000Y-174000000D03*
X94330000Y-182890000D03*
X89250000Y-174000000D03*
X99410000Y-174000000D03*
%TD*%
D19*
%TO.C,SW28*%
X183750000Y-141810000D03*
D20*
X188830000Y-141810000D03*
D19*
X193910000Y-141810000D03*
D21*
X188830000Y-138000000D03*
X188830000Y-146890000D03*
X183750000Y-138000000D03*
X193910000Y-138000000D03*
%TD*%
D19*
%TO.C,SW58*%
X255750000Y-195810000D03*
D20*
X260830000Y-195810000D03*
D19*
X265910000Y-195810000D03*
D21*
X260830000Y-192000000D03*
X260830000Y-200890000D03*
X255750000Y-192000000D03*
X265910000Y-192000000D03*
%TD*%
D19*
%TO.C,SW46*%
X161250000Y-177810000D03*
D20*
X166330000Y-177810000D03*
D19*
X171410000Y-177810000D03*
D21*
X166330000Y-174000000D03*
X166330000Y-182890000D03*
X161250000Y-174000000D03*
X171410000Y-174000000D03*
%TD*%
D19*
%TO.C,SW44*%
X125250000Y-177810000D03*
D20*
X130330000Y-177810000D03*
D19*
X135410000Y-177810000D03*
D21*
X130330000Y-174000000D03*
X130330000Y-182890000D03*
X125250000Y-174000000D03*
X135410000Y-174000000D03*
%TD*%
D25*
%TO.C,D24*%
X108580000Y-147000000D03*
X108580000Y-145100000D03*
%TD*%
%TO.C,D23*%
X105830000Y-147000000D03*
X105830000Y-145100000D03*
%TD*%
%TO.C,D28*%
X180580000Y-147000000D03*
X180580000Y-145100000D03*
%TD*%
%TO.C,D40*%
X221080000Y-165150000D03*
X221080000Y-163250000D03*
%TD*%
%TO.C,D5*%
X141830000Y-111000000D03*
X141830000Y-109100000D03*
%TD*%
%TO.C,D60*%
X287830000Y-204250000D03*
X287830000Y-202350000D03*
%TD*%
%TO.C,D45*%
X155330000Y-183000000D03*
X155330000Y-181100000D03*
%TD*%
%TO.C,D29*%
X213830000Y-147000000D03*
X213830000Y-145100000D03*
%TD*%
%TO.C,D82*%
X303830000Y-183000000D03*
X303830000Y-181100000D03*
%TD*%
%TO.C,D13*%
X114830000Y-129000000D03*
X114830000Y-127100000D03*
%TD*%
%TO.C,D38*%
X185080000Y-165150000D03*
X185080000Y-163250000D03*
%TD*%
%TO.C,D18*%
X189580000Y-129000000D03*
X189580000Y-127100000D03*
%TD*%
%TO.C,D21*%
X69830000Y-147000000D03*
X69830000Y-145100000D03*
%TD*%
%TO.C,D59*%
X285080000Y-204250000D03*
X285080000Y-202350000D03*
%TD*%
%TO.C,D61*%
X249830000Y-111000000D03*
X249830000Y-109100000D03*
%TD*%
%TO.C,D15*%
X150830000Y-129000000D03*
X150830000Y-127100000D03*
%TD*%
%TO.C,D51*%
X70500000Y-199200000D03*
X70500000Y-197300000D03*
%TD*%
%TO.C,D44*%
X122080000Y-183000000D03*
X122080000Y-181100000D03*
%TD*%
%TO.C,D63*%
X283830000Y-111000000D03*
X283830000Y-109100000D03*
%TD*%
%TO.C,D20*%
X225580000Y-129000000D03*
X225580000Y-127100000D03*
%TD*%
%TO.C,D10*%
X216580000Y-111000000D03*
X216580000Y-109100000D03*
%TD*%
%TO.C,D62*%
X252580000Y-111000000D03*
X252580000Y-109100000D03*
%TD*%
%TO.C,D57*%
X251080000Y-200450000D03*
X251080000Y-198550000D03*
%TD*%
%TO.C,D26*%
X144580000Y-147000000D03*
X144580000Y-145100000D03*
%TD*%
%TO.C,D49*%
X227330000Y-183000000D03*
X227330000Y-181100000D03*
%TD*%
%TO.C,D50*%
X230080000Y-183000000D03*
X230080000Y-181100000D03*
%TD*%
%TO.C,D33*%
X110330000Y-165150000D03*
X110330000Y-163250000D03*
%TD*%
%TO.C,D70*%
X243580000Y-129000000D03*
X243580000Y-127100000D03*
%TD*%
%TO.C,D58*%
X253830000Y-198550000D03*
X253830000Y-200450000D03*
%TD*%
%TO.C,D32*%
X77080000Y-165150000D03*
X77080000Y-163250000D03*
%TD*%
%TO.C,D17*%
X186830000Y-129000000D03*
X186830000Y-127100000D03*
%TD*%
%TO.C,D52*%
X73250000Y-199200000D03*
X73250000Y-197300000D03*
%TD*%
%TO.C,D30*%
X216580000Y-147000000D03*
X216580000Y-145100000D03*
%TD*%
%TO.C,D68*%
X277080000Y-129000000D03*
X277080000Y-127100000D03*
%TD*%
%TO.C,D41*%
X83330000Y-179450000D03*
X83330000Y-177550000D03*
%TD*%
%TO.C,D66*%
X302580000Y-111000000D03*
X302580000Y-109100000D03*
%TD*%
%TO.C,D55*%
X216250000Y-200950000D03*
X216250000Y-199050000D03*
%TD*%
%TO.C,D77*%
X257080000Y-165150000D03*
X257080000Y-163250000D03*
%TD*%
%TO.C,D6*%
X144580000Y-111000000D03*
X144580000Y-109100000D03*
%TD*%
%TO.C,D54*%
X109830000Y-199100000D03*
X109830000Y-201000000D03*
%TD*%
%TO.C,D48*%
X194080000Y-183000000D03*
X194080000Y-181100000D03*
%TD*%
%TO.C,D72*%
X270580000Y-147000000D03*
X270580000Y-145100000D03*
%TD*%
%TO.C,D42*%
X86080000Y-179450000D03*
X86080000Y-177550000D03*
%TD*%
%TO.C,D37*%
X182330000Y-165150000D03*
X182330000Y-163250000D03*
%TD*%
%TO.C,D64*%
X286580000Y-111000000D03*
X286580000Y-109100000D03*
%TD*%
%TO.C,D80*%
X265330000Y-183000000D03*
X265330000Y-181100000D03*
%TD*%
%TO.C,D3*%
X105830000Y-111000000D03*
X105830000Y-109100000D03*
%TD*%
%TO.C,D73*%
X299830000Y-147000000D03*
X299830000Y-145100000D03*
%TD*%
%TO.C,D74*%
X302580000Y-147000000D03*
X302580000Y-145100000D03*
%TD*%
%TO.C,D27*%
X177830000Y-147000000D03*
X177830000Y-145100000D03*
%TD*%
%TO.C,D34*%
X113080000Y-165150000D03*
X113080000Y-163250000D03*
%TD*%
%TO.C,D8*%
X180580000Y-111000000D03*
X180580000Y-109100000D03*
%TD*%
%TO.C,D7*%
X177830000Y-111000000D03*
X177830000Y-109100000D03*
%TD*%
%TO.C,D76*%
X300580000Y-165150000D03*
X300580000Y-163250000D03*
%TD*%
%TO.C,D25*%
X141830000Y-147000000D03*
X141830000Y-145100000D03*
%TD*%
%TO.C,D22*%
X72580000Y-147000000D03*
X72580000Y-145100000D03*
%TD*%
D13*
%TO.C,J1*%
X149250000Y-70040000D03*
D14*
X149250000Y-67500000D03*
%TD*%
D25*
%TO.C,D2*%
X72580000Y-111000000D03*
X72580000Y-109100000D03*
%TD*%
%TO.C,D39*%
X218330000Y-165150000D03*
X218330000Y-163250000D03*
%TD*%
%TO.C,D31*%
X74330000Y-165150000D03*
X74330000Y-163250000D03*
%TD*%
%TO.C,D79*%
X262580000Y-183000000D03*
X262580000Y-181100000D03*
%TD*%
%TO.C,D16*%
X153580000Y-129000000D03*
X153580000Y-127100000D03*
%TD*%
%TO.C,D43*%
X119330000Y-183000000D03*
X119330000Y-181100000D03*
%TD*%
%TO.C,D83*%
X303830000Y-202950000D03*
X303830000Y-201050000D03*
%TD*%
%TO.C,D67*%
X279830000Y-129000000D03*
X279830000Y-127100000D03*
%TD*%
%TO.C,D46*%
X158080000Y-183000000D03*
X158080000Y-181100000D03*
%TD*%
%TO.C,D35*%
X146330000Y-165150000D03*
X146330000Y-163250000D03*
%TD*%
%TO.C,D11*%
X78830000Y-129000000D03*
X78830000Y-127100000D03*
%TD*%
%TO.C,D47*%
X191330000Y-183000000D03*
X191330000Y-181100000D03*
%TD*%
%TO.C,D81*%
X301080000Y-183000000D03*
X301080000Y-181100000D03*
%TD*%
%TO.C,D78*%
X254330000Y-165150000D03*
X254330000Y-163250000D03*
%TD*%
%TO.C,D12*%
X81580000Y-129000000D03*
X81580000Y-127100000D03*
%TD*%
%TO.C,D14*%
X117580000Y-129000000D03*
X117580000Y-127100000D03*
%TD*%
%TO.C,D9*%
X213830000Y-111000000D03*
X213830000Y-109100000D03*
%TD*%
%TO.C,D53*%
X107080000Y-199100000D03*
X107080000Y-201000000D03*
%TD*%
%TO.C,D4*%
X108580000Y-111000000D03*
X108580000Y-109100000D03*
%TD*%
%TO.C,D1*%
X69830000Y-111000000D03*
X69830000Y-109100000D03*
%TD*%
%TO.C,D69*%
X240830000Y-129000000D03*
X240830000Y-127100000D03*
%TD*%
%TO.C,D19*%
X222830000Y-129000000D03*
X222830000Y-127100000D03*
%TD*%
%TO.C,D75*%
X303330000Y-165150000D03*
X303330000Y-163250000D03*
%TD*%
%TO.C,D56*%
X219000000Y-199050000D03*
X219000000Y-200950000D03*
%TD*%
%TO.C,D65*%
X299830000Y-111000000D03*
X299830000Y-109100000D03*
%TD*%
%TO.C,D71*%
X267830000Y-147000000D03*
X267830000Y-145100000D03*
%TD*%
%TO.C,D36*%
X149080000Y-165150000D03*
X149080000Y-163250000D03*
%TD*%
M02*
