%TF.GenerationSoftware,KiCad,Pcbnew,8.0.2*%
%TF.CreationDate,2024-05-05T23:04:00-07:00*%
%TF.ProjectId,g84_dropin,6738345f-6472-46f7-9069-6e2e6b696361,rev?*%
%TF.SameCoordinates,Original*%
%TF.FileFunction,Copper,L2,Bot*%
%TF.FilePolarity,Positive*%
%FSLAX46Y46*%
G04 Gerber Fmt 4.6, Leading zero omitted, Abs format (unit mm)*
G04 Created by KiCad (PCBNEW 8.0.2) date 2024-05-05 23:04:00*
%MOMM*%
%LPD*%
G01*
G04 APERTURE LIST*
G04 Aperture macros list*
%AMRoundRect*
0 Rectangle with rounded corners*
0 $1 Rounding radius*
0 $2 $3 $4 $5 $6 $7 $8 $9 X,Y pos of 4 corners*
0 Add a 4 corners polygon primitive as box body*
4,1,4,$2,$3,$4,$5,$6,$7,$8,$9,$2,$3,0*
0 Add four circle primitives for the rounded corners*
1,1,$1+$1,$2,$3*
1,1,$1+$1,$4,$5*
1,1,$1+$1,$6,$7*
1,1,$1+$1,$8,$9*
0 Add four rect primitives between the rounded corners*
20,1,$1+$1,$2,$3,$4,$5,0*
20,1,$1+$1,$4,$5,$6,$7,0*
20,1,$1+$1,$6,$7,$8,$9,0*
20,1,$1+$1,$8,$9,$2,$3,0*%
G04 Aperture macros list end*
%TA.AperFunction,ComponentPad*%
%ADD10C,1.752600*%
%TD*%
%TA.AperFunction,ComponentPad*%
%ADD11O,1.000000X2.000000*%
%TD*%
%TA.AperFunction,SMDPad,CuDef*%
%ADD12R,1.000000X3.000000*%
%TD*%
%TA.AperFunction,ComponentPad*%
%ADD13R,1.700000X1.700000*%
%TD*%
%TA.AperFunction,ComponentPad*%
%ADD14O,1.700000X1.700000*%
%TD*%
%TA.AperFunction,ComponentPad*%
%ADD15RoundRect,0.500000X0.600000X-0.000010X0.600000X0.000010X-0.600000X0.000010X-0.600000X-0.000010X0*%
%TD*%
%TA.AperFunction,ComponentPad*%
%ADD16RoundRect,0.500000X0.300000X-0.000010X0.300000X0.000010X-0.300000X0.000010X-0.300000X-0.000010X0*%
%TD*%
%TA.AperFunction,ComponentPad*%
%ADD17C,2.000000*%
%TD*%
%TA.AperFunction,ComponentPad*%
%ADD18R,1.000000X1.000000*%
%TD*%
%TA.AperFunction,ComponentPad*%
%ADD19O,1.000000X1.000000*%
%TD*%
%TA.AperFunction,SMDPad,CuDef*%
%ADD20R,1.300000X0.700000*%
%TD*%
%TA.AperFunction,Conductor*%
%ADD21C,0.200000*%
%TD*%
G04 APERTURE END LIST*
D10*
%TO.P,U1,1,TX0/P0.06*%
%TO.N,R9*%
X200720000Y-61130000D03*
%TO.P,U1,2,RX1/P0.08*%
%TO.N,R8*%
X198180000Y-61130000D03*
%TO.P,U1,3,GND*%
%TO.N,GND*%
X195640000Y-61130000D03*
%TO.P,U1,4,GND*%
X193100000Y-61130000D03*
%TO.P,U1,5,P0.17*%
%TO.N,R7*%
X190560000Y-61130000D03*
%TO.P,U1,6,P0.20*%
%TO.N,R6*%
X188020000Y-61130000D03*
%TO.P,U1,7,P0.22*%
%TO.N,R5*%
X185480000Y-61130000D03*
%TO.P,U1,8,P0.24*%
%TO.N,R4*%
X182940000Y-61130000D03*
%TO.P,U1,9,P1.00*%
%TO.N,R3*%
X180400000Y-61130000D03*
%TO.P,U1,10,P0.11*%
%TO.N,R2*%
X177860000Y-61130000D03*
%TO.P,U1,11,P1.04*%
%TO.N,R1*%
X175320000Y-61130000D03*
%TO.P,U1,12,P1.06*%
%TO.N,NUM*%
X172780000Y-61130000D03*
%TO.P,U1,13,NFC1/P0.09*%
%TO.N,C3*%
X172780000Y-76370000D03*
%TO.P,U1,14,NFC2/P0.10*%
%TO.N,C4*%
X175320000Y-76370000D03*
%TO.P,U1,15,P1.11*%
%TO.N,C5*%
X177860000Y-76370000D03*
%TO.P,U1,16,P1.13*%
%TO.N,C6*%
X180400000Y-76370000D03*
%TO.P,U1,17,P1.15*%
%TO.N,C7*%
X182940000Y-76370000D03*
%TO.P,U1,18,AIN0/P0.02*%
%TO.N,C8*%
X185480000Y-76370000D03*
%TO.P,U1,19,AIN5/P0.29*%
%TO.N,C9*%
X188020000Y-76370000D03*
%TO.P,U1,20,AIN7/P0.31*%
%TO.N,C10*%
X190560000Y-76370000D03*
%TO.P,U1,21,VCC*%
%TO.N,unconnected-(U1-VCC-Pad21)*%
X193100000Y-76370000D03*
%TO.P,U1,22,RST*%
%TO.N,RST*%
X195640000Y-76370000D03*
%TO.P,U1,23,GND*%
%TO.N,GND*%
X198180000Y-76370000D03*
%TO.P,U1,24,BATIN/P0.04*%
%TO.N,+3.7V*%
X200720000Y-76370000D03*
%TO.P,U1,31,P1.01*%
%TO.N,CAPS*%
X177860000Y-63670000D03*
X175955000Y-64305000D03*
%TO.P,U1,32,P1.02*%
%TO.N,C1*%
X177860000Y-66210000D03*
X175955000Y-66845000D03*
%TO.P,U1,33,P1.07*%
%TO.N,C2*%
X177860000Y-68750000D03*
X175955000Y-69385000D03*
%TD*%
D11*
%TO.P,J4,1,Pin_1*%
%TO.N,C1*%
X170710000Y-83250000D03*
%TO.P,J4,2,Pin_2*%
%TO.N,C2*%
X171980000Y-83250000D03*
%TO.P,J4,3,Pin_3*%
%TO.N,C3*%
X173250000Y-83250000D03*
%TO.P,J4,4,Pin_4*%
%TO.N,C4*%
X174520000Y-83250000D03*
%TO.P,J4,5,Pin_5*%
%TO.N,C5*%
X175790000Y-83250000D03*
%TO.P,J4,6,Pin_6*%
%TO.N,C6*%
X177060000Y-83250000D03*
%TO.P,J4,7,Pin_7*%
%TO.N,C7*%
X178330000Y-83250000D03*
%TO.P,J4,8,Pin_8*%
%TO.N,C8*%
X179600000Y-83250000D03*
%TO.P,J4,9,Pin_9*%
%TO.N,C9*%
X180870000Y-83250000D03*
%TO.P,J4,10,Pin_10*%
%TO.N,C10*%
X182140000Y-83250000D03*
%TO.P,J4,11,Pin_11*%
%TO.N,R1*%
X183410000Y-83250000D03*
%TO.P,J4,12,Pin_12*%
%TO.N,R2*%
X184680000Y-83250000D03*
%TO.P,J4,13,Pin_13*%
%TO.N,R3*%
X185950000Y-83250000D03*
%TO.P,J4,14,Pin_14*%
%TO.N,R4*%
X187220000Y-83250000D03*
%TO.P,J4,15,Pin_15*%
%TO.N,R5*%
X188490000Y-83250000D03*
%TO.P,J4,16,Pin_16*%
%TO.N,R6*%
X189760000Y-83250000D03*
%TO.P,J4,17,Pin_17*%
%TO.N,R7*%
X191030000Y-83250000D03*
%TO.P,J4,18,Pin_18*%
%TO.N,R8*%
X192300000Y-83250000D03*
%TO.P,J4,19,Pin_19*%
%TO.N,R9*%
X193570000Y-83250000D03*
%TO.P,J4,20,Pin_20*%
%TO.N,Net-(J4-Pin_20)*%
X194840000Y-83250000D03*
%TO.P,J4,21,Pin_21*%
%TO.N,Net-(J4-Pin_21)*%
X196110000Y-83250000D03*
%TO.P,J4,22,Pin_22*%
%TO.N,GND*%
X197380000Y-83250000D03*
%TO.P,J4,23,Pin_23*%
X198650000Y-83250000D03*
%TO.P,J4,24,Pin_24*%
X199920000Y-83250000D03*
%TO.P,J4,25,Pin_25*%
X201190000Y-83250000D03*
%TO.P,J4,26,Pin_26*%
X202460000Y-83250000D03*
%TO.P,J4,27,Pin_27*%
X203730000Y-83250000D03*
%TO.P,J4,28,Pin_28*%
X205000000Y-83250000D03*
D12*
%TO.P,J4,1,Pin_1*%
%TO.N,C1*%
X170710000Y-85282000D03*
%TO.P,J4,2,Pin_2*%
%TO.N,C2*%
X171980000Y-85282000D03*
%TO.P,J4,3,Pin_3*%
%TO.N,C3*%
X173250000Y-85282000D03*
%TO.P,J4,4,Pin_4*%
%TO.N,C4*%
X174520000Y-85282000D03*
%TO.P,J4,5,Pin_5*%
%TO.N,C5*%
X175790000Y-85282000D03*
%TO.P,J4,6,Pin_6*%
%TO.N,C6*%
X177060000Y-85282000D03*
%TO.P,J4,7,Pin_7*%
%TO.N,C7*%
X178330000Y-85282000D03*
%TO.P,J4,8,Pin_8*%
%TO.N,C8*%
X179600000Y-85282000D03*
%TO.P,J4,9,Pin_9*%
%TO.N,C9*%
X180870000Y-85282000D03*
%TO.P,J4,10,Pin_10*%
%TO.N,C10*%
X182140000Y-85282000D03*
%TO.P,J4,11,Pin_11*%
%TO.N,R1*%
X183410000Y-85282000D03*
%TO.P,J4,12,Pin_12*%
%TO.N,R2*%
X184680000Y-85282000D03*
%TO.P,J4,13,Pin_13*%
%TO.N,R3*%
X185950000Y-85282000D03*
%TO.P,J4,14,Pin_14*%
%TO.N,R4*%
X187220000Y-85282000D03*
%TO.P,J4,15,Pin_15*%
%TO.N,R5*%
X188490000Y-85282000D03*
%TO.P,J4,16,Pin_16*%
%TO.N,R6*%
X189760000Y-85282000D03*
%TO.P,J4,17,Pin_17*%
%TO.N,R7*%
X191030000Y-85282000D03*
%TO.P,J4,18,Pin_18*%
%TO.N,R8*%
X192300000Y-85282000D03*
%TO.P,J4,19,Pin_19*%
%TO.N,R9*%
X193570000Y-85282000D03*
%TO.P,J4,20,Pin_20*%
%TO.N,Net-(J4-Pin_20)*%
X194840000Y-85282000D03*
%TO.P,J4,21,Pin_21*%
%TO.N,Net-(J4-Pin_21)*%
X196110000Y-85282000D03*
%TO.P,J4,22,Pin_22*%
%TO.N,GND*%
X197380000Y-85282000D03*
%TO.P,J4,23,Pin_23*%
X198650000Y-85282000D03*
%TO.P,J4,24,Pin_24*%
X199920000Y-85282000D03*
%TO.P,J4,25,Pin_25*%
X201190000Y-85282000D03*
%TO.P,J4,26,Pin_26*%
X202460000Y-85282000D03*
%TO.P,J4,27,Pin_27*%
X203730000Y-85282000D03*
%TO.P,J4,28,Pin_28*%
X205000000Y-85282000D03*
%TD*%
D11*
%TO.P,J5,28,Pin_28*%
%TO.N,GND*%
X205040000Y-95250000D03*
%TO.P,J5,27,Pin_27*%
X203770000Y-95250000D03*
%TO.P,J5,26,Pin_26*%
X202500000Y-95250000D03*
%TO.P,J5,25,Pin_25*%
X201230000Y-95250000D03*
%TO.P,J5,24,Pin_24*%
X199960000Y-95250000D03*
%TO.P,J5,23,Pin_23*%
X198690000Y-95250000D03*
%TO.P,J5,22,Pin_22*%
X197420000Y-95250000D03*
%TO.P,J5,21,Pin_21*%
%TO.N,Net-(J5-Pin_21)*%
X196150000Y-95250000D03*
%TO.P,J5,20,Pin_20*%
%TO.N,Net-(J5-Pin_20)*%
X194880000Y-95250000D03*
%TO.P,J5,19,Pin_19*%
%TO.N,R9*%
X193610000Y-95250000D03*
%TO.P,J5,18,Pin_18*%
%TO.N,R8*%
X192340000Y-95250000D03*
%TO.P,J5,17,Pin_17*%
%TO.N,R7*%
X191070000Y-95250000D03*
%TO.P,J5,16,Pin_16*%
%TO.N,R6*%
X189800000Y-95250000D03*
%TO.P,J5,15,Pin_15*%
%TO.N,R5*%
X188530000Y-95250000D03*
%TO.P,J5,14,Pin_14*%
%TO.N,R4*%
X187260000Y-95250000D03*
%TO.P,J5,13,Pin_13*%
%TO.N,R3*%
X185990000Y-95250000D03*
%TO.P,J5,12,Pin_12*%
%TO.N,R2*%
X184720000Y-95250000D03*
%TO.P,J5,11,Pin_11*%
%TO.N,R1*%
X183450000Y-95250000D03*
%TO.P,J5,10,Pin_10*%
%TO.N,C10*%
X182180000Y-95250000D03*
%TO.P,J5,9,Pin_9*%
%TO.N,C9*%
X180910000Y-95250000D03*
%TO.P,J5,8,Pin_8*%
%TO.N,C8*%
X179640000Y-95250000D03*
%TO.P,J5,7,Pin_7*%
%TO.N,C7*%
X178370000Y-95250000D03*
%TO.P,J5,6,Pin_6*%
%TO.N,C6*%
X177100000Y-95250000D03*
%TO.P,J5,5,Pin_5*%
%TO.N,C5*%
X175830000Y-95250000D03*
%TO.P,J5,4,Pin_4*%
%TO.N,C4*%
X174560000Y-95250000D03*
%TO.P,J5,3,Pin_3*%
%TO.N,C3*%
X173290000Y-95250000D03*
%TO.P,J5,2,Pin_2*%
%TO.N,C2*%
X172020000Y-95250000D03*
%TO.P,J5,1,Pin_1*%
%TO.N,C1*%
X170750000Y-95250000D03*
D12*
X170750000Y-93218000D03*
%TO.P,J5,2,Pin_2*%
%TO.N,C2*%
X172020000Y-93218000D03*
%TO.P,J5,3,Pin_3*%
%TO.N,C3*%
X173290000Y-93218000D03*
%TO.P,J5,4,Pin_4*%
%TO.N,C4*%
X174560000Y-93218000D03*
%TO.P,J5,5,Pin_5*%
%TO.N,C5*%
X175830000Y-93218000D03*
%TO.P,J5,6,Pin_6*%
%TO.N,C6*%
X177100000Y-93218000D03*
%TO.P,J5,7,Pin_7*%
%TO.N,C7*%
X178370000Y-93218000D03*
%TO.P,J5,8,Pin_8*%
%TO.N,C8*%
X179640000Y-93218000D03*
%TO.P,J5,9,Pin_9*%
%TO.N,C9*%
X180910000Y-93218000D03*
%TO.P,J5,10,Pin_10*%
%TO.N,C10*%
X182180000Y-93218000D03*
%TO.P,J5,11,Pin_11*%
%TO.N,R1*%
X183450000Y-93218000D03*
%TO.P,J5,12,Pin_12*%
%TO.N,R2*%
X184720000Y-93218000D03*
%TO.P,J5,13,Pin_13*%
%TO.N,R3*%
X185990000Y-93218000D03*
%TO.P,J5,14,Pin_14*%
%TO.N,R4*%
X187260000Y-93218000D03*
%TO.P,J5,15,Pin_15*%
%TO.N,R5*%
X188530000Y-93218000D03*
%TO.P,J5,16,Pin_16*%
%TO.N,R6*%
X189800000Y-93218000D03*
%TO.P,J5,17,Pin_17*%
%TO.N,R7*%
X191070000Y-93218000D03*
%TO.P,J5,18,Pin_18*%
%TO.N,R8*%
X192340000Y-93218000D03*
%TO.P,J5,19,Pin_19*%
%TO.N,R9*%
X193610000Y-93218000D03*
%TO.P,J5,20,Pin_20*%
%TO.N,Net-(J5-Pin_20)*%
X194880000Y-93218000D03*
%TO.P,J5,21,Pin_21*%
%TO.N,Net-(J5-Pin_21)*%
X196150000Y-93218000D03*
%TO.P,J5,22,Pin_22*%
%TO.N,GND*%
X197420000Y-93218000D03*
%TO.P,J5,23,Pin_23*%
X198690000Y-93218000D03*
%TO.P,J5,24,Pin_24*%
X199960000Y-93218000D03*
%TO.P,J5,25,Pin_25*%
X201230000Y-93218000D03*
%TO.P,J5,26,Pin_26*%
X202500000Y-93218000D03*
%TO.P,J5,27,Pin_27*%
X203770000Y-93218000D03*
%TO.P,J5,28,Pin_28*%
X205040000Y-93218000D03*
%TD*%
D13*
%TO.P,J7,1,Pin_1*%
%TO.N,Net-(J1-Pin_2)*%
X158500000Y-59750000D03*
D14*
%TO.P,J7,2,Pin_2*%
%TO.N,+3.7V*%
X161040000Y-59750000D03*
%TD*%
D15*
%TO.P,J6,S1,SHIELD*%
%TO.N,unconnected-(J6-SHIELD-PadS1)_0*%
X240280000Y-69760000D03*
D16*
%TO.N,unconnected-(J6-SHIELD-PadS1)_2*%
X244460000Y-78400000D03*
D15*
%TO.N,unconnected-(J6-SHIELD-PadS1)_1*%
X240280000Y-78400000D03*
D16*
%TO.N,unconnected-(J6-SHIELD-PadS1)*%
X244460000Y-69760000D03*
%TD*%
D17*
%TO.P,SW38,1*%
%TO.N,C8*%
X193330000Y-156000000D03*
%TO.P,SW38,2*%
%TO.N,Net-(D38-A)*%
X193330000Y-164890000D03*
%TO.P,SW38,3*%
%TO.N,unconnected-(SW38-Pad3)*%
X188250000Y-156000000D03*
%TO.P,SW38,4*%
%TO.N,unconnected-(SW38-Pad4)*%
X198410000Y-156000000D03*
%TD*%
%TO.P,SW71,1*%
%TO.N,C1*%
X260830000Y-138000000D03*
%TO.P,SW71,2*%
%TO.N,Net-(D71-A)*%
X260830000Y-146890000D03*
%TO.P,SW71,3*%
%TO.N,unconnected-(SW71-Pad3)*%
X255750000Y-138000000D03*
%TO.P,SW71,4*%
%TO.N,unconnected-(SW71-Pad4)*%
X265910000Y-138000000D03*
%TD*%
%TO.P,SW34,1*%
%TO.N,C4*%
X121330000Y-156000000D03*
%TO.P,SW34,2*%
%TO.N,Net-(D34-A)*%
X121330000Y-164890000D03*
%TO.P,SW34,3*%
%TO.N,unconnected-(SW34-Pad3)*%
X116250000Y-156000000D03*
%TO.P,SW34,4*%
%TO.N,unconnected-(SW34-Pad4)*%
X126410000Y-156000000D03*
%TD*%
%TO.P,SW66,1*%
%TO.N,C6*%
X309830000Y-120000000D03*
%TO.P,SW66,2*%
%TO.N,Net-(D66-A)*%
X309830000Y-128890000D03*
%TO.P,SW66,3*%
%TO.N,unconnected-(SW66-Pad3)*%
X304750000Y-120000000D03*
%TO.P,SW66,4*%
%TO.N,unconnected-(SW66-Pad4)*%
X314910000Y-120000000D03*
%TD*%
%TO.P,SW2,1*%
%TO.N,C2*%
X80830000Y-102000000D03*
%TO.P,SW2,2*%
%TO.N,Net-(D2-A)*%
X80830000Y-110890000D03*
%TO.P,SW2,3*%
%TO.N,unconnected-(SW2-Pad3)*%
X75750000Y-102000000D03*
%TO.P,SW2,4*%
%TO.N,unconnected-(SW2-Pad4)*%
X85910000Y-102000000D03*
%TD*%
%TO.P,SW20,1*%
%TO.N,C10*%
X233830000Y-120000000D03*
%TO.P,SW20,2*%
%TO.N,Net-(D20-A)*%
X233830000Y-128890000D03*
%TO.P,SW20,3*%
%TO.N,unconnected-(SW20-Pad3)*%
X228750000Y-120000000D03*
%TO.P,SW20,4*%
%TO.N,unconnected-(SW20-Pad4)*%
X238910000Y-120000000D03*
%TD*%
%TO.P,SW74,1*%
%TO.N,C4*%
X309830000Y-138000000D03*
%TO.P,SW74,2*%
%TO.N,Net-(D74-A)*%
X309830000Y-146890000D03*
%TO.P,SW74,3*%
%TO.N,unconnected-(SW74-Pad3)*%
X304750000Y-138000000D03*
%TO.P,SW74,4*%
%TO.N,unconnected-(SW74-Pad4)*%
X314910000Y-138000000D03*
%TD*%
%TO.P,SW48,1*%
%TO.N,C8*%
X202330000Y-174000000D03*
%TO.P,SW48,2*%
%TO.N,Net-(D48-A)*%
X202330000Y-182890000D03*
%TO.P,SW48,3*%
%TO.N,unconnected-(SW48-Pad3)*%
X197250000Y-174000000D03*
%TO.P,SW48,4*%
%TO.N,unconnected-(SW48-Pad4)*%
X207410000Y-174000000D03*
%TD*%
%TO.P,SW10,1*%
%TO.N,C10*%
X224830000Y-102000000D03*
%TO.P,SW10,2*%
%TO.N,Net-(D10-A)*%
X224830000Y-110890000D03*
%TO.P,SW10,3*%
%TO.N,unconnected-(SW10-Pad3)*%
X219750000Y-102000000D03*
%TO.P,SW10,4*%
%TO.N,unconnected-(SW10-Pad4)*%
X229910000Y-102000000D03*
%TD*%
%TO.P,SW25,1*%
%TO.N,C5*%
X134830000Y-138000000D03*
%TO.P,SW25,2*%
%TO.N,Net-(D25-A)*%
X134830000Y-146890000D03*
%TO.P,SW25,3*%
%TO.N,unconnected-(SW25-Pad3)*%
X129750000Y-138000000D03*
%TO.P,SW25,4*%
%TO.N,unconnected-(SW25-Pad4)*%
X139910000Y-138000000D03*
%TD*%
%TO.P,SW50,1*%
%TO.N,C10*%
X238330000Y-174000000D03*
%TO.P,SW50,2*%
%TO.N,Net-(D50-A)*%
X238330000Y-182890000D03*
%TO.P,SW50,3*%
%TO.N,unconnected-(SW50-Pad3)*%
X233250000Y-174000000D03*
%TO.P,SW50,4*%
%TO.N,unconnected-(SW50-Pad4)*%
X243410000Y-174000000D03*
%TD*%
%TO.P,SW82,1*%
%TO.N,C2*%
X309830000Y-174000000D03*
%TO.P,SW82,2*%
%TO.N,Net-(D82-A)*%
X309830000Y-182890000D03*
%TO.P,SW82,3*%
%TO.N,unconnected-(SW82-Pad3)*%
X304750000Y-174000000D03*
%TO.P,SW82,4*%
%TO.N,unconnected-(SW82-Pad4)*%
X314910000Y-174000000D03*
%TD*%
%TO.P,SW26,1*%
%TO.N,C6*%
X152830000Y-138000000D03*
%TO.P,SW26,2*%
%TO.N,Net-(D26-A)*%
X152830000Y-146890000D03*
%TO.P,SW26,3*%
%TO.N,unconnected-(SW26-Pad3)*%
X147750000Y-138000000D03*
%TO.P,SW26,4*%
%TO.N,unconnected-(SW26-Pad4)*%
X157910000Y-138000000D03*
%TD*%
%TO.P,SW15,1*%
%TO.N,C5*%
X143830000Y-120000000D03*
%TO.P,SW15,2*%
%TO.N,Net-(D15-A)*%
X143830000Y-128890000D03*
%TO.P,SW15,3*%
%TO.N,unconnected-(SW15-Pad3)*%
X138750000Y-120000000D03*
%TO.P,SW15,4*%
%TO.N,unconnected-(SW15-Pad4)*%
X148910000Y-120000000D03*
%TD*%
%TO.P,SW9,1*%
%TO.N,C9*%
X206830000Y-102000000D03*
%TO.P,SW9,2*%
%TO.N,Net-(D9-A)*%
X206830000Y-110890000D03*
%TO.P,SW9,3*%
%TO.N,unconnected-(SW9-Pad3)*%
X201750000Y-102000000D03*
%TO.P,SW9,4*%
%TO.N,unconnected-(SW9-Pad4)*%
X211910000Y-102000000D03*
%TD*%
%TO.P,SW81,1*%
%TO.N,C1*%
X293830000Y-174000000D03*
%TO.P,SW81,2*%
%TO.N,Net-(D81-A)*%
X293830000Y-182890000D03*
%TO.P,SW81,3*%
%TO.N,unconnected-(SW81-Pad3)*%
X288750000Y-174000000D03*
%TO.P,SW81,4*%
%TO.N,unconnected-(SW81-Pad4)*%
X298910000Y-174000000D03*
%TD*%
%TO.P,SW52,1*%
%TO.N,C2*%
X80830000Y-192000000D03*
%TO.P,SW52,2*%
%TO.N,Net-(D52-A)*%
X80830000Y-200890000D03*
%TO.P,SW52,3*%
%TO.N,unconnected-(SW52-Pad3)*%
X75750000Y-192000000D03*
%TO.P,SW52,4*%
%TO.N,unconnected-(SW52-Pad4)*%
X85910000Y-192000000D03*
%TD*%
%TO.P,SW3,1*%
%TO.N,C3*%
X98830000Y-102000000D03*
%TO.P,SW3,2*%
%TO.N,Net-(D3-A)*%
X98830000Y-110890000D03*
%TO.P,SW3,3*%
%TO.N,unconnected-(SW3-Pad3)*%
X93750000Y-102000000D03*
%TO.P,SW3,4*%
%TO.N,unconnected-(SW3-Pad4)*%
X103910000Y-102000000D03*
%TD*%
%TO.P,SW32,1*%
%TO.N,C2*%
X85330000Y-156000000D03*
%TO.P,SW32,2*%
%TO.N,Net-(D32-A)*%
X85330000Y-164890000D03*
%TO.P,SW32,3*%
%TO.N,unconnected-(SW32-Pad3)*%
X80250000Y-156000000D03*
%TO.P,SW32,4*%
%TO.N,unconnected-(SW32-Pad4)*%
X90410000Y-156000000D03*
%TD*%
%TO.P,SW36,1*%
%TO.N,C6*%
X157330000Y-156000000D03*
%TO.P,SW36,2*%
%TO.N,Net-(D36-A)*%
X157330000Y-164890000D03*
%TO.P,SW36,3*%
%TO.N,unconnected-(SW36-Pad3)*%
X152250000Y-156000000D03*
%TO.P,SW36,4*%
%TO.N,unconnected-(SW36-Pad4)*%
X162410000Y-156000000D03*
%TD*%
%TO.P,SW80,1*%
%TO.N,C10*%
X274580000Y-174000000D03*
%TO.P,SW80,2*%
%TO.N,Net-(D80-A)*%
X274580000Y-182890000D03*
%TO.P,SW80,3*%
%TO.N,unconnected-(SW80-Pad3)*%
X269500000Y-174000000D03*
%TO.P,SW80,4*%
%TO.N,unconnected-(SW80-Pad4)*%
X279660000Y-174000000D03*
%TD*%
%TO.P,SW68,1*%
%TO.N,C8*%
X269830000Y-120000000D03*
%TO.P,SW68,2*%
%TO.N,Net-(D68-A)*%
X269830000Y-128890000D03*
%TO.P,SW68,3*%
%TO.N,unconnected-(SW68-Pad3)*%
X264750000Y-120000000D03*
%TO.P,SW68,4*%
%TO.N,unconnected-(SW68-Pad4)*%
X274910000Y-120000000D03*
%TD*%
%TO.P,SW69,1*%
%TO.N,C9*%
X251830000Y-120000000D03*
%TO.P,SW69,2*%
%TO.N,Net-(D69-A)*%
X251830000Y-128890000D03*
%TO.P,SW69,3*%
%TO.N,unconnected-(SW69-Pad3)*%
X246750000Y-120000000D03*
%TO.P,SW69,4*%
%TO.N,unconnected-(SW69-Pad4)*%
X256910000Y-120000000D03*
%TD*%
%TO.P,SW40,1*%
%TO.N,C10*%
X229330000Y-156000000D03*
%TO.P,SW40,2*%
%TO.N,Net-(D40-A)*%
X229330000Y-164890000D03*
%TO.P,SW40,3*%
%TO.N,unconnected-(SW40-Pad3)*%
X224250000Y-156000000D03*
%TO.P,SW40,4*%
%TO.N,unconnected-(SW40-Pad4)*%
X234410000Y-156000000D03*
%TD*%
%TO.P,SW79,1*%
%TO.N,C9*%
X255330000Y-174000000D03*
%TO.P,SW79,2*%
%TO.N,Net-(D79-A)*%
X255330000Y-182890000D03*
%TO.P,SW79,3*%
%TO.N,unconnected-(SW79-Pad3)*%
X250250000Y-174000000D03*
%TO.P,SW79,4*%
%TO.N,unconnected-(SW79-Pad4)*%
X260410000Y-174000000D03*
%TD*%
%TO.P,SW23,1*%
%TO.N,C3*%
X98830000Y-138000000D03*
%TO.P,SW23,2*%
%TO.N,Net-(D23-A)*%
X98830000Y-146890000D03*
%TO.P,SW23,3*%
%TO.N,unconnected-(SW23-Pad3)*%
X93750000Y-138000000D03*
%TO.P,SW23,4*%
%TO.N,unconnected-(SW23-Pad4)*%
X103910000Y-138000000D03*
%TD*%
%TO.P,SW60,1*%
%TO.N,C10*%
X293830000Y-192000000D03*
%TO.P,SW60,2*%
%TO.N,Net-(D60-A)*%
X293830000Y-200890000D03*
%TO.P,SW60,3*%
%TO.N,unconnected-(SW60-Pad3)*%
X288750000Y-192000000D03*
%TO.P,SW60,4*%
%TO.N,unconnected-(SW60-Pad4)*%
X298910000Y-192000000D03*
%TD*%
%TO.P,SW22,1*%
%TO.N,C2*%
X80830000Y-138000000D03*
%TO.P,SW22,2*%
%TO.N,Net-(D22-A)*%
X80830000Y-146890000D03*
%TO.P,SW22,3*%
%TO.N,unconnected-(SW22-Pad3)*%
X75750000Y-138000000D03*
%TO.P,SW22,4*%
%TO.N,unconnected-(SW22-Pad4)*%
X85910000Y-138000000D03*
%TD*%
%TO.P,SW1,1*%
%TO.N,C1*%
X62830000Y-102000000D03*
%TO.P,SW1,2*%
%TO.N,Net-(D1-A)*%
X62830000Y-110890000D03*
%TO.P,SW1,3*%
%TO.N,unconnected-(SW1-Pad3)*%
X57750000Y-102000000D03*
%TO.P,SW1,4*%
%TO.N,unconnected-(SW1-Pad4)*%
X67910000Y-102000000D03*
%TD*%
%TO.P,SW55,1*%
%TO.N,C5*%
X170830000Y-192000000D03*
%TO.P,SW55,2*%
%TO.N,Net-(D55-A)*%
X170830000Y-200890000D03*
%TO.P,SW55,3*%
%TO.N,unconnected-(SW55-Pad3)*%
X165750000Y-192000000D03*
%TO.P,SW55,4*%
%TO.N,unconnected-(SW55-Pad4)*%
X175910000Y-192000000D03*
%TD*%
%TO.P,SW21,1*%
%TO.N,C1*%
X62830000Y-138000000D03*
%TO.P,SW21,2*%
%TO.N,Net-(D21-A)*%
X62830000Y-146890000D03*
%TO.P,SW21,3*%
%TO.N,unconnected-(SW21-Pad3)*%
X57750000Y-138000000D03*
%TO.P,SW21,4*%
%TO.N,unconnected-(SW21-Pad4)*%
X67910000Y-138000000D03*
%TD*%
%TO.P,SW6,1*%
%TO.N,C6*%
X152830000Y-102000000D03*
%TO.P,SW6,2*%
%TO.N,Net-(D6-A)*%
X152830000Y-110890000D03*
%TO.P,SW6,3*%
%TO.N,unconnected-(SW6-Pad3)*%
X147750000Y-102000000D03*
%TO.P,SW6,4*%
%TO.N,unconnected-(SW6-Pad4)*%
X157910000Y-102000000D03*
%TD*%
%TO.P,SW54,1*%
%TO.N,C4*%
X116830000Y-192000000D03*
%TO.P,SW54,2*%
%TO.N,Net-(D54-A)*%
X116830000Y-200890000D03*
%TO.P,SW54,3*%
%TO.N,unconnected-(SW54-Pad3)*%
X111750000Y-192000000D03*
%TO.P,SW54,4*%
%TO.N,unconnected-(SW54-Pad4)*%
X121910000Y-192000000D03*
%TD*%
%TO.P,SW63,1*%
%TO.N,C3*%
X277830000Y-102000000D03*
%TO.P,SW63,2*%
%TO.N,Net-(D63-A)*%
X277830000Y-110890000D03*
%TO.P,SW63,3*%
%TO.N,unconnected-(SW63-Pad3)*%
X272750000Y-102000000D03*
%TO.P,SW63,4*%
%TO.N,unconnected-(SW63-Pad4)*%
X282910000Y-102000000D03*
%TD*%
%TO.P,SW39,1*%
%TO.N,C9*%
X211330000Y-156000000D03*
%TO.P,SW39,2*%
%TO.N,Net-(D39-A)*%
X211330000Y-164890000D03*
%TO.P,SW39,3*%
%TO.N,unconnected-(SW39-Pad3)*%
X206250000Y-156000000D03*
%TO.P,SW39,4*%
%TO.N,unconnected-(SW39-Pad4)*%
X216410000Y-156000000D03*
%TD*%
%TO.P,SW4,1*%
%TO.N,C4*%
X116830000Y-102000000D03*
%TO.P,SW4,2*%
%TO.N,Net-(D4-A)*%
X116830000Y-110890000D03*
%TO.P,SW4,3*%
%TO.N,unconnected-(SW4-Pad3)*%
X111750000Y-102000000D03*
%TO.P,SW4,4*%
%TO.N,unconnected-(SW4-Pad4)*%
X121910000Y-102000000D03*
%TD*%
%TO.P,SW8,1*%
%TO.N,C8*%
X188830000Y-102000000D03*
%TO.P,SW8,2*%
%TO.N,Net-(D8-A)*%
X188830000Y-110890000D03*
%TO.P,SW8,3*%
%TO.N,unconnected-(SW8-Pad3)*%
X183750000Y-102000000D03*
%TO.P,SW8,4*%
%TO.N,unconnected-(SW8-Pad4)*%
X193910000Y-102000000D03*
%TD*%
%TO.P,SW7,1*%
%TO.N,C7*%
X170830000Y-102000000D03*
%TO.P,SW7,2*%
%TO.N,Net-(D7-A)*%
X170830000Y-110890000D03*
%TO.P,SW7,3*%
%TO.N,unconnected-(SW7-Pad3)*%
X165750000Y-102000000D03*
%TO.P,SW7,4*%
%TO.N,unconnected-(SW7-Pad4)*%
X175910000Y-102000000D03*
%TD*%
%TO.P,SW37,1*%
%TO.N,C7*%
X175330000Y-156000000D03*
%TO.P,SW37,2*%
%TO.N,Net-(D37-A)*%
X175330000Y-164890000D03*
%TO.P,SW37,3*%
%TO.N,unconnected-(SW37-Pad3)*%
X170250000Y-156000000D03*
%TO.P,SW37,4*%
%TO.N,unconnected-(SW37-Pad4)*%
X180410000Y-156000000D03*
%TD*%
%TO.P,SW45,1*%
%TO.N,C5*%
X148330000Y-174000000D03*
%TO.P,SW45,2*%
%TO.N,Net-(D45-A)*%
X148330000Y-182890000D03*
%TO.P,SW45,3*%
%TO.N,unconnected-(SW45-Pad3)*%
X143250000Y-174000000D03*
%TO.P,SW45,4*%
%TO.N,unconnected-(SW45-Pad4)*%
X153410000Y-174000000D03*
%TD*%
%TO.P,SW12,1*%
%TO.N,C2*%
X89830000Y-120000000D03*
%TO.P,SW12,2*%
%TO.N,Net-(D12-A)*%
X89830000Y-128890000D03*
%TO.P,SW12,3*%
%TO.N,unconnected-(SW12-Pad3)*%
X84750000Y-120000000D03*
%TO.P,SW12,4*%
%TO.N,unconnected-(SW12-Pad4)*%
X94910000Y-120000000D03*
%TD*%
%TO.P,SW51,1*%
%TO.N,C1*%
X62830000Y-192000000D03*
%TO.P,SW51,2*%
%TO.N,Net-(D51-A)*%
X62830000Y-200890000D03*
%TO.P,SW51,3*%
%TO.N,unconnected-(SW51-Pad3)*%
X57750000Y-192000000D03*
%TO.P,SW51,4*%
%TO.N,unconnected-(SW51-Pad4)*%
X67910000Y-192000000D03*
%TD*%
%TO.P,SW77,1*%
%TO.N,C7*%
X265330000Y-156000000D03*
%TO.P,SW77,2*%
%TO.N,Net-(D77-A)*%
X265330000Y-164890000D03*
%TO.P,SW77,3*%
%TO.N,unconnected-(SW77-Pad3)*%
X260250000Y-156000000D03*
%TO.P,SW77,4*%
%TO.N,unconnected-(SW77-Pad4)*%
X270410000Y-156000000D03*
%TD*%
%TO.P,SW78,1*%
%TO.N,C8*%
X247330000Y-156000000D03*
%TO.P,SW78,2*%
%TO.N,Net-(D78-A)*%
X247330000Y-164890000D03*
%TO.P,SW78,3*%
%TO.N,unconnected-(SW78-Pad3)*%
X242250000Y-156000000D03*
%TO.P,SW78,4*%
%TO.N,unconnected-(SW78-Pad4)*%
X252410000Y-156000000D03*
%TD*%
%TO.P,SW76,1*%
%TO.N,C6*%
X288080000Y-156000000D03*
%TO.P,SW76,2*%
%TO.N,Net-(D76-A)*%
X288080000Y-164890000D03*
%TO.P,SW76,3*%
%TO.N,unconnected-(SW76-Pad3)*%
X283000000Y-156000000D03*
%TO.P,SW76,4*%
%TO.N,unconnected-(SW76-Pad4)*%
X293160000Y-156000000D03*
%TD*%
%TO.P,SW70,1*%
%TO.N,C10*%
X242830000Y-138000000D03*
%TO.P,SW70,2*%
%TO.N,Net-(D70-A)*%
X242830000Y-146890000D03*
%TO.P,SW70,3*%
%TO.N,unconnected-(SW70-Pad3)*%
X237750000Y-138000000D03*
%TO.P,SW70,4*%
%TO.N,unconnected-(SW70-Pad4)*%
X247910000Y-138000000D03*
%TD*%
%TO.P,SW14,1*%
%TO.N,C4*%
X125830000Y-120000000D03*
%TO.P,SW14,2*%
%TO.N,Net-(D14-A)*%
X125830000Y-128890000D03*
%TO.P,SW14,3*%
%TO.N,unconnected-(SW14-Pad3)*%
X120750000Y-120000000D03*
%TO.P,SW14,4*%
%TO.N,unconnected-(SW14-Pad4)*%
X130910000Y-120000000D03*
%TD*%
%TO.P,SW35,1*%
%TO.N,C5*%
X139330000Y-156000000D03*
%TO.P,SW35,2*%
%TO.N,Net-(D35-A)*%
X139330000Y-164890000D03*
%TO.P,SW35,3*%
%TO.N,unconnected-(SW35-Pad3)*%
X134250000Y-156000000D03*
%TO.P,SW35,4*%
%TO.N,unconnected-(SW35-Pad4)*%
X144410000Y-156000000D03*
%TD*%
%TO.P,SW18,1*%
%TO.N,C8*%
X197830000Y-120000000D03*
%TO.P,SW18,2*%
%TO.N,Net-(D18-A)*%
X197830000Y-128890000D03*
%TO.P,SW18,3*%
%TO.N,unconnected-(SW18-Pad3)*%
X192750000Y-120000000D03*
%TO.P,SW18,4*%
%TO.N,unconnected-(SW18-Pad4)*%
X202910000Y-120000000D03*
%TD*%
%TO.P,SW29,1*%
%TO.N,C9*%
X206830000Y-138000000D03*
%TO.P,SW29,2*%
%TO.N,Net-(D29-A)*%
X206830000Y-146890000D03*
%TO.P,SW29,3*%
%TO.N,unconnected-(SW29-Pad3)*%
X201750000Y-138000000D03*
%TO.P,SW29,4*%
%TO.N,unconnected-(SW29-Pad4)*%
X211910000Y-138000000D03*
%TD*%
%TO.P,SW65,1*%
%TO.N,C5*%
X309830000Y-102000000D03*
%TO.P,SW65,2*%
%TO.N,Net-(D65-A)*%
X309830000Y-110890000D03*
%TO.P,SW65,3*%
%TO.N,unconnected-(SW65-Pad3)*%
X304750000Y-102000000D03*
%TO.P,SW65,4*%
%TO.N,unconnected-(SW65-Pad4)*%
X314910000Y-102000000D03*
%TD*%
%TO.P,SW16,1*%
%TO.N,C6*%
X161830000Y-120000000D03*
%TO.P,SW16,2*%
%TO.N,Net-(D16-A)*%
X161830000Y-128890000D03*
%TO.P,SW16,3*%
%TO.N,unconnected-(SW16-Pad3)*%
X156750000Y-120000000D03*
%TO.P,SW16,4*%
%TO.N,unconnected-(SW16-Pad4)*%
X166910000Y-120000000D03*
%TD*%
D13*
%TO.P,J3,1,Pin_1*%
%TO.N,GND*%
X221500000Y-66130000D03*
D14*
%TO.P,J3,2,Pin_2*%
%TO.N,D+*%
X221500000Y-68670000D03*
%TO.P,J3,3,Pin_3*%
%TO.N,D-*%
X221500000Y-71210000D03*
%TO.P,J3,4,Pin_4*%
%TO.N,VBUS*%
X221500000Y-73750000D03*
%TO.P,J3,5,Pin_5*%
%TO.N,GND*%
X221500000Y-76290000D03*
%TD*%
D17*
%TO.P,SW41,1*%
%TO.N,C1*%
X69580000Y-174000000D03*
%TO.P,SW41,2*%
%TO.N,Net-(D41-A)*%
X69580000Y-182890000D03*
%TO.P,SW41,3*%
%TO.N,unconnected-(SW41-Pad3)*%
X64500000Y-174000000D03*
%TO.P,SW41,4*%
%TO.N,unconnected-(SW41-Pad4)*%
X74660000Y-174000000D03*
%TD*%
%TO.P,SW53,1*%
%TO.N,C3*%
X98830000Y-192000000D03*
%TO.P,SW53,2*%
%TO.N,Net-(D53-A)*%
X98830000Y-200890000D03*
%TO.P,SW53,3*%
%TO.N,unconnected-(SW53-Pad3)*%
X93750000Y-192000000D03*
%TO.P,SW53,4*%
%TO.N,unconnected-(SW53-Pad4)*%
X103910000Y-192000000D03*
%TD*%
%TO.P,SW72,1*%
%TO.N,C2*%
X277830000Y-138000000D03*
%TO.P,SW72,2*%
%TO.N,Net-(D72-A)*%
X277830000Y-146890000D03*
%TO.P,SW72,3*%
%TO.N,unconnected-(SW72-Pad3)*%
X272750000Y-138000000D03*
%TO.P,SW72,4*%
%TO.N,unconnected-(SW72-Pad4)*%
X282910000Y-138000000D03*
%TD*%
%TO.P,SW47,1*%
%TO.N,C7*%
X184330000Y-174000000D03*
%TO.P,SW47,2*%
%TO.N,Net-(D47-A)*%
X184330000Y-182890000D03*
%TO.P,SW47,3*%
%TO.N,unconnected-(SW47-Pad3)*%
X179250000Y-174000000D03*
%TO.P,SW47,4*%
%TO.N,unconnected-(SW47-Pad4)*%
X189410000Y-174000000D03*
%TD*%
%TO.P,SW75,1*%
%TO.N,C5*%
X309830000Y-156000000D03*
%TO.P,SW75,2*%
%TO.N,Net-(D75-A)*%
X309830000Y-164890000D03*
%TO.P,SW75,3*%
%TO.N,unconnected-(SW75-Pad3)*%
X304750000Y-156000000D03*
%TO.P,SW75,4*%
%TO.N,unconnected-(SW75-Pad4)*%
X314910000Y-156000000D03*
%TD*%
%TO.P,SW83,1*%
%TO.N,C3*%
X309830000Y-192000000D03*
%TO.P,SW83,2*%
%TO.N,Net-(D83-A)*%
X309830000Y-200890000D03*
%TO.P,SW83,3*%
%TO.N,unconnected-(SW83-Pad3)*%
X304750000Y-192000000D03*
%TO.P,SW83,4*%
%TO.N,unconnected-(SW83-Pad4)*%
X314910000Y-192000000D03*
%TD*%
%TO.P,SW31,1*%
%TO.N,C1*%
X65080000Y-156000000D03*
%TO.P,SW31,2*%
%TO.N,Net-(D31-A)*%
X65080000Y-164890000D03*
%TO.P,SW31,3*%
%TO.N,unconnected-(SW31-Pad3)*%
X60000000Y-156000000D03*
%TO.P,SW31,4*%
%TO.N,unconnected-(SW31-Pad4)*%
X70160000Y-156000000D03*
%TD*%
%TO.P,SW43,1*%
%TO.N,C3*%
X112330000Y-174000000D03*
%TO.P,SW43,2*%
%TO.N,Net-(D43-A)*%
X112330000Y-182890000D03*
%TO.P,SW43,3*%
%TO.N,unconnected-(SW43-Pad3)*%
X107250000Y-174000000D03*
%TO.P,SW43,4*%
%TO.N,unconnected-(SW43-Pad4)*%
X117410000Y-174000000D03*
%TD*%
D18*
%TO.P,J2,1,Pin_1*%
%TO.N,GND*%
X227250000Y-71670000D03*
D19*
%TO.P,J2,2,Pin_2*%
%TO.N,D+*%
X227250000Y-72940000D03*
%TO.P,J2,3,Pin_3*%
%TO.N,D-*%
X227250000Y-74210000D03*
%TO.P,J2,4,Pin_4*%
%TO.N,VBUS*%
X227250000Y-75480000D03*
%TO.P,J2,5,Pin_5*%
%TO.N,GND*%
X227250000Y-76750000D03*
%TD*%
D17*
%TO.P,SW33,1*%
%TO.N,C3*%
X103330000Y-156000000D03*
%TO.P,SW33,2*%
%TO.N,Net-(D33-A)*%
X103330000Y-164890000D03*
%TO.P,SW33,3*%
%TO.N,unconnected-(SW33-Pad3)*%
X98250000Y-156000000D03*
%TO.P,SW33,4*%
%TO.N,unconnected-(SW33-Pad4)*%
X108410000Y-156000000D03*
%TD*%
%TO.P,SW19,1*%
%TO.N,C9*%
X215830000Y-120000000D03*
%TO.P,SW19,2*%
%TO.N,Net-(D19-A)*%
X215830000Y-128890000D03*
%TO.P,SW19,3*%
%TO.N,unconnected-(SW19-Pad3)*%
X210750000Y-120000000D03*
%TO.P,SW19,4*%
%TO.N,unconnected-(SW19-Pad4)*%
X220910000Y-120000000D03*
%TD*%
%TO.P,SW13,1*%
%TO.N,C3*%
X107830000Y-120000000D03*
%TO.P,SW13,2*%
%TO.N,Net-(D13-A)*%
X107830000Y-128890000D03*
%TO.P,SW13,3*%
%TO.N,unconnected-(SW13-Pad3)*%
X102750000Y-120000000D03*
%TO.P,SW13,4*%
%TO.N,unconnected-(SW13-Pad4)*%
X112910000Y-120000000D03*
%TD*%
%TO.P,SW49,1*%
%TO.N,C9*%
X220330000Y-174000000D03*
%TO.P,SW49,2*%
%TO.N,Net-(D49-A)*%
X220330000Y-182890000D03*
%TO.P,SW49,3*%
%TO.N,unconnected-(SW49-Pad3)*%
X215250000Y-174000000D03*
%TO.P,SW49,4*%
%TO.N,unconnected-(SW49-Pad4)*%
X225410000Y-174000000D03*
%TD*%
%TO.P,SW27,1*%
%TO.N,C7*%
X170830000Y-138000000D03*
%TO.P,SW27,2*%
%TO.N,Net-(D27-A)*%
X170830000Y-146890000D03*
%TO.P,SW27,3*%
%TO.N,unconnected-(SW27-Pad3)*%
X165750000Y-138000000D03*
%TO.P,SW27,4*%
%TO.N,unconnected-(SW27-Pad4)*%
X175910000Y-138000000D03*
%TD*%
%TO.P,SW64,1*%
%TO.N,C4*%
X293830000Y-102000000D03*
%TO.P,SW64,2*%
%TO.N,Net-(D64-A)*%
X293830000Y-110890000D03*
%TO.P,SW64,3*%
%TO.N,unconnected-(SW64-Pad3)*%
X288750000Y-102000000D03*
%TO.P,SW64,4*%
%TO.N,unconnected-(SW64-Pad4)*%
X298910000Y-102000000D03*
%TD*%
%TO.P,SW24,1*%
%TO.N,C4*%
X116830000Y-138000000D03*
%TO.P,SW24,2*%
%TO.N,Net-(D24-A)*%
X116830000Y-146890000D03*
%TO.P,SW24,3*%
%TO.N,unconnected-(SW24-Pad3)*%
X111750000Y-138000000D03*
%TO.P,SW24,4*%
%TO.N,unconnected-(SW24-Pad4)*%
X121910000Y-138000000D03*
%TD*%
%TO.P,SW30,1*%
%TO.N,C10*%
X224830000Y-138000000D03*
%TO.P,SW30,2*%
%TO.N,Net-(D30-A)*%
X224830000Y-146890000D03*
%TO.P,SW30,3*%
%TO.N,unconnected-(SW30-Pad3)*%
X219750000Y-138000000D03*
%TO.P,SW30,4*%
%TO.N,unconnected-(SW30-Pad4)*%
X229910000Y-138000000D03*
%TD*%
%TO.P,SW62,1*%
%TO.N,C2*%
X260830000Y-102000000D03*
%TO.P,SW62,2*%
%TO.N,Net-(D62-A)*%
X260830000Y-110890000D03*
%TO.P,SW62,3*%
%TO.N,unconnected-(SW62-Pad3)*%
X255750000Y-102000000D03*
%TO.P,SW62,4*%
%TO.N,unconnected-(SW62-Pad4)*%
X265910000Y-102000000D03*
%TD*%
%TO.P,SW59,1*%
%TO.N,C9*%
X277830000Y-192000000D03*
%TO.P,SW59,2*%
%TO.N,Net-(D59-A)*%
X277830000Y-200890000D03*
%TO.P,SW59,3*%
%TO.N,unconnected-(SW59-Pad3)*%
X272750000Y-192000000D03*
%TO.P,SW59,4*%
%TO.N,unconnected-(SW59-Pad4)*%
X282910000Y-192000000D03*
%TD*%
%TO.P,SW11,1*%
%TO.N,C1*%
X71830000Y-120000000D03*
%TO.P,SW11,2*%
%TO.N,Net-(D11-A)*%
X71830000Y-128890000D03*
%TO.P,SW11,3*%
%TO.N,unconnected-(SW11-Pad3)*%
X66750000Y-120000000D03*
%TO.P,SW11,4*%
%TO.N,unconnected-(SW11-Pad4)*%
X76910000Y-120000000D03*
%TD*%
%TO.P,SW57,1*%
%TO.N,C7*%
X242830000Y-192000000D03*
%TO.P,SW57,2*%
%TO.N,Net-(D57-A)*%
X242830000Y-200890000D03*
%TO.P,SW57,3*%
%TO.N,unconnected-(SW57-Pad3)*%
X237750000Y-192000000D03*
%TO.P,SW57,4*%
%TO.N,unconnected-(SW57-Pad4)*%
X247910000Y-192000000D03*
%TD*%
%TO.P,SW17,1*%
%TO.N,C7*%
X179830000Y-120000000D03*
%TO.P,SW17,2*%
%TO.N,Net-(D17-A)*%
X179830000Y-128890000D03*
%TO.P,SW17,3*%
%TO.N,unconnected-(SW17-Pad3)*%
X174750000Y-120000000D03*
%TO.P,SW17,4*%
%TO.N,unconnected-(SW17-Pad4)*%
X184910000Y-120000000D03*
%TD*%
%TO.P,SW5,1*%
%TO.N,C5*%
X134830000Y-102000000D03*
%TO.P,SW5,2*%
%TO.N,Net-(D5-A)*%
X134830000Y-110890000D03*
%TO.P,SW5,3*%
%TO.N,unconnected-(SW5-Pad3)*%
X129750000Y-102000000D03*
%TO.P,SW5,4*%
%TO.N,unconnected-(SW5-Pad4)*%
X139910000Y-102000000D03*
%TD*%
%TO.P,SW56,1*%
%TO.N,C6*%
X224830000Y-192000000D03*
%TO.P,SW56,2*%
%TO.N,Net-(D56-A)*%
X224830000Y-200890000D03*
%TO.P,SW56,3*%
%TO.N,unconnected-(SW56-Pad3)*%
X219750000Y-192000000D03*
%TO.P,SW56,4*%
%TO.N,unconnected-(SW56-Pad4)*%
X229910000Y-192000000D03*
%TD*%
%TO.P,SW73,1*%
%TO.N,C3*%
X293830000Y-138000000D03*
%TO.P,SW73,2*%
%TO.N,Net-(D73-A)*%
X293830000Y-146890000D03*
%TO.P,SW73,3*%
%TO.N,unconnected-(SW73-Pad3)*%
X288750000Y-138000000D03*
%TO.P,SW73,4*%
%TO.N,unconnected-(SW73-Pad4)*%
X298910000Y-138000000D03*
%TD*%
%TO.P,SW61,1*%
%TO.N,C1*%
X242830000Y-102000000D03*
%TO.P,SW61,2*%
%TO.N,Net-(D61-A)*%
X242830000Y-110890000D03*
%TO.P,SW61,3*%
%TO.N,unconnected-(SW61-Pad3)*%
X237750000Y-102000000D03*
%TO.P,SW61,4*%
%TO.N,unconnected-(SW61-Pad4)*%
X247910000Y-102000000D03*
%TD*%
%TO.P,SW67,1*%
%TO.N,C7*%
X290330000Y-120000000D03*
%TO.P,SW67,2*%
%TO.N,Net-(D67-A)*%
X290330000Y-128890000D03*
%TO.P,SW67,3*%
%TO.N,unconnected-(SW67-Pad3)*%
X285250000Y-120000000D03*
%TO.P,SW67,4*%
%TO.N,unconnected-(SW67-Pad4)*%
X295410000Y-120000000D03*
%TD*%
%TO.P,SW42,1*%
%TO.N,C2*%
X94330000Y-174000000D03*
%TO.P,SW42,2*%
%TO.N,Net-(D42-A)*%
X94330000Y-182890000D03*
%TO.P,SW42,3*%
%TO.N,unconnected-(SW42-Pad3)*%
X89250000Y-174000000D03*
%TO.P,SW42,4*%
%TO.N,unconnected-(SW42-Pad4)*%
X99410000Y-174000000D03*
%TD*%
%TO.P,SW28,1*%
%TO.N,C8*%
X188830000Y-138000000D03*
%TO.P,SW28,2*%
%TO.N,Net-(D28-A)*%
X188830000Y-146890000D03*
%TO.P,SW28,3*%
%TO.N,unconnected-(SW28-Pad3)*%
X183750000Y-138000000D03*
%TO.P,SW28,4*%
%TO.N,unconnected-(SW28-Pad4)*%
X193910000Y-138000000D03*
%TD*%
%TO.P,SW58,1*%
%TO.N,C8*%
X260830000Y-192000000D03*
%TO.P,SW58,2*%
%TO.N,Net-(D58-A)*%
X260830000Y-200890000D03*
%TO.P,SW58,3*%
%TO.N,unconnected-(SW58-Pad3)*%
X255750000Y-192000000D03*
%TO.P,SW58,4*%
%TO.N,unconnected-(SW58-Pad4)*%
X265910000Y-192000000D03*
%TD*%
%TO.P,SW46,1*%
%TO.N,C6*%
X166330000Y-174000000D03*
%TO.P,SW46,2*%
%TO.N,Net-(D46-A)*%
X166330000Y-182890000D03*
%TO.P,SW46,3*%
%TO.N,unconnected-(SW46-Pad3)*%
X161250000Y-174000000D03*
%TO.P,SW46,4*%
%TO.N,unconnected-(SW46-Pad4)*%
X171410000Y-174000000D03*
%TD*%
%TO.P,SW44,1*%
%TO.N,C4*%
X130330000Y-174000000D03*
%TO.P,SW44,2*%
%TO.N,Net-(D44-A)*%
X130330000Y-182890000D03*
%TO.P,SW44,3*%
%TO.N,unconnected-(SW44-Pad3)*%
X125250000Y-174000000D03*
%TO.P,SW44,4*%
%TO.N,unconnected-(SW44-Pad4)*%
X135410000Y-174000000D03*
%TD*%
D20*
%TO.P,D24,1,K*%
%TO.N,R3*%
X108580000Y-147000000D03*
%TO.P,D24,2,A*%
%TO.N,Net-(D24-A)*%
X108580000Y-145100000D03*
%TD*%
%TO.P,D23,1,K*%
%TO.N,R3*%
X105830000Y-147000000D03*
%TO.P,D23,2,A*%
%TO.N,Net-(D23-A)*%
X105830000Y-145100000D03*
%TD*%
%TO.P,D28,1,K*%
%TO.N,R3*%
X180580000Y-147000000D03*
%TO.P,D28,2,A*%
%TO.N,Net-(D28-A)*%
X180580000Y-145100000D03*
%TD*%
%TO.P,D40,1,K*%
%TO.N,R4*%
X221080000Y-165150000D03*
%TO.P,D40,2,A*%
%TO.N,Net-(D40-A)*%
X221080000Y-163250000D03*
%TD*%
%TO.P,D5,1,K*%
%TO.N,R1*%
X141830000Y-111000000D03*
%TO.P,D5,2,A*%
%TO.N,Net-(D5-A)*%
X141830000Y-109100000D03*
%TD*%
%TO.P,D60,1,K*%
%TO.N,R6*%
X287830000Y-204250000D03*
%TO.P,D60,2,A*%
%TO.N,Net-(D60-A)*%
X287830000Y-202350000D03*
%TD*%
%TO.P,D45,1,K*%
%TO.N,R5*%
X155330000Y-183000000D03*
%TO.P,D45,2,A*%
%TO.N,Net-(D45-A)*%
X155330000Y-181100000D03*
%TD*%
%TO.P,D29,1,K*%
%TO.N,R3*%
X213830000Y-147000000D03*
%TO.P,D29,2,A*%
%TO.N,Net-(D29-A)*%
X213830000Y-145100000D03*
%TD*%
%TO.P,D82,1,K*%
%TO.N,R9*%
X303830000Y-183000000D03*
%TO.P,D82,2,A*%
%TO.N,Net-(D82-A)*%
X303830000Y-181100000D03*
%TD*%
%TO.P,D13,1,K*%
%TO.N,R2*%
X114830000Y-129000000D03*
%TO.P,D13,2,A*%
%TO.N,Net-(D13-A)*%
X114830000Y-127100000D03*
%TD*%
%TO.P,D38,1,K*%
%TO.N,R4*%
X185080000Y-165150000D03*
%TO.P,D38,2,A*%
%TO.N,Net-(D38-A)*%
X185080000Y-163250000D03*
%TD*%
%TO.P,D18,1,K*%
%TO.N,R2*%
X189580000Y-129000000D03*
%TO.P,D18,2,A*%
%TO.N,Net-(D18-A)*%
X189580000Y-127100000D03*
%TD*%
%TO.P,D21,1,K*%
%TO.N,R3*%
X69830000Y-147000000D03*
%TO.P,D21,2,A*%
%TO.N,Net-(D21-A)*%
X69830000Y-145100000D03*
%TD*%
%TO.P,D59,1,K*%
%TO.N,R6*%
X285080000Y-204250000D03*
%TO.P,D59,2,A*%
%TO.N,Net-(D59-A)*%
X285080000Y-202350000D03*
%TD*%
%TO.P,D61,1,K*%
%TO.N,R7*%
X249830000Y-111000000D03*
%TO.P,D61,2,A*%
%TO.N,Net-(D61-A)*%
X249830000Y-109100000D03*
%TD*%
%TO.P,D15,1,K*%
%TO.N,R2*%
X150830000Y-129000000D03*
%TO.P,D15,2,A*%
%TO.N,Net-(D15-A)*%
X150830000Y-127100000D03*
%TD*%
%TO.P,D51,1,K*%
%TO.N,R6*%
X70500000Y-199200000D03*
%TO.P,D51,2,A*%
%TO.N,Net-(D51-A)*%
X70500000Y-197300000D03*
%TD*%
%TO.P,D44,1,K*%
%TO.N,R5*%
X122080000Y-183000000D03*
%TO.P,D44,2,A*%
%TO.N,Net-(D44-A)*%
X122080000Y-181100000D03*
%TD*%
%TO.P,D63,1,K*%
%TO.N,R7*%
X283830000Y-111000000D03*
%TO.P,D63,2,A*%
%TO.N,Net-(D63-A)*%
X283830000Y-109100000D03*
%TD*%
%TO.P,D20,1,K*%
%TO.N,R2*%
X225580000Y-129000000D03*
%TO.P,D20,2,A*%
%TO.N,Net-(D20-A)*%
X225580000Y-127100000D03*
%TD*%
%TO.P,D10,1,K*%
%TO.N,R1*%
X216580000Y-111000000D03*
%TO.P,D10,2,A*%
%TO.N,Net-(D10-A)*%
X216580000Y-109100000D03*
%TD*%
%TO.P,D62,1,K*%
%TO.N,R7*%
X252580000Y-111000000D03*
%TO.P,D62,2,A*%
%TO.N,Net-(D62-A)*%
X252580000Y-109100000D03*
%TD*%
%TO.P,D57,1,K*%
%TO.N,R6*%
X251080000Y-200450000D03*
%TO.P,D57,2,A*%
%TO.N,Net-(D57-A)*%
X251080000Y-198550000D03*
%TD*%
%TO.P,D26,1,K*%
%TO.N,R3*%
X144580000Y-147000000D03*
%TO.P,D26,2,A*%
%TO.N,Net-(D26-A)*%
X144580000Y-145100000D03*
%TD*%
%TO.P,D49,1,K*%
%TO.N,R5*%
X227330000Y-183000000D03*
%TO.P,D49,2,A*%
%TO.N,Net-(D49-A)*%
X227330000Y-181100000D03*
%TD*%
%TO.P,D50,1,K*%
%TO.N,R5*%
X230080000Y-183000000D03*
%TO.P,D50,2,A*%
%TO.N,Net-(D50-A)*%
X230080000Y-181100000D03*
%TD*%
%TO.P,D33,1,K*%
%TO.N,R4*%
X110330000Y-165150000D03*
%TO.P,D33,2,A*%
%TO.N,Net-(D33-A)*%
X110330000Y-163250000D03*
%TD*%
%TO.P,D70,1,K*%
%TO.N,R7*%
X243580000Y-129000000D03*
%TO.P,D70,2,A*%
%TO.N,Net-(D70-A)*%
X243580000Y-127100000D03*
%TD*%
%TO.P,D58,2,A*%
%TO.N,Net-(D58-A)*%
X253830000Y-198550000D03*
%TO.P,D58,1,K*%
%TO.N,R6*%
X253830000Y-200450000D03*
%TD*%
%TO.P,D32,1,K*%
%TO.N,R4*%
X77080000Y-165150000D03*
%TO.P,D32,2,A*%
%TO.N,Net-(D32-A)*%
X77080000Y-163250000D03*
%TD*%
%TO.P,D17,1,K*%
%TO.N,R2*%
X186830000Y-129000000D03*
%TO.P,D17,2,A*%
%TO.N,Net-(D17-A)*%
X186830000Y-127100000D03*
%TD*%
%TO.P,D52,1,K*%
%TO.N,R6*%
X73250000Y-199200000D03*
%TO.P,D52,2,A*%
%TO.N,Net-(D52-A)*%
X73250000Y-197300000D03*
%TD*%
%TO.P,D30,1,K*%
%TO.N,R3*%
X216580000Y-147000000D03*
%TO.P,D30,2,A*%
%TO.N,Net-(D30-A)*%
X216580000Y-145100000D03*
%TD*%
%TO.P,D68,1,K*%
%TO.N,R7*%
X277080000Y-129000000D03*
%TO.P,D68,2,A*%
%TO.N,Net-(D68-A)*%
X277080000Y-127100000D03*
%TD*%
%TO.P,D41,1,K*%
%TO.N,R5*%
X83330000Y-179450000D03*
%TO.P,D41,2,A*%
%TO.N,Net-(D41-A)*%
X83330000Y-177550000D03*
%TD*%
%TO.P,D66,1,K*%
%TO.N,R7*%
X302580000Y-111000000D03*
%TO.P,D66,2,A*%
%TO.N,Net-(D66-A)*%
X302580000Y-109100000D03*
%TD*%
%TO.P,D55,1,K*%
%TO.N,R6*%
X216250000Y-200950000D03*
%TO.P,D55,2,A*%
%TO.N,Net-(D55-A)*%
X216250000Y-199050000D03*
%TD*%
%TO.P,D77,1,K*%
%TO.N,R8*%
X257080000Y-165150000D03*
%TO.P,D77,2,A*%
%TO.N,Net-(D77-A)*%
X257080000Y-163250000D03*
%TD*%
%TO.P,D6,1,K*%
%TO.N,R1*%
X144580000Y-111000000D03*
%TO.P,D6,2,A*%
%TO.N,Net-(D6-A)*%
X144580000Y-109100000D03*
%TD*%
%TO.P,D54,2,A*%
%TO.N,Net-(D54-A)*%
X109830000Y-199100000D03*
%TO.P,D54,1,K*%
%TO.N,R6*%
X109830000Y-201000000D03*
%TD*%
%TO.P,D48,1,K*%
%TO.N,R5*%
X194080000Y-183000000D03*
%TO.P,D48,2,A*%
%TO.N,Net-(D48-A)*%
X194080000Y-181100000D03*
%TD*%
%TO.P,D72,1,K*%
%TO.N,R8*%
X270580000Y-147000000D03*
%TO.P,D72,2,A*%
%TO.N,Net-(D72-A)*%
X270580000Y-145100000D03*
%TD*%
%TO.P,D42,1,K*%
%TO.N,R5*%
X86080000Y-179450000D03*
%TO.P,D42,2,A*%
%TO.N,Net-(D42-A)*%
X86080000Y-177550000D03*
%TD*%
%TO.P,D37,1,K*%
%TO.N,R4*%
X182330000Y-165150000D03*
%TO.P,D37,2,A*%
%TO.N,Net-(D37-A)*%
X182330000Y-163250000D03*
%TD*%
%TO.P,D64,1,K*%
%TO.N,R7*%
X286580000Y-111000000D03*
%TO.P,D64,2,A*%
%TO.N,Net-(D64-A)*%
X286580000Y-109100000D03*
%TD*%
%TO.P,D80,1,K*%
%TO.N,R8*%
X265330000Y-183000000D03*
%TO.P,D80,2,A*%
%TO.N,Net-(D80-A)*%
X265330000Y-181100000D03*
%TD*%
%TO.P,D3,1,K*%
%TO.N,R1*%
X105830000Y-111000000D03*
%TO.P,D3,2,A*%
%TO.N,Net-(D3-A)*%
X105830000Y-109100000D03*
%TD*%
%TO.P,D73,1,K*%
%TO.N,R8*%
X299830000Y-147000000D03*
%TO.P,D73,2,A*%
%TO.N,Net-(D73-A)*%
X299830000Y-145100000D03*
%TD*%
%TO.P,D74,1,K*%
%TO.N,R8*%
X302580000Y-147000000D03*
%TO.P,D74,2,A*%
%TO.N,Net-(D74-A)*%
X302580000Y-145100000D03*
%TD*%
%TO.P,D27,1,K*%
%TO.N,R3*%
X177830000Y-147000000D03*
%TO.P,D27,2,A*%
%TO.N,Net-(D27-A)*%
X177830000Y-145100000D03*
%TD*%
%TO.P,D34,1,K*%
%TO.N,R4*%
X113080000Y-165150000D03*
%TO.P,D34,2,A*%
%TO.N,Net-(D34-A)*%
X113080000Y-163250000D03*
%TD*%
%TO.P,D8,1,K*%
%TO.N,R1*%
X180580000Y-111000000D03*
%TO.P,D8,2,A*%
%TO.N,Net-(D8-A)*%
X180580000Y-109100000D03*
%TD*%
%TO.P,D7,1,K*%
%TO.N,R1*%
X177830000Y-111000000D03*
%TO.P,D7,2,A*%
%TO.N,Net-(D7-A)*%
X177830000Y-109100000D03*
%TD*%
%TO.P,D76,1,K*%
%TO.N,R8*%
X300580000Y-165150000D03*
%TO.P,D76,2,A*%
%TO.N,Net-(D76-A)*%
X300580000Y-163250000D03*
%TD*%
%TO.P,D25,1,K*%
%TO.N,R3*%
X141830000Y-147000000D03*
%TO.P,D25,2,A*%
%TO.N,Net-(D25-A)*%
X141830000Y-145100000D03*
%TD*%
%TO.P,D22,1,K*%
%TO.N,R3*%
X72580000Y-147000000D03*
%TO.P,D22,2,A*%
%TO.N,Net-(D22-A)*%
X72580000Y-145100000D03*
%TD*%
D13*
%TO.P,J1,1,Pin_1*%
%TO.N,GND*%
X149250000Y-70040000D03*
D14*
%TO.P,J1,2,Pin_2*%
%TO.N,Net-(J1-Pin_2)*%
X149250000Y-67500000D03*
%TD*%
D20*
%TO.P,D2,1,K*%
%TO.N,R1*%
X72580000Y-111000000D03*
%TO.P,D2,2,A*%
%TO.N,Net-(D2-A)*%
X72580000Y-109100000D03*
%TD*%
%TO.P,D39,1,K*%
%TO.N,R4*%
X218330000Y-165150000D03*
%TO.P,D39,2,A*%
%TO.N,Net-(D39-A)*%
X218330000Y-163250000D03*
%TD*%
%TO.P,D31,1,K*%
%TO.N,R4*%
X74330000Y-165150000D03*
%TO.P,D31,2,A*%
%TO.N,Net-(D31-A)*%
X74330000Y-163250000D03*
%TD*%
%TO.P,D79,1,K*%
%TO.N,R8*%
X262580000Y-183000000D03*
%TO.P,D79,2,A*%
%TO.N,Net-(D79-A)*%
X262580000Y-181100000D03*
%TD*%
%TO.P,D16,1,K*%
%TO.N,R2*%
X153580000Y-129000000D03*
%TO.P,D16,2,A*%
%TO.N,Net-(D16-A)*%
X153580000Y-127100000D03*
%TD*%
%TO.P,D43,1,K*%
%TO.N,R5*%
X119330000Y-183000000D03*
%TO.P,D43,2,A*%
%TO.N,Net-(D43-A)*%
X119330000Y-181100000D03*
%TD*%
%TO.P,D83,1,K*%
%TO.N,R9*%
X303830000Y-202950000D03*
%TO.P,D83,2,A*%
%TO.N,Net-(D83-A)*%
X303830000Y-201050000D03*
%TD*%
%TO.P,D67,1,K*%
%TO.N,R7*%
X279830000Y-129000000D03*
%TO.P,D67,2,A*%
%TO.N,Net-(D67-A)*%
X279830000Y-127100000D03*
%TD*%
%TO.P,D46,1,K*%
%TO.N,R5*%
X158080000Y-183000000D03*
%TO.P,D46,2,A*%
%TO.N,Net-(D46-A)*%
X158080000Y-181100000D03*
%TD*%
%TO.P,D35,1,K*%
%TO.N,R4*%
X146330000Y-165150000D03*
%TO.P,D35,2,A*%
%TO.N,Net-(D35-A)*%
X146330000Y-163250000D03*
%TD*%
%TO.P,D11,1,K*%
%TO.N,R2*%
X78830000Y-129000000D03*
%TO.P,D11,2,A*%
%TO.N,Net-(D11-A)*%
X78830000Y-127100000D03*
%TD*%
%TO.P,D47,1,K*%
%TO.N,R5*%
X191330000Y-183000000D03*
%TO.P,D47,2,A*%
%TO.N,Net-(D47-A)*%
X191330000Y-181100000D03*
%TD*%
%TO.P,D81,1,K*%
%TO.N,R9*%
X301080000Y-183000000D03*
%TO.P,D81,2,A*%
%TO.N,Net-(D81-A)*%
X301080000Y-181100000D03*
%TD*%
%TO.P,D78,1,K*%
%TO.N,R8*%
X254330000Y-165150000D03*
%TO.P,D78,2,A*%
%TO.N,Net-(D78-A)*%
X254330000Y-163250000D03*
%TD*%
%TO.P,D12,1,K*%
%TO.N,R2*%
X81580000Y-129000000D03*
%TO.P,D12,2,A*%
%TO.N,Net-(D12-A)*%
X81580000Y-127100000D03*
%TD*%
%TO.P,D14,1,K*%
%TO.N,R2*%
X117580000Y-129000000D03*
%TO.P,D14,2,A*%
%TO.N,Net-(D14-A)*%
X117580000Y-127100000D03*
%TD*%
%TO.P,D9,1,K*%
%TO.N,R1*%
X213830000Y-111000000D03*
%TO.P,D9,2,A*%
%TO.N,Net-(D9-A)*%
X213830000Y-109100000D03*
%TD*%
%TO.P,D53,2,A*%
%TO.N,Net-(D53-A)*%
X107080000Y-199100000D03*
%TO.P,D53,1,K*%
%TO.N,R6*%
X107080000Y-201000000D03*
%TD*%
%TO.P,D4,1,K*%
%TO.N,R1*%
X108580000Y-111000000D03*
%TO.P,D4,2,A*%
%TO.N,Net-(D4-A)*%
X108580000Y-109100000D03*
%TD*%
%TO.P,D1,1,K*%
%TO.N,R1*%
X69830000Y-111000000D03*
%TO.P,D1,2,A*%
%TO.N,Net-(D1-A)*%
X69830000Y-109100000D03*
%TD*%
%TO.P,D69,1,K*%
%TO.N,R7*%
X240830000Y-129000000D03*
%TO.P,D69,2,A*%
%TO.N,Net-(D69-A)*%
X240830000Y-127100000D03*
%TD*%
%TO.P,D19,1,K*%
%TO.N,R2*%
X222830000Y-129000000D03*
%TO.P,D19,2,A*%
%TO.N,Net-(D19-A)*%
X222830000Y-127100000D03*
%TD*%
%TO.P,D75,1,K*%
%TO.N,R8*%
X303330000Y-165150000D03*
%TO.P,D75,2,A*%
%TO.N,Net-(D75-A)*%
X303330000Y-163250000D03*
%TD*%
%TO.P,D56,2,A*%
%TO.N,Net-(D56-A)*%
X219000000Y-199050000D03*
%TO.P,D56,1,K*%
%TO.N,R6*%
X219000000Y-200950000D03*
%TD*%
%TO.P,D65,1,K*%
%TO.N,R7*%
X299830000Y-111000000D03*
%TO.P,D65,2,A*%
%TO.N,Net-(D65-A)*%
X299830000Y-109100000D03*
%TD*%
%TO.P,D71,1,K*%
%TO.N,R8*%
X267830000Y-147000000D03*
%TO.P,D71,2,A*%
%TO.N,Net-(D71-A)*%
X267830000Y-145100000D03*
%TD*%
%TO.P,D36,1,K*%
%TO.N,R4*%
X149080000Y-165150000D03*
%TO.P,D36,2,A*%
%TO.N,Net-(D36-A)*%
X149080000Y-163250000D03*
%TD*%
D21*
%TO.N,GND*%
X197380000Y-85282000D02*
X205000000Y-85282000D01*
X197420000Y-93218000D02*
X205040000Y-93218000D01*
%TO.N,R5*%
X194080000Y-183000000D02*
X191330000Y-183000000D01*
%TO.N,Net-(J5-Pin_20)*%
X194880000Y-95250000D02*
X194880000Y-93218000D01*
%TO.N,Net-(J5-Pin_21)*%
X196150000Y-95250000D02*
X196150000Y-93218000D01*
%TO.N,C10*%
X182180000Y-95250000D02*
X182180000Y-93218000D01*
%TO.N,C9*%
X180910000Y-95250000D02*
X180910000Y-93218000D01*
%TO.N,C8*%
X179640000Y-95250000D02*
X179640000Y-92468000D01*
%TO.N,C7*%
X178370000Y-95250000D02*
X178370000Y-93218000D01*
%TO.N,C6*%
X177100000Y-95250000D02*
X177100000Y-93218000D01*
%TO.N,C5*%
X175830000Y-95250000D02*
X175830000Y-93218000D01*
%TO.N,C4*%
X174560000Y-95250000D02*
X174560000Y-93218000D01*
%TO.N,C3*%
X173290000Y-95250000D02*
X173290000Y-93218000D01*
%TO.N,C2*%
X172020000Y-95250000D02*
X172020000Y-93218000D01*
%TO.N,C1*%
X170750000Y-93218000D02*
X170750000Y-95250000D01*
%TO.N,Net-(J4-Pin_21)*%
X196110000Y-83750000D02*
X196110000Y-85782000D01*
%TO.N,Net-(J4-Pin_20)*%
X194840000Y-83750000D02*
X194840000Y-85782000D01*
%TO.N,R9*%
X193570000Y-85782000D02*
X193570000Y-83750000D01*
%TO.N,R8*%
X192300000Y-85782000D02*
X192300000Y-83750000D01*
%TO.N,R7*%
X191030000Y-85782000D02*
X191030000Y-83750000D01*
%TO.N,R6*%
X189760000Y-83750000D02*
X189760000Y-85782000D01*
%TO.N,R5*%
X188490000Y-83750000D02*
X188490000Y-85782000D01*
%TO.N,R4*%
X187220000Y-83750000D02*
X187220000Y-85782000D01*
%TO.N,R3*%
X185950000Y-83750000D02*
X185950000Y-85782000D01*
%TO.N,R2*%
X184680000Y-83750000D02*
X184680000Y-85782000D01*
%TO.N,R1*%
X183410000Y-83750000D02*
X183410000Y-85782000D01*
%TO.N,C10*%
X182140000Y-83750000D02*
X182140000Y-85782000D01*
%TO.N,C9*%
X180870000Y-83750000D02*
X180870000Y-85782000D01*
%TO.N,C8*%
X179600000Y-83750000D02*
X179600000Y-85782000D01*
%TO.N,C7*%
X178330000Y-83750000D02*
X178330000Y-85782000D01*
%TO.N,C6*%
X177060000Y-83750000D02*
X177060000Y-85782000D01*
%TO.N,C5*%
X175790000Y-83750000D02*
X175790000Y-85782000D01*
%TO.N,C4*%
X174520000Y-83750000D02*
X174520000Y-85782000D01*
%TO.N,C3*%
X173250000Y-83750000D02*
X173250000Y-85782000D01*
%TO.N,C2*%
X171980000Y-83750000D02*
X171980000Y-85782000D01*
%TO.N,C1*%
X170710000Y-83750000D02*
X170710000Y-85782000D01*
%TO.N,Net-(J5-Pin_21)*%
X196150000Y-94500000D02*
X196150000Y-92468000D01*
%TO.N,Net-(J5-Pin_20)*%
X194880000Y-94500000D02*
X194880000Y-92468000D01*
%TO.N,R9*%
X193610000Y-94500000D02*
X193610000Y-92468000D01*
%TO.N,R8*%
X192340000Y-94500000D02*
X192340000Y-92468000D01*
%TO.N,R7*%
X191070000Y-94500000D02*
X191070000Y-92468000D01*
%TO.N,R6*%
X189800000Y-94500000D02*
X189800000Y-92468000D01*
%TO.N,R5*%
X188530000Y-94500000D02*
X188530000Y-92468000D01*
%TO.N,R4*%
X187260000Y-94500000D02*
X187260000Y-92468000D01*
%TO.N,R3*%
X185990000Y-94500000D02*
X185990000Y-92468000D01*
%TO.N,R2*%
X184720000Y-94500000D02*
X184720000Y-92468000D01*
%TO.N,R1*%
X183450000Y-94500000D02*
X183450000Y-92468000D01*
%TO.N,C10*%
X182180000Y-94500000D02*
X182180000Y-92468000D01*
%TO.N,C9*%
X180910000Y-94500000D02*
X180910000Y-92468000D01*
%TO.N,C6*%
X177100000Y-94500000D02*
X177100000Y-92468000D01*
%TO.N,C7*%
X178370000Y-94500000D02*
X178370000Y-92468000D01*
%TO.N,C5*%
X175830000Y-94500000D02*
X175830000Y-92468000D01*
%TO.N,C4*%
X174560000Y-94500000D02*
X174560000Y-92468000D01*
%TO.N,C3*%
X173290000Y-94500000D02*
X173290000Y-92468000D01*
%TO.N,C2*%
X172020000Y-94500000D02*
X172020000Y-92468000D01*
%TO.N,C1*%
X170750000Y-92468000D02*
X170750000Y-94500000D01*
%TO.N,R4*%
X221080000Y-165150000D02*
X222120000Y-166190000D01*
X235980000Y-104045686D02*
X231834314Y-99900000D01*
X222120000Y-166190000D02*
X230560000Y-166190000D01*
X235980000Y-160770000D02*
X235980000Y-104045686D01*
X230560000Y-166190000D02*
X235980000Y-160770000D01*
X231834314Y-99900000D02*
X189230000Y-99900000D01*
X189230000Y-99900000D02*
X187260000Y-97930000D01*
X187260000Y-97930000D02*
X187260000Y-94500000D01*
%TO.N,R9*%
X193610000Y-97680000D02*
X193610000Y-96750000D01*
X193610000Y-96750000D02*
X193610000Y-94500000D01*
%TO.N,R8*%
X192340000Y-98060000D02*
X192340000Y-96750000D01*
X192340000Y-96750000D02*
X192340000Y-94500000D01*
%TO.N,R7*%
X191070000Y-97000000D02*
X191070000Y-97990000D01*
X191070000Y-97000000D02*
X191070000Y-94500000D01*
%TO.N,R6*%
X189800000Y-97000000D02*
X189800000Y-97970000D01*
X189800000Y-97000000D02*
X189800000Y-94500000D01*
%TO.N,R5*%
X188530000Y-97950000D02*
X188530000Y-97750000D01*
X188530000Y-97750000D02*
X188530000Y-94500000D01*
%TO.N,R3*%
X186665000Y-98585000D02*
X188380000Y-100300000D01*
X186665000Y-98585000D02*
X185990000Y-97910000D01*
X185990000Y-97910000D02*
X185990000Y-94500000D01*
%TO.N,R2*%
X187530000Y-100700000D02*
X184915000Y-98085000D01*
X184915000Y-98085000D02*
X184720000Y-97890000D01*
X184720000Y-97890000D02*
X184720000Y-94500000D01*
%TO.N,R1*%
X183165000Y-98165000D02*
X179330000Y-102000000D01*
X183450000Y-97880000D02*
X183450000Y-94500000D01*
X183165000Y-98165000D02*
X183450000Y-97880000D01*
%TO.N,C3*%
X98080000Y-192000000D02*
X96780000Y-190700000D01*
X310560000Y-202190000D02*
X311480000Y-201270000D01*
X96780000Y-190700000D02*
X67371522Y-190700000D01*
X66610000Y-194705836D02*
X61130000Y-200185836D01*
X77220150Y-200250000D02*
X79960150Y-202990000D01*
X175050000Y-198700000D02*
X211834314Y-198700000D01*
X61130000Y-200185836D02*
X61130000Y-201594164D01*
X66610000Y-191461522D02*
X66610000Y-194705836D01*
X244164314Y-202990000D02*
X246474314Y-205300000D01*
X63534164Y-202590000D02*
X65874164Y-200250000D01*
X79960150Y-202990000D02*
X120721372Y-202990000D01*
X62125836Y-202590000D02*
X63534164Y-202590000D01*
X65874164Y-200250000D02*
X77220150Y-200250000D01*
X120721372Y-202990000D02*
X125411372Y-198300000D01*
X125411372Y-198300000D02*
X166401522Y-198300000D01*
X246474314Y-205300000D02*
X291824164Y-205300000D01*
X67371522Y-190700000D02*
X66610000Y-191461522D01*
X304750000Y-203600000D02*
X306160000Y-202190000D01*
X166401522Y-198300000D02*
X170291522Y-202190000D01*
X170291522Y-202190000D02*
X171560000Y-202190000D01*
X171560000Y-202190000D02*
X175050000Y-198700000D01*
X211834314Y-198700000D02*
X216124314Y-202990000D01*
X61130000Y-201594164D02*
X62125836Y-202590000D01*
X216124314Y-202990000D02*
X244164314Y-202990000D01*
X311480000Y-193650000D02*
X309830000Y-192000000D01*
X291824164Y-205300000D02*
X293524164Y-203600000D01*
X293524164Y-203600000D02*
X304750000Y-203600000D01*
X306160000Y-202190000D02*
X310560000Y-202190000D01*
X311480000Y-201270000D02*
X311480000Y-193650000D01*
%TO.N,Net-(D55-A)*%
X170830000Y-200890000D02*
X173420000Y-198300000D01*
X173420000Y-198300000D02*
X215500000Y-198300000D01*
X215500000Y-198300000D02*
X216250000Y-199050000D01*
%TO.N,R6*%
X109830000Y-201000000D02*
X111020000Y-202190000D01*
X111020000Y-202190000D02*
X120390000Y-202190000D01*
X120390000Y-202190000D02*
X125080000Y-197500000D01*
X125080000Y-197500000D02*
X216865686Y-197500000D01*
X218050000Y-200000000D02*
X219000000Y-200950000D01*
X216865686Y-197500000D02*
X218050000Y-198684314D01*
X218050000Y-198684314D02*
X218050000Y-200000000D01*
%TO.N,C4*%
X116830000Y-192000000D02*
X115330000Y-193500000D01*
X63368478Y-202190000D02*
X65708478Y-199850000D01*
X65708478Y-199850000D02*
X77385836Y-199850000D01*
X115330000Y-193500000D02*
X68381522Y-193500000D01*
X68381522Y-193500000D02*
X61530000Y-200351522D01*
X61530000Y-200351522D02*
X61530000Y-201428478D01*
X62291522Y-202190000D02*
X63368478Y-202190000D01*
X80125836Y-202590000D02*
X120555686Y-202590000D01*
X216700000Y-197900000D02*
X217200000Y-198400000D01*
X77385836Y-199850000D02*
X80125836Y-202590000D01*
X216290000Y-202590000D02*
X244330000Y-202590000D01*
X291658478Y-204900000D02*
X297580000Y-198978478D01*
X120555686Y-202590000D02*
X125245686Y-197900000D01*
X261431522Y-144450000D02*
X304794213Y-144450000D01*
X217200000Y-198400000D02*
X217200000Y-199700000D01*
X216900000Y-200000000D02*
X215750000Y-200000000D01*
X246030000Y-164351522D02*
X259440761Y-150940761D01*
X215750000Y-200000000D02*
X215300000Y-200450000D01*
X215300000Y-201600000D02*
X216290000Y-202590000D01*
X217200000Y-199700000D02*
X216900000Y-200000000D01*
X125245686Y-197900000D02*
X216700000Y-197900000D01*
X215300000Y-200450000D02*
X215300000Y-201600000D01*
X290609010Y-186850000D02*
X257451522Y-186850000D01*
X244330000Y-202590000D02*
X246640000Y-204900000D01*
X61530000Y-201428478D02*
X62291522Y-202190000D01*
X246640000Y-204900000D02*
X291658478Y-204900000D01*
X297580000Y-198978478D02*
X297580000Y-193820990D01*
X297580000Y-193820990D02*
X290609010Y-186850000D01*
X257451522Y-186850000D02*
X246030000Y-175428478D01*
X246030000Y-175428478D02*
X246030000Y-164351522D01*
X259440761Y-150940761D02*
X259440761Y-146440761D01*
X259440761Y-146440761D02*
X261431522Y-144450000D01*
X304794213Y-144450000D02*
X309830000Y-139414213D01*
X309830000Y-139414213D02*
X309830000Y-138000000D01*
%TO.N,R6*%
X219000000Y-200950000D02*
X216250000Y-200950000D01*
X219000000Y-200950000D02*
X220240000Y-202190000D01*
X220240000Y-202190000D02*
X249340000Y-202190000D01*
X249340000Y-202190000D02*
X251080000Y-200450000D01*
%TO.N,Net-(D56-A)*%
X224830000Y-200890000D02*
X220840000Y-200890000D01*
X220840000Y-200890000D02*
X219000000Y-199050000D01*
%TO.N,R6*%
X107080000Y-201000000D02*
X109830000Y-201000000D01*
X78800761Y-200699239D02*
X77301522Y-199200000D01*
X78800761Y-200699239D02*
X80291522Y-202190000D01*
X80291522Y-202190000D02*
X105890000Y-202190000D01*
X105890000Y-202190000D02*
X107080000Y-201000000D01*
%TO.N,Net-(D54-A)*%
X116830000Y-200890000D02*
X111620000Y-200890000D01*
X111620000Y-200890000D02*
X109830000Y-199100000D01*
%TO.N,Net-(D53-A)*%
X98830000Y-200890000D02*
X105290000Y-200890000D01*
X105290000Y-200890000D02*
X107080000Y-199100000D01*
%TO.N,Net-(D52-A)*%
X73250000Y-197300000D02*
X74750000Y-198800000D01*
X74750000Y-198800000D02*
X78740000Y-198800000D01*
X78740000Y-198800000D02*
X80830000Y-200890000D01*
%TO.N,R6*%
X77301522Y-199200000D02*
X70500000Y-199200000D01*
%TO.N,Net-(D51-A)*%
X70500000Y-197300000D02*
X68350000Y-199450000D01*
X68350000Y-199450000D02*
X64270000Y-199450000D01*
X64270000Y-199450000D02*
X62830000Y-200890000D01*
%TO.N,R9*%
X303830000Y-183000000D02*
X305020000Y-184190000D01*
X309713452Y-103360000D02*
X242079850Y-103360000D01*
X193830000Y-97900000D02*
X193610000Y-97680000D01*
X305020000Y-184190000D02*
X310368478Y-184190000D01*
X310368478Y-184190000D02*
X311880000Y-182678478D01*
X311880000Y-182678478D02*
X311880000Y-105526548D01*
X311880000Y-105526548D02*
X309713452Y-103360000D01*
X242079850Y-103360000D02*
X236619850Y-97900000D01*
X236619850Y-97900000D02*
X193830000Y-97900000D01*
X301080000Y-183000000D02*
X302750000Y-183000000D01*
X302750000Y-183000000D02*
X303830000Y-183000000D01*
X302580000Y-183170000D02*
X302750000Y-183000000D01*
X303830000Y-202950000D02*
X302580000Y-201700000D01*
X302580000Y-201700000D02*
X302580000Y-183170000D01*
%TO.N,R8*%
X263690000Y-174810000D02*
X263830000Y-174950000D01*
X263815000Y-174935000D02*
X263815000Y-182815000D01*
X257080000Y-168200000D02*
X263690000Y-174810000D01*
X262580000Y-183000000D02*
X264000000Y-183000000D01*
X263815000Y-182815000D02*
X264000000Y-183000000D01*
X264000000Y-183000000D02*
X265330000Y-183000000D01*
X263690000Y-174810000D02*
X263815000Y-174935000D01*
%TO.N,R5*%
X230080000Y-183000000D02*
X231270000Y-184190000D01*
X231270000Y-184190000D02*
X238868478Y-184190000D01*
X238868478Y-184190000D02*
X239630000Y-183428478D01*
X236380000Y-103880000D02*
X232000000Y-99500000D01*
X239630000Y-183428478D02*
X239630000Y-181630000D01*
X236380000Y-178380000D02*
X236380000Y-103880000D01*
X239630000Y-181630000D02*
X236380000Y-178380000D01*
X232000000Y-99500000D02*
X190080000Y-99500000D01*
X190080000Y-99500000D02*
X188530000Y-97950000D01*
X227330000Y-183000000D02*
X230080000Y-183000000D01*
X194080000Y-183000000D02*
X195270000Y-184190000D01*
X195270000Y-184190000D02*
X226140000Y-184190000D01*
X226140000Y-184190000D02*
X227330000Y-183000000D01*
X158080000Y-183000000D02*
X159270000Y-184190000D01*
X159270000Y-184190000D02*
X190140000Y-184190000D01*
X190140000Y-184190000D02*
X191330000Y-183000000D01*
X155330000Y-183000000D02*
X158080000Y-183000000D01*
X122080000Y-183000000D02*
X123270000Y-184190000D01*
X123270000Y-184190000D02*
X154140000Y-184190000D01*
X154140000Y-184190000D02*
X155330000Y-183000000D01*
X119330000Y-183000000D02*
X122080000Y-183000000D01*
X119330000Y-183000000D02*
X118140000Y-184190000D01*
X90820000Y-184190000D02*
X86080000Y-179450000D01*
X118140000Y-184190000D02*
X90820000Y-184190000D01*
X83330000Y-179450000D02*
X86080000Y-179450000D01*
%TO.N,Net-(D82-A)*%
X309830000Y-182890000D02*
X305620000Y-182890000D01*
X305620000Y-182890000D02*
X303830000Y-181100000D01*
%TO.N,Net-(D81-A)*%
X293830000Y-182890000D02*
X299290000Y-182890000D01*
X299290000Y-182890000D02*
X301080000Y-181100000D01*
%TO.N,Net-(D80-A)*%
X274580000Y-182890000D02*
X267120000Y-182890000D01*
X267120000Y-182890000D02*
X265330000Y-181100000D01*
%TO.N,Net-(D79-A)*%
X255330000Y-182890000D02*
X260790000Y-182890000D01*
X260790000Y-182890000D02*
X262580000Y-181100000D01*
%TO.N,Net-(D50-A)*%
X238330000Y-182890000D02*
X231870000Y-182890000D01*
X231870000Y-182890000D02*
X230080000Y-181100000D01*
%TO.N,Net-(D49-A)*%
X220330000Y-182890000D02*
X225540000Y-182890000D01*
X225540000Y-182890000D02*
X227330000Y-181100000D01*
%TO.N,Net-(D48-A)*%
X202330000Y-182890000D02*
X195870000Y-182890000D01*
X195870000Y-182890000D02*
X194080000Y-181100000D01*
%TO.N,Net-(D47-A)*%
X184330000Y-182890000D02*
X189540000Y-182890000D01*
X189540000Y-182890000D02*
X191330000Y-181100000D01*
%TO.N,Net-(D46-A)*%
X166330000Y-182890000D02*
X159870000Y-182890000D01*
X159870000Y-182890000D02*
X158080000Y-181100000D01*
%TO.N,Net-(D45-A)*%
X148330000Y-182890000D02*
X153540000Y-182890000D01*
X153540000Y-182890000D02*
X155330000Y-181100000D01*
%TO.N,Net-(D44-A)*%
X130330000Y-182890000D02*
X123870000Y-182890000D01*
X123870000Y-182890000D02*
X122080000Y-181100000D01*
%TO.N,Net-(D43-A)*%
X112330000Y-182890000D02*
X117540000Y-182890000D01*
X117540000Y-182890000D02*
X119330000Y-181100000D01*
%TO.N,Net-(D42-A)*%
X86080000Y-177550000D02*
X91420000Y-182890000D01*
X91420000Y-182890000D02*
X94330000Y-182890000D01*
%TO.N,Net-(D41-A)*%
X69580000Y-182890000D02*
X73100000Y-179370000D01*
X73100000Y-179370000D02*
X81510000Y-179370000D01*
X81510000Y-179370000D02*
X83330000Y-177550000D01*
%TO.N,R4*%
X77080000Y-165150000D02*
X74330000Y-165150000D01*
X110330000Y-165150000D02*
X109290000Y-166190000D01*
X109290000Y-166190000D02*
X78120000Y-166190000D01*
X78120000Y-166190000D02*
X77080000Y-165150000D01*
X113080000Y-165150000D02*
X110330000Y-165150000D01*
X146330000Y-165150000D02*
X145290000Y-166190000D01*
X145290000Y-166190000D02*
X114120000Y-166190000D01*
X114120000Y-166190000D02*
X113080000Y-165150000D01*
X149080000Y-165150000D02*
X146330000Y-165150000D01*
X182330000Y-165150000D02*
X181290000Y-166190000D01*
X181290000Y-166190000D02*
X150120000Y-166190000D01*
X150120000Y-166190000D02*
X149080000Y-165150000D01*
X185080000Y-165150000D02*
X182330000Y-165150000D01*
X218330000Y-165150000D02*
X217290000Y-166190000D01*
X217290000Y-166190000D02*
X186120000Y-166190000D01*
X186120000Y-166190000D02*
X185080000Y-165150000D01*
X218330000Y-165150000D02*
X221080000Y-165150000D01*
%TO.N,R8*%
X257080000Y-165150000D02*
X257080000Y-168200000D01*
X257080000Y-165150000D02*
X255500000Y-165150000D01*
X255500000Y-165150000D02*
X254330000Y-165150000D01*
X267411522Y-147000000D02*
X255580000Y-158831522D01*
X255580000Y-165070000D02*
X255500000Y-165150000D01*
X267830000Y-147000000D02*
X267411522Y-147000000D01*
X255580000Y-158831522D02*
X255580000Y-165070000D01*
X301250000Y-147000000D02*
X302580000Y-147000000D01*
X300580000Y-165150000D02*
X302000000Y-165150000D01*
X302000000Y-165150000D02*
X303330000Y-165150000D01*
X299830000Y-147000000D02*
X301250000Y-147000000D01*
X301250000Y-147000000D02*
X301250000Y-161250000D01*
X301250000Y-161250000D02*
X302000000Y-162000000D01*
X302000000Y-162000000D02*
X302000000Y-165150000D01*
%TO.N,Net-(D75-A)*%
X309830000Y-164890000D02*
X304970000Y-164890000D01*
X304970000Y-164890000D02*
X303330000Y-163250000D01*
%TO.N,Net-(D76-A)*%
X288080000Y-164890000D02*
X289720000Y-163250000D01*
X289720000Y-163250000D02*
X300580000Y-163250000D01*
%TO.N,Net-(D77-A)*%
X258640000Y-164890000D02*
X257080000Y-163330000D01*
X257080000Y-163330000D02*
X257080000Y-163250000D01*
X265330000Y-164890000D02*
X258640000Y-164890000D01*
%TO.N,Net-(D78-A)*%
X247330000Y-164890000D02*
X252690000Y-164890000D01*
X252690000Y-164890000D02*
X254330000Y-163250000D01*
%TO.N,Net-(D40-A)*%
X229330000Y-164890000D02*
X222720000Y-164890000D01*
X222720000Y-164890000D02*
X221080000Y-163250000D01*
%TO.N,Net-(D39-A)*%
X211330000Y-164890000D02*
X216690000Y-164890000D01*
X216690000Y-164890000D02*
X218330000Y-163250000D01*
%TO.N,Net-(D38-A)*%
X193330000Y-164890000D02*
X186720000Y-164890000D01*
X186720000Y-164890000D02*
X185080000Y-163250000D01*
%TO.N,Net-(D37-A)*%
X175330000Y-164890000D02*
X180690000Y-164890000D01*
X180690000Y-164890000D02*
X182330000Y-163250000D01*
%TO.N,Net-(D36-A)*%
X157330000Y-164890000D02*
X150720000Y-164890000D01*
X150720000Y-164890000D02*
X149080000Y-163250000D01*
%TO.N,Net-(D35-A)*%
X139330000Y-164890000D02*
X144690000Y-164890000D01*
X144690000Y-164890000D02*
X146330000Y-163250000D01*
%TO.N,Net-(D34-A)*%
X121330000Y-164890000D02*
X114720000Y-164890000D01*
X114720000Y-164890000D02*
X113080000Y-163250000D01*
%TO.N,Net-(D33-A)*%
X103330000Y-164890000D02*
X108690000Y-164890000D01*
X108690000Y-164890000D02*
X110330000Y-163250000D01*
%TO.N,Net-(D32-A)*%
X85330000Y-164890000D02*
X78640000Y-164890000D01*
X78640000Y-164890000D02*
X77080000Y-163330000D01*
X77080000Y-163330000D02*
X77080000Y-163250000D01*
%TO.N,Net-(D31-A)*%
X65080000Y-164890000D02*
X72690000Y-164890000D01*
X72690000Y-164890000D02*
X74330000Y-163250000D01*
%TO.N,R8*%
X302580000Y-147000000D02*
X303770000Y-148190000D01*
X303770000Y-148190000D02*
X310790000Y-148190000D01*
X311480000Y-110701522D02*
X304538478Y-103760000D01*
X304538478Y-103760000D02*
X241914164Y-103760000D01*
X192580000Y-98300000D02*
X192340000Y-98060000D01*
X310790000Y-148190000D02*
X311480000Y-147500000D01*
X311480000Y-147500000D02*
X311480000Y-110701522D01*
X241914164Y-103760000D02*
X236454164Y-98300000D01*
X236454164Y-98300000D02*
X192580000Y-98300000D01*
%TO.N,Net-(D74-A)*%
X309830000Y-146890000D02*
X304370000Y-146890000D01*
X304370000Y-146890000D02*
X302580000Y-145100000D01*
%TO.N,Net-(D73-A)*%
X293830000Y-146890000D02*
X298040000Y-146890000D01*
X298040000Y-146890000D02*
X299830000Y-145100000D01*
%TO.N,R8*%
X270580000Y-147000000D02*
X271770000Y-148190000D01*
X271770000Y-148190000D02*
X298640000Y-148190000D01*
X298640000Y-148190000D02*
X299830000Y-147000000D01*
X267830000Y-147000000D02*
X270580000Y-147000000D01*
%TO.N,Net-(D72-A)*%
X277830000Y-146890000D02*
X272370000Y-146890000D01*
X272370000Y-146890000D02*
X270580000Y-145100000D01*
%TO.N,Net-(D71-A)*%
X260830000Y-146890000D02*
X266110000Y-146890000D01*
X266110000Y-146890000D02*
X267830000Y-145170000D01*
X267830000Y-145170000D02*
X267830000Y-145100000D01*
%TO.N,R3*%
X72580000Y-147000000D02*
X69830000Y-147000000D01*
X105830000Y-147000000D02*
X104640000Y-148190000D01*
X104640000Y-148190000D02*
X73770000Y-148190000D01*
X73770000Y-148190000D02*
X72580000Y-147000000D01*
X108580000Y-147000000D02*
X105830000Y-147000000D01*
X141830000Y-147000000D02*
X140640000Y-148190000D01*
X140640000Y-148190000D02*
X109770000Y-148190000D01*
X109770000Y-148190000D02*
X108580000Y-147000000D01*
X144580000Y-147000000D02*
X141830000Y-147000000D01*
X177830000Y-147000000D02*
X176640000Y-148190000D01*
X176640000Y-148190000D02*
X145770000Y-148190000D01*
X145770000Y-148190000D02*
X144580000Y-147000000D01*
X180580000Y-147000000D02*
X177830000Y-147000000D01*
X213830000Y-147000000D02*
X212640000Y-148190000D01*
X181770000Y-148190000D02*
X180580000Y-147000000D01*
X212640000Y-148190000D02*
X181770000Y-148190000D01*
X216580000Y-147000000D02*
X213830000Y-147000000D01*
X217770000Y-148190000D02*
X216580000Y-147000000D01*
X188380000Y-100300000D02*
X231668628Y-100300000D01*
X231668628Y-100300000D02*
X235580000Y-104211372D01*
X235580000Y-104211372D02*
X235580000Y-137978478D01*
X235580000Y-137978478D02*
X225368478Y-148190000D01*
X225368478Y-148190000D02*
X217770000Y-148190000D01*
%TO.N,Net-(D30-A)*%
X224830000Y-146890000D02*
X218140000Y-146890000D01*
X216580000Y-145330000D02*
X216580000Y-145100000D01*
X218140000Y-146890000D02*
X216580000Y-145330000D01*
%TO.N,Net-(D29-A)*%
X206830000Y-146890000D02*
X212040000Y-146890000D01*
X212040000Y-146890000D02*
X213830000Y-145100000D01*
%TO.N,Net-(D28-A)*%
X188830000Y-146890000D02*
X182370000Y-146890000D01*
X182370000Y-146890000D02*
X180580000Y-145100000D01*
%TO.N,Net-(D27-A)*%
X170830000Y-146890000D02*
X176040000Y-146890000D01*
X176040000Y-146890000D02*
X177830000Y-145100000D01*
%TO.N,Net-(D26-A)*%
X152830000Y-146890000D02*
X146370000Y-146890000D01*
X146370000Y-146890000D02*
X144580000Y-145100000D01*
%TO.N,Net-(D25-A)*%
X134830000Y-146890000D02*
X140110000Y-146890000D01*
X140110000Y-146890000D02*
X141830000Y-145170000D01*
X141830000Y-145170000D02*
X141830000Y-145100000D01*
%TO.N,Net-(D24-A)*%
X116830000Y-146890000D02*
X110370000Y-146890000D01*
X110370000Y-146890000D02*
X108580000Y-145100000D01*
%TO.N,Net-(D23-A)*%
X98830000Y-146890000D02*
X104040000Y-146890000D01*
X104040000Y-146890000D02*
X105830000Y-145100000D01*
%TO.N,Net-(D22-A)*%
X80830000Y-146890000D02*
X74370000Y-146890000D01*
X74370000Y-146890000D02*
X72580000Y-145100000D01*
%TO.N,Net-(D21-A)*%
X62830000Y-146890000D02*
X68040000Y-146890000D01*
X68040000Y-146890000D02*
X69830000Y-145100000D01*
%TO.N,R2*%
X81580000Y-129000000D02*
X78830000Y-129000000D01*
X114830000Y-129000000D02*
X113640000Y-130190000D01*
X113640000Y-130190000D02*
X82770000Y-130190000D01*
X82770000Y-130190000D02*
X81580000Y-129000000D01*
X117580000Y-129000000D02*
X114830000Y-129000000D01*
X150830000Y-129000000D02*
X149640000Y-130190000D01*
X149640000Y-130190000D02*
X118770000Y-130190000D01*
X118770000Y-130190000D02*
X117580000Y-129000000D01*
X153580000Y-129000000D02*
X150830000Y-129000000D01*
X186830000Y-129000000D02*
X186250000Y-129000000D01*
X185060000Y-130190000D02*
X154770000Y-130190000D01*
X186250000Y-129000000D02*
X185060000Y-130190000D01*
X154770000Y-130190000D02*
X153580000Y-129000000D01*
X189580000Y-129000000D02*
X186830000Y-129000000D01*
X222830000Y-129000000D02*
X221640000Y-130190000D01*
X221640000Y-130190000D02*
X190770000Y-130190000D01*
X190770000Y-130190000D02*
X189580000Y-129000000D01*
X224250000Y-129000000D02*
X222830000Y-129000000D01*
X225580000Y-129000000D02*
X224250000Y-129000000D01*
X224250000Y-113308478D02*
X226130000Y-111428478D01*
X224250000Y-129000000D02*
X224250000Y-113308478D01*
X226130000Y-111428478D02*
X226130000Y-110351522D01*
X226130000Y-110351522D02*
X216478478Y-100700000D01*
X216478478Y-100700000D02*
X187530000Y-100700000D01*
%TO.N,R6*%
X237675191Y-104609505D02*
X238140495Y-104609505D01*
X189800000Y-97970000D02*
X190930000Y-99100000D01*
X238140495Y-104609505D02*
X238875000Y-105344010D01*
X237211522Y-107939468D02*
X237211522Y-135623044D01*
X232165686Y-99100000D02*
X237675191Y-104609505D01*
X238875000Y-105344010D02*
X238875000Y-106275990D01*
X238875000Y-106275990D02*
X237211522Y-107939468D01*
X240830000Y-139241522D02*
X240830000Y-182750000D01*
X190930000Y-99100000D02*
X232165686Y-99100000D01*
X237211522Y-135623044D02*
X240830000Y-139241522D01*
X240830000Y-182750000D02*
X252330000Y-194250000D01*
X252330000Y-194250000D02*
X252330000Y-200450000D01*
%TO.N,R7*%
X279830000Y-129000000D02*
X278250000Y-129000000D01*
X278250000Y-129000000D02*
X277080000Y-129000000D01*
X278330000Y-119700000D02*
X278330000Y-128920000D01*
X278330000Y-128920000D02*
X278250000Y-129000000D01*
%TO.N,Net-(D67-A)*%
X290330000Y-128890000D02*
X281620000Y-128890000D01*
X281620000Y-128890000D02*
X279830000Y-127100000D01*
%TO.N,Net-(D68-A)*%
X269830000Y-128890000D02*
X275360000Y-128890000D01*
X275360000Y-128890000D02*
X277080000Y-127170000D01*
X277080000Y-127170000D02*
X277080000Y-127100000D01*
%TO.N,Net-(D70-A)*%
X243580000Y-127100000D02*
X244530000Y-128050000D01*
X244530000Y-128050000D02*
X244530000Y-145190000D01*
X244530000Y-145190000D02*
X242830000Y-146890000D01*
%TO.N,Net-(D69-A)*%
X240830000Y-127100000D02*
X241480000Y-126450000D01*
X249390000Y-126450000D02*
X251830000Y-128890000D01*
X241480000Y-126450000D02*
X249390000Y-126450000D01*
%TO.N,R7*%
X249830000Y-111000000D02*
X249830000Y-114950000D01*
X239880000Y-128050000D02*
X240830000Y-129000000D01*
X249830000Y-114950000D02*
X239880000Y-124900000D01*
X239880000Y-124900000D02*
X239880000Y-128050000D01*
X243580000Y-129000000D02*
X240830000Y-129000000D01*
%TO.N,Net-(D20-A)*%
X233830000Y-128890000D02*
X227370000Y-128890000D01*
X227370000Y-128890000D02*
X225580000Y-127100000D01*
%TO.N,Net-(D19-A)*%
X215830000Y-128890000D02*
X221040000Y-128890000D01*
X221040000Y-128890000D02*
X222830000Y-127100000D01*
%TO.N,Net-(D18-A)*%
X197830000Y-128890000D02*
X191370000Y-128890000D01*
X191370000Y-128890000D02*
X189580000Y-127100000D01*
%TO.N,Net-(D17-A)*%
X179830000Y-128890000D02*
X185040000Y-128890000D01*
X185040000Y-128890000D02*
X186830000Y-127100000D01*
%TO.N,Net-(D16-A)*%
X161830000Y-128890000D02*
X155370000Y-128890000D01*
X155370000Y-128890000D02*
X153580000Y-127100000D01*
%TO.N,Net-(D15-A)*%
X143830000Y-128890000D02*
X149040000Y-128890000D01*
X149040000Y-128890000D02*
X150830000Y-127100000D01*
%TO.N,Net-(D14-A)*%
X125830000Y-128890000D02*
X119370000Y-128890000D01*
X119370000Y-128890000D02*
X117580000Y-127100000D01*
%TO.N,Net-(D13-A)*%
X107830000Y-128890000D02*
X113040000Y-128890000D01*
X113040000Y-128890000D02*
X114830000Y-127100000D01*
%TO.N,Net-(D12-A)*%
X89830000Y-128890000D02*
X83370000Y-128890000D01*
X83370000Y-128890000D02*
X81580000Y-127100000D01*
%TO.N,Net-(D11-A)*%
X71830000Y-128890000D02*
X77040000Y-128890000D01*
X77040000Y-128890000D02*
X78830000Y-127100000D01*
%TO.N,R1*%
X180580000Y-111000000D02*
X179250000Y-111000000D01*
X179250000Y-111000000D02*
X177830000Y-111000000D01*
X179330000Y-102000000D02*
X179330000Y-110920000D01*
X179330000Y-110920000D02*
X179250000Y-111000000D01*
X72580000Y-111000000D02*
X73770000Y-112190000D01*
X104640000Y-112190000D02*
X105830000Y-111000000D01*
X73770000Y-112190000D02*
X104640000Y-112190000D01*
X69830000Y-111000000D02*
X72580000Y-111000000D01*
X108580000Y-111000000D02*
X105830000Y-111000000D01*
X141830000Y-111000000D02*
X140640000Y-112190000D01*
X140640000Y-112190000D02*
X109770000Y-112190000D01*
X109770000Y-112190000D02*
X108580000Y-111000000D01*
X144580000Y-111000000D02*
X141830000Y-111000000D01*
X177830000Y-111000000D02*
X176640000Y-112190000D01*
X176640000Y-112190000D02*
X145770000Y-112190000D01*
X145770000Y-112190000D02*
X144580000Y-111000000D01*
X213830000Y-111000000D02*
X212640000Y-112190000D01*
X212640000Y-112190000D02*
X181770000Y-112190000D01*
X181770000Y-112190000D02*
X180580000Y-111000000D01*
X216580000Y-111000000D02*
X213830000Y-111000000D01*
%TO.N,R7*%
X249830000Y-111000000D02*
X251250000Y-111000000D01*
X251250000Y-111000000D02*
X252580000Y-111000000D01*
X249240000Y-104160000D02*
X251250000Y-106170000D01*
X191070000Y-97990000D02*
X191780000Y-98700000D01*
X191780000Y-98700000D02*
X236288478Y-98700000D01*
X251250000Y-106170000D02*
X251250000Y-111000000D01*
X236288478Y-98700000D02*
X241748478Y-104160000D01*
X241748478Y-104160000D02*
X249240000Y-104160000D01*
X252580000Y-111000000D02*
X255780000Y-114200000D01*
X255780000Y-114200000D02*
X272830000Y-114200000D01*
X272830000Y-114200000D02*
X278330000Y-119700000D01*
X283830000Y-111000000D02*
X283830000Y-114200000D01*
X283830000Y-114200000D02*
X278330000Y-119700000D01*
X286580000Y-111000000D02*
X283830000Y-111000000D01*
X299830000Y-111000000D02*
X298640000Y-112190000D01*
X298640000Y-112190000D02*
X287770000Y-112190000D01*
X287770000Y-112190000D02*
X286580000Y-111000000D01*
X302580000Y-111000000D02*
X299830000Y-111000000D01*
%TO.N,Net-(D66-A)*%
X302580000Y-109100000D02*
X308180000Y-114700000D01*
X308180000Y-114700000D02*
X308180000Y-127240000D01*
X308180000Y-127240000D02*
X309830000Y-128890000D01*
%TO.N,Net-(D65-A)*%
X309830000Y-110890000D02*
X307390000Y-108450000D01*
X307390000Y-108450000D02*
X300480000Y-108450000D01*
X300480000Y-108450000D02*
X299830000Y-109100000D01*
%TO.N,Net-(D64-A)*%
X293830000Y-110890000D02*
X288370000Y-110890000D01*
X288370000Y-110890000D02*
X286580000Y-109100000D01*
%TO.N,Net-(D63-A)*%
X277830000Y-110890000D02*
X282040000Y-110890000D01*
X282040000Y-110890000D02*
X283830000Y-109100000D01*
%TO.N,Net-(D62-A)*%
X260830000Y-110890000D02*
X254370000Y-110890000D01*
X254370000Y-110890000D02*
X252580000Y-109100000D01*
%TO.N,Net-(D61-A)*%
X242830000Y-110890000D02*
X248040000Y-110890000D01*
X248040000Y-110890000D02*
X249830000Y-109100000D01*
%TO.N,Net-(D10-A)*%
X224830000Y-110890000D02*
X218370000Y-110890000D01*
X218370000Y-110890000D02*
X216580000Y-109100000D01*
%TO.N,Net-(D9-A)*%
X206830000Y-110890000D02*
X212040000Y-110890000D01*
X212040000Y-110890000D02*
X213830000Y-109100000D01*
%TO.N,Net-(D8-A)*%
X188830000Y-110890000D02*
X182370000Y-110890000D01*
X182370000Y-110890000D02*
X180580000Y-109100000D01*
%TO.N,Net-(D7-A)*%
X170830000Y-110890000D02*
X176040000Y-110890000D01*
X176040000Y-110890000D02*
X177830000Y-109100000D01*
%TO.N,Net-(D6-A)*%
X152830000Y-110890000D02*
X146370000Y-110890000D01*
X146370000Y-110890000D02*
X144580000Y-109100000D01*
%TO.N,Net-(D5-A)*%
X134830000Y-110890000D02*
X140040000Y-110890000D01*
X140040000Y-110890000D02*
X141830000Y-109100000D01*
%TO.N,Net-(D4-A)*%
X116830000Y-110890000D02*
X110370000Y-110890000D01*
X110370000Y-110890000D02*
X108580000Y-109100000D01*
%TO.N,Net-(D3-A)*%
X98830000Y-110890000D02*
X104040000Y-110890000D01*
X104040000Y-110890000D02*
X105830000Y-109100000D01*
%TO.N,Net-(D2-A)*%
X80830000Y-110890000D02*
X74370000Y-110890000D01*
X74370000Y-110890000D02*
X72580000Y-109100000D01*
%TO.N,Net-(D1-A)*%
X62830000Y-110890000D02*
X68040000Y-110890000D01*
X68040000Y-110890000D02*
X69830000Y-109100000D01*
%TO.N,C1*%
X62830000Y-192000000D02*
X62830000Y-182226548D01*
X62830000Y-182226548D02*
X69580000Y-175476548D01*
X69580000Y-175476548D02*
X69580000Y-174000000D01*
%TO.N,R9*%
X193570000Y-84000000D02*
X193570000Y-79010000D01*
X196816300Y-65033700D02*
X200720000Y-61130000D01*
X193570000Y-79010000D02*
X194580000Y-78000000D01*
X194580000Y-78000000D02*
X195673540Y-78000000D01*
X195673540Y-78000000D02*
X196816300Y-76857240D01*
X196816300Y-76857240D02*
X196816300Y-65033700D01*
%TO.N,R8*%
X198180000Y-61130000D02*
X194276300Y-65033700D01*
X194276300Y-65033700D02*
X194276300Y-76857240D01*
X194276300Y-76857240D02*
X192440000Y-78693540D01*
X192440000Y-78693540D02*
X192440000Y-83860000D01*
X192440000Y-83860000D02*
X192300000Y-84000000D01*
%TO.N,R1*%
X175320000Y-61130000D02*
X174778700Y-61671300D01*
X174778700Y-61671300D02*
X174778700Y-74165160D01*
X174778700Y-74165160D02*
X176683700Y-76070160D01*
X176683700Y-76070160D02*
X176683700Y-76857240D01*
X176683700Y-76857240D02*
X178976460Y-79150000D01*
X178976460Y-79150000D02*
X182980000Y-79150000D01*
X182980000Y-79150000D02*
X183410000Y-79580000D01*
X183410000Y-79580000D02*
X183410000Y-84000000D01*
%TO.N,R2*%
X184680000Y-84000000D02*
X184680000Y-79100000D01*
X184680000Y-79100000D02*
X184330000Y-78750000D01*
X184330000Y-78750000D02*
X181116460Y-78750000D01*
X181116460Y-78750000D02*
X179036300Y-76669840D01*
X179036300Y-62306300D02*
X177860000Y-61130000D01*
X179036300Y-76669840D02*
X179036300Y-62306300D01*
%TO.N,R3*%
X185950000Y-84000000D02*
X185950000Y-78520000D01*
X185950000Y-78520000D02*
X185580000Y-78150000D01*
X185580000Y-78150000D02*
X183056460Y-78150000D01*
X183056460Y-78150000D02*
X181576300Y-76669840D01*
X181576300Y-76669840D02*
X181576300Y-62306300D01*
X181576300Y-62306300D02*
X180400000Y-61130000D01*
%TO.N,R4*%
X187220000Y-84000000D02*
X187220000Y-78640000D01*
X187220000Y-78640000D02*
X186330000Y-77750000D01*
X186330000Y-77750000D02*
X185196460Y-77750000D01*
X184116300Y-62306300D02*
X182940000Y-61130000D01*
X185196460Y-77750000D02*
X184116300Y-76669840D01*
X184116300Y-76669840D02*
X184116300Y-62306300D01*
%TO.N,R6*%
X189760000Y-84000000D02*
X189760000Y-77233540D01*
X189760000Y-77233540D02*
X189196300Y-76669840D01*
X189196300Y-76669840D02*
X189196300Y-62306300D01*
X189196300Y-62306300D02*
X188020000Y-61130000D01*
%TO.N,R7*%
X191736300Y-62306300D02*
X191736300Y-77000000D01*
X191030000Y-84000000D02*
X191055000Y-83975000D01*
X191055000Y-83975000D02*
X191055000Y-77681300D01*
X191055000Y-77681300D02*
X191736300Y-77000000D01*
%TO.N,R5*%
X188490000Y-84000000D02*
X188490000Y-78503540D01*
X188490000Y-78503540D02*
X186656300Y-76669840D01*
X186656300Y-76669840D02*
X186656300Y-62306300D01*
X186656300Y-62306300D02*
X185480000Y-61130000D01*
%TO.N,R7*%
X190560000Y-61130000D02*
X191736300Y-62306300D01*
%TO.N,R6*%
X251080000Y-200450000D02*
X252330000Y-200450000D01*
X252330000Y-200450000D02*
X253830000Y-200450000D01*
X287830000Y-204250000D02*
X257630000Y-204250000D01*
X257630000Y-204250000D02*
X253830000Y-200450000D01*
X285080000Y-204250000D02*
X287830000Y-204250000D01*
%TO.N,Net-(D83-A)*%
X309830000Y-200890000D02*
X303990000Y-200890000D01*
X303990000Y-200890000D02*
X303830000Y-201050000D01*
%TO.N,Net-(D60-A)*%
X293830000Y-200890000D02*
X289290000Y-200890000D01*
X289290000Y-200890000D02*
X287830000Y-202350000D01*
%TO.N,Net-(D59-A)*%
X277830000Y-200890000D02*
X283620000Y-200890000D01*
X283620000Y-200890000D02*
X285080000Y-202350000D01*
%TO.N,Net-(D58-A)*%
X253830000Y-198550000D02*
X258490000Y-198550000D01*
X258490000Y-198550000D02*
X260830000Y-200890000D01*
%TO.N,Net-(D57-A)*%
X251080000Y-198550000D02*
X245170000Y-198550000D01*
X245170000Y-198550000D02*
X242830000Y-200890000D01*
%TD*%
%TA.AperFunction,Conductor*%
%TO.N,GND*%
G36*
X293442539Y-89270185D02*
G01*
X293488294Y-89322989D01*
X293499500Y-89374500D01*
X293499500Y-93386839D01*
X293536765Y-93657964D01*
X293536766Y-93657970D01*
X293610602Y-93921493D01*
X293719633Y-94172509D01*
X293861829Y-94406341D01*
X293861831Y-94406343D01*
X293861832Y-94406345D01*
X293905742Y-94460318D01*
X294034542Y-94618634D01*
X294034545Y-94618636D01*
X294034546Y-94618638D01*
X294069689Y-94651459D01*
X294234560Y-94805439D01*
X294458135Y-94963255D01*
X294458141Y-94963259D01*
X294458143Y-94963260D01*
X294701136Y-95089169D01*
X294701139Y-95089170D01*
X294959004Y-95180816D01*
X294959020Y-95180821D01*
X295149255Y-95220351D01*
X295226960Y-95236498D01*
X295226961Y-95236499D01*
X295244441Y-95237694D01*
X295500000Y-95255175D01*
X295773038Y-95236499D01*
X295893620Y-95211441D01*
X296040979Y-95180821D01*
X296040985Y-95180818D01*
X296040990Y-95180818D01*
X296298864Y-95089169D01*
X296541857Y-94963260D01*
X296765442Y-94805437D01*
X296965454Y-94618638D01*
X297138168Y-94406345D01*
X297280365Y-94172511D01*
X297389398Y-93921492D01*
X297463235Y-93657965D01*
X297500500Y-93386838D01*
X297500500Y-93250000D01*
X297500500Y-93184108D01*
X297500500Y-89374500D01*
X297520185Y-89307461D01*
X297572989Y-89261706D01*
X297624500Y-89250500D01*
X298875500Y-89250500D01*
X298942539Y-89270185D01*
X298988294Y-89322989D01*
X298999500Y-89374500D01*
X298999500Y-95837534D01*
X299029898Y-96009937D01*
X299089775Y-96174446D01*
X299177309Y-96326057D01*
X299289836Y-96460163D01*
X299423942Y-96572690D01*
X299423943Y-96572691D01*
X299423945Y-96572692D01*
X299575555Y-96660225D01*
X299740062Y-96720101D01*
X299912468Y-96750500D01*
X299934108Y-96750500D01*
X320375500Y-96750500D01*
X320442539Y-96770185D01*
X320488294Y-96822989D01*
X320499500Y-96874500D01*
X320499500Y-147125500D01*
X320479815Y-147192539D01*
X320427011Y-147238294D01*
X320375500Y-147249500D01*
X318412465Y-147249500D01*
X318240062Y-147279898D01*
X318075553Y-147339775D01*
X317923942Y-147427309D01*
X317789836Y-147539836D01*
X317677309Y-147673942D01*
X317589775Y-147825553D01*
X317529898Y-147990062D01*
X317499500Y-148162465D01*
X317499500Y-152837534D01*
X317529898Y-153009937D01*
X317589775Y-153174446D01*
X317677309Y-153326057D01*
X317789836Y-153460163D01*
X317923942Y-153572690D01*
X317923943Y-153572691D01*
X317923945Y-153572692D01*
X318075555Y-153660225D01*
X318240062Y-153720101D01*
X318412468Y-153750500D01*
X318434108Y-153750500D01*
X320375500Y-153750500D01*
X320442539Y-153770185D01*
X320488294Y-153822989D01*
X320499500Y-153874500D01*
X320499500Y-204125500D01*
X320479815Y-204192539D01*
X320427011Y-204238294D01*
X320375500Y-204249500D01*
X305912465Y-204249500D01*
X305740062Y-204279898D01*
X305575553Y-204339775D01*
X305423942Y-204427309D01*
X305289836Y-204539836D01*
X305177309Y-204673942D01*
X305089775Y-204825553D01*
X305029898Y-204990062D01*
X304999500Y-205162465D01*
X304999500Y-209625500D01*
X304979815Y-209692539D01*
X304927011Y-209738294D01*
X304875500Y-209749500D01*
X291624500Y-209749500D01*
X291557461Y-209729815D01*
X291511706Y-209677011D01*
X291500500Y-209625500D01*
X291500500Y-208613160D01*
X291485154Y-208501513D01*
X291463235Y-208342035D01*
X291389398Y-208078508D01*
X291321268Y-207921656D01*
X291280366Y-207827490D01*
X291138170Y-207593658D01*
X290965457Y-207381365D01*
X290765439Y-207194560D01*
X290541864Y-207036744D01*
X290541858Y-207036740D01*
X290298860Y-206910829D01*
X290040995Y-206819183D01*
X290040979Y-206819178D01*
X289773040Y-206763501D01*
X289773038Y-206763500D01*
X289500000Y-206744825D01*
X289226961Y-206763500D01*
X289226959Y-206763501D01*
X288959020Y-206819178D01*
X288959004Y-206819183D01*
X288701139Y-206910829D01*
X288458141Y-207036740D01*
X288458135Y-207036744D01*
X288234560Y-207194560D01*
X288034542Y-207381365D01*
X287861829Y-207593658D01*
X287719633Y-207827490D01*
X287610602Y-208078506D01*
X287536766Y-208342029D01*
X287536765Y-208342035D01*
X287499500Y-208613160D01*
X287499500Y-209625500D01*
X287479815Y-209692539D01*
X287427011Y-209738294D01*
X287375500Y-209749500D01*
X253187854Y-209749500D01*
X253120815Y-209729815D01*
X253075060Y-209677011D01*
X253065116Y-209607853D01*
X253094141Y-209544297D01*
X253120815Y-209521185D01*
X253247011Y-209440082D01*
X253301715Y-209404927D01*
X253490952Y-209240952D01*
X253654927Y-209051715D01*
X253790301Y-208841068D01*
X253894320Y-208613300D01*
X253896359Y-208606358D01*
X253960197Y-208388939D01*
X253964864Y-208373046D01*
X254000500Y-208125198D01*
X254000500Y-207874802D01*
X253964864Y-207626954D01*
X253953951Y-207589788D01*
X253894323Y-207386708D01*
X253894321Y-207386702D01*
X253790304Y-207158938D01*
X253790294Y-207158920D01*
X253654931Y-206948291D01*
X253654927Y-206948285D01*
X253490952Y-206759047D01*
X253301714Y-206595072D01*
X253301708Y-206595068D01*
X253091079Y-206459705D01*
X253091061Y-206459695D01*
X252863297Y-206355678D01*
X252863291Y-206355676D01*
X252623048Y-206285136D01*
X252623044Y-206285135D01*
X252446468Y-206259747D01*
X252375198Y-206249500D01*
X252315892Y-206249500D01*
X249315892Y-206249500D01*
X249250000Y-206249500D01*
X249124802Y-206249500D01*
X249089167Y-206254623D01*
X248876955Y-206285135D01*
X248876951Y-206285136D01*
X248636708Y-206355676D01*
X248636702Y-206355678D01*
X248408938Y-206459695D01*
X248408920Y-206459705D01*
X248198291Y-206595068D01*
X248198285Y-206595072D01*
X248009047Y-206759047D01*
X247845072Y-206948285D01*
X247845068Y-206948291D01*
X247709705Y-207158920D01*
X247709695Y-207158938D01*
X247605678Y-207386702D01*
X247605676Y-207386708D01*
X247535136Y-207626951D01*
X247535135Y-207626955D01*
X247499500Y-207874803D01*
X247499500Y-208125196D01*
X247535135Y-208373044D01*
X247535136Y-208373048D01*
X247605676Y-208613291D01*
X247605678Y-208613297D01*
X247709695Y-208841061D01*
X247709705Y-208841079D01*
X247845068Y-209051708D01*
X247845072Y-209051714D01*
X248009047Y-209240952D01*
X248198285Y-209404927D01*
X248198291Y-209404931D01*
X248379185Y-209521185D01*
X248424940Y-209573989D01*
X248434884Y-209643147D01*
X248405859Y-209706703D01*
X248347081Y-209744477D01*
X248312146Y-209749500D01*
X242624500Y-209749500D01*
X242557461Y-209729815D01*
X242511706Y-209677011D01*
X242500500Y-209625500D01*
X242500500Y-205162472D01*
X242500500Y-205162468D01*
X242470101Y-204990062D01*
X242410225Y-204825555D01*
X242322692Y-204673945D01*
X242322691Y-204673943D01*
X242322690Y-204673942D01*
X242210163Y-204539836D01*
X242076057Y-204427309D01*
X241924446Y-204339775D01*
X241759937Y-204279898D01*
X241587534Y-204249500D01*
X241587532Y-204249500D01*
X241565892Y-204249500D01*
X230565892Y-204249500D01*
X230500000Y-204249500D01*
X230412468Y-204249500D01*
X230412465Y-204249500D01*
X230240062Y-204279898D01*
X230075553Y-204339775D01*
X229923942Y-204427309D01*
X229789836Y-204539836D01*
X229677309Y-204673942D01*
X229589775Y-204825553D01*
X229529898Y-204990062D01*
X229499500Y-205162465D01*
X229499500Y-209625500D01*
X229479815Y-209692539D01*
X229427011Y-209738294D01*
X229375500Y-209749500D01*
X197687854Y-209749500D01*
X197620815Y-209729815D01*
X197575060Y-209677011D01*
X197565116Y-209607853D01*
X197594141Y-209544297D01*
X197620815Y-209521185D01*
X197747011Y-209440082D01*
X197801715Y-209404927D01*
X197990952Y-209240952D01*
X198154927Y-209051715D01*
X198290301Y-208841068D01*
X198394320Y-208613300D01*
X198396359Y-208606358D01*
X198460197Y-208388939D01*
X198464864Y-208373046D01*
X198500500Y-208125198D01*
X198500500Y-207874802D01*
X198464864Y-207626954D01*
X198453951Y-207589788D01*
X198394323Y-207386708D01*
X198394321Y-207386702D01*
X198290304Y-207158938D01*
X198290294Y-207158920D01*
X198154931Y-206948291D01*
X198154927Y-206948285D01*
X197990952Y-206759047D01*
X197801714Y-206595072D01*
X197801708Y-206595068D01*
X197591079Y-206459705D01*
X197591061Y-206459695D01*
X197363297Y-206355678D01*
X197363291Y-206355676D01*
X197123048Y-206285136D01*
X197123044Y-206285135D01*
X196946468Y-206259747D01*
X196875198Y-206249500D01*
X196815892Y-206249500D01*
X193815892Y-206249500D01*
X193750000Y-206249500D01*
X193624802Y-206249500D01*
X193589167Y-206254623D01*
X193376955Y-206285135D01*
X193376951Y-206285136D01*
X193136708Y-206355676D01*
X193136702Y-206355678D01*
X192908938Y-206459695D01*
X192908920Y-206459705D01*
X192698291Y-206595068D01*
X192698285Y-206595072D01*
X192509047Y-206759047D01*
X192345072Y-206948285D01*
X192345068Y-206948291D01*
X192209705Y-207158920D01*
X192209695Y-207158938D01*
X192105678Y-207386702D01*
X192105676Y-207386708D01*
X192035136Y-207626951D01*
X192035135Y-207626955D01*
X191999500Y-207874803D01*
X191999500Y-208125196D01*
X192035135Y-208373044D01*
X192035136Y-208373048D01*
X192105676Y-208613291D01*
X192105678Y-208613297D01*
X192209695Y-208841061D01*
X192209705Y-208841079D01*
X192345068Y-209051708D01*
X192345072Y-209051714D01*
X192509047Y-209240952D01*
X192698285Y-209404927D01*
X192698291Y-209404931D01*
X192879185Y-209521185D01*
X192924940Y-209573989D01*
X192934884Y-209643147D01*
X192905859Y-209706703D01*
X192847081Y-209744477D01*
X192812146Y-209749500D01*
X188624500Y-209749500D01*
X188557461Y-209729815D01*
X188511706Y-209677011D01*
X188500500Y-209625500D01*
X188500500Y-205162472D01*
X188500500Y-205162468D01*
X188470101Y-204990062D01*
X188410225Y-204825555D01*
X188322692Y-204673945D01*
X188322691Y-204673943D01*
X188322690Y-204673942D01*
X188210163Y-204539836D01*
X188076057Y-204427309D01*
X187924446Y-204339775D01*
X187759937Y-204279898D01*
X187587534Y-204249500D01*
X187587532Y-204249500D01*
X187565892Y-204249500D01*
X183565892Y-204249500D01*
X183500000Y-204249500D01*
X183412468Y-204249500D01*
X183412465Y-204249500D01*
X183240062Y-204279898D01*
X183075553Y-204339775D01*
X182923942Y-204427309D01*
X182789836Y-204539836D01*
X182677309Y-204673942D01*
X182589775Y-204825553D01*
X182529898Y-204990062D01*
X182499500Y-205162465D01*
X182499500Y-209625500D01*
X182479815Y-209692539D01*
X182427011Y-209738294D01*
X182375500Y-209749500D01*
X141624500Y-209749500D01*
X141557461Y-209729815D01*
X141511706Y-209677011D01*
X141500500Y-209625500D01*
X141500500Y-205162472D01*
X141500500Y-205162468D01*
X141470101Y-204990062D01*
X141410225Y-204825555D01*
X141322692Y-204673945D01*
X141322691Y-204673943D01*
X141322690Y-204673942D01*
X141210163Y-204539836D01*
X141076057Y-204427309D01*
X140924446Y-204339775D01*
X140759937Y-204279898D01*
X140587534Y-204249500D01*
X140587532Y-204249500D01*
X140565892Y-204249500D01*
X129565892Y-204249500D01*
X129500000Y-204249500D01*
X129412468Y-204249500D01*
X129412465Y-204249500D01*
X129240062Y-204279898D01*
X129075553Y-204339775D01*
X128923942Y-204427309D01*
X128789836Y-204539836D01*
X128677309Y-204673942D01*
X128589775Y-204825553D01*
X128529898Y-204990062D01*
X128499500Y-205162465D01*
X128499500Y-209625500D01*
X128479815Y-209692539D01*
X128427011Y-209738294D01*
X128375500Y-209749500D01*
X122687854Y-209749500D01*
X122620815Y-209729815D01*
X122575060Y-209677011D01*
X122565116Y-209607853D01*
X122594141Y-209544297D01*
X122620815Y-209521185D01*
X122747011Y-209440082D01*
X122801715Y-209404927D01*
X122990952Y-209240952D01*
X123154927Y-209051715D01*
X123290301Y-208841068D01*
X123394320Y-208613300D01*
X123396359Y-208606358D01*
X123460197Y-208388939D01*
X123464864Y-208373046D01*
X123500500Y-208125198D01*
X123500500Y-207874802D01*
X123464864Y-207626954D01*
X123453951Y-207589788D01*
X123394323Y-207386708D01*
X123394321Y-207386702D01*
X123290304Y-207158938D01*
X123290294Y-207158920D01*
X123154931Y-206948291D01*
X123154927Y-206948285D01*
X122990952Y-206759047D01*
X122801714Y-206595072D01*
X122801708Y-206595068D01*
X122591079Y-206459705D01*
X122591061Y-206459695D01*
X122363297Y-206355678D01*
X122363291Y-206355676D01*
X122123048Y-206285136D01*
X122123044Y-206285135D01*
X121946468Y-206259747D01*
X121875198Y-206249500D01*
X121815892Y-206249500D01*
X118815892Y-206249500D01*
X118750000Y-206249500D01*
X118624802Y-206249500D01*
X118589167Y-206254623D01*
X118376955Y-206285135D01*
X118376951Y-206285136D01*
X118136708Y-206355676D01*
X118136702Y-206355678D01*
X117908938Y-206459695D01*
X117908920Y-206459705D01*
X117698291Y-206595068D01*
X117698285Y-206595072D01*
X117509047Y-206759047D01*
X117345072Y-206948285D01*
X117345068Y-206948291D01*
X117209705Y-207158920D01*
X117209695Y-207158938D01*
X117105678Y-207386702D01*
X117105676Y-207386708D01*
X117035136Y-207626951D01*
X117035135Y-207626955D01*
X116999500Y-207874803D01*
X116999500Y-208125196D01*
X117035135Y-208373044D01*
X117035136Y-208373048D01*
X117105676Y-208613291D01*
X117105678Y-208613297D01*
X117209695Y-208841061D01*
X117209705Y-208841079D01*
X117345068Y-209051708D01*
X117345072Y-209051714D01*
X117509047Y-209240952D01*
X117698285Y-209404927D01*
X117698291Y-209404931D01*
X117879185Y-209521185D01*
X117924940Y-209573989D01*
X117934884Y-209643147D01*
X117905859Y-209706703D01*
X117847081Y-209744477D01*
X117812146Y-209749500D01*
X83624500Y-209749500D01*
X83557461Y-209729815D01*
X83511706Y-209677011D01*
X83500500Y-209625500D01*
X83500500Y-208613160D01*
X83485154Y-208501513D01*
X83463235Y-208342035D01*
X83389398Y-208078508D01*
X83321268Y-207921656D01*
X83280366Y-207827490D01*
X83138170Y-207593658D01*
X82965457Y-207381365D01*
X82765439Y-207194560D01*
X82541864Y-207036744D01*
X82541858Y-207036740D01*
X82298860Y-206910829D01*
X82040995Y-206819183D01*
X82040979Y-206819178D01*
X81773040Y-206763501D01*
X81773038Y-206763500D01*
X81500000Y-206744825D01*
X81226961Y-206763500D01*
X81226959Y-206763501D01*
X80959020Y-206819178D01*
X80959004Y-206819183D01*
X80701139Y-206910829D01*
X80458141Y-207036740D01*
X80458135Y-207036744D01*
X80234560Y-207194560D01*
X80034542Y-207381365D01*
X79861829Y-207593658D01*
X79719633Y-207827490D01*
X79610602Y-208078506D01*
X79536766Y-208342029D01*
X79536765Y-208342035D01*
X79499500Y-208613160D01*
X79499500Y-209625500D01*
X79479815Y-209692539D01*
X79427011Y-209738294D01*
X79375500Y-209749500D01*
X66124500Y-209749500D01*
X66057461Y-209729815D01*
X66011706Y-209677011D01*
X66000500Y-209625500D01*
X66000500Y-205162472D01*
X66000500Y-205162468D01*
X65970101Y-204990062D01*
X65910225Y-204825555D01*
X65866603Y-204750000D01*
X69994473Y-204750000D01*
X70014563Y-205082136D01*
X70014563Y-205082141D01*
X70014564Y-205082142D01*
X70074544Y-205409441D01*
X70074545Y-205409445D01*
X70074546Y-205409449D01*
X70173530Y-205727104D01*
X70173534Y-205727116D01*
X70173537Y-205727123D01*
X70310102Y-206030557D01*
X70482246Y-206315318D01*
X70482251Y-206315326D01*
X70687460Y-206577255D01*
X70922744Y-206812539D01*
X71184673Y-207017748D01*
X71184678Y-207017751D01*
X71184682Y-207017754D01*
X71469443Y-207189898D01*
X71772877Y-207326463D01*
X71772890Y-207326467D01*
X71772895Y-207326469D01*
X71949055Y-207381362D01*
X72090559Y-207425456D01*
X72417858Y-207485436D01*
X72750000Y-207505527D01*
X73082142Y-207485436D01*
X73409441Y-207425456D01*
X73727123Y-207326463D01*
X74030557Y-207189898D01*
X74315318Y-207017754D01*
X74577252Y-206812542D01*
X74812542Y-206577252D01*
X74968204Y-206378564D01*
X75017748Y-206315326D01*
X75017748Y-206315324D01*
X75017754Y-206315318D01*
X75189898Y-206030557D01*
X75326463Y-205727123D01*
X75425456Y-205409441D01*
X75485436Y-205082142D01*
X75505527Y-204750000D01*
X75485436Y-204417858D01*
X75425456Y-204090559D01*
X75351159Y-203852130D01*
X75326469Y-203772895D01*
X75326467Y-203772890D01*
X75326463Y-203772877D01*
X75189898Y-203469443D01*
X75017754Y-203184682D01*
X75017751Y-203184678D01*
X75017748Y-203184673D01*
X74812539Y-202922744D01*
X74577255Y-202687460D01*
X74315326Y-202482251D01*
X74315318Y-202482246D01*
X74030557Y-202310102D01*
X73727123Y-202173537D01*
X73727116Y-202173534D01*
X73727104Y-202173530D01*
X73409449Y-202074546D01*
X73409445Y-202074545D01*
X73409441Y-202074544D01*
X73082142Y-202014564D01*
X73082141Y-202014563D01*
X73082136Y-202014563D01*
X72750000Y-201994473D01*
X72417863Y-202014563D01*
X72417858Y-202014564D01*
X72090559Y-202074544D01*
X72090556Y-202074544D01*
X72090550Y-202074546D01*
X71772895Y-202173530D01*
X71772879Y-202173536D01*
X71772877Y-202173537D01*
X71579656Y-202260498D01*
X71469447Y-202310100D01*
X71469445Y-202310101D01*
X71184673Y-202482251D01*
X70922744Y-202687460D01*
X70687460Y-202922744D01*
X70482251Y-203184673D01*
X70383214Y-203348501D01*
X70318107Y-203456202D01*
X70310101Y-203469445D01*
X70310100Y-203469447D01*
X70287059Y-203520642D01*
X70190299Y-203735635D01*
X70173536Y-203772880D01*
X70173530Y-203772895D01*
X70074546Y-204090550D01*
X70074544Y-204090556D01*
X70074544Y-204090559D01*
X70039846Y-204279898D01*
X70014563Y-204417863D01*
X69994473Y-204750000D01*
X65866603Y-204750000D01*
X65822692Y-204673945D01*
X65822691Y-204673943D01*
X65822690Y-204673942D01*
X65710163Y-204539836D01*
X65576057Y-204427309D01*
X65424446Y-204339775D01*
X65259937Y-204279898D01*
X65087534Y-204249500D01*
X65087532Y-204249500D01*
X65065892Y-204249500D01*
X51124500Y-204249500D01*
X51057461Y-204229815D01*
X51011706Y-204177011D01*
X51000500Y-204125500D01*
X51000500Y-153874500D01*
X51020185Y-153807461D01*
X51072989Y-153761706D01*
X51124500Y-153750500D01*
X53087528Y-153750500D01*
X53087532Y-153750500D01*
X53259938Y-153720101D01*
X53424445Y-153660225D01*
X53576055Y-153572692D01*
X53710163Y-153460163D01*
X53822692Y-153326055D01*
X53910225Y-153174445D01*
X53970101Y-153009938D01*
X54000500Y-152837532D01*
X54000500Y-152750000D01*
X54000500Y-152684108D01*
X54000500Y-148184108D01*
X54000500Y-148162468D01*
X53970101Y-147990062D01*
X53910225Y-147825555D01*
X53822692Y-147673945D01*
X53822691Y-147673943D01*
X53822690Y-147673942D01*
X53710163Y-147539836D01*
X53576057Y-147427309D01*
X53424446Y-147339775D01*
X53259937Y-147279898D01*
X53087534Y-147249500D01*
X53087532Y-147249500D01*
X53065892Y-147249500D01*
X51124500Y-147249500D01*
X51057461Y-147229815D01*
X51011706Y-147177011D01*
X51000500Y-147125500D01*
X51000500Y-96874500D01*
X51020185Y-96807461D01*
X51072989Y-96761706D01*
X51124500Y-96750500D01*
X71587528Y-96750500D01*
X71587532Y-96750500D01*
X71759938Y-96720101D01*
X71924445Y-96660225D01*
X72076055Y-96572692D01*
X72210163Y-96460163D01*
X72322692Y-96326055D01*
X72410225Y-96174445D01*
X72470101Y-96009938D01*
X72500500Y-95837532D01*
X72500500Y-95750000D01*
X72500500Y-95684108D01*
X72500500Y-91374500D01*
X72520185Y-91307461D01*
X72572989Y-91261706D01*
X72624500Y-91250500D01*
X79875500Y-91250500D01*
X79942539Y-91270185D01*
X79988294Y-91322989D01*
X79999500Y-91374500D01*
X79999500Y-93386839D01*
X80036765Y-93657964D01*
X80036766Y-93657970D01*
X80110602Y-93921493D01*
X80219633Y-94172509D01*
X80361829Y-94406341D01*
X80361831Y-94406343D01*
X80361832Y-94406345D01*
X80405742Y-94460318D01*
X80534542Y-94618634D01*
X80534545Y-94618636D01*
X80534546Y-94618638D01*
X80569689Y-94651459D01*
X80734560Y-94805439D01*
X80958135Y-94963255D01*
X80958141Y-94963259D01*
X80958143Y-94963260D01*
X81201136Y-95089169D01*
X81201139Y-95089170D01*
X81459004Y-95180816D01*
X81459020Y-95180821D01*
X81649255Y-95220351D01*
X81726960Y-95236498D01*
X81726961Y-95236499D01*
X81744441Y-95237694D01*
X82000000Y-95255175D01*
X82273038Y-95236499D01*
X82393620Y-95211441D01*
X82540979Y-95180821D01*
X82540985Y-95180818D01*
X82540990Y-95180818D01*
X82798864Y-95089169D01*
X83041857Y-94963260D01*
X83265442Y-94805437D01*
X83465454Y-94618638D01*
X83638168Y-94406345D01*
X83780365Y-94172511D01*
X83889398Y-93921492D01*
X83963235Y-93657965D01*
X84000500Y-93386838D01*
X84000500Y-93250000D01*
X84000500Y-93184108D01*
X84000500Y-91374500D01*
X84020185Y-91307461D01*
X84072989Y-91261706D01*
X84124500Y-91250500D01*
X128375500Y-91250500D01*
X128442539Y-91270185D01*
X128488294Y-91322989D01*
X128499500Y-91374500D01*
X128499500Y-95337534D01*
X128529898Y-95509937D01*
X128589775Y-95674446D01*
X128677309Y-95826057D01*
X128789836Y-95960163D01*
X128923942Y-96072690D01*
X128923943Y-96072691D01*
X128923945Y-96072692D01*
X129075555Y-96160225D01*
X129240062Y-96220101D01*
X129412468Y-96250500D01*
X129412472Y-96250500D01*
X142087528Y-96250500D01*
X142087532Y-96250500D01*
X142259938Y-96220101D01*
X142424445Y-96160225D01*
X142576055Y-96072692D01*
X142710163Y-95960163D01*
X142822692Y-95826055D01*
X142910225Y-95674445D01*
X142970101Y-95509938D01*
X143000500Y-95337532D01*
X143000500Y-95250000D01*
X143000500Y-95184108D01*
X143000500Y-94374803D01*
X143999500Y-94374803D01*
X143999500Y-94625196D01*
X144035135Y-94873044D01*
X144035136Y-94873048D01*
X144105676Y-95113291D01*
X144105678Y-95113297D01*
X144209695Y-95341061D01*
X144209705Y-95341079D01*
X144345068Y-95551708D01*
X144345072Y-95551714D01*
X144509047Y-95740952D01*
X144698285Y-95904927D01*
X144698291Y-95904931D01*
X144908920Y-96040294D01*
X144908928Y-96040298D01*
X144908932Y-96040301D01*
X144908935Y-96040302D01*
X144908938Y-96040304D01*
X145136702Y-96144321D01*
X145136708Y-96144323D01*
X145272207Y-96184108D01*
X145376954Y-96214864D01*
X145624802Y-96250500D01*
X145624803Y-96250500D01*
X148875197Y-96250500D01*
X148875198Y-96250500D01*
X149123046Y-96214864D01*
X149309132Y-96160225D01*
X149363291Y-96144323D01*
X149363297Y-96144321D01*
X149363297Y-96144320D01*
X149363300Y-96144320D01*
X149591068Y-96040301D01*
X149801715Y-95904927D01*
X149990952Y-95740952D01*
X150154927Y-95551715D01*
X150290301Y-95341068D01*
X150394320Y-95113300D01*
X150396359Y-95106358D01*
X150438375Y-94963259D01*
X150464864Y-94873046D01*
X150500500Y-94625198D01*
X150500500Y-94374802D01*
X150464864Y-94126954D01*
X150405084Y-93923359D01*
X150394323Y-93886708D01*
X150394321Y-93886702D01*
X150290304Y-93658938D01*
X150290294Y-93658920D01*
X150154931Y-93448291D01*
X150154927Y-93448285D01*
X149990952Y-93259047D01*
X149801714Y-93095072D01*
X149801708Y-93095068D01*
X149591079Y-92959705D01*
X149591061Y-92959695D01*
X149363297Y-92855678D01*
X149363291Y-92855676D01*
X149123048Y-92785136D01*
X149123044Y-92785135D01*
X148946468Y-92759747D01*
X148875198Y-92749500D01*
X148815892Y-92749500D01*
X145815892Y-92749500D01*
X145750000Y-92749500D01*
X145624802Y-92749500D01*
X145589167Y-92754623D01*
X145376955Y-92785135D01*
X145376951Y-92785136D01*
X145136708Y-92855676D01*
X145136702Y-92855678D01*
X144908938Y-92959695D01*
X144908920Y-92959705D01*
X144698291Y-93095068D01*
X144698285Y-93095072D01*
X144509047Y-93259047D01*
X144345072Y-93448285D01*
X144345068Y-93448291D01*
X144209705Y-93658920D01*
X144209695Y-93658938D01*
X144105678Y-93886702D01*
X144105676Y-93886708D01*
X144035136Y-94126951D01*
X144035135Y-94126955D01*
X143999500Y-94374803D01*
X143000500Y-94374803D01*
X143000500Y-91374500D01*
X143020185Y-91307461D01*
X143072989Y-91261706D01*
X143124500Y-91250500D01*
X169727043Y-91250500D01*
X169794082Y-91270185D01*
X169839837Y-91322989D01*
X169849781Y-91392147D01*
X169826310Y-91448811D01*
X169806203Y-91475669D01*
X169806202Y-91475671D01*
X169755908Y-91610517D01*
X169749501Y-91670116D01*
X169749500Y-91670127D01*
X169749500Y-94651454D01*
X169749500Y-94651459D01*
X169749500Y-95848541D01*
X169749500Y-95848543D01*
X169749499Y-95848543D01*
X169787947Y-96041829D01*
X169787950Y-96041839D01*
X169863364Y-96223907D01*
X169863371Y-96223920D01*
X169972860Y-96387781D01*
X169972863Y-96387785D01*
X170112214Y-96527136D01*
X170112218Y-96527139D01*
X170276079Y-96636628D01*
X170276092Y-96636635D01*
X170457001Y-96711569D01*
X170458165Y-96712051D01*
X170458169Y-96712051D01*
X170458170Y-96712052D01*
X170651456Y-96750500D01*
X170651459Y-96750500D01*
X170848543Y-96750500D01*
X171002567Y-96719862D01*
X171041835Y-96712051D01*
X171223914Y-96636632D01*
X171316109Y-96575029D01*
X171382786Y-96554151D01*
X171450166Y-96572635D01*
X171453891Y-96575029D01*
X171545427Y-96636192D01*
X171546086Y-96636632D01*
X171546088Y-96636633D01*
X171546092Y-96636635D01*
X171727001Y-96711569D01*
X171728165Y-96712051D01*
X171728169Y-96712051D01*
X171728170Y-96712052D01*
X171921456Y-96750500D01*
X171921459Y-96750500D01*
X172118543Y-96750500D01*
X172272567Y-96719862D01*
X172311835Y-96712051D01*
X172493914Y-96636632D01*
X172586109Y-96575029D01*
X172652786Y-96554151D01*
X172720166Y-96572635D01*
X172723891Y-96575029D01*
X172815427Y-96636192D01*
X172816086Y-96636632D01*
X172816088Y-96636633D01*
X172816092Y-96636635D01*
X172997001Y-96711569D01*
X172998165Y-96712051D01*
X172998169Y-96712051D01*
X172998170Y-96712052D01*
X173191456Y-96750500D01*
X173191459Y-96750500D01*
X173388543Y-96750500D01*
X173542567Y-96719862D01*
X173581835Y-96712051D01*
X173763914Y-96636632D01*
X173856109Y-96575029D01*
X173922786Y-96554151D01*
X173990166Y-96572635D01*
X173993891Y-96575029D01*
X174085427Y-96636192D01*
X174086086Y-96636632D01*
X174086088Y-96636633D01*
X174086092Y-96636635D01*
X174267001Y-96711569D01*
X174268165Y-96712051D01*
X174268169Y-96712051D01*
X174268170Y-96712052D01*
X174461456Y-96750500D01*
X174461459Y-96750500D01*
X174658543Y-96750500D01*
X174812567Y-96719862D01*
X174851835Y-96712051D01*
X175033914Y-96636632D01*
X175126109Y-96575029D01*
X175192786Y-96554151D01*
X175260166Y-96572635D01*
X175263891Y-96575029D01*
X175355427Y-96636192D01*
X175356086Y-96636632D01*
X175356088Y-96636633D01*
X175356092Y-96636635D01*
X175537001Y-96711569D01*
X175538165Y-96712051D01*
X175538169Y-96712051D01*
X175538170Y-96712052D01*
X175731456Y-96750500D01*
X175731459Y-96750500D01*
X175928543Y-96750500D01*
X176082567Y-96719862D01*
X176121835Y-96712051D01*
X176303914Y-96636632D01*
X176396109Y-96575029D01*
X176462786Y-96554151D01*
X176530166Y-96572635D01*
X176533891Y-96575029D01*
X176625427Y-96636192D01*
X176626086Y-96636632D01*
X176626088Y-96636633D01*
X176626092Y-96636635D01*
X176807001Y-96711569D01*
X176808165Y-96712051D01*
X176808169Y-96712051D01*
X176808170Y-96712052D01*
X177001456Y-96750500D01*
X177001459Y-96750500D01*
X177198543Y-96750500D01*
X177352567Y-96719862D01*
X177391835Y-96712051D01*
X177573914Y-96636632D01*
X177666109Y-96575029D01*
X177732786Y-96554151D01*
X177800166Y-96572635D01*
X177803891Y-96575029D01*
X177895427Y-96636192D01*
X177896086Y-96636632D01*
X177896088Y-96636633D01*
X177896092Y-96636635D01*
X178077001Y-96711569D01*
X178078165Y-96712051D01*
X178078169Y-96712051D01*
X178078170Y-96712052D01*
X178271456Y-96750500D01*
X178271459Y-96750500D01*
X178468543Y-96750500D01*
X178622567Y-96719862D01*
X178661835Y-96712051D01*
X178843914Y-96636632D01*
X178936109Y-96575029D01*
X179002786Y-96554151D01*
X179070166Y-96572635D01*
X179073891Y-96575029D01*
X179165427Y-96636192D01*
X179166086Y-96636632D01*
X179166088Y-96636633D01*
X179166092Y-96636635D01*
X179347001Y-96711569D01*
X179348165Y-96712051D01*
X179348169Y-96712051D01*
X179348170Y-96712052D01*
X179541456Y-96750500D01*
X179541459Y-96750500D01*
X179738543Y-96750500D01*
X179892567Y-96719862D01*
X179931835Y-96712051D01*
X180113914Y-96636632D01*
X180206109Y-96575029D01*
X180272786Y-96554151D01*
X180340166Y-96572635D01*
X180343891Y-96575029D01*
X180435427Y-96636192D01*
X180436086Y-96636632D01*
X180436088Y-96636633D01*
X180436092Y-96636635D01*
X180617001Y-96711569D01*
X180618165Y-96712051D01*
X180618169Y-96712051D01*
X180618170Y-96712052D01*
X180811456Y-96750500D01*
X180811459Y-96750500D01*
X181008543Y-96750500D01*
X181162567Y-96719862D01*
X181201835Y-96712051D01*
X181383914Y-96636632D01*
X181476109Y-96575029D01*
X181542786Y-96554151D01*
X181610166Y-96572635D01*
X181613891Y-96575029D01*
X181705427Y-96636192D01*
X181706086Y-96636632D01*
X181706088Y-96636633D01*
X181706092Y-96636635D01*
X181887001Y-96711569D01*
X181888165Y-96712051D01*
X181888169Y-96712051D01*
X181888170Y-96712052D01*
X182081456Y-96750500D01*
X182081459Y-96750500D01*
X182278543Y-96750500D01*
X182432567Y-96719862D01*
X182471835Y-96712051D01*
X182653914Y-96636632D01*
X182656602Y-96634835D01*
X182658226Y-96634326D01*
X182659289Y-96633759D01*
X182659396Y-96633960D01*
X182723276Y-96613953D01*
X182790658Y-96632432D01*
X182837353Y-96684407D01*
X182849500Y-96737933D01*
X182849500Y-97579903D01*
X182829815Y-97646942D01*
X182813181Y-97667584D01*
X180017084Y-100463681D01*
X179955761Y-100497166D01*
X179929403Y-100500000D01*
X176045499Y-100500000D01*
X176035261Y-100499577D01*
X176034337Y-100499500D01*
X176034335Y-100499500D01*
X175785665Y-100499500D01*
X175785662Y-100499500D01*
X175784739Y-100499577D01*
X175774501Y-100500000D01*
X170965499Y-100500000D01*
X170955261Y-100499577D01*
X170954337Y-100499500D01*
X170954335Y-100499500D01*
X170705665Y-100499500D01*
X170705662Y-100499500D01*
X170704739Y-100499577D01*
X170694501Y-100500000D01*
X165885499Y-100500000D01*
X165875261Y-100499577D01*
X165874337Y-100499500D01*
X165874335Y-100499500D01*
X165625665Y-100499500D01*
X165625662Y-100499500D01*
X165624739Y-100499577D01*
X165614501Y-100500000D01*
X158045499Y-100500000D01*
X158035261Y-100499577D01*
X158034337Y-100499500D01*
X158034335Y-100499500D01*
X157785665Y-100499500D01*
X157785662Y-100499500D01*
X157784739Y-100499577D01*
X157774501Y-100500000D01*
X152965499Y-100500000D01*
X152955261Y-100499577D01*
X152954337Y-100499500D01*
X152954335Y-100499500D01*
X152705665Y-100499500D01*
X152705662Y-100499500D01*
X152704739Y-100499577D01*
X152694501Y-100500000D01*
X147885499Y-100500000D01*
X147875261Y-100499577D01*
X147874337Y-100499500D01*
X147874335Y-100499500D01*
X147625665Y-100499500D01*
X147625662Y-100499500D01*
X147624739Y-100499577D01*
X147614501Y-100500000D01*
X140045499Y-100500000D01*
X140035261Y-100499577D01*
X140034337Y-100499500D01*
X140034335Y-100499500D01*
X139785665Y-100499500D01*
X139785662Y-100499500D01*
X139784739Y-100499577D01*
X139774501Y-100500000D01*
X134965499Y-100500000D01*
X134955261Y-100499577D01*
X134954337Y-100499500D01*
X134954335Y-100499500D01*
X134705665Y-100499500D01*
X134705662Y-100499500D01*
X134704739Y-100499577D01*
X134694501Y-100500000D01*
X129885499Y-100500000D01*
X129875261Y-100499577D01*
X129874337Y-100499500D01*
X129874335Y-100499500D01*
X129625665Y-100499500D01*
X129625662Y-100499500D01*
X129624739Y-100499577D01*
X129614501Y-100500000D01*
X122045499Y-100500000D01*
X122035261Y-100499577D01*
X122034337Y-100499500D01*
X122034335Y-100499500D01*
X121785665Y-100499500D01*
X121785662Y-100499500D01*
X121784739Y-100499577D01*
X121774501Y-100500000D01*
X116965499Y-100500000D01*
X116955261Y-100499577D01*
X116954337Y-100499500D01*
X116954335Y-100499500D01*
X116705665Y-100499500D01*
X116705662Y-100499500D01*
X116704739Y-100499577D01*
X116694501Y-100500000D01*
X111885499Y-100500000D01*
X111875261Y-100499577D01*
X111874337Y-100499500D01*
X111874335Y-100499500D01*
X111625665Y-100499500D01*
X111625662Y-100499500D01*
X111624739Y-100499577D01*
X111614501Y-100500000D01*
X104045499Y-100500000D01*
X104035261Y-100499577D01*
X104034337Y-100499500D01*
X104034335Y-100499500D01*
X103785665Y-100499500D01*
X103785662Y-100499500D01*
X103784739Y-100499577D01*
X103774501Y-100500000D01*
X98965499Y-100500000D01*
X98955261Y-100499577D01*
X98954337Y-100499500D01*
X98954335Y-100499500D01*
X98705665Y-100499500D01*
X98705662Y-100499500D01*
X98704739Y-100499577D01*
X98694501Y-100500000D01*
X93885499Y-100500000D01*
X93875261Y-100499577D01*
X93874337Y-100499500D01*
X93874335Y-100499500D01*
X93625665Y-100499500D01*
X93625662Y-100499500D01*
X93624739Y-100499577D01*
X93614501Y-100500000D01*
X86045499Y-100500000D01*
X86035261Y-100499577D01*
X86034337Y-100499500D01*
X86034335Y-100499500D01*
X85785665Y-100499500D01*
X85785662Y-100499500D01*
X85784739Y-100499577D01*
X85774501Y-100500000D01*
X80965499Y-100500000D01*
X80955261Y-100499577D01*
X80954337Y-100499500D01*
X80954335Y-100499500D01*
X80705665Y-100499500D01*
X80705662Y-100499500D01*
X80704739Y-100499577D01*
X80694501Y-100500000D01*
X75885499Y-100500000D01*
X75875261Y-100499577D01*
X75874337Y-100499500D01*
X75874335Y-100499500D01*
X75625665Y-100499500D01*
X75625662Y-100499500D01*
X75624739Y-100499577D01*
X75614501Y-100500000D01*
X68045499Y-100500000D01*
X68035261Y-100499577D01*
X68034337Y-100499500D01*
X68034335Y-100499500D01*
X67785665Y-100499500D01*
X67785662Y-100499500D01*
X67784739Y-100499577D01*
X67774501Y-100500000D01*
X62965499Y-100500000D01*
X62955261Y-100499577D01*
X62954337Y-100499500D01*
X62954335Y-100499500D01*
X62705665Y-100499500D01*
X62705662Y-100499500D01*
X62704739Y-100499577D01*
X62694501Y-100500000D01*
X57885499Y-100500000D01*
X57875261Y-100499577D01*
X57874337Y-100499500D01*
X57874335Y-100499500D01*
X57625665Y-100499500D01*
X57625662Y-100499500D01*
X57624739Y-100499577D01*
X57614501Y-100500000D01*
X56250000Y-100500000D01*
X56250000Y-101926775D01*
X56249576Y-101937016D01*
X56244357Y-101999995D01*
X56244357Y-102000004D01*
X56249576Y-102062982D01*
X56250000Y-102073223D01*
X56250000Y-137926775D01*
X56249576Y-137937016D01*
X56244357Y-137999995D01*
X56244357Y-138000004D01*
X56249576Y-138062982D01*
X56250000Y-138073223D01*
X56250000Y-191926775D01*
X56249576Y-191937016D01*
X56244357Y-191999995D01*
X56244357Y-192000004D01*
X56249576Y-192062982D01*
X56250000Y-192073223D01*
X56250000Y-202500000D01*
X61135239Y-202500000D01*
X61202278Y-202519685D01*
X61222919Y-202536318D01*
X61757120Y-203070520D01*
X61757122Y-203070521D01*
X61757126Y-203070524D01*
X61845310Y-203121436D01*
X61894052Y-203149577D01*
X62046779Y-203190501D01*
X62046781Y-203190501D01*
X62212490Y-203190501D01*
X62212506Y-203190500D01*
X63447495Y-203190500D01*
X63447511Y-203190501D01*
X63455107Y-203190501D01*
X63613218Y-203190501D01*
X63613221Y-203190501D01*
X63765949Y-203149577D01*
X63776966Y-203143215D01*
X63818077Y-203119481D01*
X63818078Y-203119480D01*
X63902880Y-203070520D01*
X64014684Y-202958716D01*
X64014684Y-202958714D01*
X64024888Y-202948511D01*
X64024891Y-202948506D01*
X66086581Y-200886819D01*
X66147904Y-200853334D01*
X66174262Y-200850500D01*
X76920053Y-200850500D01*
X76987092Y-200870185D01*
X77007734Y-200886819D01*
X79475289Y-203354374D01*
X79475299Y-203354385D01*
X79479629Y-203358715D01*
X79479630Y-203358716D01*
X79591434Y-203470520D01*
X79678245Y-203520639D01*
X79678247Y-203520641D01*
X79716023Y-203542451D01*
X79728365Y-203549577D01*
X79881093Y-203590500D01*
X120634703Y-203590500D01*
X120634719Y-203590501D01*
X120642315Y-203590501D01*
X120800426Y-203590501D01*
X120800429Y-203590501D01*
X120953157Y-203549577D01*
X121003276Y-203520639D01*
X121090088Y-203470520D01*
X121201892Y-203358716D01*
X121201892Y-203358714D01*
X121212100Y-203348507D01*
X121212101Y-203348504D01*
X123108120Y-201452486D01*
X128579500Y-201452486D01*
X128579500Y-201747513D01*
X128601816Y-201917011D01*
X128618007Y-202039993D01*
X128690382Y-202310101D01*
X128694361Y-202324951D01*
X128694364Y-202324961D01*
X128807254Y-202597500D01*
X128807258Y-202597510D01*
X128954761Y-202852993D01*
X129134352Y-203087040D01*
X129134358Y-203087047D01*
X129342952Y-203295641D01*
X129342959Y-203295647D01*
X129577006Y-203475238D01*
X129832489Y-203622741D01*
X129832490Y-203622741D01*
X129832493Y-203622743D01*
X130105048Y-203735639D01*
X130390007Y-203811993D01*
X130682494Y-203850500D01*
X130682501Y-203850500D01*
X130977499Y-203850500D01*
X130977506Y-203850500D01*
X131269993Y-203811993D01*
X131554952Y-203735639D01*
X131827507Y-203622743D01*
X132082994Y-203475238D01*
X132317042Y-203295646D01*
X132525646Y-203087042D01*
X132705238Y-202852994D01*
X132852743Y-202597507D01*
X132965639Y-202324952D01*
X133041993Y-202039993D01*
X133080500Y-201747506D01*
X133080500Y-201452494D01*
X133041993Y-201160007D01*
X132965639Y-200875048D01*
X132852743Y-200602493D01*
X132810532Y-200529382D01*
X132705238Y-200347006D01*
X132525647Y-200112959D01*
X132525641Y-200112952D01*
X132317047Y-199904358D01*
X132317040Y-199904352D01*
X132082993Y-199724761D01*
X131827510Y-199577258D01*
X131827500Y-199577254D01*
X131554961Y-199464364D01*
X131554954Y-199464362D01*
X131554952Y-199464361D01*
X131269993Y-199388007D01*
X131221113Y-199381571D01*
X130977513Y-199349500D01*
X130977506Y-199349500D01*
X130682494Y-199349500D01*
X130682486Y-199349500D01*
X130404085Y-199386153D01*
X130390007Y-199388007D01*
X130166586Y-199447872D01*
X130105048Y-199464361D01*
X130105038Y-199464364D01*
X129832499Y-199577254D01*
X129832489Y-199577258D01*
X129577006Y-199724761D01*
X129342959Y-199904352D01*
X129342952Y-199904358D01*
X129134358Y-200112952D01*
X129134352Y-200112959D01*
X128954761Y-200347006D01*
X128807258Y-200602489D01*
X128807254Y-200602499D01*
X128694364Y-200875038D01*
X128694361Y-200875048D01*
X128618008Y-201160004D01*
X128618006Y-201160015D01*
X128579500Y-201452486D01*
X123108120Y-201452486D01*
X125623789Y-198936819D01*
X125685112Y-198903334D01*
X125711470Y-198900500D01*
X166101425Y-198900500D01*
X166168464Y-198920185D01*
X166189105Y-198936818D01*
X169922806Y-202670520D01*
X169922808Y-202670521D01*
X169922812Y-202670524D01*
X170056792Y-202747876D01*
X170059738Y-202749577D01*
X170212465Y-202790501D01*
X170212467Y-202790501D01*
X170378176Y-202790501D01*
X170378192Y-202790500D01*
X171473331Y-202790500D01*
X171473347Y-202790501D01*
X171480943Y-202790501D01*
X171639054Y-202790501D01*
X171639057Y-202790501D01*
X171791785Y-202749577D01*
X171803265Y-202742948D01*
X171846104Y-202718216D01*
X171846105Y-202718215D01*
X171928716Y-202670520D01*
X172040520Y-202558716D01*
X172040520Y-202558714D01*
X172050724Y-202548511D01*
X172050727Y-202548506D01*
X175262416Y-199336819D01*
X175323739Y-199303334D01*
X175350097Y-199300500D01*
X209877253Y-199300500D01*
X209944292Y-199320185D01*
X209990047Y-199372989D01*
X209999991Y-199442147D01*
X209970966Y-199505703D01*
X209924706Y-199539061D01*
X209832499Y-199577254D01*
X209832489Y-199577258D01*
X209577006Y-199724761D01*
X209342959Y-199904352D01*
X209342952Y-199904358D01*
X209134358Y-200112952D01*
X209134352Y-200112959D01*
X208954761Y-200347006D01*
X208807258Y-200602489D01*
X208807254Y-200602499D01*
X208694364Y-200875038D01*
X208694361Y-200875048D01*
X208618008Y-201160004D01*
X208618006Y-201160015D01*
X208579500Y-201452486D01*
X208579500Y-201747513D01*
X208601816Y-201917011D01*
X208618007Y-202039993D01*
X208690382Y-202310101D01*
X208694361Y-202324951D01*
X208694364Y-202324961D01*
X208807254Y-202597500D01*
X208807258Y-202597510D01*
X208954761Y-202852993D01*
X209134352Y-203087040D01*
X209134358Y-203087047D01*
X209342952Y-203295641D01*
X209342959Y-203295647D01*
X209577006Y-203475238D01*
X209832489Y-203622741D01*
X209832490Y-203622741D01*
X209832493Y-203622743D01*
X210105048Y-203735639D01*
X210390007Y-203811993D01*
X210682494Y-203850500D01*
X210682501Y-203850500D01*
X210977499Y-203850500D01*
X210977506Y-203850500D01*
X211269993Y-203811993D01*
X211554952Y-203735639D01*
X211827507Y-203622743D01*
X212082994Y-203475238D01*
X212317042Y-203295646D01*
X212525646Y-203087042D01*
X212705238Y-202852994D01*
X212852743Y-202597507D01*
X212965639Y-202324952D01*
X213041993Y-202039993D01*
X213080500Y-201747506D01*
X213080500Y-201452494D01*
X213041993Y-201160007D01*
X213014224Y-201056371D01*
X213015887Y-200986526D01*
X213055049Y-200928663D01*
X213119278Y-200901159D01*
X213188180Y-200912745D01*
X213221680Y-200936601D01*
X215639453Y-203354374D01*
X215639463Y-203354385D01*
X215643793Y-203358715D01*
X215643794Y-203358716D01*
X215755598Y-203470520D01*
X215842409Y-203520639D01*
X215842411Y-203520641D01*
X215880187Y-203542451D01*
X215892529Y-203549577D01*
X216045257Y-203590500D01*
X243864217Y-203590500D01*
X243931256Y-203610185D01*
X243951898Y-203626819D01*
X245989453Y-205664374D01*
X245989463Y-205664385D01*
X245993793Y-205668715D01*
X245993794Y-205668716D01*
X246105598Y-205780520D01*
X246105600Y-205780521D01*
X246105604Y-205780524D01*
X246242523Y-205859573D01*
X246242530Y-205859577D01*
X246354333Y-205889534D01*
X246395256Y-205900500D01*
X246395257Y-205900500D01*
X291737495Y-205900500D01*
X291737511Y-205900501D01*
X291745107Y-205900501D01*
X291903218Y-205900501D01*
X291903221Y-205900501D01*
X292055949Y-205859577D01*
X292106068Y-205830639D01*
X292192880Y-205780520D01*
X292304684Y-205668716D01*
X292304684Y-205668714D01*
X292314892Y-205658507D01*
X292314893Y-205658504D01*
X293736580Y-204236819D01*
X293797903Y-204203334D01*
X293824261Y-204200500D01*
X304663331Y-204200500D01*
X304663347Y-204200501D01*
X304670943Y-204200501D01*
X304829054Y-204200501D01*
X304829057Y-204200501D01*
X304981785Y-204159577D01*
X305031904Y-204130639D01*
X305118716Y-204080520D01*
X305230520Y-203968716D01*
X305230520Y-203968714D01*
X305240728Y-203958507D01*
X305240729Y-203958504D01*
X306372416Y-202826819D01*
X306433739Y-202793334D01*
X306460097Y-202790500D01*
X310473331Y-202790500D01*
X310473347Y-202790501D01*
X310480943Y-202790501D01*
X310639054Y-202790501D01*
X310639057Y-202790501D01*
X310791785Y-202749577D01*
X310803265Y-202742948D01*
X310846104Y-202718216D01*
X310846105Y-202718215D01*
X310928716Y-202670520D01*
X311040520Y-202558716D01*
X311040520Y-202558714D01*
X311050726Y-202548509D01*
X311050728Y-202548505D01*
X311062921Y-202536313D01*
X311124243Y-202502833D01*
X311150596Y-202500000D01*
X316500000Y-202500000D01*
X316500000Y-100500000D01*
X315045499Y-100500000D01*
X315035261Y-100499577D01*
X315034337Y-100499500D01*
X315034335Y-100499500D01*
X314785665Y-100499500D01*
X314785662Y-100499500D01*
X314784739Y-100499577D01*
X314774501Y-100500000D01*
X309965499Y-100500000D01*
X309955261Y-100499577D01*
X309954337Y-100499500D01*
X309954335Y-100499500D01*
X309705665Y-100499500D01*
X309705662Y-100499500D01*
X309704739Y-100499577D01*
X309694501Y-100500000D01*
X304885499Y-100500000D01*
X304875261Y-100499577D01*
X304874337Y-100499500D01*
X304874335Y-100499500D01*
X304625665Y-100499500D01*
X304625662Y-100499500D01*
X304624739Y-100499577D01*
X304614501Y-100500000D01*
X299045499Y-100500000D01*
X299035261Y-100499577D01*
X299034337Y-100499500D01*
X299034335Y-100499500D01*
X298785665Y-100499500D01*
X298785662Y-100499500D01*
X298784739Y-100499577D01*
X298774501Y-100500000D01*
X293965499Y-100500000D01*
X293955261Y-100499577D01*
X293954337Y-100499500D01*
X293954335Y-100499500D01*
X293705665Y-100499500D01*
X293705662Y-100499500D01*
X293704739Y-100499577D01*
X293694501Y-100500000D01*
X288885499Y-100500000D01*
X288875261Y-100499577D01*
X288874337Y-100499500D01*
X288874335Y-100499500D01*
X288625665Y-100499500D01*
X288625662Y-100499500D01*
X288624739Y-100499577D01*
X288614501Y-100500000D01*
X283045499Y-100500000D01*
X283035261Y-100499577D01*
X283034337Y-100499500D01*
X283034335Y-100499500D01*
X282785665Y-100499500D01*
X282785662Y-100499500D01*
X282784739Y-100499577D01*
X282774501Y-100500000D01*
X277965499Y-100500000D01*
X277955261Y-100499577D01*
X277954337Y-100499500D01*
X277954335Y-100499500D01*
X277705665Y-100499500D01*
X277705662Y-100499500D01*
X277704739Y-100499577D01*
X277694501Y-100500000D01*
X272885499Y-100500000D01*
X272875261Y-100499577D01*
X272874337Y-100499500D01*
X272874335Y-100499500D01*
X272625665Y-100499500D01*
X272625662Y-100499500D01*
X272624739Y-100499577D01*
X272614501Y-100500000D01*
X266045499Y-100500000D01*
X266035261Y-100499577D01*
X266034337Y-100499500D01*
X266034335Y-100499500D01*
X265785665Y-100499500D01*
X265785662Y-100499500D01*
X265784739Y-100499577D01*
X265774501Y-100500000D01*
X260965499Y-100500000D01*
X260955261Y-100499577D01*
X260954337Y-100499500D01*
X260954335Y-100499500D01*
X260705665Y-100499500D01*
X260705662Y-100499500D01*
X260704739Y-100499577D01*
X260694501Y-100500000D01*
X255885499Y-100500000D01*
X255875261Y-100499577D01*
X255874337Y-100499500D01*
X255874335Y-100499500D01*
X255625665Y-100499500D01*
X255625662Y-100499500D01*
X255624739Y-100499577D01*
X255614501Y-100500000D01*
X248045499Y-100500000D01*
X248035261Y-100499577D01*
X248034337Y-100499500D01*
X248034335Y-100499500D01*
X247785665Y-100499500D01*
X247785662Y-100499500D01*
X247784739Y-100499577D01*
X247774501Y-100500000D01*
X242965499Y-100500000D01*
X242955261Y-100499577D01*
X242954337Y-100499500D01*
X242954335Y-100499500D01*
X242705665Y-100499500D01*
X242705662Y-100499500D01*
X242704739Y-100499577D01*
X242694501Y-100500000D01*
X240120447Y-100500000D01*
X240053408Y-100480315D01*
X240032766Y-100463681D01*
X237107440Y-97538355D01*
X237107438Y-97538352D01*
X236988567Y-97419481D01*
X236988559Y-97419475D01*
X236900639Y-97368715D01*
X236900638Y-97368715D01*
X236879927Y-97356757D01*
X236851635Y-97340423D01*
X236698907Y-97299499D01*
X236540793Y-97299499D01*
X236533197Y-97299499D01*
X236533181Y-97299500D01*
X194334500Y-97299500D01*
X194267461Y-97279815D01*
X194221706Y-97227011D01*
X194210500Y-97175500D01*
X194210500Y-96737933D01*
X194230185Y-96670894D01*
X194282989Y-96625139D01*
X194352147Y-96615195D01*
X194400690Y-96633797D01*
X194400711Y-96633759D01*
X194401021Y-96633924D01*
X194403396Y-96634835D01*
X194406079Y-96636627D01*
X194406086Y-96636632D01*
X194406092Y-96636635D01*
X194587001Y-96711569D01*
X194588165Y-96712051D01*
X194588169Y-96712051D01*
X194588170Y-96712052D01*
X194781456Y-96750500D01*
X194781459Y-96750500D01*
X194978543Y-96750500D01*
X195132567Y-96719862D01*
X195171835Y-96712051D01*
X195353914Y-96636632D01*
X195446109Y-96575029D01*
X195512786Y-96554151D01*
X195580166Y-96572635D01*
X195583891Y-96575029D01*
X195675427Y-96636192D01*
X195676086Y-96636632D01*
X195676088Y-96636633D01*
X195676092Y-96636635D01*
X195857001Y-96711569D01*
X195858165Y-96712051D01*
X195858169Y-96712051D01*
X195858170Y-96712052D01*
X196051456Y-96750500D01*
X196051459Y-96750500D01*
X196248543Y-96750500D01*
X196402567Y-96719862D01*
X196441835Y-96712051D01*
X196623914Y-96636632D01*
X196623919Y-96636628D01*
X196623922Y-96636627D01*
X196655997Y-96615195D01*
X196716559Y-96574728D01*
X196783234Y-96553850D01*
X196850614Y-96572334D01*
X196854341Y-96574728D01*
X196946321Y-96636188D01*
X196946328Y-96636192D01*
X197128308Y-96711569D01*
X197170000Y-96719862D01*
X197670000Y-96719862D01*
X197711690Y-96711569D01*
X197711692Y-96711569D01*
X197893671Y-96636192D01*
X197986108Y-96574427D01*
X198052786Y-96553549D01*
X198120166Y-96572033D01*
X198123892Y-96574427D01*
X198216328Y-96636192D01*
X198398308Y-96711569D01*
X198440000Y-96719862D01*
X198940000Y-96719862D01*
X198981690Y-96711569D01*
X198981692Y-96711569D01*
X199163671Y-96636192D01*
X199256108Y-96574427D01*
X199322786Y-96553549D01*
X199390166Y-96572033D01*
X199393892Y-96574427D01*
X199486328Y-96636192D01*
X199668308Y-96711569D01*
X199710000Y-96719862D01*
X200210000Y-96719862D01*
X200251690Y-96711569D01*
X200251692Y-96711569D01*
X200433671Y-96636192D01*
X200526108Y-96574427D01*
X200592786Y-96553549D01*
X200660166Y-96572033D01*
X200663892Y-96574427D01*
X200756328Y-96636192D01*
X200938308Y-96711569D01*
X200980000Y-96719862D01*
X201480000Y-96719862D01*
X201521690Y-96711569D01*
X201521692Y-96711569D01*
X201703671Y-96636192D01*
X201796108Y-96574427D01*
X201862786Y-96553549D01*
X201930166Y-96572033D01*
X201933892Y-96574427D01*
X202026328Y-96636192D01*
X202208308Y-96711569D01*
X202250000Y-96719862D01*
X202750000Y-96719862D01*
X202791690Y-96711569D01*
X202791692Y-96711569D01*
X202973671Y-96636192D01*
X203066108Y-96574427D01*
X203132786Y-96553549D01*
X203200166Y-96572033D01*
X203203892Y-96574427D01*
X203296328Y-96636192D01*
X203478308Y-96711569D01*
X203520000Y-96719862D01*
X204020000Y-96719862D01*
X204061690Y-96711569D01*
X204061692Y-96711569D01*
X204243671Y-96636192D01*
X204336108Y-96574427D01*
X204402786Y-96553549D01*
X204470166Y-96572033D01*
X204473892Y-96574427D01*
X204566328Y-96636192D01*
X204748308Y-96711569D01*
X204790000Y-96719862D01*
X205290000Y-96719862D01*
X205331690Y-96711569D01*
X205331692Y-96711569D01*
X205513671Y-96636192D01*
X205513684Y-96636185D01*
X205677462Y-96526751D01*
X205677466Y-96526748D01*
X205816748Y-96387466D01*
X205816751Y-96387462D01*
X205926185Y-96223684D01*
X205926192Y-96223671D01*
X206001569Y-96041693D01*
X206001572Y-96041681D01*
X206039999Y-95848495D01*
X206040000Y-95848492D01*
X206040000Y-95500000D01*
X205290000Y-95500000D01*
X205290000Y-96719862D01*
X204790000Y-96719862D01*
X204790000Y-95500000D01*
X204020000Y-95500000D01*
X204020000Y-96719862D01*
X203520000Y-96719862D01*
X203520000Y-95500000D01*
X202750000Y-95500000D01*
X202750000Y-96719862D01*
X202250000Y-96719862D01*
X202250000Y-95500000D01*
X201480000Y-95500000D01*
X201480000Y-96719862D01*
X200980000Y-96719862D01*
X200980000Y-95500000D01*
X200210000Y-95500000D01*
X200210000Y-96719862D01*
X199710000Y-96719862D01*
X199710000Y-95500000D01*
X198940000Y-95500000D01*
X198940000Y-96719862D01*
X198440000Y-96719862D01*
X198440000Y-95500000D01*
X197670000Y-95500000D01*
X197670000Y-96719862D01*
X197170000Y-96719862D01*
X197170000Y-95494975D01*
X197205095Y-95530070D01*
X197284905Y-95576148D01*
X197373922Y-95600000D01*
X197466078Y-95600000D01*
X197555095Y-95576148D01*
X197634905Y-95530070D01*
X197700070Y-95464905D01*
X197746148Y-95385095D01*
X197770000Y-95296078D01*
X197770000Y-95203922D01*
X198340000Y-95203922D01*
X198340000Y-95296078D01*
X198363852Y-95385095D01*
X198409930Y-95464905D01*
X198475095Y-95530070D01*
X198554905Y-95576148D01*
X198643922Y-95600000D01*
X198736078Y-95600000D01*
X198825095Y-95576148D01*
X198904905Y-95530070D01*
X198970070Y-95464905D01*
X199016148Y-95385095D01*
X199040000Y-95296078D01*
X199040000Y-95203922D01*
X199610000Y-95203922D01*
X199610000Y-95296078D01*
X199633852Y-95385095D01*
X199679930Y-95464905D01*
X199745095Y-95530070D01*
X199824905Y-95576148D01*
X199913922Y-95600000D01*
X200006078Y-95600000D01*
X200095095Y-95576148D01*
X200174905Y-95530070D01*
X200240070Y-95464905D01*
X200286148Y-95385095D01*
X200310000Y-95296078D01*
X200310000Y-95203922D01*
X200880000Y-95203922D01*
X200880000Y-95296078D01*
X200903852Y-95385095D01*
X200949930Y-95464905D01*
X201015095Y-95530070D01*
X201094905Y-95576148D01*
X201183922Y-95600000D01*
X201276078Y-95600000D01*
X201365095Y-95576148D01*
X201444905Y-95530070D01*
X201510070Y-95464905D01*
X201556148Y-95385095D01*
X201580000Y-95296078D01*
X201580000Y-95203922D01*
X202150000Y-95203922D01*
X202150000Y-95296078D01*
X202173852Y-95385095D01*
X202219930Y-95464905D01*
X202285095Y-95530070D01*
X202364905Y-95576148D01*
X202453922Y-95600000D01*
X202546078Y-95600000D01*
X202635095Y-95576148D01*
X202714905Y-95530070D01*
X202780070Y-95464905D01*
X202826148Y-95385095D01*
X202850000Y-95296078D01*
X202850000Y-95203922D01*
X203420000Y-95203922D01*
X203420000Y-95296078D01*
X203443852Y-95385095D01*
X203489930Y-95464905D01*
X203555095Y-95530070D01*
X203634905Y-95576148D01*
X203723922Y-95600000D01*
X203816078Y-95600000D01*
X203905095Y-95576148D01*
X203984905Y-95530070D01*
X204050070Y-95464905D01*
X204096148Y-95385095D01*
X204120000Y-95296078D01*
X204120000Y-95203922D01*
X204690000Y-95203922D01*
X204690000Y-95296078D01*
X204713852Y-95385095D01*
X204759930Y-95464905D01*
X204825095Y-95530070D01*
X204904905Y-95576148D01*
X204993922Y-95600000D01*
X205086078Y-95600000D01*
X205175095Y-95576148D01*
X205254905Y-95530070D01*
X205320070Y-95464905D01*
X205366148Y-95385095D01*
X205390000Y-95296078D01*
X205390000Y-95203922D01*
X205366148Y-95114905D01*
X205320070Y-95035095D01*
X205284975Y-95000000D01*
X205290000Y-95000000D01*
X206040000Y-95000000D01*
X206040000Y-93468000D01*
X205290000Y-93468000D01*
X205290000Y-95000000D01*
X205284975Y-95000000D01*
X205254905Y-94969930D01*
X205175095Y-94923852D01*
X205086078Y-94900000D01*
X204993922Y-94900000D01*
X204904905Y-94923852D01*
X204825095Y-94969930D01*
X204759930Y-95035095D01*
X204713852Y-95114905D01*
X204690000Y-95203922D01*
X204120000Y-95203922D01*
X204096148Y-95114905D01*
X204050070Y-95035095D01*
X204014975Y-95000000D01*
X204020000Y-95000000D01*
X204790000Y-95000000D01*
X204790000Y-93468000D01*
X204020000Y-93468000D01*
X204020000Y-95000000D01*
X204014975Y-95000000D01*
X203984905Y-94969930D01*
X203905095Y-94923852D01*
X203816078Y-94900000D01*
X203723922Y-94900000D01*
X203634905Y-94923852D01*
X203555095Y-94969930D01*
X203489930Y-95035095D01*
X203443852Y-95114905D01*
X203420000Y-95203922D01*
X202850000Y-95203922D01*
X202826148Y-95114905D01*
X202780070Y-95035095D01*
X202744975Y-95000000D01*
X202750000Y-95000000D01*
X203520000Y-95000000D01*
X203520000Y-93468000D01*
X202750000Y-93468000D01*
X202750000Y-95000000D01*
X202744975Y-95000000D01*
X202714905Y-94969930D01*
X202635095Y-94923852D01*
X202546078Y-94900000D01*
X202453922Y-94900000D01*
X202364905Y-94923852D01*
X202285095Y-94969930D01*
X202219930Y-95035095D01*
X202173852Y-95114905D01*
X202150000Y-95203922D01*
X201580000Y-95203922D01*
X201556148Y-95114905D01*
X201510070Y-95035095D01*
X201474975Y-95000000D01*
X201480000Y-95000000D01*
X202250000Y-95000000D01*
X202250000Y-93468000D01*
X201480000Y-93468000D01*
X201480000Y-95000000D01*
X201474975Y-95000000D01*
X201444905Y-94969930D01*
X201365095Y-94923852D01*
X201276078Y-94900000D01*
X201183922Y-94900000D01*
X201094905Y-94923852D01*
X201015095Y-94969930D01*
X200949930Y-95035095D01*
X200903852Y-95114905D01*
X200880000Y-95203922D01*
X200310000Y-95203922D01*
X200286148Y-95114905D01*
X200240070Y-95035095D01*
X200204975Y-95000000D01*
X200210000Y-95000000D01*
X200980000Y-95000000D01*
X200980000Y-93468000D01*
X200210000Y-93468000D01*
X200210000Y-95000000D01*
X200204975Y-95000000D01*
X200174905Y-94969930D01*
X200095095Y-94923852D01*
X200006078Y-94900000D01*
X199913922Y-94900000D01*
X199824905Y-94923852D01*
X199745095Y-94969930D01*
X199679930Y-95035095D01*
X199633852Y-95114905D01*
X199610000Y-95203922D01*
X199040000Y-95203922D01*
X199016148Y-95114905D01*
X198970070Y-95035095D01*
X198934975Y-95000000D01*
X198940000Y-95000000D01*
X199710000Y-95000000D01*
X199710000Y-93468000D01*
X198940000Y-93468000D01*
X198940000Y-95000000D01*
X198934975Y-95000000D01*
X198904905Y-94969930D01*
X198825095Y-94923852D01*
X198736078Y-94900000D01*
X198643922Y-94900000D01*
X198554905Y-94923852D01*
X198475095Y-94969930D01*
X198409930Y-95035095D01*
X198363852Y-95114905D01*
X198340000Y-95203922D01*
X197770000Y-95203922D01*
X197746148Y-95114905D01*
X197700070Y-95035095D01*
X197664975Y-95000000D01*
X197670000Y-95000000D01*
X198440000Y-95000000D01*
X198440000Y-93468000D01*
X197670000Y-93468000D01*
X197670000Y-95000000D01*
X197664975Y-95000000D01*
X197634905Y-94969930D01*
X197555095Y-94923852D01*
X197466078Y-94900000D01*
X197373922Y-94900000D01*
X197284905Y-94923852D01*
X197205095Y-94969930D01*
X197170000Y-95005025D01*
X197170000Y-93092000D01*
X197189685Y-93024961D01*
X197242489Y-92979206D01*
X197294000Y-92968000D01*
X206040000Y-92968000D01*
X206040000Y-91670172D01*
X206039999Y-91670155D01*
X206033598Y-91610627D01*
X206033596Y-91610620D01*
X205983354Y-91475913D01*
X205983352Y-91475910D01*
X205963066Y-91448811D01*
X205938649Y-91383347D01*
X205953501Y-91315074D01*
X206002906Y-91265668D01*
X206062333Y-91250500D01*
X229375500Y-91250500D01*
X229442539Y-91270185D01*
X229488294Y-91322989D01*
X229499500Y-91374500D01*
X229499500Y-95337534D01*
X229529898Y-95509937D01*
X229589775Y-95674446D01*
X229677309Y-95826057D01*
X229789836Y-95960163D01*
X229923942Y-96072690D01*
X229923943Y-96072691D01*
X229923945Y-96072692D01*
X230075555Y-96160225D01*
X230240062Y-96220101D01*
X230412468Y-96250500D01*
X230412472Y-96250500D01*
X243087528Y-96250500D01*
X243087532Y-96250500D01*
X243259938Y-96220101D01*
X243424445Y-96160225D01*
X243576055Y-96072692D01*
X243710163Y-95960163D01*
X243822692Y-95826055D01*
X243910225Y-95674445D01*
X243970101Y-95509938D01*
X244000500Y-95337532D01*
X244000500Y-95250000D01*
X244000500Y-95184108D01*
X244000500Y-94374803D01*
X245499500Y-94374803D01*
X245499500Y-94625196D01*
X245535135Y-94873044D01*
X245535136Y-94873048D01*
X245605676Y-95113291D01*
X245605678Y-95113297D01*
X245709695Y-95341061D01*
X245709705Y-95341079D01*
X245845068Y-95551708D01*
X245845072Y-95551714D01*
X246009047Y-95740952D01*
X246198285Y-95904927D01*
X246198291Y-95904931D01*
X246408920Y-96040294D01*
X246408928Y-96040298D01*
X246408932Y-96040301D01*
X246408935Y-96040302D01*
X246408938Y-96040304D01*
X246636702Y-96144321D01*
X246636708Y-96144323D01*
X246772207Y-96184108D01*
X246876954Y-96214864D01*
X247124802Y-96250500D01*
X247124803Y-96250500D01*
X250375197Y-96250500D01*
X250375198Y-96250500D01*
X250623046Y-96214864D01*
X250809132Y-96160225D01*
X250863291Y-96144323D01*
X250863297Y-96144321D01*
X250863297Y-96144320D01*
X250863300Y-96144320D01*
X251091068Y-96040301D01*
X251301715Y-95904927D01*
X251490952Y-95740952D01*
X251654927Y-95551715D01*
X251790301Y-95341068D01*
X251894320Y-95113300D01*
X251896359Y-95106358D01*
X251938375Y-94963259D01*
X251964864Y-94873046D01*
X252000500Y-94625198D01*
X252000500Y-94374802D01*
X251964864Y-94126954D01*
X251905084Y-93923359D01*
X251894323Y-93886708D01*
X251894321Y-93886702D01*
X251790304Y-93658938D01*
X251790294Y-93658920D01*
X251654931Y-93448291D01*
X251654927Y-93448285D01*
X251490952Y-93259047D01*
X251301714Y-93095072D01*
X251301708Y-93095068D01*
X251091079Y-92959705D01*
X251091061Y-92959695D01*
X250863297Y-92855678D01*
X250863291Y-92855676D01*
X250623048Y-92785136D01*
X250623044Y-92785135D01*
X250446468Y-92759747D01*
X250375198Y-92749500D01*
X250315892Y-92749500D01*
X247315892Y-92749500D01*
X247250000Y-92749500D01*
X247124802Y-92749500D01*
X247089167Y-92754623D01*
X246876955Y-92785135D01*
X246876951Y-92785136D01*
X246636708Y-92855676D01*
X246636702Y-92855678D01*
X246408938Y-92959695D01*
X246408920Y-92959705D01*
X246198291Y-93095068D01*
X246198285Y-93095072D01*
X246009047Y-93259047D01*
X245845072Y-93448285D01*
X245845068Y-93448291D01*
X245709705Y-93658920D01*
X245709695Y-93658938D01*
X245605678Y-93886702D01*
X245605676Y-93886708D01*
X245535136Y-94126951D01*
X245535135Y-94126955D01*
X245499500Y-94374803D01*
X244000500Y-94374803D01*
X244000500Y-91374500D01*
X244020185Y-91307461D01*
X244072989Y-91261706D01*
X244124500Y-91250500D01*
X253587528Y-91250500D01*
X253587532Y-91250500D01*
X253759938Y-91220101D01*
X253924445Y-91160225D01*
X254076055Y-91072692D01*
X254210163Y-90960163D01*
X254322692Y-90826055D01*
X254410225Y-90674445D01*
X254470101Y-90509938D01*
X254500500Y-90337532D01*
X254500500Y-90250000D01*
X254500500Y-90184108D01*
X254500500Y-89374500D01*
X254520185Y-89307461D01*
X254572989Y-89261706D01*
X254624500Y-89250500D01*
X293375500Y-89250500D01*
X293442539Y-89270185D01*
G37*
%TD.AperFunction*%
%TA.AperFunction,Conductor*%
G36*
X246442539Y-55020185D02*
G01*
X246488294Y-55072989D01*
X246499500Y-55124500D01*
X246499500Y-81375500D01*
X246479815Y-81442539D01*
X246427011Y-81488294D01*
X246375500Y-81499500D01*
X229434108Y-81499500D01*
X229306812Y-81533608D01*
X229192686Y-81599500D01*
X229192683Y-81599502D01*
X229099502Y-81692683D01*
X229099500Y-81692686D01*
X229033608Y-81806812D01*
X228999500Y-81934108D01*
X228999500Y-86875500D01*
X228979815Y-86942539D01*
X228927011Y-86988294D01*
X228875500Y-86999500D01*
X222624500Y-86999500D01*
X222557461Y-86979815D01*
X222511706Y-86927011D01*
X222500500Y-86875500D01*
X222500500Y-83934110D01*
X222500500Y-83934108D01*
X222466392Y-83806814D01*
X222400500Y-83692686D01*
X222307314Y-83599500D01*
X222250250Y-83566554D01*
X222193187Y-83533608D01*
X222129539Y-83516554D01*
X222065892Y-83499500D01*
X209565892Y-83499500D01*
X209434108Y-83499500D01*
X209306812Y-83533608D01*
X209192686Y-83599500D01*
X209192683Y-83599502D01*
X209099502Y-83692683D01*
X209099500Y-83692686D01*
X209033608Y-83806812D01*
X208999500Y-83934108D01*
X208999500Y-86875500D01*
X208979815Y-86942539D01*
X208927011Y-86988294D01*
X208875500Y-86999500D01*
X206119804Y-86999500D01*
X206052765Y-86979815D01*
X206007010Y-86927011D01*
X205996515Y-86862242D01*
X205999999Y-86829839D01*
X206000000Y-86829827D01*
X206000000Y-85532000D01*
X197254000Y-85532000D01*
X197186961Y-85512315D01*
X197141206Y-85459511D01*
X197130000Y-85408000D01*
X197130000Y-85032000D01*
X197630000Y-85032000D01*
X198400000Y-85032000D01*
X198900000Y-85032000D01*
X199670000Y-85032000D01*
X200170000Y-85032000D01*
X200940000Y-85032000D01*
X201440000Y-85032000D01*
X202210000Y-85032000D01*
X202710000Y-85032000D01*
X203480000Y-85032000D01*
X203980000Y-85032000D01*
X204750000Y-85032000D01*
X205250000Y-85032000D01*
X206000000Y-85032000D01*
X206000000Y-83500000D01*
X205250000Y-83500000D01*
X205250000Y-85032000D01*
X204750000Y-85032000D01*
X204750000Y-83500000D01*
X203980000Y-83500000D01*
X203980000Y-85032000D01*
X203480000Y-85032000D01*
X203480000Y-83500000D01*
X202710000Y-83500000D01*
X202710000Y-85032000D01*
X202210000Y-85032000D01*
X202210000Y-83500000D01*
X201440000Y-83500000D01*
X201440000Y-85032000D01*
X200940000Y-85032000D01*
X200940000Y-83500000D01*
X200170000Y-83500000D01*
X200170000Y-85032000D01*
X199670000Y-85032000D01*
X199670000Y-83500000D01*
X198900000Y-83500000D01*
X198900000Y-85032000D01*
X198400000Y-85032000D01*
X198400000Y-83500000D01*
X197630000Y-83500000D01*
X197630000Y-85032000D01*
X197130000Y-85032000D01*
X197130000Y-83494975D01*
X197165095Y-83530070D01*
X197244905Y-83576148D01*
X197333922Y-83600000D01*
X197426078Y-83600000D01*
X197515095Y-83576148D01*
X197594905Y-83530070D01*
X197660070Y-83464905D01*
X197706148Y-83385095D01*
X197730000Y-83296078D01*
X197730000Y-83203922D01*
X198300000Y-83203922D01*
X198300000Y-83296078D01*
X198323852Y-83385095D01*
X198369930Y-83464905D01*
X198435095Y-83530070D01*
X198514905Y-83576148D01*
X198603922Y-83600000D01*
X198696078Y-83600000D01*
X198785095Y-83576148D01*
X198864905Y-83530070D01*
X198930070Y-83464905D01*
X198976148Y-83385095D01*
X199000000Y-83296078D01*
X199000000Y-83203922D01*
X199570000Y-83203922D01*
X199570000Y-83296078D01*
X199593852Y-83385095D01*
X199639930Y-83464905D01*
X199705095Y-83530070D01*
X199784905Y-83576148D01*
X199873922Y-83600000D01*
X199966078Y-83600000D01*
X200055095Y-83576148D01*
X200134905Y-83530070D01*
X200200070Y-83464905D01*
X200246148Y-83385095D01*
X200270000Y-83296078D01*
X200270000Y-83203922D01*
X200840000Y-83203922D01*
X200840000Y-83296078D01*
X200863852Y-83385095D01*
X200909930Y-83464905D01*
X200975095Y-83530070D01*
X201054905Y-83576148D01*
X201143922Y-83600000D01*
X201236078Y-83600000D01*
X201325095Y-83576148D01*
X201404905Y-83530070D01*
X201470070Y-83464905D01*
X201516148Y-83385095D01*
X201540000Y-83296078D01*
X201540000Y-83203922D01*
X202110000Y-83203922D01*
X202110000Y-83296078D01*
X202133852Y-83385095D01*
X202179930Y-83464905D01*
X202245095Y-83530070D01*
X202324905Y-83576148D01*
X202413922Y-83600000D01*
X202506078Y-83600000D01*
X202595095Y-83576148D01*
X202674905Y-83530070D01*
X202740070Y-83464905D01*
X202786148Y-83385095D01*
X202810000Y-83296078D01*
X202810000Y-83203922D01*
X203380000Y-83203922D01*
X203380000Y-83296078D01*
X203403852Y-83385095D01*
X203449930Y-83464905D01*
X203515095Y-83530070D01*
X203594905Y-83576148D01*
X203683922Y-83600000D01*
X203776078Y-83600000D01*
X203865095Y-83576148D01*
X203944905Y-83530070D01*
X204010070Y-83464905D01*
X204056148Y-83385095D01*
X204080000Y-83296078D01*
X204080000Y-83203922D01*
X204650000Y-83203922D01*
X204650000Y-83296078D01*
X204673852Y-83385095D01*
X204719930Y-83464905D01*
X204785095Y-83530070D01*
X204864905Y-83576148D01*
X204953922Y-83600000D01*
X205046078Y-83600000D01*
X205135095Y-83576148D01*
X205214905Y-83530070D01*
X205280070Y-83464905D01*
X205326148Y-83385095D01*
X205350000Y-83296078D01*
X205350000Y-83203922D01*
X205326148Y-83114905D01*
X205280070Y-83035095D01*
X205244975Y-83000000D01*
X205250000Y-83000000D01*
X206000000Y-83000000D01*
X206000000Y-82651508D01*
X205999999Y-82651504D01*
X205961572Y-82458318D01*
X205961569Y-82458306D01*
X205886192Y-82276328D01*
X205886185Y-82276315D01*
X205776751Y-82112537D01*
X205776748Y-82112533D01*
X205637466Y-81973251D01*
X205637462Y-81973248D01*
X205473684Y-81863814D01*
X205473671Y-81863807D01*
X205291691Y-81788429D01*
X205291683Y-81788427D01*
X205250000Y-81780135D01*
X205250000Y-83000000D01*
X205244975Y-83000000D01*
X205214905Y-82969930D01*
X205135095Y-82923852D01*
X205046078Y-82900000D01*
X204953922Y-82900000D01*
X204864905Y-82923852D01*
X204785095Y-82969930D01*
X204719930Y-83035095D01*
X204673852Y-83114905D01*
X204650000Y-83203922D01*
X204080000Y-83203922D01*
X204056148Y-83114905D01*
X204010070Y-83035095D01*
X203944905Y-82969930D01*
X203865095Y-82923852D01*
X203776078Y-82900000D01*
X203683922Y-82900000D01*
X203594905Y-82923852D01*
X203515095Y-82969930D01*
X203449930Y-83035095D01*
X203403852Y-83114905D01*
X203380000Y-83203922D01*
X202810000Y-83203922D01*
X202786148Y-83114905D01*
X202740070Y-83035095D01*
X202674905Y-82969930D01*
X202595095Y-82923852D01*
X202506078Y-82900000D01*
X202413922Y-82900000D01*
X202324905Y-82923852D01*
X202245095Y-82969930D01*
X202179930Y-83035095D01*
X202133852Y-83114905D01*
X202110000Y-83203922D01*
X201540000Y-83203922D01*
X201516148Y-83114905D01*
X201470070Y-83035095D01*
X201404905Y-82969930D01*
X201325095Y-82923852D01*
X201236078Y-82900000D01*
X201143922Y-82900000D01*
X201054905Y-82923852D01*
X200975095Y-82969930D01*
X200909930Y-83035095D01*
X200863852Y-83114905D01*
X200840000Y-83203922D01*
X200270000Y-83203922D01*
X200246148Y-83114905D01*
X200200070Y-83035095D01*
X200134905Y-82969930D01*
X200055095Y-82923852D01*
X199966078Y-82900000D01*
X199873922Y-82900000D01*
X199784905Y-82923852D01*
X199705095Y-82969930D01*
X199639930Y-83035095D01*
X199593852Y-83114905D01*
X199570000Y-83203922D01*
X199000000Y-83203922D01*
X198976148Y-83114905D01*
X198930070Y-83035095D01*
X198864905Y-82969930D01*
X198785095Y-82923852D01*
X198696078Y-82900000D01*
X198603922Y-82900000D01*
X198514905Y-82923852D01*
X198435095Y-82969930D01*
X198369930Y-83035095D01*
X198323852Y-83114905D01*
X198300000Y-83203922D01*
X197730000Y-83203922D01*
X197706148Y-83114905D01*
X197660070Y-83035095D01*
X197594905Y-82969930D01*
X197515095Y-82923852D01*
X197426078Y-82900000D01*
X197333922Y-82900000D01*
X197244905Y-82923852D01*
X197165095Y-82969930D01*
X197130000Y-83005025D01*
X197130000Y-81780136D01*
X197129999Y-81780135D01*
X197630000Y-81780135D01*
X197630000Y-83000000D01*
X198400000Y-83000000D01*
X198400000Y-81780136D01*
X198399999Y-81780135D01*
X198900000Y-81780135D01*
X198900000Y-83000000D01*
X199670000Y-83000000D01*
X199670000Y-81780136D01*
X199669999Y-81780135D01*
X200170000Y-81780135D01*
X200170000Y-83000000D01*
X200940000Y-83000000D01*
X200940000Y-81780136D01*
X200939999Y-81780135D01*
X201440000Y-81780135D01*
X201440000Y-83000000D01*
X202210000Y-83000000D01*
X202210000Y-81780136D01*
X202209999Y-81780135D01*
X202710000Y-81780135D01*
X202710000Y-83000000D01*
X203480000Y-83000000D01*
X203480000Y-81780136D01*
X203479999Y-81780135D01*
X203980000Y-81780135D01*
X203980000Y-83000000D01*
X204750000Y-83000000D01*
X204750000Y-81780136D01*
X204749999Y-81780135D01*
X204708316Y-81788427D01*
X204708308Y-81788429D01*
X204526328Y-81863807D01*
X204526315Y-81863814D01*
X204433891Y-81925571D01*
X204367214Y-81946449D01*
X204299833Y-81927965D01*
X204296109Y-81925571D01*
X204203684Y-81863814D01*
X204203671Y-81863807D01*
X204021691Y-81788429D01*
X204021683Y-81788427D01*
X203980000Y-81780135D01*
X203479999Y-81780135D01*
X203438316Y-81788427D01*
X203438308Y-81788429D01*
X203256328Y-81863807D01*
X203256315Y-81863814D01*
X203163891Y-81925571D01*
X203097214Y-81946449D01*
X203029833Y-81927965D01*
X203026109Y-81925571D01*
X202933684Y-81863814D01*
X202933671Y-81863807D01*
X202751691Y-81788429D01*
X202751683Y-81788427D01*
X202710000Y-81780135D01*
X202209999Y-81780135D01*
X202168316Y-81788427D01*
X202168308Y-81788429D01*
X201986328Y-81863807D01*
X201986315Y-81863814D01*
X201893891Y-81925571D01*
X201827214Y-81946449D01*
X201759833Y-81927965D01*
X201756109Y-81925571D01*
X201663684Y-81863814D01*
X201663671Y-81863807D01*
X201481691Y-81788429D01*
X201481683Y-81788427D01*
X201440000Y-81780135D01*
X200939999Y-81780135D01*
X200898316Y-81788427D01*
X200898308Y-81788429D01*
X200716328Y-81863807D01*
X200716315Y-81863814D01*
X200623891Y-81925571D01*
X200557214Y-81946449D01*
X200489833Y-81927965D01*
X200486109Y-81925571D01*
X200393684Y-81863814D01*
X200393671Y-81863807D01*
X200211691Y-81788429D01*
X200211683Y-81788427D01*
X200170000Y-81780135D01*
X199669999Y-81780135D01*
X199628316Y-81788427D01*
X199628308Y-81788429D01*
X199446328Y-81863807D01*
X199446315Y-81863814D01*
X199353891Y-81925571D01*
X199287214Y-81946449D01*
X199219833Y-81927965D01*
X199216109Y-81925571D01*
X199123684Y-81863814D01*
X199123671Y-81863807D01*
X198941691Y-81788429D01*
X198941683Y-81788427D01*
X198900000Y-81780135D01*
X198399999Y-81780135D01*
X198358316Y-81788427D01*
X198358308Y-81788429D01*
X198176328Y-81863807D01*
X198176315Y-81863814D01*
X198083891Y-81925571D01*
X198017214Y-81946449D01*
X197949833Y-81927965D01*
X197946109Y-81925571D01*
X197853684Y-81863814D01*
X197853671Y-81863807D01*
X197671691Y-81788429D01*
X197671683Y-81788427D01*
X197630000Y-81780135D01*
X197129999Y-81780135D01*
X197088316Y-81788427D01*
X197088308Y-81788429D01*
X196906325Y-81863809D01*
X196814339Y-81925271D01*
X196747661Y-81946148D01*
X196680281Y-81927663D01*
X196676559Y-81925271D01*
X196615995Y-81884804D01*
X196583914Y-81863368D01*
X196583911Y-81863366D01*
X196583910Y-81863366D01*
X196401839Y-81787950D01*
X196401829Y-81787947D01*
X196208543Y-81749500D01*
X196208541Y-81749500D01*
X196011459Y-81749500D01*
X196011457Y-81749500D01*
X195818170Y-81787947D01*
X195818160Y-81787950D01*
X195636089Y-81863366D01*
X195543890Y-81924971D01*
X195477213Y-81945848D01*
X195409833Y-81927363D01*
X195406110Y-81924971D01*
X195345995Y-81884804D01*
X195313914Y-81863368D01*
X195313911Y-81863366D01*
X195313910Y-81863366D01*
X195131839Y-81787950D01*
X195131829Y-81787947D01*
X194938543Y-81749500D01*
X194938541Y-81749500D01*
X194741459Y-81749500D01*
X194741457Y-81749500D01*
X194548170Y-81787947D01*
X194548160Y-81787950D01*
X194366087Y-81863366D01*
X194363384Y-81865173D01*
X194361753Y-81865683D01*
X194360716Y-81866238D01*
X194360610Y-81866041D01*
X194296705Y-81886046D01*
X194229326Y-81867557D01*
X194182640Y-81815575D01*
X194170500Y-81762066D01*
X194170500Y-79310097D01*
X194190185Y-79243058D01*
X194206819Y-79222416D01*
X194792417Y-78636819D01*
X194853740Y-78603334D01*
X194880098Y-78600500D01*
X195586871Y-78600500D01*
X195586887Y-78600501D01*
X195594483Y-78600501D01*
X195752594Y-78600501D01*
X195752597Y-78600501D01*
X195905325Y-78559577D01*
X195976964Y-78518216D01*
X196042256Y-78480520D01*
X196154060Y-78368716D01*
X196154060Y-78368714D01*
X196164264Y-78358511D01*
X196164267Y-78358506D01*
X196180807Y-78341966D01*
X238679500Y-78341966D01*
X238679500Y-78458027D01*
X238679501Y-78458035D01*
X238690113Y-78577415D01*
X238746089Y-78773045D01*
X238746090Y-78773048D01*
X238746091Y-78773049D01*
X238840302Y-78953407D01*
X238840304Y-78953409D01*
X238968890Y-79111109D01*
X239062803Y-79187684D01*
X239126593Y-79239698D01*
X239306951Y-79333909D01*
X239502582Y-79389886D01*
X239621963Y-79400500D01*
X240938036Y-79400499D01*
X241057418Y-79389886D01*
X241253049Y-79333909D01*
X241433407Y-79239698D01*
X241591109Y-79111109D01*
X241719698Y-78953407D01*
X241813909Y-78773049D01*
X241869886Y-78577418D01*
X241880500Y-78458037D01*
X241880499Y-78341966D01*
X243159500Y-78341966D01*
X243159500Y-78458027D01*
X243159501Y-78458035D01*
X243170113Y-78577415D01*
X243226089Y-78773045D01*
X243226090Y-78773048D01*
X243226091Y-78773049D01*
X243320302Y-78953407D01*
X243320304Y-78953409D01*
X243448890Y-79111109D01*
X243542803Y-79187684D01*
X243606593Y-79239698D01*
X243786951Y-79333909D01*
X243982582Y-79389886D01*
X244101963Y-79400500D01*
X244818036Y-79400499D01*
X244937418Y-79389886D01*
X245133049Y-79333909D01*
X245313407Y-79239698D01*
X245471109Y-79111109D01*
X245599698Y-78953407D01*
X245693909Y-78773049D01*
X245749886Y-78577418D01*
X245760500Y-78458037D01*
X245760499Y-78341964D01*
X245749886Y-78222582D01*
X245693909Y-78026951D01*
X245599698Y-77846593D01*
X245502979Y-77727976D01*
X245471109Y-77688890D01*
X245344299Y-77585491D01*
X245313407Y-77560302D01*
X245133049Y-77466091D01*
X245133048Y-77466090D01*
X245133045Y-77466089D01*
X245015829Y-77432550D01*
X244937418Y-77410114D01*
X244937415Y-77410113D01*
X244937413Y-77410113D01*
X244871102Y-77404217D01*
X244818037Y-77399500D01*
X244818032Y-77399500D01*
X244101971Y-77399500D01*
X244101965Y-77399500D01*
X244101964Y-77399501D01*
X244090316Y-77400536D01*
X243982584Y-77410113D01*
X243786954Y-77466089D01*
X243762092Y-77479076D01*
X243606593Y-77560302D01*
X243606591Y-77560303D01*
X243606590Y-77560304D01*
X243448890Y-77688890D01*
X243320304Y-77846590D01*
X243226089Y-78026954D01*
X243170114Y-78222583D01*
X243170113Y-78222586D01*
X243165742Y-78271756D01*
X243159869Y-78337819D01*
X243159500Y-78341966D01*
X241880499Y-78341966D01*
X241880499Y-78341964D01*
X241869886Y-78222582D01*
X241813909Y-78026951D01*
X241719698Y-77846593D01*
X241622979Y-77727976D01*
X241591109Y-77688890D01*
X241433407Y-77560302D01*
X241322242Y-77502234D01*
X241271936Y-77453749D01*
X241255829Y-77385762D01*
X241272268Y-77330328D01*
X241346281Y-77202135D01*
X241385500Y-77055766D01*
X241385500Y-76904234D01*
X241346281Y-76757865D01*
X241270515Y-76626635D01*
X241163365Y-76519485D01*
X241097750Y-76481602D01*
X241032136Y-76443719D01*
X240958950Y-76424109D01*
X240885766Y-76404500D01*
X240734234Y-76404500D01*
X240587863Y-76443719D01*
X240456635Y-76519485D01*
X240456632Y-76519487D01*
X240349487Y-76626632D01*
X240349485Y-76626635D01*
X240273719Y-76757863D01*
X240260556Y-76806989D01*
X240234500Y-76904234D01*
X240234500Y-77055766D01*
X240255607Y-77134541D01*
X240273720Y-77202137D01*
X240273720Y-77202138D01*
X240280280Y-77213500D01*
X240296753Y-77281400D01*
X240273900Y-77347427D01*
X240218979Y-77390618D01*
X240172893Y-77399500D01*
X239621971Y-77399500D01*
X239621965Y-77399500D01*
X239621964Y-77399501D01*
X239610316Y-77400536D01*
X239502584Y-77410113D01*
X239306954Y-77466089D01*
X239282092Y-77479076D01*
X239126593Y-77560302D01*
X239126591Y-77560303D01*
X239126590Y-77560304D01*
X238968890Y-77688890D01*
X238840304Y-77846590D01*
X238746089Y-78026954D01*
X238690114Y-78222583D01*
X238690113Y-78222586D01*
X238685742Y-78271756D01*
X238679869Y-78337819D01*
X238679500Y-78341966D01*
X196180807Y-78341966D01*
X197106541Y-77416233D01*
X197167861Y-77382751D01*
X197237553Y-77387735D01*
X197270382Y-77406064D01*
X197424656Y-77526141D01*
X197625250Y-77634698D01*
X197625255Y-77634700D01*
X197840976Y-77708757D01*
X198065958Y-77746300D01*
X198294042Y-77746300D01*
X198519023Y-77708757D01*
X198734744Y-77634700D01*
X198734749Y-77634698D01*
X198935346Y-77526139D01*
X198935349Y-77526137D01*
X198961910Y-77505463D01*
X198347050Y-76890603D01*
X198390787Y-76878884D01*
X198515313Y-76806989D01*
X198616989Y-76705313D01*
X198688884Y-76580787D01*
X198700603Y-76537050D01*
X199314063Y-77150511D01*
X199345891Y-77101795D01*
X199399037Y-77056438D01*
X199468268Y-77047014D01*
X199531604Y-77076515D01*
X199553509Y-77101795D01*
X199629787Y-77218548D01*
X199748430Y-77347427D01*
X199784323Y-77386417D01*
X199964381Y-77526561D01*
X200165050Y-77635158D01*
X200321565Y-77688890D01*
X200379435Y-77708757D01*
X200380857Y-77709245D01*
X200605915Y-77746800D01*
X200834085Y-77746800D01*
X201059143Y-77709245D01*
X201274950Y-77635158D01*
X201475619Y-77526561D01*
X201655677Y-77386417D01*
X201810213Y-77218547D01*
X201935010Y-77027530D01*
X202026664Y-76818578D01*
X202082677Y-76597391D01*
X202084063Y-76580666D01*
X202101519Y-76370005D01*
X202101519Y-76369994D01*
X202082677Y-76142611D01*
X202081833Y-76137549D01*
X202082596Y-76137421D01*
X202080000Y-76116581D01*
X202080000Y-68669999D01*
X220144341Y-68669999D01*
X220144341Y-68670000D01*
X220164936Y-68905403D01*
X220164938Y-68905413D01*
X220226094Y-69133655D01*
X220226096Y-69133659D01*
X220226097Y-69133663D01*
X220230057Y-69142155D01*
X220325965Y-69347830D01*
X220325967Y-69347834D01*
X220461501Y-69541395D01*
X220461506Y-69541402D01*
X220628597Y-69708493D01*
X220628603Y-69708498D01*
X220814158Y-69838425D01*
X220857783Y-69893002D01*
X220864977Y-69962500D01*
X220833454Y-70024855D01*
X220814158Y-70041575D01*
X220628597Y-70171505D01*
X220461505Y-70338597D01*
X220325965Y-70532169D01*
X220325964Y-70532171D01*
X220226098Y-70746335D01*
X220226094Y-70746344D01*
X220164938Y-70974586D01*
X220164936Y-70974596D01*
X220144341Y-71209999D01*
X220144341Y-71210000D01*
X220164936Y-71445403D01*
X220164938Y-71445413D01*
X220226094Y-71673655D01*
X220226096Y-71673659D01*
X220226097Y-71673663D01*
X220282885Y-71795445D01*
X220325965Y-71887830D01*
X220325967Y-71887834D01*
X220461501Y-72081395D01*
X220461506Y-72081402D01*
X220628597Y-72248493D01*
X220628603Y-72248498D01*
X220814158Y-72378425D01*
X220857783Y-72433002D01*
X220864977Y-72502500D01*
X220833454Y-72564855D01*
X220814158Y-72581575D01*
X220628597Y-72711505D01*
X220461505Y-72878597D01*
X220325965Y-73072169D01*
X220325964Y-73072171D01*
X220226098Y-73286335D01*
X220226094Y-73286344D01*
X220164938Y-73514586D01*
X220164936Y-73514596D01*
X220144341Y-73749999D01*
X220144341Y-73750000D01*
X220164936Y-73985403D01*
X220164938Y-73985413D01*
X220226094Y-74213655D01*
X220226096Y-74213659D01*
X220226097Y-74213663D01*
X220315846Y-74406129D01*
X220325965Y-74427830D01*
X220325967Y-74427834D01*
X220434281Y-74582521D01*
X220461505Y-74621401D01*
X220628599Y-74788495D01*
X220809689Y-74915296D01*
X220814594Y-74918730D01*
X220858219Y-74973307D01*
X220865413Y-75042805D01*
X220833890Y-75105160D01*
X220814595Y-75121880D01*
X220628922Y-75251890D01*
X220628920Y-75251891D01*
X220461891Y-75418920D01*
X220461886Y-75418926D01*
X220326400Y-75612420D01*
X220326399Y-75612422D01*
X220226570Y-75826507D01*
X220226567Y-75826513D01*
X220169364Y-76039999D01*
X220169364Y-76040000D01*
X221066988Y-76040000D01*
X221034075Y-76097007D01*
X221000000Y-76224174D01*
X221000000Y-76355826D01*
X221034075Y-76482993D01*
X221066988Y-76540000D01*
X220169364Y-76540000D01*
X220226567Y-76753486D01*
X220226570Y-76753492D01*
X220326399Y-76967578D01*
X220461894Y-77161082D01*
X220628917Y-77328105D01*
X220822421Y-77463600D01*
X221036507Y-77563429D01*
X221036516Y-77563433D01*
X221250000Y-77620634D01*
X221250000Y-76723012D01*
X221307007Y-76755925D01*
X221434174Y-76790000D01*
X221565826Y-76790000D01*
X221692993Y-76755925D01*
X221750000Y-76723012D01*
X221750000Y-77620633D01*
X221963483Y-77563433D01*
X221963492Y-77563429D01*
X222177578Y-77463600D01*
X222371082Y-77328105D01*
X222538105Y-77161082D01*
X222650898Y-77000000D01*
X226280840Y-77000000D01*
X226321652Y-77134541D01*
X226414503Y-77308253D01*
X226414507Y-77308260D01*
X226539471Y-77460528D01*
X226691739Y-77585491D01*
X226865465Y-77678349D01*
X227000000Y-77719159D01*
X227500000Y-77719159D01*
X227634534Y-77678349D01*
X227808260Y-77585491D01*
X227960528Y-77460528D01*
X228085492Y-77308260D01*
X228085496Y-77308253D01*
X228178347Y-77134541D01*
X228219160Y-77000000D01*
X227500000Y-77000000D01*
X227500000Y-77719159D01*
X227000000Y-77719159D01*
X227000000Y-77000000D01*
X226280840Y-77000000D01*
X222650898Y-77000000D01*
X222673600Y-76967578D01*
X222773429Y-76753492D01*
X222773432Y-76753486D01*
X222830636Y-76540000D01*
X221933012Y-76540000D01*
X221965925Y-76482993D01*
X222000000Y-76355826D01*
X222000000Y-76224174D01*
X221965925Y-76097007D01*
X221933012Y-76040000D01*
X222830636Y-76040000D01*
X222830635Y-76039999D01*
X222773432Y-75826513D01*
X222773429Y-75826507D01*
X222673600Y-75612422D01*
X222673599Y-75612420D01*
X222538113Y-75418926D01*
X222538108Y-75418920D01*
X222371078Y-75251890D01*
X222185405Y-75121879D01*
X222141780Y-75067302D01*
X222134588Y-74997804D01*
X222166110Y-74935449D01*
X222185406Y-74918730D01*
X222189082Y-74916156D01*
X222371401Y-74788495D01*
X222538495Y-74621401D01*
X222674035Y-74427830D01*
X222773903Y-74213663D01*
X222835063Y-73985408D01*
X222855659Y-73750000D01*
X222835063Y-73514592D01*
X222773903Y-73286337D01*
X222674035Y-73072171D01*
X222581489Y-72940000D01*
X226244659Y-72940000D01*
X226263975Y-73136129D01*
X226263976Y-73136132D01*
X226309540Y-73286337D01*
X226321188Y-73324733D01*
X226414086Y-73498532D01*
X226417473Y-73503601D01*
X226415836Y-73504694D01*
X226439596Y-73560663D01*
X226427795Y-73629529D01*
X226417109Y-73646156D01*
X226417473Y-73646399D01*
X226414086Y-73651467D01*
X226321188Y-73825266D01*
X226263975Y-74013870D01*
X226244659Y-74210000D01*
X226263975Y-74406129D01*
X226321188Y-74594733D01*
X226414086Y-74768532D01*
X226417473Y-74773601D01*
X226415836Y-74774694D01*
X226439596Y-74830663D01*
X226427795Y-74899529D01*
X226417109Y-74916156D01*
X226417473Y-74916399D01*
X226414086Y-74921467D01*
X226321188Y-75095266D01*
X226263975Y-75283870D01*
X226244659Y-75480000D01*
X226263975Y-75676129D01*
X226321188Y-75864733D01*
X226414086Y-76038532D01*
X226417473Y-76043601D01*
X226415955Y-76044615D01*
X226439918Y-76101042D01*
X226428124Y-76169909D01*
X226417515Y-76186420D01*
X226417893Y-76186673D01*
X226414505Y-76191742D01*
X226321652Y-76365458D01*
X226280839Y-76499999D01*
X226280840Y-76500000D01*
X227040382Y-76500000D01*
X226989936Y-76550446D01*
X226947149Y-76624555D01*
X226925000Y-76707213D01*
X226925000Y-76792787D01*
X226947149Y-76875445D01*
X226989936Y-76949554D01*
X227050446Y-77010064D01*
X227124555Y-77052851D01*
X227207213Y-77075000D01*
X227292787Y-77075000D01*
X227375445Y-77052851D01*
X227449554Y-77010064D01*
X227510064Y-76949554D01*
X227552851Y-76875445D01*
X227575000Y-76792787D01*
X227575000Y-76707213D01*
X227552851Y-76624555D01*
X227510064Y-76550446D01*
X227459618Y-76500000D01*
X228219160Y-76500000D01*
X228219160Y-76499999D01*
X228178347Y-76365458D01*
X228085496Y-76191746D01*
X228082110Y-76186678D01*
X228083784Y-76185559D01*
X228060081Y-76129746D01*
X228071874Y-76060879D01*
X228082839Y-76043818D01*
X228082523Y-76043607D01*
X228085904Y-76038544D01*
X228085910Y-76038538D01*
X228178814Y-75864727D01*
X228236024Y-75676132D01*
X228255341Y-75480000D01*
X228236024Y-75283868D01*
X228178814Y-75095273D01*
X228085910Y-74921462D01*
X228085907Y-74921458D01*
X228082523Y-74916393D01*
X228084164Y-74915296D01*
X228060405Y-74859361D01*
X228072194Y-74790493D01*
X228082888Y-74773851D01*
X228082523Y-74773607D01*
X228085904Y-74768544D01*
X228085910Y-74768538D01*
X228178814Y-74594727D01*
X228236024Y-74406132D01*
X228255341Y-74210000D01*
X228236024Y-74013868D01*
X228178814Y-73825273D01*
X228085910Y-73651462D01*
X228085907Y-73651458D01*
X228082523Y-73646393D01*
X228084164Y-73645296D01*
X228060405Y-73589361D01*
X228072194Y-73520493D01*
X228082888Y-73503851D01*
X228082523Y-73503607D01*
X228085904Y-73498544D01*
X228085910Y-73498538D01*
X228178814Y-73324727D01*
X228236024Y-73136132D01*
X228255341Y-72940000D01*
X228236024Y-72743868D01*
X228178814Y-72555273D01*
X228177419Y-72552663D01*
X228177100Y-72551135D01*
X228176482Y-72549641D01*
X228176765Y-72549523D01*
X228163174Y-72484261D01*
X228187512Y-72419890D01*
X228193351Y-72412089D01*
X228243597Y-72277376D01*
X228243598Y-72277372D01*
X228249999Y-72217844D01*
X228250000Y-72217827D01*
X228250000Y-71920000D01*
X227459618Y-71920000D01*
X227510064Y-71869554D01*
X227552851Y-71795445D01*
X227575000Y-71712787D01*
X227575000Y-71627213D01*
X227552851Y-71544555D01*
X227510064Y-71470446D01*
X227459618Y-71420000D01*
X227500000Y-71420000D01*
X228250000Y-71420000D01*
X228250000Y-71122172D01*
X228249999Y-71122155D01*
X228243598Y-71062627D01*
X228243596Y-71062620D01*
X228193354Y-70927913D01*
X228193350Y-70927906D01*
X228107190Y-70812812D01*
X228107187Y-70812809D01*
X227992093Y-70726649D01*
X227992086Y-70726645D01*
X227857379Y-70676403D01*
X227857372Y-70676401D01*
X227797844Y-70670000D01*
X227500000Y-70670000D01*
X227500000Y-71420000D01*
X227459618Y-71420000D01*
X227449554Y-71409936D01*
X227375445Y-71367149D01*
X227292787Y-71345000D01*
X227207213Y-71345000D01*
X227124555Y-71367149D01*
X227050446Y-71409936D01*
X226989936Y-71470446D01*
X226947149Y-71544555D01*
X226925000Y-71627213D01*
X226925000Y-71712787D01*
X226947149Y-71795445D01*
X226989936Y-71869554D01*
X227040382Y-71920000D01*
X226250000Y-71920000D01*
X226250000Y-72217844D01*
X226256401Y-72277372D01*
X226256402Y-72277376D01*
X226306648Y-72412091D01*
X226312490Y-72419894D01*
X226336908Y-72485359D01*
X226323251Y-72549535D01*
X226323517Y-72549646D01*
X226322921Y-72551082D01*
X226322589Y-72552647D01*
X226321188Y-72555268D01*
X226321187Y-72555270D01*
X226321186Y-72555273D01*
X226289645Y-72659246D01*
X226263975Y-72743870D01*
X226244659Y-72940000D01*
X222581489Y-72940000D01*
X222538494Y-72878597D01*
X222371402Y-72711506D01*
X222371396Y-72711501D01*
X222185842Y-72581575D01*
X222142217Y-72526998D01*
X222135023Y-72457500D01*
X222166546Y-72395145D01*
X222185842Y-72378425D01*
X222208026Y-72362891D01*
X222371401Y-72248495D01*
X222538495Y-72081401D01*
X222674035Y-71887830D01*
X222773903Y-71673663D01*
X222835063Y-71445408D01*
X222855659Y-71210000D01*
X222847973Y-71122155D01*
X226250000Y-71122155D01*
X226250000Y-71420000D01*
X227000000Y-71420000D01*
X227000000Y-70670000D01*
X226702155Y-70670000D01*
X226642627Y-70676401D01*
X226642620Y-70676403D01*
X226507913Y-70726645D01*
X226507906Y-70726649D01*
X226392812Y-70812809D01*
X226392809Y-70812812D01*
X226306649Y-70927906D01*
X226306645Y-70927913D01*
X226256403Y-71062620D01*
X226256401Y-71062627D01*
X226250000Y-71122155D01*
X222847973Y-71122155D01*
X222835063Y-70974592D01*
X222773903Y-70746337D01*
X222674035Y-70532171D01*
X222655658Y-70505925D01*
X222538494Y-70338597D01*
X222371402Y-70171506D01*
X222371396Y-70171501D01*
X222185842Y-70041575D01*
X222142217Y-69986998D01*
X222135023Y-69917500D01*
X222166546Y-69855145D01*
X222185842Y-69838425D01*
X222336414Y-69732993D01*
X222371401Y-69708495D01*
X222377930Y-69701966D01*
X238679500Y-69701966D01*
X238679500Y-69818027D01*
X238679501Y-69818035D01*
X238690113Y-69937415D01*
X238746089Y-70133045D01*
X238746090Y-70133048D01*
X238746091Y-70133049D01*
X238840302Y-70313407D01*
X238867699Y-70347007D01*
X238968890Y-70471109D01*
X239053379Y-70540000D01*
X239126593Y-70599698D01*
X239306951Y-70693909D01*
X239502582Y-70749886D01*
X239621963Y-70760500D01*
X240172894Y-70760499D01*
X240239932Y-70780183D01*
X240285687Y-70832987D01*
X240295631Y-70902146D01*
X240280282Y-70946497D01*
X240273719Y-70957863D01*
X240234500Y-71104234D01*
X240234500Y-71255765D01*
X240273719Y-71402136D01*
X240311602Y-71467750D01*
X240349485Y-71533365D01*
X240456635Y-71640515D01*
X240587865Y-71716281D01*
X240734234Y-71755500D01*
X240734236Y-71755500D01*
X240885764Y-71755500D01*
X240885766Y-71755500D01*
X241032135Y-71716281D01*
X241163365Y-71640515D01*
X241270515Y-71533365D01*
X241346281Y-71402135D01*
X241385500Y-71255766D01*
X241385500Y-71104234D01*
X241346281Y-70957865D01*
X241272267Y-70829670D01*
X241255795Y-70761773D01*
X241278647Y-70695746D01*
X241322239Y-70657767D01*
X241433407Y-70599698D01*
X241591109Y-70471109D01*
X241719698Y-70313407D01*
X241813909Y-70133049D01*
X241869886Y-69937418D01*
X241880500Y-69818037D01*
X241880499Y-69701966D01*
X243159500Y-69701966D01*
X243159500Y-69818027D01*
X243159501Y-69818035D01*
X243170113Y-69937415D01*
X243226089Y-70133045D01*
X243226090Y-70133048D01*
X243226091Y-70133049D01*
X243320302Y-70313407D01*
X243347699Y-70347007D01*
X243448890Y-70471109D01*
X243533379Y-70540000D01*
X243606593Y-70599698D01*
X243786951Y-70693909D01*
X243982582Y-70749886D01*
X244101963Y-70760500D01*
X244818036Y-70760499D01*
X244937418Y-70749886D01*
X245133049Y-70693909D01*
X245313407Y-70599698D01*
X245471109Y-70471109D01*
X245599698Y-70313407D01*
X245693909Y-70133049D01*
X245749886Y-69937418D01*
X245760500Y-69818037D01*
X245760499Y-69701964D01*
X245749886Y-69582582D01*
X245693909Y-69386951D01*
X245599698Y-69206593D01*
X245540232Y-69133664D01*
X245471109Y-69048890D01*
X245313409Y-68920304D01*
X245313410Y-68920304D01*
X245313407Y-68920302D01*
X245133049Y-68826091D01*
X245133048Y-68826090D01*
X245133045Y-68826089D01*
X245015829Y-68792550D01*
X244937418Y-68770114D01*
X244937415Y-68770113D01*
X244937413Y-68770113D01*
X244871102Y-68764217D01*
X244818037Y-68759500D01*
X244818032Y-68759500D01*
X244101971Y-68759500D01*
X244101965Y-68759500D01*
X244101964Y-68759501D01*
X244090316Y-68760536D01*
X243982584Y-68770113D01*
X243786954Y-68826089D01*
X243730346Y-68855659D01*
X243606593Y-68920302D01*
X243606591Y-68920303D01*
X243606590Y-68920304D01*
X243448890Y-69048890D01*
X243320304Y-69206590D01*
X243226089Y-69386954D01*
X243170114Y-69582583D01*
X243170113Y-69582586D01*
X243159500Y-69701966D01*
X241880499Y-69701966D01*
X241880499Y-69701964D01*
X241869886Y-69582582D01*
X241813909Y-69386951D01*
X241719698Y-69206593D01*
X241660232Y-69133664D01*
X241591109Y-69048890D01*
X241433409Y-68920304D01*
X241433410Y-68920304D01*
X241433407Y-68920302D01*
X241253049Y-68826091D01*
X241253048Y-68826090D01*
X241253045Y-68826089D01*
X241135829Y-68792550D01*
X241057418Y-68770114D01*
X241057415Y-68770113D01*
X241057413Y-68770113D01*
X240991102Y-68764217D01*
X240938037Y-68759500D01*
X240938032Y-68759500D01*
X239621971Y-68759500D01*
X239621965Y-68759500D01*
X239621964Y-68759501D01*
X239610316Y-68760536D01*
X239502584Y-68770113D01*
X239306954Y-68826089D01*
X239250346Y-68855659D01*
X239126593Y-68920302D01*
X239126591Y-68920303D01*
X239126590Y-68920304D01*
X238968890Y-69048890D01*
X238840304Y-69206590D01*
X238746089Y-69386954D01*
X238690114Y-69582583D01*
X238690113Y-69582586D01*
X238679500Y-69701966D01*
X222377930Y-69701966D01*
X222538495Y-69541401D01*
X222674035Y-69347830D01*
X222773903Y-69133663D01*
X222835063Y-68905408D01*
X222855659Y-68670000D01*
X222835063Y-68434592D01*
X222773903Y-68206337D01*
X222674035Y-67992171D01*
X222654074Y-67963664D01*
X222538496Y-67798600D01*
X222538495Y-67798599D01*
X222416179Y-67676283D01*
X222382696Y-67614963D01*
X222387680Y-67545271D01*
X222429551Y-67489337D01*
X222460529Y-67472422D01*
X222592086Y-67423354D01*
X222592093Y-67423350D01*
X222707187Y-67337190D01*
X222707190Y-67337187D01*
X222793350Y-67222093D01*
X222793354Y-67222086D01*
X222843596Y-67087379D01*
X222843598Y-67087372D01*
X222849999Y-67027844D01*
X222850000Y-67027827D01*
X222850000Y-66380000D01*
X221933012Y-66380000D01*
X221965925Y-66322993D01*
X222000000Y-66195826D01*
X222000000Y-66064174D01*
X221965925Y-65937007D01*
X221933012Y-65880000D01*
X222850000Y-65880000D01*
X222850000Y-65232172D01*
X222849999Y-65232155D01*
X222843598Y-65172627D01*
X222843596Y-65172620D01*
X222793354Y-65037913D01*
X222793350Y-65037906D01*
X222707190Y-64922812D01*
X222707187Y-64922809D01*
X222592093Y-64836649D01*
X222592086Y-64836645D01*
X222457379Y-64786403D01*
X222457372Y-64786401D01*
X222397844Y-64780000D01*
X221750000Y-64780000D01*
X221750000Y-65696988D01*
X221692993Y-65664075D01*
X221565826Y-65630000D01*
X221434174Y-65630000D01*
X221307007Y-65664075D01*
X221250000Y-65696988D01*
X221250000Y-64780000D01*
X220602155Y-64780000D01*
X220542627Y-64786401D01*
X220542620Y-64786403D01*
X220407913Y-64836645D01*
X220407906Y-64836649D01*
X220292812Y-64922809D01*
X220292809Y-64922812D01*
X220206649Y-65037906D01*
X220206645Y-65037913D01*
X220156403Y-65172620D01*
X220156401Y-65172627D01*
X220150000Y-65232155D01*
X220150000Y-65880000D01*
X221066988Y-65880000D01*
X221034075Y-65937007D01*
X221000000Y-66064174D01*
X221000000Y-66195826D01*
X221034075Y-66322993D01*
X221066988Y-66380000D01*
X220150000Y-66380000D01*
X220150000Y-67027844D01*
X220156401Y-67087372D01*
X220156403Y-67087379D01*
X220206645Y-67222086D01*
X220206649Y-67222093D01*
X220292809Y-67337187D01*
X220292812Y-67337190D01*
X220407906Y-67423350D01*
X220407913Y-67423354D01*
X220539470Y-67472421D01*
X220595403Y-67514292D01*
X220619821Y-67579756D01*
X220604970Y-67648029D01*
X220583819Y-67676284D01*
X220461503Y-67798600D01*
X220325965Y-67992169D01*
X220325964Y-67992171D01*
X220226098Y-68206335D01*
X220226094Y-68206344D01*
X220164938Y-68434586D01*
X220164936Y-68434596D01*
X220144341Y-68669999D01*
X202080000Y-68669999D01*
X202080000Y-61383420D01*
X202082600Y-61362583D01*
X202081832Y-61362455D01*
X202082678Y-61357383D01*
X202101519Y-61130005D01*
X202101519Y-61129994D01*
X202082678Y-60902616D01*
X202082677Y-60902613D01*
X202082677Y-60902609D01*
X202026664Y-60681422D01*
X201935010Y-60472470D01*
X201921981Y-60452527D01*
X201810212Y-60281451D01*
X201655680Y-60113586D01*
X201655676Y-60113582D01*
X201502726Y-59994537D01*
X201475619Y-59973439D01*
X201274950Y-59864842D01*
X201274942Y-59864839D01*
X201059145Y-59790755D01*
X200834085Y-59753200D01*
X200605915Y-59753200D01*
X200380854Y-59790755D01*
X200165057Y-59864839D01*
X200165049Y-59864842D01*
X199964379Y-59973440D01*
X199784323Y-60113582D01*
X199784319Y-60113586D01*
X199629787Y-60281451D01*
X199553809Y-60397746D01*
X199500663Y-60443103D01*
X199431431Y-60452527D01*
X199368095Y-60423025D01*
X199346191Y-60397746D01*
X199270212Y-60281451D01*
X199115680Y-60113586D01*
X199115676Y-60113582D01*
X198962726Y-59994537D01*
X198935619Y-59973439D01*
X198734950Y-59864842D01*
X198734942Y-59864839D01*
X198519145Y-59790755D01*
X198294085Y-59753200D01*
X198065915Y-59753200D01*
X197840854Y-59790755D01*
X197625057Y-59864839D01*
X197625049Y-59864842D01*
X197424379Y-59973440D01*
X197244323Y-60113582D01*
X197244319Y-60113586D01*
X197089787Y-60281452D01*
X197089784Y-60281454D01*
X197013508Y-60398204D01*
X196960362Y-60443561D01*
X196891130Y-60452984D01*
X196827795Y-60423482D01*
X196805891Y-60398203D01*
X196774063Y-60349487D01*
X196160603Y-60962949D01*
X196148884Y-60919213D01*
X196076989Y-60794687D01*
X195975313Y-60693011D01*
X195850787Y-60621116D01*
X195807050Y-60609396D01*
X196421910Y-59994537D01*
X196421909Y-59994535D01*
X196395349Y-59973862D01*
X196395348Y-59973861D01*
X196194749Y-59865301D01*
X196194744Y-59865299D01*
X195979023Y-59791242D01*
X195754042Y-59753700D01*
X195525958Y-59753700D01*
X195300976Y-59791242D01*
X195085255Y-59865299D01*
X195085250Y-59865301D01*
X194884652Y-59973860D01*
X194884646Y-59973864D01*
X194858089Y-59994534D01*
X194858089Y-59994536D01*
X195472949Y-60609396D01*
X195429213Y-60621116D01*
X195304687Y-60693011D01*
X195203011Y-60794687D01*
X195131116Y-60919213D01*
X195119396Y-60962949D01*
X194505934Y-60349487D01*
X194473807Y-60398662D01*
X194420661Y-60444018D01*
X194351430Y-60453442D01*
X194288094Y-60423940D01*
X194266190Y-60398661D01*
X194234063Y-60349487D01*
X193620603Y-60962949D01*
X193608884Y-60919213D01*
X193536989Y-60794687D01*
X193435313Y-60693011D01*
X193310787Y-60621116D01*
X193267050Y-60609396D01*
X193881910Y-59994537D01*
X193881909Y-59994535D01*
X193855349Y-59973862D01*
X193855348Y-59973861D01*
X193654749Y-59865301D01*
X193654744Y-59865299D01*
X193439023Y-59791242D01*
X193214042Y-59753700D01*
X192985958Y-59753700D01*
X192760976Y-59791242D01*
X192545255Y-59865299D01*
X192545250Y-59865301D01*
X192344652Y-59973860D01*
X192344646Y-59973864D01*
X192318089Y-59994534D01*
X192318089Y-59994536D01*
X192932949Y-60609396D01*
X192889213Y-60621116D01*
X192764687Y-60693011D01*
X192663011Y-60794687D01*
X192591116Y-60919213D01*
X192579396Y-60962949D01*
X191965934Y-60349487D01*
X191934108Y-60398203D01*
X191880962Y-60443560D01*
X191811730Y-60452984D01*
X191748394Y-60423482D01*
X191726490Y-60398204D01*
X191694662Y-60349487D01*
X191650213Y-60281453D01*
X191650211Y-60281451D01*
X191650210Y-60281449D01*
X191495680Y-60113586D01*
X191495676Y-60113582D01*
X191342726Y-59994537D01*
X191315619Y-59973439D01*
X191114950Y-59864842D01*
X191114942Y-59864839D01*
X190899145Y-59790755D01*
X190674085Y-59753200D01*
X190445915Y-59753200D01*
X190220854Y-59790755D01*
X190005057Y-59864839D01*
X190005049Y-59864842D01*
X189804379Y-59973440D01*
X189624323Y-60113582D01*
X189624319Y-60113586D01*
X189469787Y-60281451D01*
X189393809Y-60397746D01*
X189340663Y-60443103D01*
X189271431Y-60452527D01*
X189208095Y-60423025D01*
X189186191Y-60397746D01*
X189110212Y-60281451D01*
X188955680Y-60113586D01*
X188955676Y-60113582D01*
X188802726Y-59994537D01*
X188775619Y-59973439D01*
X188574950Y-59864842D01*
X188574942Y-59864839D01*
X188359145Y-59790755D01*
X188134085Y-59753200D01*
X187905915Y-59753200D01*
X187680854Y-59790755D01*
X187465057Y-59864839D01*
X187465049Y-59864842D01*
X187264379Y-59973440D01*
X187084323Y-60113582D01*
X187084319Y-60113586D01*
X186929787Y-60281451D01*
X186853809Y-60397746D01*
X186800663Y-60443103D01*
X186731431Y-60452527D01*
X186668095Y-60423025D01*
X186646191Y-60397746D01*
X186570212Y-60281451D01*
X186415680Y-60113586D01*
X186415676Y-60113582D01*
X186262726Y-59994537D01*
X186235619Y-59973439D01*
X186034950Y-59864842D01*
X186034942Y-59864839D01*
X185819145Y-59790755D01*
X185594085Y-59753200D01*
X185365915Y-59753200D01*
X185140854Y-59790755D01*
X184925057Y-59864839D01*
X184925049Y-59864842D01*
X184724379Y-59973440D01*
X184544323Y-60113582D01*
X184544319Y-60113586D01*
X184389787Y-60281451D01*
X184313809Y-60397746D01*
X184260663Y-60443103D01*
X184191431Y-60452527D01*
X184128095Y-60423025D01*
X184106191Y-60397746D01*
X184030212Y-60281451D01*
X183875680Y-60113586D01*
X183875676Y-60113582D01*
X183722726Y-59994537D01*
X183695619Y-59973439D01*
X183494950Y-59864842D01*
X183494942Y-59864839D01*
X183279145Y-59790755D01*
X183054085Y-59753200D01*
X182825915Y-59753200D01*
X182600854Y-59790755D01*
X182385057Y-59864839D01*
X182385049Y-59864842D01*
X182184379Y-59973440D01*
X182004323Y-60113582D01*
X182004319Y-60113586D01*
X181849787Y-60281451D01*
X181773809Y-60397746D01*
X181720663Y-60443103D01*
X181651431Y-60452527D01*
X181588095Y-60423025D01*
X181566191Y-60397746D01*
X181490212Y-60281451D01*
X181335680Y-60113586D01*
X181335676Y-60113582D01*
X181182726Y-59994537D01*
X181155619Y-59973439D01*
X180954950Y-59864842D01*
X180954942Y-59864839D01*
X180739145Y-59790755D01*
X180514085Y-59753200D01*
X180285915Y-59753200D01*
X180060854Y-59790755D01*
X179845057Y-59864839D01*
X179845049Y-59864842D01*
X179644379Y-59973440D01*
X179464323Y-60113582D01*
X179464319Y-60113586D01*
X179309787Y-60281451D01*
X179233809Y-60397746D01*
X179180663Y-60443103D01*
X179111431Y-60452527D01*
X179048095Y-60423025D01*
X179026191Y-60397746D01*
X178950212Y-60281451D01*
X178795680Y-60113586D01*
X178795676Y-60113582D01*
X178642726Y-59994537D01*
X178615619Y-59973439D01*
X178414950Y-59864842D01*
X178414942Y-59864839D01*
X178199145Y-59790755D01*
X177974085Y-59753200D01*
X177745915Y-59753200D01*
X177520854Y-59790755D01*
X177305057Y-59864839D01*
X177305049Y-59864842D01*
X177104379Y-59973440D01*
X176924323Y-60113582D01*
X176924319Y-60113586D01*
X176769787Y-60281451D01*
X176693809Y-60397746D01*
X176640663Y-60443103D01*
X176571431Y-60452527D01*
X176508095Y-60423025D01*
X176486191Y-60397746D01*
X176410212Y-60281451D01*
X176255680Y-60113586D01*
X176255676Y-60113582D01*
X176102726Y-59994537D01*
X176075619Y-59973439D01*
X175874950Y-59864842D01*
X175874942Y-59864839D01*
X175659145Y-59790755D01*
X175434085Y-59753200D01*
X175205915Y-59753200D01*
X174980854Y-59790755D01*
X174765057Y-59864839D01*
X174765049Y-59864842D01*
X174564379Y-59973440D01*
X174384323Y-60113582D01*
X174384319Y-60113586D01*
X174229787Y-60281451D01*
X174153809Y-60397746D01*
X174100663Y-60443103D01*
X174031431Y-60452527D01*
X173968095Y-60423025D01*
X173946191Y-60397746D01*
X173870212Y-60281451D01*
X173715680Y-60113586D01*
X173715676Y-60113582D01*
X173562726Y-59994537D01*
X173535619Y-59973439D01*
X173334950Y-59864842D01*
X173334942Y-59864839D01*
X173119145Y-59790755D01*
X172894085Y-59753200D01*
X172665915Y-59753200D01*
X172440854Y-59790755D01*
X172225057Y-59864839D01*
X172225049Y-59864842D01*
X172024379Y-59973440D01*
X171844323Y-60113582D01*
X171844319Y-60113586D01*
X171689787Y-60281451D01*
X171564989Y-60472470D01*
X171484933Y-60654984D01*
X171473336Y-60681422D01*
X171417324Y-60902608D01*
X171416353Y-60906441D01*
X171380813Y-60966596D01*
X171318393Y-60997988D01*
X171296147Y-61000000D01*
X168580000Y-61000000D01*
X168580000Y-76500000D01*
X171296147Y-76500000D01*
X171363186Y-76519685D01*
X171408941Y-76572489D01*
X171416353Y-76593559D01*
X171417322Y-76597388D01*
X171417323Y-76597391D01*
X171473336Y-76818578D01*
X171510000Y-76902164D01*
X171564989Y-77027529D01*
X171689787Y-77218548D01*
X171808430Y-77347427D01*
X171844323Y-77386417D01*
X172024381Y-77526561D01*
X172225050Y-77635158D01*
X172381565Y-77688890D01*
X172439435Y-77708757D01*
X172440857Y-77709245D01*
X172665915Y-77746800D01*
X172894085Y-77746800D01*
X173119143Y-77709245D01*
X173334950Y-77635158D01*
X173535619Y-77526561D01*
X173715677Y-77386417D01*
X173870213Y-77218547D01*
X173946191Y-77102252D01*
X173999337Y-77056896D01*
X174068568Y-77047472D01*
X174131904Y-77076973D01*
X174153809Y-77102253D01*
X174229787Y-77218548D01*
X174348430Y-77347427D01*
X174384323Y-77386417D01*
X174564381Y-77526561D01*
X174765050Y-77635158D01*
X174921565Y-77688890D01*
X174979435Y-77708757D01*
X174980857Y-77709245D01*
X175205915Y-77746800D01*
X175434085Y-77746800D01*
X175659143Y-77709245D01*
X175874950Y-77635158D01*
X176075619Y-77526561D01*
X176229977Y-77406419D01*
X176294968Y-77380778D01*
X176363508Y-77394344D01*
X176393818Y-77416593D01*
X178491599Y-79514374D01*
X178491609Y-79514385D01*
X178495939Y-79518715D01*
X178495940Y-79518716D01*
X178607744Y-79630520D01*
X178607746Y-79630521D01*
X178607750Y-79630524D01*
X178658070Y-79659576D01*
X178658075Y-79659578D01*
X178744669Y-79709574D01*
X178744670Y-79709574D01*
X178744675Y-79709577D01*
X178897402Y-79750500D01*
X178897403Y-79750500D01*
X182679903Y-79750500D01*
X182746942Y-79770185D01*
X182767584Y-79786819D01*
X182773181Y-79792416D01*
X182806666Y-79853739D01*
X182809500Y-79880097D01*
X182809500Y-81762066D01*
X182789815Y-81829105D01*
X182737011Y-81874860D01*
X182667853Y-81884804D01*
X182619302Y-81866202D01*
X182619284Y-81866238D01*
X182619001Y-81866086D01*
X182616616Y-81865173D01*
X182613911Y-81863366D01*
X182613912Y-81863366D01*
X182431839Y-81787950D01*
X182431829Y-81787947D01*
X182238543Y-81749500D01*
X182238541Y-81749500D01*
X182041459Y-81749500D01*
X182041457Y-81749500D01*
X181848170Y-81787947D01*
X181848160Y-81787950D01*
X181666089Y-81863366D01*
X181573890Y-81924971D01*
X181507213Y-81945848D01*
X181439833Y-81927363D01*
X181436110Y-81924971D01*
X181375995Y-81884804D01*
X181343914Y-81863368D01*
X181343911Y-81863366D01*
X181343910Y-81863366D01*
X181161839Y-81787950D01*
X181161829Y-81787947D01*
X180968543Y-81749500D01*
X180968541Y-81749500D01*
X180771459Y-81749500D01*
X180771457Y-81749500D01*
X180578170Y-81787947D01*
X180578160Y-81787950D01*
X180396089Y-81863366D01*
X180303890Y-81924971D01*
X180237213Y-81945848D01*
X180169833Y-81927363D01*
X180166110Y-81924971D01*
X180105995Y-81884804D01*
X180073914Y-81863368D01*
X180073911Y-81863366D01*
X180073910Y-81863366D01*
X179891839Y-81787950D01*
X179891829Y-81787947D01*
X179698543Y-81749500D01*
X179698541Y-81749500D01*
X179501459Y-81749500D01*
X179501457Y-81749500D01*
X179308170Y-81787947D01*
X179308160Y-81787950D01*
X179126089Y-81863366D01*
X179033890Y-81924971D01*
X178967213Y-81945848D01*
X178899833Y-81927363D01*
X178896110Y-81924971D01*
X178835995Y-81884804D01*
X178803914Y-81863368D01*
X178803911Y-81863366D01*
X178803910Y-81863366D01*
X178621839Y-81787950D01*
X178621829Y-81787947D01*
X178428543Y-81749500D01*
X178428541Y-81749500D01*
X178231459Y-81749500D01*
X178231457Y-81749500D01*
X178038170Y-81787947D01*
X178038160Y-81787950D01*
X177856089Y-81863366D01*
X177763890Y-81924971D01*
X177697213Y-81945848D01*
X177629833Y-81927363D01*
X177626110Y-81924971D01*
X177565995Y-81884804D01*
X177533914Y-81863368D01*
X177533911Y-81863366D01*
X177533910Y-81863366D01*
X177351839Y-81787950D01*
X177351829Y-81787947D01*
X177158543Y-81749500D01*
X177158541Y-81749500D01*
X176961459Y-81749500D01*
X176961457Y-81749500D01*
X176768170Y-81787947D01*
X176768160Y-81787950D01*
X176586089Y-81863366D01*
X176493890Y-81924971D01*
X176427213Y-81945848D01*
X176359833Y-81927363D01*
X176356110Y-81924971D01*
X176295995Y-81884804D01*
X176263914Y-81863368D01*
X176263911Y-81863366D01*
X176263910Y-81863366D01*
X176081839Y-81787950D01*
X176081829Y-81787947D01*
X175888543Y-81749500D01*
X175888541Y-81749500D01*
X175691459Y-81749500D01*
X175691457Y-81749500D01*
X175498170Y-81787947D01*
X175498160Y-81787950D01*
X175316089Y-81863366D01*
X175223890Y-81924971D01*
X175157213Y-81945848D01*
X175089833Y-81927363D01*
X175086110Y-81924971D01*
X175025995Y-81884804D01*
X174993914Y-81863368D01*
X174993911Y-81863366D01*
X174993910Y-81863366D01*
X174811839Y-81787950D01*
X174811829Y-81787947D01*
X174618543Y-81749500D01*
X174618541Y-81749500D01*
X174421459Y-81749500D01*
X174421457Y-81749500D01*
X174228170Y-81787947D01*
X174228160Y-81787950D01*
X174046089Y-81863366D01*
X173953890Y-81924971D01*
X173887213Y-81945848D01*
X173819833Y-81927363D01*
X173816110Y-81924971D01*
X173755995Y-81884804D01*
X173723914Y-81863368D01*
X173723911Y-81863366D01*
X173723910Y-81863366D01*
X173541839Y-81787950D01*
X173541829Y-81787947D01*
X173348543Y-81749500D01*
X173348541Y-81749500D01*
X173151459Y-81749500D01*
X173151457Y-81749500D01*
X172958170Y-81787947D01*
X172958160Y-81787950D01*
X172776089Y-81863366D01*
X172683890Y-81924971D01*
X172617213Y-81945848D01*
X172549833Y-81927363D01*
X172546110Y-81924971D01*
X172485995Y-81884804D01*
X172453914Y-81863368D01*
X172453911Y-81863366D01*
X172453910Y-81863366D01*
X172271839Y-81787950D01*
X172271829Y-81787947D01*
X172078543Y-81749500D01*
X172078541Y-81749500D01*
X171881459Y-81749500D01*
X171881457Y-81749500D01*
X171688170Y-81787947D01*
X171688160Y-81787950D01*
X171506089Y-81863366D01*
X171413890Y-81924971D01*
X171347213Y-81945848D01*
X171279833Y-81927363D01*
X171276110Y-81924971D01*
X171215995Y-81884804D01*
X171183914Y-81863368D01*
X171183911Y-81863366D01*
X171183910Y-81863366D01*
X171001839Y-81787950D01*
X171001829Y-81787947D01*
X170808543Y-81749500D01*
X170808541Y-81749500D01*
X170611459Y-81749500D01*
X170611457Y-81749500D01*
X170418170Y-81787947D01*
X170418160Y-81787950D01*
X170236092Y-81863364D01*
X170236079Y-81863371D01*
X170072218Y-81972860D01*
X170072214Y-81972863D01*
X169932863Y-82112214D01*
X169932860Y-82112218D01*
X169823371Y-82276079D01*
X169823364Y-82276092D01*
X169747950Y-82458160D01*
X169747947Y-82458170D01*
X169709500Y-82651456D01*
X169709500Y-86829870D01*
X169709501Y-86829876D01*
X169712981Y-86862247D01*
X169700574Y-86931006D01*
X169652963Y-86982143D01*
X169589691Y-86999500D01*
X166624500Y-86999500D01*
X166557461Y-86979815D01*
X166511706Y-86927011D01*
X166500500Y-86875500D01*
X166500500Y-83934110D01*
X166500500Y-83934108D01*
X166466392Y-83806814D01*
X166400500Y-83692686D01*
X166307314Y-83599500D01*
X166250250Y-83566554D01*
X166193187Y-83533608D01*
X166129539Y-83516554D01*
X166065892Y-83499500D01*
X153565892Y-83499500D01*
X153434108Y-83499500D01*
X153306812Y-83533608D01*
X153192686Y-83599500D01*
X153192683Y-83599502D01*
X153099502Y-83692683D01*
X153099500Y-83692686D01*
X153033608Y-83806812D01*
X152999500Y-83934108D01*
X152999500Y-86875500D01*
X152979815Y-86942539D01*
X152927011Y-86988294D01*
X152875500Y-86999500D01*
X143124500Y-86999500D01*
X143057461Y-86979815D01*
X143011706Y-86927011D01*
X143000500Y-86875500D01*
X143000500Y-84249992D01*
X143494671Y-84249992D01*
X143494671Y-84250007D01*
X143513964Y-84544363D01*
X143513965Y-84544373D01*
X143513966Y-84544380D01*
X143513968Y-84544390D01*
X143571518Y-84833716D01*
X143571521Y-84833730D01*
X143666349Y-85113080D01*
X143796825Y-85377660D01*
X143796829Y-85377667D01*
X143960725Y-85622955D01*
X144155241Y-85844758D01*
X144377043Y-86039273D01*
X144622335Y-86203172D01*
X144886923Y-86333652D01*
X145166278Y-86428481D01*
X145455620Y-86486034D01*
X145483888Y-86487886D01*
X145749993Y-86505329D01*
X145750000Y-86505329D01*
X145750007Y-86505329D01*
X145985675Y-86489881D01*
X146044380Y-86486034D01*
X146333722Y-86428481D01*
X146613077Y-86333652D01*
X146877665Y-86203172D01*
X147122957Y-86039273D01*
X147344758Y-85844758D01*
X147539273Y-85622957D01*
X147703172Y-85377665D01*
X147833652Y-85113077D01*
X147928481Y-84833722D01*
X147986034Y-84544380D01*
X148005329Y-84250000D01*
X148005329Y-84249992D01*
X147986035Y-83955636D01*
X147986034Y-83955620D01*
X147928481Y-83666278D01*
X147833652Y-83386923D01*
X147703172Y-83122336D01*
X147539273Y-82877043D01*
X147496655Y-82828447D01*
X147344758Y-82655241D01*
X147122955Y-82460725D01*
X146877667Y-82296829D01*
X146877660Y-82296825D01*
X146613080Y-82166349D01*
X146333730Y-82071521D01*
X146333724Y-82071519D01*
X146333722Y-82071519D01*
X146044380Y-82013966D01*
X146044373Y-82013965D01*
X146044363Y-82013964D01*
X145750007Y-81994671D01*
X145749993Y-81994671D01*
X145455636Y-82013964D01*
X145455624Y-82013965D01*
X145455620Y-82013966D01*
X145455612Y-82013967D01*
X145455609Y-82013968D01*
X145166283Y-82071518D01*
X145166269Y-82071521D01*
X144886919Y-82166349D01*
X144622334Y-82296828D01*
X144377041Y-82460728D01*
X144155241Y-82655241D01*
X143960728Y-82877041D01*
X143796828Y-83122334D01*
X143666349Y-83386919D01*
X143571521Y-83666269D01*
X143571518Y-83666283D01*
X143513968Y-83955609D01*
X143513964Y-83955636D01*
X143494671Y-84249992D01*
X143000500Y-84249992D01*
X143000500Y-67499999D01*
X147894341Y-67499999D01*
X147894341Y-67500000D01*
X147914936Y-67735403D01*
X147914938Y-67735413D01*
X147976094Y-67963655D01*
X147976096Y-67963659D01*
X147976097Y-67963663D01*
X147989390Y-67992169D01*
X148075965Y-68177830D01*
X148075967Y-68177834D01*
X148184281Y-68332521D01*
X148211501Y-68371396D01*
X148211506Y-68371402D01*
X148333818Y-68493714D01*
X148367303Y-68555037D01*
X148362319Y-68624729D01*
X148320447Y-68680662D01*
X148289471Y-68697577D01*
X148157912Y-68746646D01*
X148157906Y-68746649D01*
X148042812Y-68832809D01*
X148042809Y-68832812D01*
X147956649Y-68947906D01*
X147956645Y-68947913D01*
X147906403Y-69082620D01*
X147906401Y-69082627D01*
X147900000Y-69142155D01*
X147900000Y-69790000D01*
X148816988Y-69790000D01*
X148784075Y-69847007D01*
X148750000Y-69974174D01*
X148750000Y-70105826D01*
X148784075Y-70232993D01*
X148816988Y-70290000D01*
X147900000Y-70290000D01*
X147900000Y-70937844D01*
X147906401Y-70997372D01*
X147906403Y-70997379D01*
X147956645Y-71132086D01*
X147956649Y-71132093D01*
X148042809Y-71247187D01*
X148042812Y-71247190D01*
X148157906Y-71333350D01*
X148157913Y-71333354D01*
X148292620Y-71383596D01*
X148292627Y-71383598D01*
X148352155Y-71389999D01*
X148352172Y-71390000D01*
X149000000Y-71390000D01*
X149000000Y-70473012D01*
X149057007Y-70505925D01*
X149184174Y-70540000D01*
X149315826Y-70540000D01*
X149442993Y-70505925D01*
X149500000Y-70473012D01*
X149500000Y-71390000D01*
X150147828Y-71390000D01*
X150147844Y-71389999D01*
X150207372Y-71383598D01*
X150207379Y-71383596D01*
X150342086Y-71333354D01*
X150342093Y-71333350D01*
X150457187Y-71247190D01*
X150457190Y-71247187D01*
X150543350Y-71132093D01*
X150543354Y-71132086D01*
X150593596Y-70997379D01*
X150593598Y-70997372D01*
X150599999Y-70937844D01*
X150600000Y-70937827D01*
X150600000Y-70290000D01*
X149683012Y-70290000D01*
X149715925Y-70232993D01*
X149750000Y-70105826D01*
X149750000Y-69974174D01*
X149715925Y-69847007D01*
X149683012Y-69790000D01*
X150600000Y-69790000D01*
X150600000Y-69142172D01*
X150599999Y-69142155D01*
X150593598Y-69082627D01*
X150593596Y-69082620D01*
X150543354Y-68947913D01*
X150543350Y-68947906D01*
X150457190Y-68832812D01*
X150457187Y-68832809D01*
X150342093Y-68746649D01*
X150342088Y-68746646D01*
X150210528Y-68697577D01*
X150154595Y-68655705D01*
X150130178Y-68590241D01*
X150145030Y-68521968D01*
X150166175Y-68493720D01*
X150288495Y-68371401D01*
X150424035Y-68177830D01*
X150523903Y-67963663D01*
X150585063Y-67735408D01*
X150605659Y-67500000D01*
X150585063Y-67264592D01*
X150538626Y-67091285D01*
X150523905Y-67036344D01*
X150523904Y-67036343D01*
X150523903Y-67036337D01*
X150424035Y-66822171D01*
X150288495Y-66628599D01*
X150288494Y-66628597D01*
X150121402Y-66461506D01*
X150121395Y-66461501D01*
X149927834Y-66325967D01*
X149927830Y-66325965D01*
X149921457Y-66322993D01*
X149713663Y-66226097D01*
X149713659Y-66226096D01*
X149713655Y-66226094D01*
X149485413Y-66164938D01*
X149485403Y-66164936D01*
X149250001Y-66144341D01*
X149249999Y-66144341D01*
X149014596Y-66164936D01*
X149014586Y-66164938D01*
X148786344Y-66226094D01*
X148786335Y-66226098D01*
X148572171Y-66325964D01*
X148572169Y-66325965D01*
X148378597Y-66461505D01*
X148211505Y-66628597D01*
X148075965Y-66822169D01*
X148075964Y-66822171D01*
X147976098Y-67036335D01*
X147976094Y-67036344D01*
X147914938Y-67264586D01*
X147914936Y-67264596D01*
X147894341Y-67499999D01*
X143000500Y-67499999D01*
X143000500Y-58852135D01*
X157149500Y-58852135D01*
X157149500Y-60647870D01*
X157149501Y-60647876D01*
X157155908Y-60707483D01*
X157206202Y-60842328D01*
X157206206Y-60842335D01*
X157292452Y-60957544D01*
X157292455Y-60957547D01*
X157407664Y-61043793D01*
X157407671Y-61043797D01*
X157542517Y-61094091D01*
X157542516Y-61094091D01*
X157549444Y-61094835D01*
X157602127Y-61100500D01*
X159397872Y-61100499D01*
X159457483Y-61094091D01*
X159592331Y-61043796D01*
X159707546Y-60957546D01*
X159793796Y-60842331D01*
X159842810Y-60710916D01*
X159884681Y-60654984D01*
X159950145Y-60630566D01*
X160018418Y-60645417D01*
X160046673Y-60666569D01*
X160168599Y-60788495D01*
X160265384Y-60856265D01*
X160362165Y-60924032D01*
X160362167Y-60924033D01*
X160362170Y-60924035D01*
X160576337Y-61023903D01*
X160804592Y-61085063D01*
X160981034Y-61100500D01*
X161039999Y-61105659D01*
X161040000Y-61105659D01*
X161040001Y-61105659D01*
X161098966Y-61100500D01*
X161275408Y-61085063D01*
X161503663Y-61023903D01*
X161717830Y-60924035D01*
X161911401Y-60788495D01*
X162078495Y-60621401D01*
X162214035Y-60427830D01*
X162313903Y-60213663D01*
X162375063Y-59985408D01*
X162395659Y-59750000D01*
X162375063Y-59514592D01*
X162313903Y-59286337D01*
X162214035Y-59072171D01*
X162163151Y-58999500D01*
X162078494Y-58878597D01*
X161911402Y-58711506D01*
X161911395Y-58711501D01*
X161717834Y-58575967D01*
X161717830Y-58575965D01*
X161668931Y-58553163D01*
X161503663Y-58476097D01*
X161503659Y-58476096D01*
X161503655Y-58476094D01*
X161275413Y-58414938D01*
X161275403Y-58414936D01*
X161040001Y-58394341D01*
X161039999Y-58394341D01*
X160804596Y-58414936D01*
X160804586Y-58414938D01*
X160576344Y-58476094D01*
X160576335Y-58476098D01*
X160362171Y-58575964D01*
X160362169Y-58575965D01*
X160168600Y-58711503D01*
X160046673Y-58833430D01*
X159985350Y-58866914D01*
X159915658Y-58861930D01*
X159859725Y-58820058D01*
X159842810Y-58789081D01*
X159793797Y-58657671D01*
X159793793Y-58657664D01*
X159707547Y-58542455D01*
X159707544Y-58542452D01*
X159592335Y-58456206D01*
X159592328Y-58456202D01*
X159457482Y-58405908D01*
X159457483Y-58405908D01*
X159397883Y-58399501D01*
X159397881Y-58399500D01*
X159397873Y-58399500D01*
X159397864Y-58399500D01*
X157602129Y-58399500D01*
X157602123Y-58399501D01*
X157542516Y-58405908D01*
X157407671Y-58456202D01*
X157407664Y-58456206D01*
X157292455Y-58542452D01*
X157292452Y-58542455D01*
X157206206Y-58657664D01*
X157206202Y-58657671D01*
X157155908Y-58792517D01*
X157149501Y-58852116D01*
X157149500Y-58852135D01*
X143000500Y-58852135D01*
X143000500Y-57749992D01*
X241574671Y-57749992D01*
X241574671Y-57750007D01*
X241593964Y-58044363D01*
X241593965Y-58044373D01*
X241593966Y-58044380D01*
X241593968Y-58044390D01*
X241651518Y-58333716D01*
X241651521Y-58333730D01*
X241746349Y-58613080D01*
X241876825Y-58877660D01*
X241876829Y-58877667D01*
X242040725Y-59122955D01*
X242235241Y-59344758D01*
X242428893Y-59514586D01*
X242457043Y-59539273D01*
X242702335Y-59703172D01*
X242966923Y-59833652D01*
X243246278Y-59928481D01*
X243535620Y-59986034D01*
X243563888Y-59987886D01*
X243829993Y-60005329D01*
X243830000Y-60005329D01*
X243830007Y-60005329D01*
X244065675Y-59989881D01*
X244124380Y-59986034D01*
X244413722Y-59928481D01*
X244693077Y-59833652D01*
X244957665Y-59703172D01*
X245202957Y-59539273D01*
X245424758Y-59344758D01*
X245619273Y-59122957D01*
X245783172Y-58877665D01*
X245913652Y-58613077D01*
X246008481Y-58333722D01*
X246066034Y-58044380D01*
X246085329Y-57750000D01*
X246085329Y-57749992D01*
X246066035Y-57455636D01*
X246066034Y-57455620D01*
X246008481Y-57166278D01*
X245913652Y-56886923D01*
X245783172Y-56622336D01*
X245619273Y-56377043D01*
X245576655Y-56328447D01*
X245424758Y-56155241D01*
X245202955Y-55960725D01*
X244957667Y-55796829D01*
X244957660Y-55796825D01*
X244693080Y-55666349D01*
X244413730Y-55571521D01*
X244413724Y-55571519D01*
X244413722Y-55571519D01*
X244124380Y-55513966D01*
X244124373Y-55513965D01*
X244124363Y-55513964D01*
X243830007Y-55494671D01*
X243829993Y-55494671D01*
X243535636Y-55513964D01*
X243535624Y-55513965D01*
X243535620Y-55513966D01*
X243535612Y-55513967D01*
X243535609Y-55513968D01*
X243246283Y-55571518D01*
X243246269Y-55571521D01*
X242966919Y-55666349D01*
X242702334Y-55796828D01*
X242457041Y-55960728D01*
X242235241Y-56155241D01*
X242040728Y-56377041D01*
X241876828Y-56622334D01*
X241746349Y-56886919D01*
X241651521Y-57166269D01*
X241651518Y-57166283D01*
X241593968Y-57455609D01*
X241593964Y-57455636D01*
X241574671Y-57749992D01*
X143000500Y-57749992D01*
X143000500Y-55124500D01*
X143020185Y-55057461D01*
X143072989Y-55011706D01*
X143124500Y-55000500D01*
X246375500Y-55000500D01*
X246442539Y-55020185D01*
G37*
%TD.AperFunction*%
%TD*%
M02*
