M48
; DRILL file {KiCad 8.0.2} date 2024-05-05T23:04:00-0700
; FORMAT={-:-/ absolute / inch / decimal}
; #@! TF.CreationDate,2024-05-05T23:04:00-07:00
; #@! TF.GenerationSoftware,Kicad,Pcbnew,8.0.2
; #@! TF.FileFunction,Plated,1,2,PTH
FMAT,2
INCH
; #@! TA.AperFunction,Plated,PTH,ComponentDrill
T1C0.0236
; #@! TA.AperFunction,Plated,PTH,ComponentDrill
T2C0.0256
; #@! TA.AperFunction,Plated,PTH,ComponentDrill
T3C0.0276
; #@! TA.AperFunction,Plated,PTH,ComponentDrill
T4C0.0394
; #@! TA.AperFunction,Plated,PTH,ComponentDrill
T5C0.0430
; #@! TA.AperFunction,Plated,PTH,ComponentDrill
T6C0.0571
%
G90
G05
T2
X8.9469Y-2.8217
X8.9469Y-2.8717
X8.9469Y-2.9217
X8.9469Y-2.9717
X8.9469Y-3.0217
T3
X6.7209Y-3.2776
X6.7224Y-3.75
X6.7709Y-3.2776
X6.7724Y-3.75
X6.8209Y-3.2776
X6.8224Y-3.75
X6.8709Y-3.2776
X6.8724Y-3.75
X6.9209Y-3.2776
X6.9224Y-3.75
X6.9709Y-3.2776
X6.9724Y-3.75
X7.0209Y-3.2776
X7.0224Y-3.75
X7.0709Y-3.2776
X7.0724Y-3.75
X7.1209Y-3.2776
X7.1224Y-3.75
X7.1709Y-3.2776
X7.1724Y-3.75
X7.2209Y-3.2776
X7.2224Y-3.75
X7.2709Y-3.2776
X7.2724Y-3.75
X7.3209Y-3.2776
X7.3224Y-3.75
X7.3709Y-3.2776
X7.3724Y-3.75
X7.4209Y-3.2776
X7.4224Y-3.75
X7.4709Y-3.2776
X7.4724Y-3.75
X7.5209Y-3.2776
X7.5224Y-3.75
X7.5709Y-3.2776
X7.5724Y-3.75
X7.6209Y-3.2776
X7.6224Y-3.75
X7.6709Y-3.2776
X7.6724Y-3.75
X7.7209Y-3.2776
X7.7224Y-3.75
X7.7709Y-3.2776
X7.7724Y-3.75
X7.8209Y-3.2776
X7.8224Y-3.75
X7.8709Y-3.2776
X7.8724Y-3.75
X7.9209Y-3.2776
X7.9224Y-3.75
X7.9709Y-3.2776
X7.9724Y-3.75
X8.0209Y-3.2776
X8.0224Y-3.75
X8.0709Y-3.2776
X8.0724Y-3.75
T4
X5.876Y-2.6575
X5.876Y-2.7575
X6.2402Y-2.3524
X6.3402Y-2.3524
X8.7205Y-2.6035
X8.7205Y-2.7035
X8.7205Y-2.8035
X8.7205Y-2.9035
X8.7205Y-3.0035
T5
X6.8024Y-2.4067
X6.8024Y-3.0067
X6.9024Y-2.4067
X6.9024Y-3.0067
X6.9274Y-2.5317
X6.9274Y-2.6317
X6.9274Y-2.7317
X7.0024Y-2.4067
X7.0024Y-2.5067
X7.0024Y-2.6067
X7.0024Y-2.7067
X7.0024Y-3.0067
X7.1024Y-2.4067
X7.1024Y-3.0067
X7.2024Y-2.4067
X7.2024Y-3.0067
X7.3024Y-2.4067
X7.3024Y-3.0067
X7.4024Y-2.4067
X7.4024Y-3.0067
X7.5024Y-2.4067
X7.5024Y-3.0067
X7.6024Y-2.4067
X7.6024Y-3.0067
X7.7024Y-2.4067
X7.7024Y-3.0067
X7.8024Y-2.4067
X7.8024Y-3.0067
X7.9024Y-2.4067
X7.9024Y-3.0067
T6
X2.2736Y-4.0157
X2.2736Y-5.4331
X2.2736Y-7.5591
X2.3622Y-6.1417
X2.4736Y-4.0157
X2.4736Y-4.3657
X2.4736Y-5.4331
X2.4736Y-5.7831
X2.4736Y-7.5591
X2.4736Y-7.9091
X2.5394Y-6.8504
X2.5622Y-6.1417
X2.5622Y-6.4917
X2.628Y-4.7244
X2.6736Y-4.0157
X2.6736Y-5.4331
X2.6736Y-7.5591
X2.7394Y-6.8504
X2.7394Y-7.2004
X2.7622Y-6.1417
X2.828Y-4.7244
X2.828Y-5.0744
X2.9394Y-6.8504
X2.9823Y-4.0157
X2.9823Y-5.4331
X2.9823Y-7.5591
X3.028Y-4.7244
X3.1594Y-6.1417
X3.1823Y-4.0157
X3.1823Y-4.3657
X3.1823Y-5.4331
X3.1823Y-5.7831
X3.1823Y-7.5591
X3.1823Y-7.9091
X3.3366Y-4.7244
X3.3594Y-6.1417
X3.3594Y-6.4917
X3.3823Y-4.0157
X3.3823Y-5.4331
X3.3823Y-7.5591
X3.5138Y-6.8504
X3.5366Y-4.7244
X3.5366Y-5.0744
X3.5594Y-6.1417
X3.6909Y-4.0157
X3.6909Y-5.4331
X3.6909Y-7.5591
X3.7138Y-6.8504
X3.7138Y-7.2004
X3.7366Y-4.7244
X3.8681Y-6.1417
X3.8909Y-4.0157
X3.8909Y-4.3657
X3.8909Y-5.4331
X3.8909Y-5.7831
X3.8909Y-7.5591
X3.8909Y-7.9091
X3.9138Y-6.8504
X4.0453Y-4.7244
X4.0681Y-6.1417
X4.0681Y-6.4917
X4.0909Y-4.0157
X4.0909Y-5.4331
X4.0909Y-7.5591
X4.2224Y-6.8504
X4.2453Y-4.7244
X4.2453Y-5.0744
X4.2681Y-6.1417
X4.3996Y-4.0157
X4.3996Y-5.4331
X4.3996Y-7.5591
X4.4224Y-6.8504
X4.4224Y-7.2004
X4.4453Y-4.7244
X4.5768Y-6.1417
X4.5996Y-4.0157
X4.5996Y-4.3657
X4.5996Y-5.4331
X4.5996Y-5.7831
X4.5996Y-7.5591
X4.5996Y-7.9091
X4.6224Y-6.8504
X4.7539Y-4.7244
X4.7768Y-6.1417
X4.7768Y-6.4917
X4.7996Y-4.0157
X4.7996Y-5.4331
X4.7996Y-7.5591
X4.9311Y-6.8504
X4.9539Y-4.7244
X4.9539Y-5.0744
X4.9768Y-6.1417
X5.1083Y-4.0157
X5.1083Y-5.4331
X5.1311Y-6.8504
X5.1311Y-7.2004
X5.1539Y-4.7244
X5.2854Y-6.1417
X5.3083Y-4.0157
X5.3083Y-4.3657
X5.3083Y-5.4331
X5.3083Y-5.7831
X5.3311Y-6.8504
X5.4626Y-4.7244
X5.4854Y-6.1417
X5.4854Y-6.4917
X5.5083Y-4.0157
X5.5083Y-5.4331
X5.6398Y-6.8504
X5.6626Y-4.7244
X5.6626Y-5.0744
X5.6854Y-6.1417
X5.8169Y-4.0157
X5.8169Y-5.4331
X5.8398Y-6.8504
X5.8398Y-7.2004
X5.8626Y-4.7244
X5.9941Y-6.1417
X6.0169Y-4.0157
X6.0169Y-4.3657
X6.0169Y-5.4331
X6.0169Y-5.7831
X6.0398Y-6.8504
X6.1713Y-4.7244
X6.1941Y-6.1417
X6.1941Y-6.4917
X6.2169Y-4.0157
X6.2169Y-5.4331
X6.3484Y-6.8504
X6.3713Y-4.7244
X6.3713Y-5.0744
X6.3941Y-6.1417
X6.5256Y-4.0157
X6.5256Y-5.4331
X6.5256Y-7.5591
X6.5484Y-6.8504
X6.5484Y-7.2004
X6.5713Y-4.7244
X6.7028Y-6.1417
X6.7256Y-4.0157
X6.7256Y-4.3657
X6.7256Y-5.4331
X6.7256Y-5.7831
X6.7256Y-7.5591
X6.7256Y-7.9091
X6.7484Y-6.8504
X6.8799Y-4.7244
X6.9028Y-6.1417
X6.9028Y-6.4917
X6.9256Y-4.0157
X6.9256Y-5.4331
X6.9256Y-7.5591
X7.0571Y-6.8504
X7.0799Y-4.7244
X7.0799Y-5.0744
X7.1028Y-6.1417
X7.2343Y-4.0157
X7.2343Y-5.4331
X7.2571Y-6.8504
X7.2571Y-7.2004
X7.2799Y-4.7244
X7.4114Y-6.1417
X7.4343Y-4.0157
X7.4343Y-4.3657
X7.4343Y-5.4331
X7.4343Y-5.7831
X7.4571Y-6.8504
X7.5886Y-4.7244
X7.6114Y-6.1417
X7.6114Y-6.4917
X7.6343Y-4.0157
X7.6343Y-5.4331
X7.7657Y-6.8504
X7.7886Y-4.7244
X7.7886Y-5.0744
X7.8114Y-6.1417
X7.9429Y-4.0157
X7.9429Y-5.4331
X7.9657Y-6.8504
X7.9657Y-7.2004
X7.9886Y-4.7244
X8.1201Y-6.1417
X8.1429Y-4.0157
X8.1429Y-4.3657
X8.1429Y-5.4331
X8.1429Y-5.7831
X8.1657Y-6.8504
X8.2972Y-4.7244
X8.3201Y-6.1417
X8.3201Y-6.4917
X8.3429Y-4.0157
X8.3429Y-5.4331
X8.4744Y-6.8504
X8.4972Y-4.7244
X8.4972Y-5.0744
X8.5201Y-6.1417
X8.6516Y-4.0157
X8.6516Y-5.4331
X8.6516Y-7.5591
X8.6744Y-6.8504
X8.6744Y-7.2004
X8.6972Y-4.7244
X8.8287Y-6.1417
X8.8516Y-4.0157
X8.8516Y-4.3657
X8.8516Y-5.4331
X8.8516Y-5.7831
X8.8516Y-7.5591
X8.8516Y-7.9091
X8.8744Y-6.8504
X9.0059Y-4.7244
X9.0287Y-6.1417
X9.0287Y-6.4917
X9.0516Y-4.0157
X9.0516Y-5.4331
X9.0516Y-7.5591
X9.1831Y-6.8504
X9.2059Y-4.7244
X9.2059Y-5.0744
X9.2287Y-6.1417
X9.3602Y-4.0157
X9.3602Y-5.4331
X9.3602Y-7.5591
X9.3831Y-6.8504
X9.3831Y-7.2004
X9.4059Y-4.7244
X9.5374Y-6.1417
X9.5602Y-4.0157
X9.5602Y-4.3657
X9.5602Y-5.4331
X9.5602Y-5.7831
X9.5602Y-7.5591
X9.5602Y-7.9091
X9.5831Y-6.8504
X9.7146Y-4.7244
X9.7374Y-6.1417
X9.7374Y-6.4917
X9.7602Y-4.0157
X9.7602Y-5.4331
X9.7602Y-7.5591
X9.8524Y-6.8504
X9.9146Y-4.7244
X9.9146Y-5.0744
X9.9374Y-6.1417
X10.0524Y-6.8504
X10.0524Y-7.2004
X10.0689Y-4.0157
X10.0689Y-5.4331
X10.0689Y-7.5591
X10.1146Y-4.7244
X10.2461Y-6.1417
X10.2524Y-6.8504
X10.2689Y-4.0157
X10.2689Y-4.3657
X10.2689Y-5.4331
X10.2689Y-5.7831
X10.2689Y-7.5591
X10.2689Y-7.9091
X10.4232Y-4.7244
X10.4461Y-6.1417
X10.4461Y-6.4917
X10.4689Y-4.0157
X10.4689Y-5.4331
X10.4689Y-7.5591
X10.6102Y-6.8504
X10.6232Y-4.7244
X10.6232Y-5.0744
X10.6461Y-6.1417
X10.7382Y-4.0157
X10.7382Y-5.4331
X10.7382Y-7.5591
X10.8102Y-6.8504
X10.8102Y-7.2004
X10.8232Y-4.7244
X10.9382Y-4.0157
X10.9382Y-4.3657
X10.9382Y-5.4331
X10.9382Y-5.7831
X10.9382Y-7.5591
X10.9382Y-7.9091
X11.0102Y-6.8504
X11.1382Y-4.0157
X11.1382Y-5.4331
X11.1382Y-7.5591
X11.1417Y-6.1417
X11.2303Y-4.7244
X11.3417Y-6.1417
X11.3417Y-6.4917
X11.3681Y-4.0157
X11.3681Y-5.4331
X11.3681Y-6.8504
X11.3681Y-7.5591
X11.4303Y-4.7244
X11.4303Y-5.0744
X11.5417Y-6.1417
X11.5681Y-4.0157
X11.5681Y-4.3657
X11.5681Y-5.4331
X11.5681Y-5.7831
X11.5681Y-6.8504
X11.5681Y-7.2004
X11.5681Y-7.5591
X11.5681Y-7.9091
X11.6303Y-4.7244
X11.7681Y-4.0157
X11.7681Y-5.4331
X11.7681Y-6.8504
X11.7681Y-7.5591
X11.998Y-4.0157
X11.998Y-4.7244
X11.998Y-5.4331
X11.998Y-6.1417
X11.998Y-6.8504
X11.998Y-7.5591
X12.198Y-4.0157
X12.198Y-4.3657
X12.198Y-4.7244
X12.198Y-5.0744
X12.198Y-5.4331
X12.198Y-5.7831
X12.198Y-6.1417
X12.198Y-6.4917
X12.198Y-6.8504
X12.198Y-7.2004
X12.198Y-7.5591
X12.198Y-7.9091
X12.398Y-4.0157
X12.398Y-4.7244
X12.398Y-5.4331
X12.398Y-6.1417
X12.398Y-6.8504
X12.398Y-7.5591
T1
G00X9.4382Y-2.7465
M15
G01X9.4815Y-2.7465
M16
G05
G00X9.4382Y-3.0866
M15
G01X9.4815Y-3.0866
M16
G05
G00X9.6126Y-2.7465
M15
G01X9.6362Y-2.7465
M16
G05
G00X9.6126Y-3.0866
M15
G01X9.6362Y-3.0866
M16
G05
M30
