%TF.GenerationSoftware,KiCad,Pcbnew,8.0.2*%
%TF.CreationDate,2024-05-05T23:04:00-07:00*%
%TF.ProjectId,g84_dropin,6738345f-6472-46f7-9069-6e2e6b696361,rev?*%
%TF.SameCoordinates,Original*%
%TF.FileFunction,Profile,NP*%
%FSLAX46Y46*%
G04 Gerber Fmt 4.6, Leading zero omitted, Abs format (unit mm)*
G04 Created by KiCad (PCBNEW 8.0.2) date 2024-05-05 23:04:00*
%MOMM*%
%LPD*%
G01*
G04 APERTURE LIST*
%TA.AperFunction,Profile*%
%ADD10C,0.050000*%
%TD*%
G04 APERTURE END LIST*
D10*
X305500000Y-205250000D02*
G75*
G02*
X306000000Y-204750000I500000J0D01*
G01*
X65000000Y-204750000D02*
G75*
G02*
X65500000Y-205250000I0J-500000D01*
G01*
X254000000Y-90250000D02*
G75*
G02*
X253500000Y-90750000I-500000J0D01*
G01*
X187500000Y-204750000D02*
G75*
G02*
X188000000Y-205250000I0J-500000D01*
G01*
X183000000Y-205250000D02*
G75*
G02*
X183500000Y-204750000I500000J0D01*
G01*
X241500000Y-204750000D02*
G75*
G02*
X242000000Y-205250000I0J-500000D01*
G01*
X230000000Y-205250000D02*
G75*
G02*
X230500000Y-204750000I500001J-1D01*
G01*
X242000000Y-205250000D02*
X242000000Y-210250000D01*
X230500000Y-204750000D02*
X241500000Y-204750000D01*
X230000000Y-210250000D02*
X230000000Y-205250000D01*
X140500000Y-204750000D02*
G75*
G02*
X141000000Y-205250000I0J-500000D01*
G01*
X129000000Y-205250000D02*
G75*
G02*
X129500000Y-204750000I500000J0D01*
G01*
X318500000Y-153250000D02*
G75*
G02*
X318000000Y-152750000I1J500001D01*
G01*
X318000000Y-148250000D02*
G75*
G02*
X318500000Y-147750000I500001J-1D01*
G01*
X318500000Y-153250000D02*
X321000000Y-153250000D01*
X318000000Y-152750000D02*
X318000000Y-148250000D01*
X318500000Y-147750000D02*
X321000000Y-147750000D01*
X53000000Y-147750000D02*
G75*
G02*
X53500000Y-148250000I0J-500000D01*
G01*
X243500000Y-95250000D02*
G75*
G02*
X243000000Y-95750000I-500001J1D01*
G01*
X230500000Y-95750000D02*
G75*
G02*
X230000000Y-95250000I1J500001D01*
G01*
X243500000Y-95250000D02*
X243500000Y-90750000D01*
X230000000Y-90750000D02*
X230000000Y-95250000D01*
X230500000Y-95750000D02*
X243000000Y-95750000D01*
X142500000Y-95250000D02*
G75*
G02*
X142000000Y-95750000I-500001J1D01*
G01*
X129500000Y-95750000D02*
G75*
G02*
X129000000Y-95250000I1J500001D01*
G01*
X72000000Y-95750000D02*
G75*
G02*
X71500000Y-96250000I-500001J1D01*
G01*
X300000000Y-96250000D02*
G75*
G02*
X299500000Y-95750000I0J500000D01*
G01*
X80000000Y-208750000D02*
G75*
G02*
X83000000Y-208750000I1500000J0D01*
G01*
X288000000Y-208750000D02*
G75*
G02*
X291000000Y-208750000I1500000J0D01*
G01*
X297000000Y-93250000D02*
G75*
G02*
X294000000Y-93250000I-1500000J0D01*
G01*
X249250000Y-209250000D02*
X252250000Y-209250000D01*
X249250000Y-206750000D02*
X252250000Y-206750000D01*
X252250000Y-206750000D02*
G75*
G02*
X252250000Y-209250000I0J-1250000D01*
G01*
X249250000Y-209250000D02*
G75*
G02*
X249250000Y-206750000I0J1250000D01*
G01*
X193750000Y-209250000D02*
X196750000Y-209250000D01*
X193750000Y-206750000D02*
X196750000Y-206750000D01*
X196750000Y-206750000D02*
G75*
G02*
X196750000Y-209250000I0J-1250000D01*
G01*
X193750000Y-209250000D02*
G75*
G02*
X193750000Y-206750000I0J1250000D01*
G01*
X118750000Y-209250000D02*
X121750000Y-209250000D01*
X118750000Y-206750000D02*
X121750000Y-206750000D01*
X121750000Y-206750000D02*
G75*
G02*
X121750000Y-209250000I0J-1250000D01*
G01*
X118750000Y-209250000D02*
G75*
G02*
X118750000Y-206750000I0J1250000D01*
G01*
X247250000Y-95750000D02*
X250250000Y-95750000D01*
X247250000Y-93250000D02*
X250250000Y-93250000D01*
X250250000Y-93250000D02*
G75*
G02*
X250250000Y-95750000I0J-1250000D01*
G01*
X247250000Y-95750000D02*
G75*
G02*
X247250000Y-93250000I0J1250000D01*
G01*
X145750000Y-95750000D02*
X148750000Y-95750000D01*
X145750000Y-93250000D02*
X148750000Y-93250000D01*
X148750000Y-93250000D02*
G75*
G02*
X148750000Y-95750000I0J-1250000D01*
G01*
X145750000Y-95750000D02*
G75*
G02*
X145750000Y-93250000I0J1250000D01*
G01*
X83500000Y-93250000D02*
G75*
G02*
X80500000Y-93250000I-1500000J0D01*
G01*
X147500000Y-84250000D02*
G75*
G02*
X144000000Y-84250000I-1750000J0D01*
G01*
X144000000Y-84250000D02*
G75*
G02*
X147500000Y-84250000I1750000J0D01*
G01*
X245580000Y-57750000D02*
G75*
G02*
X242080000Y-57750000I-1750000J0D01*
G01*
X242080000Y-57750000D02*
G75*
G02*
X245580000Y-57750000I1750000J0D01*
G01*
X80000000Y-210250000D02*
X80000000Y-208750000D01*
X247000000Y-54500000D02*
X142500000Y-54500000D01*
X200000000Y-87500000D02*
X200000000Y-90750000D01*
X190000000Y-90750000D02*
X200000000Y-90750000D01*
X183500000Y-204750000D02*
X187500000Y-204750000D01*
X299500000Y-88750000D02*
X299500000Y-95750000D01*
X204830000Y-87500000D02*
X209500000Y-87500000D01*
X142500000Y-87500000D02*
X153500000Y-87500000D01*
X53000000Y-153250000D02*
X50500000Y-153250000D01*
X242000000Y-210250000D02*
X288000000Y-210250000D01*
X254000000Y-88750000D02*
X294000000Y-88750000D01*
X80500000Y-90750000D02*
X80500000Y-93250000D01*
X50500000Y-153250000D02*
X50500000Y-204750000D01*
X65500000Y-210250000D02*
X80000000Y-210250000D01*
X129500000Y-95750000D02*
X142000000Y-95750000D01*
X65000000Y-204750000D02*
X50500000Y-204750000D01*
X247000000Y-82000000D02*
X247000000Y-54500000D01*
X129000000Y-210250000D02*
X129000000Y-205250000D01*
X166000000Y-84000000D02*
X166000000Y-87500000D01*
X300000000Y-96250000D02*
X321000000Y-96250000D01*
X321000000Y-147750000D02*
X321000000Y-96250000D01*
X50500000Y-96250000D02*
X71500000Y-96250000D01*
X72000000Y-90750000D02*
X80500000Y-90750000D01*
X129500000Y-204750000D02*
X140500000Y-204750000D01*
X129000000Y-90750000D02*
X129000000Y-95250000D01*
X83500000Y-93250000D02*
X83500000Y-90750000D01*
X171000000Y-90750000D02*
X142500000Y-90750000D01*
X83000000Y-210250000D02*
X129000000Y-210250000D01*
X83500000Y-90750000D02*
X129000000Y-90750000D01*
X141000000Y-205250000D02*
X141000000Y-210250000D01*
X83000000Y-208750000D02*
X83000000Y-210250000D01*
X297000000Y-88750000D02*
X299500000Y-88750000D01*
X297000000Y-93250000D02*
X297000000Y-88750000D01*
X243500000Y-90750000D02*
X253500000Y-90750000D01*
X175500000Y-90750000D02*
X184500000Y-90750000D01*
X305500000Y-205250000D02*
X305500000Y-210250000D01*
X188000000Y-210250000D02*
X230000000Y-210250000D01*
X175500000Y-87500000D02*
X184500000Y-87500000D01*
X291000000Y-208750000D02*
X291000000Y-210250000D01*
X294000000Y-88750000D02*
X294000000Y-93250000D01*
X171000000Y-87500000D02*
X171000000Y-90750000D01*
X142500000Y-95250000D02*
X142500000Y-90750000D01*
X153500000Y-87500000D02*
X153500000Y-84000000D01*
X171000000Y-87500000D02*
X166000000Y-87500000D01*
X72000000Y-95750000D02*
X72000000Y-90750000D01*
X53500000Y-148250000D02*
X53500000Y-152750000D01*
X184500000Y-87500000D02*
X184500000Y-90750000D01*
X229500000Y-82000000D02*
X247000000Y-82000000D01*
X288000000Y-210250000D02*
X288000000Y-208750000D01*
X183000000Y-210250000D02*
X183000000Y-205250000D01*
X190000000Y-87500000D02*
X200000000Y-87500000D01*
X204830000Y-87500000D02*
X204830000Y-90750000D01*
X229500000Y-87500000D02*
X229500000Y-82000000D01*
X141000000Y-210250000D02*
X183000000Y-210250000D01*
X75000000Y-204750000D02*
G75*
G02*
X70500000Y-204750000I-2250000J0D01*
G01*
X70500000Y-204750000D02*
G75*
G02*
X75000000Y-204750000I2250000J0D01*
G01*
X209500000Y-87500000D02*
X209500000Y-84000000D01*
X321000000Y-204750000D02*
X306000000Y-204750000D01*
X190000000Y-87500000D02*
X190000000Y-90750000D01*
X254000000Y-90250000D02*
X254000000Y-88750000D01*
X222000000Y-84000000D02*
X222000000Y-87500000D01*
X204830000Y-90750000D02*
X230000000Y-90750000D01*
X65500000Y-210250000D02*
X65500000Y-205250000D01*
X291000000Y-210250000D02*
X305500000Y-210250000D01*
X153500000Y-84000000D02*
X166000000Y-84000000D01*
X209500000Y-84000000D02*
X222000000Y-84000000D01*
X50500000Y-96250000D02*
X50500000Y-147750000D01*
X142500000Y-87500000D02*
X142500000Y-54500000D01*
X321000000Y-204750000D02*
X321000000Y-153250000D01*
X188000000Y-205250000D02*
X188000000Y-210250000D01*
X53000000Y-147750000D02*
X50500000Y-147750000D01*
X222000000Y-87500000D02*
X229500000Y-87500000D01*
X175500000Y-87500000D02*
X175500000Y-90750000D01*
X53500000Y-152750000D02*
G75*
G02*
X53000000Y-153250000I-500000J0D01*
G01*
M02*
